<svg xmlns="http://www.w3.org/2000/svg" width="897" height="957" viewBox="0 0 897 957"><rect width="100%" height="100%" fill="white"/><text x="24.0" y="755.0" font-family="Arial, Helvetica, sans-serif" font-size="16" fill="#111" text-anchor="start" font-weight="bold">F13 transformers straight off the utility — Single Line</text><text x="24.0" y="771.0" font-family="Arial, Helvetica, sans-serif" font-size="16" fill="#111" text-anchor="start" font-weight="bold">Diagram (sketch)</text><g data-id="MV1" data-kind="mv incomer"><line x1="322.3" y1="62.0" x2="344.3" y2="62.0" stroke="#111" stroke-width="3" stroke-linecap="round"/><text x="333.3" y="18.0" font-family="Arial, Helvetica, sans-serif" font-size="11.5" fill="#111" text-anchor="middle" font-weight="bold">MV1</text><text x="333.3" y="32.0" font-family="Arial, Helvetica, sans-serif" font-size="11.5" fill="#111" text-anchor="middle">Utility supply</text><text x="333.3" y="46.0" font-family="Arial, Helvetica, sans-serif" font-size="11.5" fill="#111" text-anchor="middle">11 kV</text><line x1="333.3" y1="62.0" x2="333.3" y2="102.0" stroke="#111" stroke-width="2" stroke-linecap="round"/><line x1="288.3" y1="102.0" x2="378.3" y2="102.0" stroke="#111" stroke-width="2" stroke-linecap="round"/><circle cx="288.3" cy="102.0" r="3.2" fill="#111"/><line x1="288.3" y1="102.0" x2="288.3" y2="323.0" stroke="#111" stroke-width="2" stroke-linecap="round"/><circle cx="378.3" cy="102.0" r="3.2" fill="#111"/><line x1="378.3" y1="102.0" x2="378.3" y2="323.0" stroke="#111" stroke-width="2" stroke-linecap="round"/></g><g data-id="TX1" data-kind="transformer"><circle cx="288.3" cy="342.0" r="19" fill="none" stroke="#111" stroke-width="2.2"/><circle cx="288.3" cy="369.0" r="19" fill="none" stroke="#111" stroke-width="2.2"/><text x="259.3" y="336.0" font-family="Arial, Helvetica, sans-serif" font-size="12" fill="#111" text-anchor="end">TX1</text><text x="259.3" y="351.0" font-family="Arial, Helvetica, sans-serif" font-size="12" fill="#111" text-anchor="end">Substation 1</text><text x="259.3" y="366.0" font-family="Arial, Helvetica, sans-serif" font-size="12" fill="#111" text-anchor="end">1000 kVA 11/0.4 kV</text><line x1="288.3" y1="388.0" x2="288.3" y2="402.0" stroke="#111" stroke-width="2" stroke-linecap="round"/><line x1="288.3" y1="402.0" x2="211.7" y2="402.0" stroke="#111" stroke-width="2" stroke-linecap="round"/><line x1="211.7" y1="431.0" x2="211.7" y2="433.0" stroke="#111" stroke-width="2" stroke-linecap="round"/><line x1="208.2" y1="433.0" x2="215.2" y2="440.0" stroke="#111" stroke-width="2" stroke-linecap="round"/><line x1="208.2" y1="440.0" x2="215.2" y2="433.0" stroke="#111" stroke-width="2" stroke-linecap="round"/><line x1="213.7" y1="439.5" x2="220.7" y2="448.0" stroke="#111" stroke-width="2" stroke-linecap="round"/><line x1="205.7" y1="448.0" x2="217.7" y2="448.0" stroke="#111" stroke-width="2" stroke-linecap="round"/><line x1="211.7" y1="448.0" x2="211.7" y2="457.0" stroke="#111" stroke-width="2" stroke-linecap="round"/><line x1="211.7" y1="402.0" x2="211.7" y2="431.0" stroke="#111" stroke-width="2" stroke-linecap="round"/><line x1="211.7" y1="457.0" x2="211.7" y2="486.0" stroke="#111" stroke-width="2" stroke-linecap="round"/><circle cx="211.7" cy="486.0" r="3.2" fill="#111"/></g><g data-id="TX2" data-kind="transformer"><circle cx="378.3" cy="342.0" r="19" fill="none" stroke="#111" stroke-width="2.2"/><circle cx="378.3" cy="369.0" r="19" fill="none" stroke="#111" stroke-width="2.2"/><text x="407.3" y="336.0" font-family="Arial, Helvetica, sans-serif" font-size="12" fill="#111" text-anchor="start">TX2</text><text x="407.3" y="351.0" font-family="Arial, Helvetica, sans-serif" font-size="12" fill="#111" text-anchor="start">Substation 2</text><text x="407.3" y="366.0" font-family="Arial, Helvetica, sans-serif" font-size="12" fill="#111" text-anchor="start">1000 kVA 11/0.4 kV</text><line x1="378.3" y1="388.0" x2="378.3" y2="402.0" stroke="#111" stroke-width="2" stroke-linecap="round"/><line x1="378.3" y1="402.0" x2="455.0" y2="402.0" stroke="#111" stroke-width="2" stroke-linecap="round"/><line x1="455.0" y1="431.0" x2="455.0" y2="433.0" stroke="#111" stroke-width="2" stroke-linecap="round"/><line x1="451.5" y1="433.0" x2="458.5" y2="440.0" stroke="#111" stroke-width="2" stroke-linecap="round"/><line x1="451.5" y1="440.0" x2="458.5" y2="433.0" stroke="#111" stroke-width="2" stroke-linecap="round"/><line x1="457.0" y1="439.5" x2="464.0" y2="448.0" stroke="#111" stroke-width="2" stroke-linecap="round"/><line x1="449.0" y1="448.0" x2="461.0" y2="448.0" stroke="#111" stroke-width="2" stroke-linecap="round"/><line x1="455.0" y1="448.0" x2="455.0" y2="457.0" stroke="#111" stroke-width="2" stroke-linecap="round"/><line x1="455.0" y1="402.0" x2="455.0" y2="431.0" stroke="#111" stroke-width="2" stroke-linecap="round"/><line x1="455.0" y1="457.0" x2="455.0" y2="486.0" stroke="#111" stroke-width="2" stroke-linecap="round"/><circle cx="455.0" cy="486.0" r="3.2" fill="#111"/></g><g data-id="LV1" data-kind="lv busbar"><line x1="90.0" y1="486.0" x2="576.6" y2="486.0" stroke="#111" stroke-width="5.5" stroke-linecap="round"/></g><g data-id="F11" data-kind="feeder"><circle cx="333.3" cy="486.0" r="3.2" fill="#111"/><line x1="333.3" y1="503.0" x2="333.3" y2="505.0" stroke="#111" stroke-width="2" stroke-linecap="round"/><line x1="329.8" y1="505.0" x2="336.8" y2="512.0" stroke="#111" stroke-width="2" stroke-linecap="round"/><line x1="329.8" y1="512.0" x2="336.8" y2="505.0" stroke="#111" stroke-width="2" stroke-linecap="round"/><line x1="335.3" y1="511.5" x2="342.3" y2="520.0" stroke="#111" stroke-width="2" stroke-linecap="round"/><line x1="327.3" y1="520.0" x2="339.3" y2="520.0" stroke="#111" stroke-width="2" stroke-linecap="round"/><line x1="333.3" y1="520.0" x2="333.3" y2="529.0" stroke="#111" stroke-width="2" stroke-linecap="round"/><line x1="333.3" y1="486.0" x2="333.3" y2="503.0" stroke="#111" stroke-width="2" stroke-linecap="round"/><line x1="333.3" y1="529.0" x2="333.3" y2="564.0" stroke="#111" stroke-width="2" stroke-linecap="round"/><polygon points="327.3,563.0 339.3,563.0 333.3,574.0" fill="#111"/><text x="0" y="0" transform="translate(337.3,592.0) rotate(90)" font-family="Arial, Helvetica, sans-serif" font-size="11" fill="#111" text-anchor="start">F11 · Board 1 · 250 A</text></g><text x="219.7" y="474.0" font-family="Arial, Helvetica, sans-serif" font-size="11.5" fill="#111" text-anchor="start" font-weight="bold">LV1 Main board 2500 A 400 V</text><rect x="584.6" y="681.0" width="288.0" height="96.0" fill="none" stroke="#111" stroke-width="1.5"/><line x1="584.6" y1="705.0" x2="872.6" y2="705.0" stroke="#111" stroke-width="1.5" stroke-linecap="round"/><text x="594.6" y="698.0" font-family="Arial, Helvetica, sans-serif" font-size="12" fill="#111" text-anchor="start" font-weight="bold">SLD SKETCH — SITE SURVEY</text><text x="594.6" y="721.0" font-family="Arial, Helvetica, sans-serif" font-size="11" fill="#111" text-anchor="start" font-weight="bold">Site:</text><text x="642.6" y="721.0" font-family="Arial, Helvetica, sans-serif" font-size="11" fill="#111" text-anchor="start">F13 transformers straight off th…</text><text x="594.6" y="737.0" font-family="Arial, Helvetica, sans-serif" font-size="11" fill="#111" text-anchor="start" font-weight="bold">Date:</text><text x="594.6" y="753.0" font-family="Arial, Helvetica, sans-serif" font-size="11" fill="#111" text-anchor="start" font-weight="bold">By:</text><text x="594.6" y="769.0" font-family="Arial, Helvetica, sans-serif" font-size="11" fill="#111" text-anchor="start" font-weight="bold">Notes:</text><text x="642.6" y="769.0" font-family="Arial, Helvetica, sans-serif" font-size="11" fill="#111" text-anchor="start">no MV board or RMU between the i…</text><rect x="24.0" y="803.0" width="832.0" height="142.0" fill="none" stroke="#111" stroke-width="1.2"/><text x="32.0" y="817.0" font-family="Arial, Helvetica, sans-serif" font-size="10" fill="#111" text-anchor="start" font-weight="bold">LEGEND</text><line x1="66.0" y1="827.0" x2="66.0" y2="829.0" stroke="#111" stroke-width="2" stroke-linecap="round"/><line x1="62.5" y1="829.0" x2="69.5" y2="836.0" stroke="#111" stroke-width="2" stroke-linecap="round"/><line x1="62.5" y1="836.0" x2="69.5" y2="829.0" stroke="#111" stroke-width="2" stroke-linecap="round"/><line x1="68.0" y1="835.5" x2="75.0" y2="844.0" stroke="#111" stroke-width="2" stroke-linecap="round"/><line x1="60.0" y1="844.0" x2="72.0" y2="844.0" stroke="#111" stroke-width="2" stroke-linecap="round"/><line x1="66.0" y1="844.0" x2="66.0" y2="853.0" stroke="#111" stroke-width="2" stroke-linecap="round"/><line x1="66.0" y1="825.0" x2="66.0" y2="827.0" stroke="#111" stroke-width="2" stroke-linecap="round"/><line x1="66.0" y1="853.0" x2="66.0" y2="855.0" stroke="#111" stroke-width="2" stroke-linecap="round"/><text x="66.0" y="867.0" font-family="Arial, Helvetica, sans-serif" font-size="9" fill="#111" text-anchor="middle">Circuit</text><text x="66.0" y="877.0" font-family="Arial, Helvetica, sans-serif" font-size="9" fill="#111" text-anchor="middle">breaker</text><line x1="134.0" y1="825.0" x2="134.0" y2="828.0" stroke="#111" stroke-width="2" stroke-linecap="round"/><circle cx="134.0" cy="830.5" r="2.5" fill="none" stroke="#111" stroke-width="1.5"/><line x1="136.0" y1="833.0" x2="143.0" y2="846.0" stroke="#111" stroke-width="2" stroke-linecap="round"/><line x1="128.0" y1="846.0" x2="140.0" y2="846.0" stroke="#111" stroke-width="2" stroke-linecap="round"/><line x1="134.0" y1="846.0" x2="134.0" y2="855.0" stroke="#111" stroke-width="2" stroke-linecap="round"/><text x="134.0" y="867.0" font-family="Arial, Helvetica, sans-serif" font-size="9" fill="#111" text-anchor="middle">Load-break</text><text x="134.0" y="877.0" font-family="Arial, Helvetica, sans-serif" font-size="9" fill="#111" text-anchor="middle">switch</text><rect x="198.0" y="829.0" width="8.0" height="22.0" fill="none" stroke="#111" stroke-width="2"/><line x1="202.0" y1="829.0" x2="202.0" y2="851.0" stroke="#111" stroke-width="2" stroke-linecap="round"/><line x1="202.0" y1="825.0" x2="202.0" y2="829.0" stroke="#111" stroke-width="2" stroke-linecap="round"/><line x1="202.0" y1="851.0" x2="202.0" y2="855.0" stroke="#111" stroke-width="2" stroke-linecap="round"/><text x="202.0" y="867.0" font-family="Arial, Helvetica, sans-serif" font-size="9" fill="#111" text-anchor="middle">Fuse</text><line x1="270.0" y1="825.0" x2="270.0" y2="828.0" stroke="#111" stroke-width="2" stroke-linecap="round"/><circle cx="270.0" cy="830.5" r="2.5" fill="none" stroke="#111" stroke-width="1.5"/><line x1="272.0" y1="833.0" x2="279.0" y2="835.0" stroke="#111" stroke-width="2" stroke-linecap="round"/><line x1="264.0" y1="835.0" x2="276.0" y2="835.0" stroke="#111" stroke-width="2" stroke-linecap="round"/><line x1="270.0" y1="835.0" x2="270.0" y2="844.0" stroke="#111" stroke-width="2" stroke-linecap="round"/><rect x="266.0" y="846.0" width="8.0" height="7.0" fill="none" stroke="#111" stroke-width="2"/><line x1="270.0" y1="844.0" x2="270.0" y2="846.0" stroke="#111" stroke-width="2" stroke-linecap="round"/><line x1="270.0" y1="853.0" x2="270.0" y2="855.0" stroke="#111" stroke-width="2" stroke-linecap="round"/><text x="270.0" y="867.0" font-family="Arial, Helvetica, sans-serif" font-size="9" fill="#111" text-anchor="middle">Fuse-switch</text><line x1="338.0" y1="827.0" x2="338.0" y2="829.0" stroke="#111" stroke-width="2" stroke-linecap="round"/><path d="M 334.0,833.0 A 4,4 0 0 1 342.0,833.0" fill="none" stroke="#111" stroke-width="2" stroke-linecap="round"/><line x1="340.0" y1="835.0" x2="346.0" y2="847.0" stroke="#111" stroke-width="2" stroke-linecap="round"/><line x1="338.0" y1="849.0" x2="338.0" y2="853.0" stroke="#111" stroke-width="2" stroke-linecap="round"/><line x1="338.0" y1="825.0" x2="338.0" y2="827.0" stroke="#111" stroke-width="2" stroke-linecap="round"/><line x1="338.0" y1="853.0" x2="338.0" y2="855.0" stroke="#111" stroke-width="2" stroke-linecap="round"/><text x="338.0" y="867.0" font-family="Arial, Helvetica, sans-serif" font-size="9" fill="#111" text-anchor="middle">Contactor</text><rect x="402.0" y="824.0" width="8.0" height="12.0" fill="none" stroke="#111" stroke-width="2"/><line x1="406.0" y1="824.0" x2="406.0" y2="836.0" stroke="#111" stroke-width="2" stroke-linecap="round"/><path d="M 402.0,840.0 A 4,4 0 0 1 410.0,840.0" fill="none" stroke="#111" stroke-width="2" stroke-linecap="round"/><line x1="408.0" y1="842.0" x2="413.0" y2="851.0" stroke="#111" stroke-width="2" stroke-linecap="round"/><line x1="406.0" y1="852.0" x2="406.0" y2="856.0" stroke="#111" stroke-width="2" stroke-linecap="round"/><line x1="406.0" y1="825.0" x2="406.0" y2="824.0" stroke="#111" stroke-width="2" stroke-linecap="round"/><line x1="406.0" y1="856.0" x2="406.0" y2="855.0" stroke="#111" stroke-width="2" stroke-linecap="round"/><text x="406.0" y="867.0" font-family="Arial, Helvetica, sans-serif" font-size="9" fill="#111" text-anchor="middle">Fused</text><text x="406.0" y="877.0" font-family="Arial, Helvetica, sans-serif" font-size="9" fill="#111" text-anchor="middle">contactor</text><circle cx="474.0" cy="835.0" r="8" fill="none" stroke="#111" stroke-width="2"/><circle cx="474.0" cy="845.0" r="8" fill="none" stroke="#111" stroke-width="2"/><text x="474.0" y="867.0" font-family="Arial, Helvetica, sans-serif" font-size="9" fill="#111" text-anchor="middle">Transformer</text><circle cx="542.0" cy="840.0" r="9" fill="none" stroke="#111" stroke-width="2"/><text x="542.0" y="843.5" font-family="Arial, Helvetica, sans-serif" font-size="9" fill="#111" text-anchor="middle" font-weight="bold">G</text><text x="542.0" y="867.0" font-family="Arial, Helvetica, sans-serif" font-size="9" fill="#111" text-anchor="middle">Generator</text><circle cx="610.0" cy="840.0" r="9" fill="none" stroke="#111" stroke-width="2"/><text x="610.0" y="843.5" font-family="Arial, Helvetica, sans-serif" font-size="9" fill="#111" text-anchor="middle" font-weight="bold">M</text><text x="610.0" y="867.0" font-family="Arial, Helvetica, sans-serif" font-size="9" fill="#111" text-anchor="middle">Pump/motor</text><line x1="664.0" y1="840.0" x2="692.0" y2="840.0" stroke="#111" stroke-width="5" stroke-linecap="round"/><text x="678.0" y="867.0" font-family="Arial, Helvetica, sans-serif" font-size="9" fill="#111" text-anchor="middle">Busbar</text><rect x="735.0" y="832.0" width="22.0" height="16.0" fill="none" stroke="#111" stroke-width="1.5"/><text x="746.0" y="843.0" font-family="Arial, Helvetica, sans-serif" font-size="6.5" fill="#111" text-anchor="middle">MCC</text><text x="746.0" y="867.0" font-family="Arial, Helvetica, sans-serif" font-size="9" fill="#111" text-anchor="middle">MCC</text><line x1="814.0" y1="827.0" x2="814.0" y2="844.0" stroke="#111" stroke-width="2" stroke-linecap="round"/><polygon points="808.0,844.0 820.0,844.0 814.0,855.0" fill="#111"/><text x="814.0" y="867.0" font-family="Arial, Helvetica, sans-serif" font-size="9" fill="#111" text-anchor="middle">Feeder</text><rect x="53.0" y="890.0" width="26.0" height="20.0" fill="none" stroke="#111" stroke-width="1.2" stroke-dasharray="4 3"/><text x="66.0" y="927.0" font-family="Arial, Helvetica, sans-serif" font-size="9" fill="#111" text-anchor="middle">RMU/MCC</text><text x="66.0" y="937.0" font-family="Arial, Helvetica, sans-serif" font-size="9" fill="#111" text-anchor="middle">enclosure</text></svg>