<svg xmlns="http://www.w3.org/2000/svg" width="2374" height="880" viewBox="0 0 2374 880"><rect width="100%" height="100%" fill="white"/><text x="24.0" y="754.0" font-family="Arial, Helvetica, sans-serif" font-size="16" fill="#111" text-anchor="start" font-weight="bold">Warning path: couplers with open ends — Single Line Diagram (sketch)</text><g data-id="RMU1" data-kind="rmu"><rect x="321.6" y="150.0" width="106.0" height="118.0" fill="none" stroke="#111" stroke-width="1.6" stroke-dasharray="7 5"/><line x1="345.6" y1="209.0" x2="381.6" y2="209.0" stroke="#111" stroke-width="3.4" stroke-linecap="round"/><line x1="363.6" y1="162.0" x2="363.6" y2="165.0" stroke="#111" stroke-width="2" stroke-linecap="round"/><circle cx="363.6" cy="167.5" r="2.5" fill="none" stroke="#111" stroke-width="1.5"/><line x1="365.6" y1="170.0" x2="372.6" y2="200.0" stroke="#111" stroke-width="2" stroke-linecap="round"/><line x1="357.6" y1="200.0" x2="369.6" y2="200.0" stroke="#111" stroke-width="2" stroke-linecap="round"/><line x1="363.6" y1="200.0" x2="363.6" y2="209.0" stroke="#111" stroke-width="2" stroke-linecap="round"/><line x1="363.6" y1="150.0" x2="363.6" y2="162.0" stroke="#111" stroke-width="2" stroke-linecap="round"/><circle cx="363.6" cy="209.0" r="3.2" fill="#111"/><text x="437.6" y="166.0" font-family="Arial, Helvetica, sans-serif" font-size="12" fill="#111" text-anchor="start" font-weight="bold">RMU1</text><text x="437.6" y="181.0" font-family="Arial, Helvetica, sans-serif" font-size="12" fill="#111" text-anchor="start">Ring unit A</text><text x="437.6" y="196.0" font-family="Arial, Helvetica, sans-serif" font-size="12" fill="#111" text-anchor="start">11 kV</text></g><g data-id="RMU2" data-kind="rmu"><rect x="1204.6" y="150.0" width="106.0" height="118.0" fill="none" stroke="#111" stroke-width="1.6" stroke-dasharray="7 5"/><line x1="1250.6" y1="209.0" x2="1286.6" y2="209.0" stroke="#111" stroke-width="3.4" stroke-linecap="round"/><text x="1320.6" y="166.0" font-family="Arial, Helvetica, sans-serif" font-size="12" fill="#111" text-anchor="start" font-weight="bold">RMU2</text><text x="1320.6" y="181.0" font-family="Arial, Helvetica, sans-serif" font-size="12" fill="#111" text-anchor="start">Ring unit B</text><text x="1320.6" y="196.0" font-family="Arial, Helvetica, sans-serif" font-size="12" fill="#111" text-anchor="start">11 kV</text></g><line x1="427.6" y1="209.0" x2="1204.6" y2="209.0" stroke="#111" stroke-width="2" stroke-linecap="round"/><line x1="391.6" y1="209.0" x2="394.1" y2="209.0" stroke="#111" stroke-width="2" stroke-linecap="round"/><circle cx="396.6" cy="209.0" r="2.5" fill="none" stroke="#111" stroke-width="1.5"/><line x1="398.6" y1="207.5" x2="408.6" y2="200.0" stroke="#111" stroke-width="2" stroke-linecap="round"/><line x1="408.6" y1="203.0" x2="408.6" y2="215.0" stroke="#111" stroke-width="2" stroke-linecap="round"/><line x1="408.6" y1="209.0" x2="417.6" y2="209.0" stroke="#111" stroke-width="2" stroke-linecap="round"/><line x1="381.6" y1="209.0" x2="391.6" y2="209.0" stroke="#111" stroke-width="2" stroke-linecap="round"/><line x1="417.6" y1="209.0" x2="427.6" y2="209.0" stroke="#111" stroke-width="2" stroke-linecap="round"/><line x1="1214.6" y1="209.0" x2="1217.1" y2="209.0" stroke="#111" stroke-width="2" stroke-linecap="round"/><circle cx="1219.6" cy="209.0" r="2.5" fill="none" stroke="#111" stroke-width="1.5"/><line x1="1221.6" y1="207.5" x2="1231.6" y2="200.0" stroke="#111" stroke-width="2" stroke-linecap="round"/><line x1="1231.6" y1="203.0" x2="1231.6" y2="215.0" stroke="#111" stroke-width="2" stroke-linecap="round"/><line x1="1231.6" y1="209.0" x2="1240.6" y2="209.0" stroke="#111" stroke-width="2" stroke-linecap="round"/><line x1="1204.6" y1="209.0" x2="1214.6" y2="209.0" stroke="#111" stroke-width="2" stroke-linecap="round"/><line x1="1240.6" y1="209.0" x2="1250.6" y2="209.0" stroke="#111" stroke-width="2" stroke-linecap="round"/><g data-id="MV1" data-kind="mv incomer"><line x1="352.6" y1="62.0" x2="374.6" y2="62.0" stroke="#111" stroke-width="3" stroke-linecap="round"/><text x="363.6" y="18.0" font-family="Arial, Helvetica, sans-serif" font-size="11.5" fill="#111" text-anchor="middle" font-weight="bold">MV1</text><text x="363.6" y="32.0" font-family="Arial, Helvetica, sans-serif" font-size="11.5" fill="#111" text-anchor="middle">Utility</text><text x="363.6" y="46.0" font-family="Arial, Helvetica, sans-serif" font-size="11.5" fill="#111" text-anchor="middle">11 kV</text><line x1="363.6" y1="122.0" x2="363.6" y2="124.0" stroke="#111" stroke-width="2" stroke-linecap="round"/><line x1="360.1" y1="124.0" x2="367.1" y2="131.0" stroke="#111" stroke-width="2" stroke-linecap="round"/><line x1="360.1" y1="131.0" x2="367.1" y2="124.0" stroke="#111" stroke-width="2" stroke-linecap="round"/><line x1="365.6" y1="130.5" x2="372.6" y2="139.0" stroke="#111" stroke-width="2" stroke-linecap="round"/><line x1="357.6" y1="139.0" x2="369.6" y2="139.0" stroke="#111" stroke-width="2" stroke-linecap="round"/><line x1="363.6" y1="139.0" x2="363.6" y2="148.0" stroke="#111" stroke-width="2" stroke-linecap="round"/><line x1="363.6" y1="62.0" x2="363.6" y2="122.0" stroke="#111" stroke-width="2" stroke-linecap="round"/><line x1="363.6" y1="148.0" x2="363.6" y2="208.0" stroke="#111" stroke-width="2" stroke-linecap="round"/><circle cx="363.6" cy="208.0" r="3.2" fill="#111"/><line x1="363.6" y1="62.0" x2="363.6" y2="150.0" stroke="#111" stroke-width="2" stroke-linecap="round"/></g><g data-id="MVB" data-kind="mv busbar"><line x1="90.0" y1="208.0" x2="637.2" y2="208.0" stroke="#111" stroke-width="5.5" stroke-linecap="round"/></g><g data-id="G1" data-kind="generator"><circle cx="1403.6" cy="355.0" r="20" fill="none" stroke="#111" stroke-width="2.2"/><text x="1403.6" y="359.0" font-family="Arial, Helvetica, sans-serif" font-size="13" fill="#111" text-anchor="middle" font-weight="bold">G</text><text x="1433.6" y="336.0" font-family="Arial, Helvetica, sans-serif" font-size="12" fill="#111" text-anchor="start">G1</text><text x="1433.6" y="351.0" font-family="Arial, Helvetica, sans-serif" font-size="12" fill="#111" text-anchor="start">Standby set</text><text x="1433.6" y="366.0" font-family="Arial, Helvetica, sans-serif" font-size="12" fill="#111" text-anchor="start">500 kVA 400 V</text></g><g data-id="TX1" data-kind="transformer"><circle cx="219.3" cy="342.0" r="19" fill="none" stroke="#111" stroke-width="2.2"/><circle cx="219.3" cy="369.0" r="19" fill="none" stroke="#111" stroke-width="2.2"/><text x="248.3" y="336.0" font-family="Arial, Helvetica, sans-serif" font-size="12" fill="#111" text-anchor="start">TX1</text><text x="248.3" y="351.0" font-family="Arial, Helvetica, sans-serif" font-size="12" fill="#111" text-anchor="start">A</text><text x="248.3" y="366.0" font-family="Arial, Helvetica, sans-serif" font-size="12" fill="#111" text-anchor="start">1000 kVA 11/0.4 kV</text><line x1="219.3" y1="252.5" x2="219.3" y2="254.5" stroke="#111" stroke-width="2" stroke-linecap="round"/><line x1="215.8" y1="254.5" x2="222.8" y2="261.5" stroke="#111" stroke-width="2" stroke-linecap="round"/><line x1="215.8" y1="261.5" x2="222.8" y2="254.5" stroke="#111" stroke-width="2" stroke-linecap="round"/><line x1="221.3" y1="261.0" x2="228.3" y2="269.5" stroke="#111" stroke-width="2" stroke-linecap="round"/><line x1="213.3" y1="269.5" x2="225.3" y2="269.5" stroke="#111" stroke-width="2" stroke-linecap="round"/><line x1="219.3" y1="269.5" x2="219.3" y2="278.5" stroke="#111" stroke-width="2" stroke-linecap="round"/><line x1="219.3" y1="208.0" x2="219.3" y2="252.5" stroke="#111" stroke-width="2" stroke-linecap="round"/><line x1="219.3" y1="278.5" x2="219.3" y2="323.0" stroke="#111" stroke-width="2" stroke-linecap="round"/><circle cx="219.3" cy="208.0" r="3.2" fill="#111"/><line x1="219.3" y1="424.0" x2="219.3" y2="426.0" stroke="#111" stroke-width="2" stroke-linecap="round"/><line x1="215.8" y1="426.0" x2="222.8" y2="433.0" stroke="#111" stroke-width="2" stroke-linecap="round"/><line x1="215.8" y1="433.0" x2="222.8" y2="426.0" stroke="#111" stroke-width="2" stroke-linecap="round"/><line x1="221.3" y1="432.5" x2="228.3" y2="441.0" stroke="#111" stroke-width="2" stroke-linecap="round"/><line x1="213.3" y1="441.0" x2="225.3" y2="441.0" stroke="#111" stroke-width="2" stroke-linecap="round"/><line x1="219.3" y1="441.0" x2="219.3" y2="450.0" stroke="#111" stroke-width="2" stroke-linecap="round"/><line x1="219.3" y1="388.0" x2="219.3" y2="424.0" stroke="#111" stroke-width="2" stroke-linecap="round"/><line x1="219.3" y1="450.0" x2="219.3" y2="486.0" stroke="#111" stroke-width="2" stroke-linecap="round"/><circle cx="219.3" cy="486.0" r="3.2" fill="#111"/></g><g data-id="TX2" data-kind="transformer"><circle cx="507.9" cy="342.0" r="19" fill="none" stroke="#111" stroke-width="2.2"/><circle cx="507.9" cy="369.0" r="19" fill="none" stroke="#111" stroke-width="2.2"/><text x="536.9" y="336.0" font-family="Arial, Helvetica, sans-serif" font-size="12" fill="#111" text-anchor="start">TX2</text><text x="536.9" y="351.0" font-family="Arial, Helvetica, sans-serif" font-size="12" fill="#111" text-anchor="start">B</text><text x="536.9" y="366.0" font-family="Arial, Helvetica, sans-serif" font-size="12" fill="#111" text-anchor="start">1000 kVA 11/0.4 kV</text><line x1="507.9" y1="252.5" x2="507.9" y2="254.5" stroke="#111" stroke-width="2" stroke-linecap="round"/><line x1="504.4" y1="254.5" x2="511.4" y2="261.5" stroke="#111" stroke-width="2" stroke-linecap="round"/><line x1="504.4" y1="261.5" x2="511.4" y2="254.5" stroke="#111" stroke-width="2" stroke-linecap="round"/><line x1="509.9" y1="261.0" x2="516.9" y2="269.5" stroke="#111" stroke-width="2" stroke-linecap="round"/><line x1="501.9" y1="269.5" x2="513.9" y2="269.5" stroke="#111" stroke-width="2" stroke-linecap="round"/><line x1="507.9" y1="269.5" x2="507.9" y2="278.5" stroke="#111" stroke-width="2" stroke-linecap="round"/><line x1="507.9" y1="208.0" x2="507.9" y2="252.5" stroke="#111" stroke-width="2" stroke-linecap="round"/><line x1="507.9" y1="278.5" x2="507.9" y2="323.0" stroke="#111" stroke-width="2" stroke-linecap="round"/><circle cx="507.9" cy="208.0" r="3.2" fill="#111"/><line x1="507.9" y1="424.0" x2="507.9" y2="426.0" stroke="#111" stroke-width="2" stroke-linecap="round"/><line x1="504.4" y1="426.0" x2="511.4" y2="433.0" stroke="#111" stroke-width="2" stroke-linecap="round"/><line x1="504.4" y1="433.0" x2="511.4" y2="426.0" stroke="#111" stroke-width="2" stroke-linecap="round"/><line x1="509.9" y1="432.5" x2="516.9" y2="441.0" stroke="#111" stroke-width="2" stroke-linecap="round"/><line x1="501.9" y1="441.0" x2="513.9" y2="441.0" stroke="#111" stroke-width="2" stroke-linecap="round"/><line x1="507.9" y1="441.0" x2="507.9" y2="450.0" stroke="#111" stroke-width="2" stroke-linecap="round"/><line x1="507.9" y1="388.0" x2="507.9" y2="424.0" stroke="#111" stroke-width="2" stroke-linecap="round"/><line x1="507.9" y1="450.0" x2="507.9" y2="486.0" stroke="#111" stroke-width="2" stroke-linecap="round"/><circle cx="507.9" cy="486.0" r="3.2" fill="#111"/></g><g data-id="BB1" data-kind="lv busbar"><line x1="90.0" y1="486.0" x2="348.6" y2="486.0" stroke="#111" stroke-width="5.5" stroke-linecap="round"/></g><g data-id="BB2" data-kind="lv busbar"><line x1="378.6" y1="486.0" x2="637.2" y2="486.0" stroke="#111" stroke-width="5.5" stroke-linecap="round"/></g><g data-id="BC1" data-kind="bus coupler"><line x1="350.6" y1="486.0" x2="352.6" y2="486.0" stroke="#111" stroke-width="2" stroke-linecap="round"/><line x1="352.6" y1="482.5" x2="359.6" y2="489.5" stroke="#111" stroke-width="2" stroke-linecap="round"/><line x1="352.6" y1="489.5" x2="359.6" y2="482.5" stroke="#111" stroke-width="2" stroke-linecap="round"/><line x1="359.1" y1="484.0" x2="367.6" y2="477.0" stroke="#111" stroke-width="2" stroke-linecap="round"/><line x1="367.6" y1="480.0" x2="367.6" y2="492.0" stroke="#111" stroke-width="2" stroke-linecap="round"/><line x1="367.6" y1="486.0" x2="376.6" y2="486.0" stroke="#111" stroke-width="2" stroke-linecap="round"/><line x1="348.6" y1="486.0" x2="350.6" y2="486.0" stroke="#111" stroke-width="2" stroke-linecap="round"/><line x1="376.6" y1="486.0" x2="378.6" y2="486.0" stroke="#111" stroke-width="2" stroke-linecap="round"/><text x="363.6" y="510.0" font-family="Arial, Helvetica, sans-serif" font-size="11" fill="#111" text-anchor="middle">BC1</text></g><g data-id="BC2" data-kind="bus coupler"><line x1="350.6" y1="486.0" x2="352.6" y2="486.0" stroke="#111" stroke-width="2" stroke-linecap="round"/><line x1="352.6" y1="482.5" x2="359.6" y2="489.5" stroke="#111" stroke-width="2" stroke-linecap="round"/><line x1="352.6" y1="489.5" x2="359.6" y2="482.5" stroke="#111" stroke-width="2" stroke-linecap="round"/><line x1="359.1" y1="484.0" x2="367.6" y2="477.0" stroke="#111" stroke-width="2" stroke-linecap="round"/><line x1="367.6" y1="480.0" x2="367.6" y2="492.0" stroke="#111" stroke-width="2" stroke-linecap="round"/><line x1="367.6" y1="486.0" x2="376.6" y2="486.0" stroke="#111" stroke-width="2" stroke-linecap="round"/><line x1="348.6" y1="486.0" x2="350.6" y2="486.0" stroke="#111" stroke-width="2" stroke-linecap="round"/><line x1="376.6" y1="486.0" x2="378.6" y2="486.0" stroke="#111" stroke-width="2" stroke-linecap="round"/><text x="363.6" y="510.0" font-family="Arial, Helvetica, sans-serif" font-size="11" fill="#111" text-anchor="middle">BC2</text></g><g data-id="BC3" data-kind="bus coupler"><circle cx="90.0" cy="486.0" r="3.2" fill="#111"/><line x1="90.0" y1="486.0" x2="75.0" y2="486.0" stroke="#111" stroke-width="2" stroke-linecap="round"/><line x1="75.0" y1="334.0" x2="75.0" y2="336.0" stroke="#111" stroke-width="2" stroke-linecap="round"/><line x1="71.5" y1="336.0" x2="78.5" y2="343.0" stroke="#111" stroke-width="2" stroke-linecap="round"/><line x1="71.5" y1="343.0" x2="78.5" y2="336.0" stroke="#111" stroke-width="2" stroke-linecap="round"/><line x1="77.0" y1="342.5" x2="84.0" y2="351.0" stroke="#111" stroke-width="2" stroke-linecap="round"/><line x1="69.0" y1="351.0" x2="81.0" y2="351.0" stroke="#111" stroke-width="2" stroke-linecap="round"/><line x1="75.0" y1="351.0" x2="75.0" y2="360.0" stroke="#111" stroke-width="2" stroke-linecap="round"/><line x1="75.0" y1="208.0" x2="75.0" y2="334.0" stroke="#111" stroke-width="2" stroke-linecap="round"/><line x1="75.0" y1="360.0" x2="75.0" y2="486.0" stroke="#111" stroke-width="2" stroke-linecap="round"/><line x1="75.0" y1="208.0" x2="90.0" y2="208.0" stroke="#111" stroke-width="2" stroke-linecap="round"/><circle cx="90.0" cy="208.0" r="3.2" fill="#111"/><text x="65.0" y="347.0" font-family="Arial, Helvetica, sans-serif" font-size="11" fill="#111" text-anchor="end">BC3</text></g><g data-id="BC4" data-kind="bus coupler"><line x1="1910.6" y1="456.0" x2="1912.6" y2="456.0" stroke="#111" stroke-width="2" stroke-linecap="round"/><line x1="1912.6" y1="452.5" x2="1919.6" y2="459.5" stroke="#111" stroke-width="2" stroke-linecap="round"/><line x1="1912.6" y1="459.5" x2="1919.6" y2="452.5" stroke="#111" stroke-width="2" stroke-linecap="round"/><line x1="1919.1" y1="454.0" x2="1927.6" y2="447.0" stroke="#111" stroke-width="2" stroke-linecap="round"/><line x1="1927.6" y1="450.0" x2="1927.6" y2="462.0" stroke="#111" stroke-width="2" stroke-linecap="round"/><line x1="1927.6" y1="456.0" x2="1936.6" y2="456.0" stroke="#111" stroke-width="2" stroke-linecap="round"/><line x1="1893.6" y1="456.0" x2="1910.6" y2="456.0" stroke="#111" stroke-width="2" stroke-linecap="round"/><line x1="1936.6" y1="456.0" x2="1953.6" y2="456.0" stroke="#111" stroke-width="2" stroke-linecap="round"/><line x1="1893.6" y1="446.0" x2="1893.6" y2="466.0" stroke="#111" stroke-width="2" stroke-linecap="round"/><line x1="1953.6" y1="446.0" x2="1953.6" y2="466.0" stroke="#111" stroke-width="2" stroke-linecap="round"/><text x="1923.6" y="444.0" font-family="Arial, Helvetica, sans-serif" font-size="11" fill="#111" text-anchor="middle">BC4</text></g><g data-id="BC5" data-kind="bus coupler"><line x1="2040.6" y1="426.0" x2="2042.6" y2="426.0" stroke="#111" stroke-width="2" stroke-linecap="round"/><line x1="2042.6" y1="422.5" x2="2049.6" y2="429.5" stroke="#111" stroke-width="2" stroke-linecap="round"/><line x1="2042.6" y1="429.5" x2="2049.6" y2="422.5" stroke="#111" stroke-width="2" stroke-linecap="round"/><line x1="2049.1" y1="424.0" x2="2057.6" y2="417.0" stroke="#111" stroke-width="2" stroke-linecap="round"/><line x1="2057.6" y1="420.0" x2="2057.6" y2="432.0" stroke="#111" stroke-width="2" stroke-linecap="round"/><line x1="2057.6" y1="426.0" x2="2066.6" y2="426.0" stroke="#111" stroke-width="2" stroke-linecap="round"/><line x1="2023.6" y1="426.0" x2="2040.6" y2="426.0" stroke="#111" stroke-width="2" stroke-linecap="round"/><line x1="2066.6" y1="426.0" x2="2083.6" y2="426.0" stroke="#111" stroke-width="2" stroke-linecap="round"/><line x1="2023.6" y1="416.0" x2="2023.6" y2="436.0" stroke="#111" stroke-width="2" stroke-linecap="round"/><line x1="2083.6" y1="416.0" x2="2083.6" y2="436.0" stroke="#111" stroke-width="2" stroke-linecap="round"/><text x="2053.6" y="414.0" font-family="Arial, Helvetica, sans-serif" font-size="11" fill="#111" text-anchor="middle">BC5</text></g><text x="90.0" y="196.0" font-family="Arial, Helvetica, sans-serif" font-size="11.5" fill="#111" text-anchor="start" font-weight="bold">MVB MV board 11 kV</text><text x="90.0" y="474.0" font-family="Arial, Helvetica, sans-serif" font-size="11.5" fill="#111" text-anchor="start" font-weight="bold">BB1 Board A 400 V</text><text x="378.6" y="474.0" font-family="Arial, Helvetica, sans-serif" font-size="11.5" fill="#111" text-anchor="start" font-weight="bold">BB2 Board B 400 V</text><rect x="2061.6" y="664.0" width="288.0" height="96.0" fill="none" stroke="#111" stroke-width="1.5"/><line x1="2061.6" y1="688.0" x2="2349.6" y2="688.0" stroke="#111" stroke-width="1.5" stroke-linecap="round"/><text x="2071.6" y="681.0" font-family="Arial, Helvetica, sans-serif" font-size="12" fill="#111" text-anchor="start" font-weight="bold">SLD SKETCH — SITE SURVEY</text><text x="2071.6" y="704.0" font-family="Arial, Helvetica, sans-serif" font-size="11" fill="#111" text-anchor="start" font-weight="bold">Site:</text><text x="2119.6" y="704.0" font-family="Arial, Helvetica, sans-serif" font-size="11" fill="#111" text-anchor="start">Warning path: couplers with open…</text><text x="2071.6" y="720.0" font-family="Arial, Helvetica, sans-serif" font-size="11" fill="#111" text-anchor="start" font-weight="bold">Date:</text><text x="2071.6" y="736.0" font-family="Arial, Helvetica, sans-serif" font-size="11" fill="#111" text-anchor="start" font-weight="bold">By:</text><text x="2071.6" y="752.0" font-family="Arial, Helvetica, sans-serif" font-size="11" fill="#111" text-anchor="start" font-weight="bold">Notes:</text><rect x="24.0" y="786.0" width="900.0" height="82.0" fill="none" stroke="#111" stroke-width="1.2"/><text x="32.0" y="800.0" font-family="Arial, Helvetica, sans-serif" font-size="10" fill="#111" text-anchor="start" font-weight="bold">LEGEND</text><line x1="66.0" y1="810.0" x2="66.0" y2="812.0" stroke="#111" stroke-width="2" stroke-linecap="round"/><line x1="62.5" y1="812.0" x2="69.5" y2="819.0" stroke="#111" stroke-width="2" stroke-linecap="round"/><line x1="62.5" y1="819.0" x2="69.5" y2="812.0" stroke="#111" stroke-width="2" stroke-linecap="round"/><line x1="68.0" y1="818.5" x2="75.0" y2="827.0" stroke="#111" stroke-width="2" stroke-linecap="round"/><line x1="60.0" y1="827.0" x2="72.0" y2="827.0" stroke="#111" stroke-width="2" stroke-linecap="round"/><line x1="66.0" y1="827.0" x2="66.0" y2="836.0" stroke="#111" stroke-width="2" stroke-linecap="round"/><line x1="66.0" y1="808.0" x2="66.0" y2="810.0" stroke="#111" stroke-width="2" stroke-linecap="round"/><line x1="66.0" y1="836.0" x2="66.0" y2="838.0" stroke="#111" stroke-width="2" stroke-linecap="round"/><text x="66.0" y="850.0" font-family="Arial, Helvetica, sans-serif" font-size="9" fill="#111" text-anchor="middle">Circuit</text><text x="66.0" y="860.0" font-family="Arial, Helvetica, sans-serif" font-size="9" fill="#111" text-anchor="middle">breaker</text><line x1="134.0" y1="808.0" x2="134.0" y2="811.0" stroke="#111" stroke-width="2" stroke-linecap="round"/><circle cx="134.0" cy="813.5" r="2.5" fill="none" stroke="#111" stroke-width="1.5"/><line x1="136.0" y1="816.0" x2="143.0" y2="829.0" stroke="#111" stroke-width="2" stroke-linecap="round"/><line x1="128.0" y1="829.0" x2="140.0" y2="829.0" stroke="#111" stroke-width="2" stroke-linecap="round"/><line x1="134.0" y1="829.0" x2="134.0" y2="838.0" stroke="#111" stroke-width="2" stroke-linecap="round"/><text x="134.0" y="850.0" font-family="Arial, Helvetica, sans-serif" font-size="9" fill="#111" text-anchor="middle">Load-break</text><text x="134.0" y="860.0" font-family="Arial, Helvetica, sans-serif" font-size="9" fill="#111" text-anchor="middle">switch</text><rect x="198.0" y="812.0" width="8.0" height="22.0" fill="none" stroke="#111" stroke-width="2"/><line x1="202.0" y1="812.0" x2="202.0" y2="834.0" stroke="#111" stroke-width="2" stroke-linecap="round"/><line x1="202.0" y1="808.0" x2="202.0" y2="812.0" stroke="#111" stroke-width="2" stroke-linecap="round"/><line x1="202.0" y1="834.0" x2="202.0" y2="838.0" stroke="#111" stroke-width="2" stroke-linecap="round"/><text x="202.0" y="850.0" font-family="Arial, Helvetica, sans-serif" font-size="9" fill="#111" text-anchor="middle">Fuse</text><line x1="270.0" y1="808.0" x2="270.0" y2="811.0" stroke="#111" stroke-width="2" stroke-linecap="round"/><circle cx="270.0" cy="813.5" r="2.5" fill="none" stroke="#111" stroke-width="1.5"/><line x1="272.0" y1="816.0" x2="279.0" y2="818.0" stroke="#111" stroke-width="2" stroke-linecap="round"/><line x1="264.0" y1="818.0" x2="276.0" y2="818.0" stroke="#111" stroke-width="2" stroke-linecap="round"/><line x1="270.0" y1="818.0" x2="270.0" y2="827.0" stroke="#111" stroke-width="2" stroke-linecap="round"/><rect x="266.0" y="829.0" width="8.0" height="7.0" fill="none" stroke="#111" stroke-width="2"/><line x1="270.0" y1="827.0" x2="270.0" y2="829.0" stroke="#111" stroke-width="2" stroke-linecap="round"/><line x1="270.0" y1="836.0" x2="270.0" y2="838.0" stroke="#111" stroke-width="2" stroke-linecap="round"/><text x="270.0" y="850.0" font-family="Arial, Helvetica, sans-serif" font-size="9" fill="#111" text-anchor="middle">Fuse-switch</text><line x1="338.0" y1="810.0" x2="338.0" y2="812.0" stroke="#111" stroke-width="2" stroke-linecap="round"/><path d="M 334.0,816.0 A 4,4 0 0 1 342.0,816.0" fill="none" stroke="#111" stroke-width="2" stroke-linecap="round"/><line x1="340.0" y1="818.0" x2="346.0" y2="830.0" stroke="#111" stroke-width="2" stroke-linecap="round"/><line x1="338.0" y1="832.0" x2="338.0" y2="836.0" stroke="#111" stroke-width="2" stroke-linecap="round"/><line x1="338.0" y1="808.0" x2="338.0" y2="810.0" stroke="#111" stroke-width="2" stroke-linecap="round"/><line x1="338.0" y1="836.0" x2="338.0" y2="838.0" stroke="#111" stroke-width="2" stroke-linecap="round"/><text x="338.0" y="850.0" font-family="Arial, Helvetica, sans-serif" font-size="9" fill="#111" text-anchor="middle">Contactor</text><rect x="402.0" y="807.0" width="8.0" height="12.0" fill="none" stroke="#111" stroke-width="2"/><line x1="406.0" y1="807.0" x2="406.0" y2="819.0" stroke="#111" stroke-width="2" stroke-linecap="round"/><path d="M 402.0,823.0 A 4,4 0 0 1 410.0,823.0" fill="none" stroke="#111" stroke-width="2" stroke-linecap="round"/><line x1="408.0" y1="825.0" x2="413.0" y2="834.0" stroke="#111" stroke-width="2" stroke-linecap="round"/><line x1="406.0" y1="835.0" x2="406.0" y2="839.0" stroke="#111" stroke-width="2" stroke-linecap="round"/><line x1="406.0" y1="808.0" x2="406.0" y2="807.0" stroke="#111" stroke-width="2" stroke-linecap="round"/><line x1="406.0" y1="839.0" x2="406.0" y2="838.0" stroke="#111" stroke-width="2" stroke-linecap="round"/><text x="406.0" y="850.0" font-family="Arial, Helvetica, sans-serif" font-size="9" fill="#111" text-anchor="middle">Fused</text><text x="406.0" y="860.0" font-family="Arial, Helvetica, sans-serif" font-size="9" fill="#111" text-anchor="middle">contactor</text><circle cx="474.0" cy="818.0" r="8" fill="none" stroke="#111" stroke-width="2"/><circle cx="474.0" cy="828.0" r="8" fill="none" stroke="#111" stroke-width="2"/><text x="474.0" y="850.0" font-family="Arial, Helvetica, sans-serif" font-size="9" fill="#111" text-anchor="middle">Transformer</text><circle cx="542.0" cy="823.0" r="9" fill="none" stroke="#111" stroke-width="2"/><text x="542.0" y="826.5" font-family="Arial, Helvetica, sans-serif" font-size="9" fill="#111" text-anchor="middle" font-weight="bold">G</text><text x="542.0" y="850.0" font-family="Arial, Helvetica, sans-serif" font-size="9" fill="#111" text-anchor="middle">Generator</text><circle cx="610.0" cy="823.0" r="9" fill="none" stroke="#111" stroke-width="2"/><text x="610.0" y="826.5" font-family="Arial, Helvetica, sans-serif" font-size="9" fill="#111" text-anchor="middle" font-weight="bold">M</text><text x="610.0" y="850.0" font-family="Arial, Helvetica, sans-serif" font-size="9" fill="#111" text-anchor="middle">Pump/motor</text><line x1="664.0" y1="823.0" x2="692.0" y2="823.0" stroke="#111" stroke-width="5" stroke-linecap="round"/><text x="678.0" y="850.0" font-family="Arial, Helvetica, sans-serif" font-size="9" fill="#111" text-anchor="middle">Busbar</text><rect x="735.0" y="815.0" width="22.0" height="16.0" fill="none" stroke="#111" stroke-width="1.5"/><text x="746.0" y="826.0" font-family="Arial, Helvetica, sans-serif" font-size="6.5" fill="#111" text-anchor="middle">MCC</text><text x="746.0" y="850.0" font-family="Arial, Helvetica, sans-serif" font-size="9" fill="#111" text-anchor="middle">MCC</text><line x1="814.0" y1="810.0" x2="814.0" y2="827.0" stroke="#111" stroke-width="2" stroke-linecap="round"/><polygon points="808.0,827.0 820.0,827.0 814.0,838.0" fill="#111"/><text x="814.0" y="850.0" font-family="Arial, Helvetica, sans-serif" font-size="9" fill="#111" text-anchor="middle">Feeder</text><rect x="869.0" y="813.0" width="26.0" height="20.0" fill="none" stroke="#111" stroke-width="1.2" stroke-dasharray="4 3"/><text x="882.0" y="850.0" font-family="Arial, Helvetica, sans-serif" font-size="9" fill="#111" text-anchor="middle">RMU/MCC</text><text x="882.0" y="860.0" font-family="Arial, Helvetica, sans-serif" font-size="9" fill="#111" text-anchor="middle">enclosure</text></svg>