<svg xmlns="http://www.w3.org/2000/svg" width="1523" height="1284" viewBox="0 0 1523 1284"><rect width="100%" height="100%" fill="white"/><text x="24.0" y="1158.0" font-family="Arial, Helvetica, sans-serif" font-size="16" fill="#111" text-anchor="start" font-weight="bold">L7 three tiers — Single Line Diagram (sketch)</text><line x1="635.6" y1="62.0" x2="657.6" y2="62.0" stroke="#111" stroke-width="3" stroke-linecap="round"/><text x="646.6" y="18.0" font-family="Arial, Helvetica, sans-serif" font-size="11.5" fill="#111" text-anchor="middle" font-weight="bold">U</text><text x="646.6" y="32.0" font-family="Arial, Helvetica, sans-serif" font-size="11.5" fill="#111" text-anchor="middle">Utility</text><text x="646.6" y="46.0" font-family="Arial, Helvetica, sans-serif" font-size="11.5" fill="#111" text-anchor="middle">33 kV</text><line x1="646.6" y1="122.0" x2="646.6" y2="124.0" stroke="#111" stroke-width="2" stroke-linecap="round"/><line x1="643.1" y1="124.0" x2="650.1" y2="131.0" stroke="#111" stroke-width="2" stroke-linecap="round"/><line x1="643.1" y1="131.0" x2="650.1" y2="124.0" stroke="#111" stroke-width="2" stroke-linecap="round"/><line x1="648.6" y1="130.5" x2="655.6" y2="139.0" stroke="#111" stroke-width="2" stroke-linecap="round"/><line x1="640.6" y1="139.0" x2="652.6" y2="139.0" stroke="#111" stroke-width="2" stroke-linecap="round"/><line x1="646.6" y1="139.0" x2="646.6" y2="148.0" stroke="#111" stroke-width="2" stroke-linecap="round"/><line x1="646.6" y1="62.0" x2="646.6" y2="122.0" stroke="#111" stroke-width="2" stroke-linecap="round"/><line x1="646.6" y1="148.0" x2="646.6" y2="208.0" stroke="#111" stroke-width="2" stroke-linecap="round"/><circle cx="646.6" cy="208.0" r="3.2" fill="#111"/><line x1="90.0" y1="208.0" x2="1203.2" y2="208.0" stroke="#111" stroke-width="5.5" stroke-linecap="round"/><line x1="90.0" y1="408.0" x2="1203.2" y2="408.0" stroke="#111" stroke-width="5.5" stroke-linecap="round"/><line x1="516.6" y1="608.0" x2="1203.2" y2="608.0" stroke="#111" stroke-width="5.5" stroke-linecap="round"/><rect x="570.1" y="654.0" width="8.0" height="12.0" fill="none" stroke="#111" stroke-width="2"/><line x1="574.1" y1="654.0" x2="574.1" y2="666.0" stroke="#111" stroke-width="2" stroke-linecap="round"/><path d="M 570.1,670.0 A 4,4 0 0 1 578.1,670.0" fill="none" stroke="#111" stroke-width="2" stroke-linecap="round"/><line x1="576.1" y1="672.0" x2="581.1" y2="681.0" stroke="#111" stroke-width="2" stroke-linecap="round"/><line x1="574.1" y1="682.0" x2="574.1" y2="686.0" stroke="#111" stroke-width="2" stroke-linecap="round"/><line x1="574.1" y1="608.0" x2="574.1" y2="654.0" stroke="#111" stroke-width="2" stroke-linecap="round"/><line x1="574.1" y1="686.0" x2="574.1" y2="732.0" stroke="#111" stroke-width="2" stroke-linecap="round"/><circle cx="574.1" cy="608.0" r="3.2" fill="#111"/><circle cx="574.1" cy="752.0" r="20" fill="none" stroke="#111" stroke-width="2.2"/><text x="574.1" y="753.0" font-family="Arial, Helvetica, sans-serif" font-size="13" fill="#111" text-anchor="middle" font-weight="bold">M</text><text x="574.1" y="765.0" font-family="Arial, Helvetica, sans-serif" font-size="8.5" fill="#111" text-anchor="middle">3~</text><text x="0" y="0" transform="translate(578.1,786.0) rotate(90)" font-family="Arial, Helvetica, sans-serif" font-size="11" fill="#111" text-anchor="start">P1 · Pump 1 · 630 kW</text><rect x="715.1" y="654.0" width="8.0" height="12.0" fill="none" stroke="#111" stroke-width="2"/><line x1="719.1" y1="654.0" x2="719.1" y2="666.0" stroke="#111" stroke-width="2" stroke-linecap="round"/><path d="M 715.1,670.0 A 4,4 0 0 1 723.1,670.0" fill="none" stroke="#111" stroke-width="2" stroke-linecap="round"/><line x1="721.1" y1="672.0" x2="726.1" y2="681.0" stroke="#111" stroke-width="2" stroke-linecap="round"/><line x1="719.1" y1="682.0" x2="719.1" y2="686.0" stroke="#111" stroke-width="2" stroke-linecap="round"/><line x1="719.1" y1="608.0" x2="719.1" y2="654.0" stroke="#111" stroke-width="2" stroke-linecap="round"/><line x1="719.1" y1="686.0" x2="719.1" y2="732.0" stroke="#111" stroke-width="2" stroke-linecap="round"/><circle cx="719.1" cy="608.0" r="3.2" fill="#111"/><circle cx="719.1" cy="752.0" r="20" fill="none" stroke="#111" stroke-width="2.2"/><text x="719.1" y="753.0" font-family="Arial, Helvetica, sans-serif" font-size="13" fill="#111" text-anchor="middle" font-weight="bold">M</text><text x="719.1" y="765.0" font-family="Arial, Helvetica, sans-serif" font-size="8.5" fill="#111" text-anchor="middle">3~</text><text x="749.1" y="746.0" font-family="Arial, Helvetica, sans-serif" font-size="11" fill="#111" text-anchor="start">P2</text><text x="749.1" y="760.0" font-family="Arial, Helvetica, sans-serif" font-size="11" fill="#111" text-anchor="start">Pump 2</text><text x="749.1" y="774.0" font-family="Arial, Helvetica, sans-serif" font-size="11" fill="#111" text-anchor="start">630 kW</text><circle cx="646.6" cy="295.0" r="19" fill="none" stroke="#111" stroke-width="2.2"/><circle cx="646.6" cy="322.0" r="19" fill="none" stroke="#111" stroke-width="2.2"/><text x="675.6" y="289.0" font-family="Arial, Helvetica, sans-serif" font-size="12" fill="#111" text-anchor="start">GT</text><text x="675.6" y="304.0" font-family="Arial, Helvetica, sans-serif" font-size="12" fill="#111" text-anchor="start">Grid tx</text><text x="675.6" y="319.0" font-family="Arial, Helvetica, sans-serif" font-size="12" fill="#111" text-anchor="start">10 MVA 33/11 kV</text><line x1="646.6" y1="229.0" x2="646.6" y2="231.0" stroke="#111" stroke-width="2" stroke-linecap="round"/><line x1="643.1" y1="231.0" x2="650.1" y2="238.0" stroke="#111" stroke-width="2" stroke-linecap="round"/><line x1="643.1" y1="238.0" x2="650.1" y2="231.0" stroke="#111" stroke-width="2" stroke-linecap="round"/><line x1="648.6" y1="237.5" x2="655.6" y2="246.0" stroke="#111" stroke-width="2" stroke-linecap="round"/><line x1="640.6" y1="246.0" x2="652.6" y2="246.0" stroke="#111" stroke-width="2" stroke-linecap="round"/><line x1="646.6" y1="246.0" x2="646.6" y2="255.0" stroke="#111" stroke-width="2" stroke-linecap="round"/><line x1="646.6" y1="208.0" x2="646.6" y2="229.0" stroke="#111" stroke-width="2" stroke-linecap="round"/><line x1="646.6" y1="255.0" x2="646.6" y2="276.0" stroke="#111" stroke-width="2" stroke-linecap="round"/><circle cx="646.6" cy="208.0" r="3.2" fill="#111"/><line x1="646.6" y1="361.5" x2="646.6" y2="363.5" stroke="#111" stroke-width="2" stroke-linecap="round"/><line x1="643.1" y1="363.5" x2="650.1" y2="370.5" stroke="#111" stroke-width="2" stroke-linecap="round"/><line x1="643.1" y1="370.5" x2="650.1" y2="363.5" stroke="#111" stroke-width="2" stroke-linecap="round"/><line x1="648.6" y1="370.0" x2="655.6" y2="378.5" stroke="#111" stroke-width="2" stroke-linecap="round"/><line x1="640.6" y1="378.5" x2="652.6" y2="378.5" stroke="#111" stroke-width="2" stroke-linecap="round"/><line x1="646.6" y1="378.5" x2="646.6" y2="387.5" stroke="#111" stroke-width="2" stroke-linecap="round"/><line x1="646.6" y1="341.0" x2="646.6" y2="361.5" stroke="#111" stroke-width="2" stroke-linecap="round"/><line x1="646.6" y1="387.5" x2="646.6" y2="408.0" stroke="#111" stroke-width="2" stroke-linecap="round"/><circle cx="646.6" cy="408.0" r="3.2" fill="#111"/><circle cx="859.9" cy="495.0" r="19" fill="none" stroke="#111" stroke-width="2.2"/><circle cx="859.9" cy="522.0" r="19" fill="none" stroke="#111" stroke-width="2.2"/><text x="888.9" y="489.0" font-family="Arial, Helvetica, sans-serif" font-size="12" fill="#111" text-anchor="start">PT</text><text x="888.9" y="504.0" font-family="Arial, Helvetica, sans-serif" font-size="12" fill="#111" text-anchor="start">Pump tx</text><text x="888.9" y="519.0" font-family="Arial, Helvetica, sans-serif" font-size="12" fill="#111" text-anchor="start">4 MVA 11/3.3 kV</text><line x1="859.9" y1="429.0" x2="859.9" y2="431.0" stroke="#111" stroke-width="2" stroke-linecap="round"/><line x1="856.4" y1="431.0" x2="863.4" y2="438.0" stroke="#111" stroke-width="2" stroke-linecap="round"/><line x1="856.4" y1="438.0" x2="863.4" y2="431.0" stroke="#111" stroke-width="2" stroke-linecap="round"/><line x1="861.9" y1="437.5" x2="868.9" y2="446.0" stroke="#111" stroke-width="2" stroke-linecap="round"/><line x1="853.9" y1="446.0" x2="865.9" y2="446.0" stroke="#111" stroke-width="2" stroke-linecap="round"/><line x1="859.9" y1="446.0" x2="859.9" y2="455.0" stroke="#111" stroke-width="2" stroke-linecap="round"/><line x1="859.9" y1="408.0" x2="859.9" y2="429.0" stroke="#111" stroke-width="2" stroke-linecap="round"/><line x1="859.9" y1="455.0" x2="859.9" y2="476.0" stroke="#111" stroke-width="2" stroke-linecap="round"/><circle cx="859.9" cy="408.0" r="3.2" fill="#111"/><line x1="859.9" y1="561.5" x2="859.9" y2="563.5" stroke="#111" stroke-width="2" stroke-linecap="round"/><line x1="856.4" y1="563.5" x2="863.4" y2="570.5" stroke="#111" stroke-width="2" stroke-linecap="round"/><line x1="856.4" y1="570.5" x2="863.4" y2="563.5" stroke="#111" stroke-width="2" stroke-linecap="round"/><line x1="861.9" y1="570.0" x2="868.9" y2="578.5" stroke="#111" stroke-width="2" stroke-linecap="round"/><line x1="853.9" y1="578.5" x2="865.9" y2="578.5" stroke="#111" stroke-width="2" stroke-linecap="round"/><line x1="859.9" y1="578.5" x2="859.9" y2="587.5" stroke="#111" stroke-width="2" stroke-linecap="round"/><line x1="859.9" y1="541.0" x2="859.9" y2="561.5" stroke="#111" stroke-width="2" stroke-linecap="round"/><line x1="859.9" y1="587.5" x2="859.9" y2="608.0" stroke="#111" stroke-width="2" stroke-linecap="round"/><circle cx="859.9" cy="608.0" r="3.2" fill="#111"/><circle cx="288.3" cy="742.0" r="19" fill="none" stroke="#111" stroke-width="2.2"/><circle cx="288.3" cy="769.0" r="19" fill="none" stroke="#111" stroke-width="2.2"/><text x="317.3" y="736.0" font-family="Arial, Helvetica, sans-serif" font-size="12" fill="#111" text-anchor="start">T1</text><text x="317.3" y="751.0" font-family="Arial, Helvetica, sans-serif" font-size="12" fill="#111" text-anchor="start">Dist tx</text><text x="317.3" y="766.0" font-family="Arial, Helvetica, sans-serif" font-size="12" fill="#111" text-anchor="start">1600 kVA 11/0.4 kV</text><line x1="288.3" y1="552.5" x2="288.3" y2="554.5" stroke="#111" stroke-width="2" stroke-linecap="round"/><line x1="284.8" y1="554.5" x2="291.8" y2="561.5" stroke="#111" stroke-width="2" stroke-linecap="round"/><line x1="284.8" y1="561.5" x2="291.8" y2="554.5" stroke="#111" stroke-width="2" stroke-linecap="round"/><line x1="290.3" y1="561.0" x2="297.3" y2="569.5" stroke="#111" stroke-width="2" stroke-linecap="round"/><line x1="282.3" y1="569.5" x2="294.3" y2="569.5" stroke="#111" stroke-width="2" stroke-linecap="round"/><line x1="288.3" y1="569.5" x2="288.3" y2="578.5" stroke="#111" stroke-width="2" stroke-linecap="round"/><line x1="288.3" y1="408.0" x2="288.3" y2="552.5" stroke="#111" stroke-width="2" stroke-linecap="round"/><line x1="288.3" y1="578.5" x2="288.3" y2="723.0" stroke="#111" stroke-width="2" stroke-linecap="round"/><circle cx="288.3" cy="408.0" r="3.2" fill="#111"/><line x1="288.3" y1="824.0" x2="288.3" y2="826.0" stroke="#111" stroke-width="2" stroke-linecap="round"/><line x1="284.8" y1="826.0" x2="291.8" y2="833.0" stroke="#111" stroke-width="2" stroke-linecap="round"/><line x1="284.8" y1="833.0" x2="291.8" y2="826.0" stroke="#111" stroke-width="2" stroke-linecap="round"/><line x1="290.3" y1="832.5" x2="297.3" y2="841.0" stroke="#111" stroke-width="2" stroke-linecap="round"/><line x1="282.3" y1="841.0" x2="294.3" y2="841.0" stroke="#111" stroke-width="2" stroke-linecap="round"/><line x1="288.3" y1="841.0" x2="288.3" y2="850.0" stroke="#111" stroke-width="2" stroke-linecap="round"/><line x1="288.3" y1="788.0" x2="288.3" y2="824.0" stroke="#111" stroke-width="2" stroke-linecap="round"/><line x1="288.3" y1="850.0" x2="288.3" y2="886.0" stroke="#111" stroke-width="2" stroke-linecap="round"/><circle cx="288.3" cy="886.0" r="3.2" fill="#111"/><circle cx="1004.9" cy="742.0" r="19" fill="none" stroke="#111" stroke-width="2.2"/><circle cx="1004.9" cy="769.0" r="19" fill="none" stroke="#111" stroke-width="2.2"/><text x="1033.9" y="736.0" font-family="Arial, Helvetica, sans-serif" font-size="12" fill="#111" text-anchor="start">T2</text><text x="1033.9" y="751.0" font-family="Arial, Helvetica, sans-serif" font-size="12" fill="#111" text-anchor="start">Pump aux tx</text><text x="1033.9" y="766.0" font-family="Arial, Helvetica, sans-serif" font-size="12" fill="#111" text-anchor="start">250 kVA 3.3/0.4 kV</text><line x1="1004.9" y1="652.5" x2="1004.9" y2="654.5" stroke="#111" stroke-width="2" stroke-linecap="round"/><line x1="1001.4" y1="654.5" x2="1008.4" y2="661.5" stroke="#111" stroke-width="2" stroke-linecap="round"/><line x1="1001.4" y1="661.5" x2="1008.4" y2="654.5" stroke="#111" stroke-width="2" stroke-linecap="round"/><line x1="1006.9" y1="661.0" x2="1013.9" y2="669.5" stroke="#111" stroke-width="2" stroke-linecap="round"/><line x1="998.9" y1="669.5" x2="1010.9" y2="669.5" stroke="#111" stroke-width="2" stroke-linecap="round"/><line x1="1004.9" y1="669.5" x2="1004.9" y2="678.5" stroke="#111" stroke-width="2" stroke-linecap="round"/><line x1="1004.9" y1="608.0" x2="1004.9" y2="652.5" stroke="#111" stroke-width="2" stroke-linecap="round"/><line x1="1004.9" y1="678.5" x2="1004.9" y2="723.0" stroke="#111" stroke-width="2" stroke-linecap="round"/><circle cx="1004.9" cy="608.0" r="3.2" fill="#111"/><line x1="1004.9" y1="824.0" x2="1004.9" y2="826.0" stroke="#111" stroke-width="2" stroke-linecap="round"/><line x1="1001.4" y1="826.0" x2="1008.4" y2="833.0" stroke="#111" stroke-width="2" stroke-linecap="round"/><line x1="1001.4" y1="833.0" x2="1008.4" y2="826.0" stroke="#111" stroke-width="2" stroke-linecap="round"/><line x1="1006.9" y1="832.5" x2="1013.9" y2="841.0" stroke="#111" stroke-width="2" stroke-linecap="round"/><line x1="998.9" y1="841.0" x2="1010.9" y2="841.0" stroke="#111" stroke-width="2" stroke-linecap="round"/><line x1="1004.9" y1="841.0" x2="1004.9" y2="850.0" stroke="#111" stroke-width="2" stroke-linecap="round"/><line x1="1004.9" y1="788.0" x2="1004.9" y2="824.0" stroke="#111" stroke-width="2" stroke-linecap="round"/><line x1="1004.9" y1="850.0" x2="1004.9" y2="886.0" stroke="#111" stroke-width="2" stroke-linecap="round"/><circle cx="1004.9" cy="886.0" r="3.2" fill="#111"/><line x1="90.0" y1="886.0" x2="486.6" y2="886.0" stroke="#111" stroke-width="5.5" stroke-linecap="round"/><line x1="806.6" y1="886.0" x2="1203.2" y2="886.0" stroke="#111" stroke-width="5.5" stroke-linecap="round"/><circle cx="288.3" cy="886.0" r="3.2" fill="#111"/><line x1="288.3" y1="903.0" x2="288.3" y2="905.0" stroke="#111" stroke-width="2" stroke-linecap="round"/><line x1="284.8" y1="905.0" x2="291.8" y2="912.0" stroke="#111" stroke-width="2" stroke-linecap="round"/><line x1="284.8" y1="912.0" x2="291.8" y2="905.0" stroke="#111" stroke-width="2" stroke-linecap="round"/><line x1="290.3" y1="911.5" x2="297.3" y2="920.0" stroke="#111" stroke-width="2" stroke-linecap="round"/><line x1="282.3" y1="920.0" x2="294.3" y2="920.0" stroke="#111" stroke-width="2" stroke-linecap="round"/><line x1="288.3" y1="920.0" x2="288.3" y2="929.0" stroke="#111" stroke-width="2" stroke-linecap="round"/><line x1="288.3" y1="886.0" x2="288.3" y2="903.0" stroke="#111" stroke-width="2" stroke-linecap="round"/><line x1="288.3" y1="929.0" x2="288.3" y2="964.0" stroke="#111" stroke-width="2" stroke-linecap="round"/><polygon points="282.3,963.0 294.3,963.0 288.3,974.0" fill="#111"/><text x="0" y="0" transform="translate(292.3,992.0) rotate(90)" font-family="Arial, Helvetica, sans-serif" font-size="11" fill="#111" text-anchor="start">F1 · Feeder · 250 A</text><circle cx="1004.9" cy="886.0" r="3.2" fill="#111"/><line x1="1004.9" y1="903.0" x2="1004.9" y2="905.0" stroke="#111" stroke-width="2" stroke-linecap="round"/><line x1="1001.4" y1="905.0" x2="1008.4" y2="912.0" stroke="#111" stroke-width="2" stroke-linecap="round"/><line x1="1001.4" y1="912.0" x2="1008.4" y2="905.0" stroke="#111" stroke-width="2" stroke-linecap="round"/><line x1="1006.9" y1="911.5" x2="1013.9" y2="920.0" stroke="#111" stroke-width="2" stroke-linecap="round"/><line x1="998.9" y1="920.0" x2="1010.9" y2="920.0" stroke="#111" stroke-width="2" stroke-linecap="round"/><line x1="1004.9" y1="920.0" x2="1004.9" y2="929.0" stroke="#111" stroke-width="2" stroke-linecap="round"/><line x1="1004.9" y1="886.0" x2="1004.9" y2="903.0" stroke="#111" stroke-width="2" stroke-linecap="round"/><line x1="1004.9" y1="929.0" x2="1004.9" y2="964.0" stroke="#111" stroke-width="2" stroke-linecap="round"/><polygon points="998.9,963.0 1010.9,963.0 1004.9,974.0" fill="#111"/><text x="0" y="0" transform="translate(1008.9,992.0) rotate(90)" font-family="Arial, Helvetica, sans-serif" font-size="11" fill="#111" text-anchor="start">F2 · Aux · 100 A</text><text x="90.0" y="196.0" font-family="Arial, Helvetica, sans-serif" font-size="11.5" fill="#111" text-anchor="start" font-weight="bold">HV 33 kV board 630 A 33 kV</text><text x="90.0" y="396.0" font-family="Arial, Helvetica, sans-serif" font-size="11.5" fill="#111" text-anchor="start" font-weight="bold">MV 11 kV board 1250 A 11 kV</text><text x="516.6" y="596.0" font-family="Arial, Helvetica, sans-serif" font-size="11.5" fill="#111" text-anchor="start" font-weight="bold">PB 3.3 kV board 800 A 3.3 kV</text><text x="90.0" y="874.0" font-family="Arial, Helvetica, sans-serif" font-size="11.5" fill="#111" text-anchor="start" font-weight="bold">LV1 LV board 1 2500 A 400 V</text><text x="806.6" y="874.0" font-family="Arial, Helvetica, sans-serif" font-size="11.5" fill="#111" text-anchor="start" font-weight="bold">LV2 Pump aux LV 400 A 400 V</text><rect x="1211.2" y="1068.0" width="288.0" height="96.0" fill="none" stroke="#111" stroke-width="1.5"/><line x1="1211.2" y1="1092.0" x2="1499.2" y2="1092.0" stroke="#111" stroke-width="1.5" stroke-linecap="round"/><text x="1221.2" y="1085.0" font-family="Arial, Helvetica, sans-serif" font-size="12" fill="#111" text-anchor="start" font-weight="bold">SLD SKETCH — SITE SURVEY</text><text x="1221.2" y="1108.0" font-family="Arial, Helvetica, sans-serif" font-size="11" fill="#111" text-anchor="start" font-weight="bold">Site:</text><text x="1269.2" y="1108.0" font-family="Arial, Helvetica, sans-serif" font-size="11" fill="#111" text-anchor="start">L7 three tiers</text><text x="1221.2" y="1124.0" font-family="Arial, Helvetica, sans-serif" font-size="11" fill="#111" text-anchor="start" font-weight="bold">Date:</text><text x="1221.2" y="1140.0" font-family="Arial, Helvetica, sans-serif" font-size="11" fill="#111" text-anchor="start" font-weight="bold">By:</text><text x="1221.2" y="1156.0" font-family="Arial, Helvetica, sans-serif" font-size="11" fill="#111" text-anchor="start" font-weight="bold">Notes:</text><text x="1269.2" y="1156.0" font-family="Arial, Helvetica, sans-serif" font-size="11" fill="#111" text-anchor="start">multi-level test</text><rect x="24.0" y="1190.0" width="900.0" height="82.0" fill="none" stroke="#111" stroke-width="1.2"/><text x="32.0" y="1204.0" font-family="Arial, Helvetica, sans-serif" font-size="10" fill="#111" text-anchor="start" font-weight="bold">LEGEND</text><line x1="66.0" y1="1214.0" x2="66.0" y2="1216.0" stroke="#111" stroke-width="2" stroke-linecap="round"/><line x1="62.5" y1="1216.0" x2="69.5" y2="1223.0" stroke="#111" stroke-width="2" stroke-linecap="round"/><line x1="62.5" y1="1223.0" x2="69.5" y2="1216.0" stroke="#111" stroke-width="2" stroke-linecap="round"/><line x1="68.0" y1="1222.5" x2="75.0" y2="1231.0" stroke="#111" stroke-width="2" stroke-linecap="round"/><line x1="60.0" y1="1231.0" x2="72.0" y2="1231.0" stroke="#111" stroke-width="2" stroke-linecap="round"/><line x1="66.0" y1="1231.0" x2="66.0" y2="1240.0" stroke="#111" stroke-width="2" stroke-linecap="round"/><line x1="66.0" y1="1212.0" x2="66.0" y2="1214.0" stroke="#111" stroke-width="2" stroke-linecap="round"/><line x1="66.0" y1="1240.0" x2="66.0" y2="1242.0" stroke="#111" stroke-width="2" stroke-linecap="round"/><text x="66.0" y="1254.0" font-family="Arial, Helvetica, sans-serif" font-size="9" fill="#111" text-anchor="middle">Circuit</text><text x="66.0" y="1264.0" font-family="Arial, Helvetica, sans-serif" font-size="9" fill="#111" text-anchor="middle">breaker</text><line x1="134.0" y1="1212.0" x2="134.0" y2="1215.0" stroke="#111" stroke-width="2" stroke-linecap="round"/><circle cx="134.0" cy="1217.5" r="2.5" fill="none" stroke="#111" stroke-width="1.5"/><line x1="136.0" y1="1220.0" x2="143.0" y2="1233.0" stroke="#111" stroke-width="2" stroke-linecap="round"/><line x1="128.0" y1="1233.0" x2="140.0" y2="1233.0" stroke="#111" stroke-width="2" stroke-linecap="round"/><line x1="134.0" y1="1233.0" x2="134.0" y2="1242.0" stroke="#111" stroke-width="2" stroke-linecap="round"/><text x="134.0" y="1254.0" font-family="Arial, Helvetica, sans-serif" font-size="9" fill="#111" text-anchor="middle">Load-break</text><text x="134.0" y="1264.0" font-family="Arial, Helvetica, sans-serif" font-size="9" fill="#111" text-anchor="middle">switch</text><rect x="198.0" y="1216.0" width="8.0" height="22.0" fill="none" stroke="#111" stroke-width="2"/><line x1="202.0" y1="1216.0" x2="202.0" y2="1238.0" stroke="#111" stroke-width="2" stroke-linecap="round"/><line x1="202.0" y1="1212.0" x2="202.0" y2="1216.0" stroke="#111" stroke-width="2" stroke-linecap="round"/><line x1="202.0" y1="1238.0" x2="202.0" y2="1242.0" stroke="#111" stroke-width="2" stroke-linecap="round"/><text x="202.0" y="1254.0" font-family="Arial, Helvetica, sans-serif" font-size="9" fill="#111" text-anchor="middle">Fuse</text><line x1="270.0" y1="1212.0" x2="270.0" y2="1215.0" stroke="#111" stroke-width="2" stroke-linecap="round"/><circle cx="270.0" cy="1217.5" r="2.5" fill="none" stroke="#111" stroke-width="1.5"/><line x1="272.0" y1="1220.0" x2="279.0" y2="1222.0" stroke="#111" stroke-width="2" stroke-linecap="round"/><line x1="264.0" y1="1222.0" x2="276.0" y2="1222.0" stroke="#111" stroke-width="2" stroke-linecap="round"/><line x1="270.0" y1="1222.0" x2="270.0" y2="1231.0" stroke="#111" stroke-width="2" stroke-linecap="round"/><rect x="266.0" y="1233.0" width="8.0" height="7.0" fill="none" stroke="#111" stroke-width="2"/><line x1="270.0" y1="1231.0" x2="270.0" y2="1233.0" stroke="#111" stroke-width="2" stroke-linecap="round"/><line x1="270.0" y1="1240.0" x2="270.0" y2="1242.0" stroke="#111" stroke-width="2" stroke-linecap="round"/><text x="270.0" y="1254.0" font-family="Arial, Helvetica, sans-serif" font-size="9" fill="#111" text-anchor="middle">Fuse-switch</text><line x1="338.0" y1="1214.0" x2="338.0" y2="1216.0" stroke="#111" stroke-width="2" stroke-linecap="round"/><path d="M 334.0,1220.0 A 4,4 0 0 1 342.0,1220.0" fill="none" stroke="#111" stroke-width="2" stroke-linecap="round"/><line x1="340.0" y1="1222.0" x2="346.0" y2="1234.0" stroke="#111" stroke-width="2" stroke-linecap="round"/><line x1="338.0" y1="1236.0" x2="338.0" y2="1240.0" stroke="#111" stroke-width="2" stroke-linecap="round"/><line x1="338.0" y1="1212.0" x2="338.0" y2="1214.0" stroke="#111" stroke-width="2" stroke-linecap="round"/><line x1="338.0" y1="1240.0" x2="338.0" y2="1242.0" stroke="#111" stroke-width="2" stroke-linecap="round"/><text x="338.0" y="1254.0" font-family="Arial, Helvetica, sans-serif" font-size="9" fill="#111" text-anchor="middle">Contactor</text><rect x="402.0" y="1211.0" width="8.0" height="12.0" fill="none" stroke="#111" stroke-width="2"/><line x1="406.0" y1="1211.0" x2="406.0" y2="1223.0" stroke="#111" stroke-width="2" stroke-linecap="round"/><path d="M 402.0,1227.0 A 4,4 0 0 1 410.0,1227.0" fill="none" stroke="#111" stroke-width="2" stroke-linecap="round"/><line x1="408.0" y1="1229.0" x2="413.0" y2="1238.0" stroke="#111" stroke-width="2" stroke-linecap="round"/><line x1="406.0" y1="1239.0" x2="406.0" y2="1243.0" stroke="#111" stroke-width="2" stroke-linecap="round"/><line x1="406.0" y1="1212.0" x2="406.0" y2="1211.0" stroke="#111" stroke-width="2" stroke-linecap="round"/><line x1="406.0" y1="1243.0" x2="406.0" y2="1242.0" stroke="#111" stroke-width="2" stroke-linecap="round"/><text x="406.0" y="1254.0" font-family="Arial, Helvetica, sans-serif" font-size="9" fill="#111" text-anchor="middle">Fused</text><text x="406.0" y="1264.0" font-family="Arial, Helvetica, sans-serif" font-size="9" fill="#111" text-anchor="middle">contactor</text><circle cx="474.0" cy="1222.0" r="8" fill="none" stroke="#111" stroke-width="2"/><circle cx="474.0" cy="1232.0" r="8" fill="none" stroke="#111" stroke-width="2"/><text x="474.0" y="1254.0" font-family="Arial, Helvetica, sans-serif" font-size="9" fill="#111" text-anchor="middle">Transformer</text><circle cx="542.0" cy="1227.0" r="9" fill="none" stroke="#111" stroke-width="2"/><text x="542.0" y="1230.5" font-family="Arial, Helvetica, sans-serif" font-size="9" fill="#111" text-anchor="middle" font-weight="bold">G</text><text x="542.0" y="1254.0" font-family="Arial, Helvetica, sans-serif" font-size="9" fill="#111" text-anchor="middle">Generator</text><circle cx="610.0" cy="1227.0" r="9" fill="none" stroke="#111" stroke-width="2"/><text x="610.0" y="1230.5" font-family="Arial, Helvetica, sans-serif" font-size="9" fill="#111" text-anchor="middle" font-weight="bold">M</text><text x="610.0" y="1254.0" font-family="Arial, Helvetica, sans-serif" font-size="9" fill="#111" text-anchor="middle">Pump/motor</text><line x1="664.0" y1="1227.0" x2="692.0" y2="1227.0" stroke="#111" stroke-width="5" stroke-linecap="round"/><text x="678.0" y="1254.0" font-family="Arial, Helvetica, sans-serif" font-size="9" fill="#111" text-anchor="middle">Busbar</text><rect x="735.0" y="1219.0" width="22.0" height="16.0" fill="none" stroke="#111" stroke-width="1.5"/><text x="746.0" y="1230.0" font-family="Arial, Helvetica, sans-serif" font-size="6.5" fill="#111" text-anchor="middle">MCC</text><text x="746.0" y="1254.0" font-family="Arial, Helvetica, sans-serif" font-size="9" fill="#111" text-anchor="middle">MCC</text><line x1="814.0" y1="1214.0" x2="814.0" y2="1231.0" stroke="#111" stroke-width="2" stroke-linecap="round"/><polygon points="808.0,1231.0 820.0,1231.0 814.0,1242.0" fill="#111"/><text x="814.0" y="1254.0" font-family="Arial, Helvetica, sans-serif" font-size="9" fill="#111" text-anchor="middle">Feeder</text><rect x="869.0" y="1217.0" width="26.0" height="20.0" fill="none" stroke="#111" stroke-width="1.2" stroke-dasharray="4 3"/><text x="882.0" y="1254.0" font-family="Arial, Helvetica, sans-serif" font-size="9" fill="#111" text-anchor="middle">RMU/MCC</text><text x="882.0" y="1264.0" font-family="Arial, Helvetica, sans-serif" font-size="9" fill="#111" text-anchor="middle">enclosure</text></svg>