<svg xmlns="http://www.w3.org/2000/svg" width="1620" height="1054" viewBox="0 0 1620 1054"><rect width="100%" height="100%" fill="white"/><text x="24.0" y="928.0" font-family="Arial, Helvetica, sans-serif" font-size="16" fill="#111" text-anchor="start" font-weight="bold">F3 Terminal items — Single Line Diagram (sketch)</text><rect x="595.5" y="300.0" width="436.5" height="118.0" fill="none" stroke="#111" stroke-width="1.6" stroke-dasharray="7 5"/><line x1="619.5" y1="359.0" x2="1008.0" y2="359.0" stroke="#111" stroke-width="3.4" stroke-linecap="round"/><line x1="865.0" y1="316.5" x2="865.0" y2="318.5" stroke="#111" stroke-width="2" stroke-linecap="round"/><line x1="861.5" y1="318.5" x2="868.5" y2="325.5" stroke="#111" stroke-width="2" stroke-linecap="round"/><line x1="861.5" y1="325.5" x2="868.5" y2="318.5" stroke="#111" stroke-width="2" stroke-linecap="round"/><line x1="867.0" y1="325.0" x2="874.0" y2="333.5" stroke="#111" stroke-width="2" stroke-linecap="round"/><line x1="859.0" y1="333.5" x2="871.0" y2="333.5" stroke="#111" stroke-width="2" stroke-linecap="round"/><line x1="865.0" y1="333.5" x2="865.0" y2="342.5" stroke="#111" stroke-width="2" stroke-linecap="round"/><line x1="865.0" y1="300.0" x2="865.0" y2="316.5" stroke="#111" stroke-width="2" stroke-linecap="round"/><line x1="865.0" y1="342.5" x2="865.0" y2="359.0" stroke="#111" stroke-width="2" stroke-linecap="round"/><circle cx="865.0" cy="359.0" r="3.2" fill="#111"/><line x1="637.5" y1="363.0" x2="637.5" y2="366.0" stroke="#111" stroke-width="2" stroke-linecap="round"/><circle cx="637.5" cy="368.5" r="2.5" fill="none" stroke="#111" stroke-width="1.5"/><line x1="639.5" y1="371.0" x2="646.5" y2="381.5" stroke="#111" stroke-width="2" stroke-linecap="round"/><line x1="631.5" y1="381.5" x2="643.5" y2="381.5" stroke="#111" stroke-width="2" stroke-linecap="round"/><line x1="637.5" y1="381.5" x2="637.5" y2="390.5" stroke="#111" stroke-width="2" stroke-linecap="round"/><rect x="633.5" y="392.5" width="8.0" height="15.5" fill="none" stroke="#111" stroke-width="2"/><line x1="637.5" y1="390.5" x2="637.5" y2="392.5" stroke="#111" stroke-width="2" stroke-linecap="round"/><line x1="637.5" y1="408.0" x2="637.5" y2="410.0" stroke="#111" stroke-width="2" stroke-linecap="round"/><line x1="637.5" y1="359.0" x2="637.5" y2="363.0" stroke="#111" stroke-width="2" stroke-linecap="round"/><line x1="637.5" y1="410.0" x2="637.5" y2="418.0" stroke="#111" stroke-width="2" stroke-linecap="round"/><circle cx="637.5" cy="359.0" r="3.2" fill="#111"/><line x1="762.5" y1="363.0" x2="762.5" y2="366.0" stroke="#111" stroke-width="2" stroke-linecap="round"/><circle cx="762.5" cy="368.5" r="2.5" fill="none" stroke="#111" stroke-width="1.5"/><line x1="764.5" y1="371.0" x2="771.5" y2="381.5" stroke="#111" stroke-width="2" stroke-linecap="round"/><line x1="756.5" y1="381.5" x2="768.5" y2="381.5" stroke="#111" stroke-width="2" stroke-linecap="round"/><line x1="762.5" y1="381.5" x2="762.5" y2="390.5" stroke="#111" stroke-width="2" stroke-linecap="round"/><rect x="758.5" y="392.5" width="8.0" height="15.5" fill="none" stroke="#111" stroke-width="2"/><line x1="762.5" y1="390.5" x2="762.5" y2="392.5" stroke="#111" stroke-width="2" stroke-linecap="round"/><line x1="762.5" y1="408.0" x2="762.5" y2="410.0" stroke="#111" stroke-width="2" stroke-linecap="round"/><line x1="762.5" y1="359.0" x2="762.5" y2="363.0" stroke="#111" stroke-width="2" stroke-linecap="round"/><line x1="762.5" y1="410.0" x2="762.5" y2="418.0" stroke="#111" stroke-width="2" stroke-linecap="round"/><circle cx="762.5" cy="359.0" r="3.2" fill="#111"/><line x1="990.0" y1="363.0" x2="990.0" y2="366.0" stroke="#111" stroke-width="2" stroke-linecap="round"/><circle cx="990.0" cy="368.5" r="2.5" fill="none" stroke="#111" stroke-width="1.5"/><line x1="992.0" y1="371.0" x2="999.0" y2="381.5" stroke="#111" stroke-width="2" stroke-linecap="round"/><line x1="984.0" y1="381.5" x2="996.0" y2="381.5" stroke="#111" stroke-width="2" stroke-linecap="round"/><line x1="990.0" y1="381.5" x2="990.0" y2="390.5" stroke="#111" stroke-width="2" stroke-linecap="round"/><rect x="986.0" y="392.5" width="8.0" height="15.5" fill="none" stroke="#111" stroke-width="2"/><line x1="990.0" y1="390.5" x2="990.0" y2="392.5" stroke="#111" stroke-width="2" stroke-linecap="round"/><line x1="990.0" y1="408.0" x2="990.0" y2="410.0" stroke="#111" stroke-width="2" stroke-linecap="round"/><line x1="990.0" y1="359.0" x2="990.0" y2="363.0" stroke="#111" stroke-width="2" stroke-linecap="round"/><line x1="990.0" y1="410.0" x2="990.0" y2="418.0" stroke="#111" stroke-width="2" stroke-linecap="round"/><circle cx="990.0" cy="359.0" r="3.2" fill="#111"/><text x="1042.0" y="316.0" font-family="Arial, Helvetica, sans-serif" font-size="12" fill="#111" text-anchor="start" font-weight="bold">R1</text><text x="1042.0" y="331.0" font-family="Arial, Helvetica, sans-serif" font-size="12" fill="#111" text-anchor="start">RMU</text><text x="1042.0" y="346.0" font-family="Arial, Helvetica, sans-serif" font-size="12" fill="#111" text-anchor="start">630 A 11 kV</text><line x1="684.0" y1="62.0" x2="706.0" y2="62.0" stroke="#111" stroke-width="3" stroke-linecap="round"/><text x="695.0" y="18.0" font-family="Arial, Helvetica, sans-serif" font-size="11.5" fill="#111" text-anchor="middle" font-weight="bold">U</text><text x="695.0" y="32.0" font-family="Arial, Helvetica, sans-serif" font-size="11.5" fill="#111" text-anchor="middle">Utility</text><text x="695.0" y="46.0" font-family="Arial, Helvetica, sans-serif" font-size="11.5" fill="#111" text-anchor="middle">11 kV</text><line x1="695.0" y1="122.0" x2="695.0" y2="124.0" stroke="#111" stroke-width="2" stroke-linecap="round"/><line x1="691.5" y1="124.0" x2="698.5" y2="131.0" stroke="#111" stroke-width="2" stroke-linecap="round"/><line x1="691.5" y1="131.0" x2="698.5" y2="124.0" stroke="#111" stroke-width="2" stroke-linecap="round"/><line x1="697.0" y1="130.5" x2="704.0" y2="139.0" stroke="#111" stroke-width="2" stroke-linecap="round"/><line x1="689.0" y1="139.0" x2="701.0" y2="139.0" stroke="#111" stroke-width="2" stroke-linecap="round"/><line x1="695.0" y1="139.0" x2="695.0" y2="148.0" stroke="#111" stroke-width="2" stroke-linecap="round"/><line x1="695.0" y1="62.0" x2="695.0" y2="122.0" stroke="#111" stroke-width="2" stroke-linecap="round"/><line x1="695.0" y1="148.0" x2="695.0" y2="208.0" stroke="#111" stroke-width="2" stroke-linecap="round"/><circle cx="695.0" cy="208.0" r="3.2" fill="#111"/><line x1="90.0" y1="208.0" x2="1300.0" y2="208.0" stroke="#111" stroke-width="5.5" stroke-linecap="round"/><circle cx="865.0" cy="208.0" r="3.2" fill="#111"/><line x1="865.0" y1="241.0" x2="865.0" y2="243.0" stroke="#111" stroke-width="2" stroke-linecap="round"/><line x1="861.5" y1="243.0" x2="868.5" y2="250.0" stroke="#111" stroke-width="2" stroke-linecap="round"/><line x1="861.5" y1="250.0" x2="868.5" y2="243.0" stroke="#111" stroke-width="2" stroke-linecap="round"/><line x1="867.0" y1="249.5" x2="874.0" y2="258.0" stroke="#111" stroke-width="2" stroke-linecap="round"/><line x1="859.0" y1="258.0" x2="871.0" y2="258.0" stroke="#111" stroke-width="2" stroke-linecap="round"/><line x1="865.0" y1="258.0" x2="865.0" y2="267.0" stroke="#111" stroke-width="2" stroke-linecap="round"/><line x1="865.0" y1="208.0" x2="865.0" y2="241.0" stroke="#111" stroke-width="2" stroke-linecap="round"/><line x1="865.0" y1="267.0" x2="865.0" y2="300.0" stroke="#111" stroke-width="2" stroke-linecap="round"/><circle cx="990.0" cy="492.0" r="19" fill="none" stroke="#111" stroke-width="2.2"/><circle cx="990.0" cy="519.0" r="19" fill="none" stroke="#111" stroke-width="2.2"/><text x="1019.0" y="486.0" font-family="Arial, Helvetica, sans-serif" font-size="12" fill="#111" text-anchor="start">T1</text><text x="1019.0" y="501.0" font-family="Arial, Helvetica, sans-serif" font-size="12" fill="#111" text-anchor="start">Tx 1</text><text x="1019.0" y="516.0" font-family="Arial, Helvetica, sans-serif" font-size="12" fill="#111" text-anchor="start">1000 kVA 11/0.4 kV</text><line x1="990.0" y1="418.0" x2="990.0" y2="473.0" stroke="#111" stroke-width="2" stroke-linecap="round"/><line x1="990.0" y1="574.0" x2="990.0" y2="576.0" stroke="#111" stroke-width="2" stroke-linecap="round"/><line x1="986.5" y1="576.0" x2="993.5" y2="583.0" stroke="#111" stroke-width="2" stroke-linecap="round"/><line x1="986.5" y1="583.0" x2="993.5" y2="576.0" stroke="#111" stroke-width="2" stroke-linecap="round"/><line x1="992.0" y1="582.5" x2="999.0" y2="591.0" stroke="#111" stroke-width="2" stroke-linecap="round"/><line x1="984.0" y1="591.0" x2="996.0" y2="591.0" stroke="#111" stroke-width="2" stroke-linecap="round"/><line x1="990.0" y1="591.0" x2="990.0" y2="600.0" stroke="#111" stroke-width="2" stroke-linecap="round"/><line x1="990.0" y1="538.0" x2="990.0" y2="574.0" stroke="#111" stroke-width="2" stroke-linecap="round"/><line x1="990.0" y1="600.0" x2="990.0" y2="636.0" stroke="#111" stroke-width="2" stroke-linecap="round"/><circle cx="990.0" cy="636.0" r="3.2" fill="#111"/><circle cx="1235.0" cy="492.0" r="19" fill="none" stroke="#111" stroke-width="2.2"/><circle cx="1235.0" cy="519.0" r="19" fill="none" stroke="#111" stroke-width="2.2"/><text x="1264.0" y="486.0" font-family="Arial, Helvetica, sans-serif" font-size="12" fill="#111" text-anchor="start">ET</text><text x="1264.0" y="501.0" font-family="Arial, Helvetica, sans-serif" font-size="12" fill="#111" text-anchor="start">Earthing tx</text><text x="1264.0" y="516.0" font-family="Arial, Helvetica, sans-serif" font-size="12" fill="#111" text-anchor="start">11 kV</text><line x1="1235.0" y1="327.5" x2="1235.0" y2="329.5" stroke="#111" stroke-width="2" stroke-linecap="round"/><line x1="1231.5" y1="329.5" x2="1238.5" y2="336.5" stroke="#111" stroke-width="2" stroke-linecap="round"/><line x1="1231.5" y1="336.5" x2="1238.5" y2="329.5" stroke="#111" stroke-width="2" stroke-linecap="round"/><line x1="1237.0" y1="336.0" x2="1244.0" y2="344.5" stroke="#111" stroke-width="2" stroke-linecap="round"/><line x1="1229.0" y1="344.5" x2="1241.0" y2="344.5" stroke="#111" stroke-width="2" stroke-linecap="round"/><line x1="1235.0" y1="344.5" x2="1235.0" y2="353.5" stroke="#111" stroke-width="2" stroke-linecap="round"/><line x1="1235.0" y1="208.0" x2="1235.0" y2="327.5" stroke="#111" stroke-width="2" stroke-linecap="round"/><line x1="1235.0" y1="353.5" x2="1235.0" y2="473.0" stroke="#111" stroke-width="2" stroke-linecap="round"/><circle cx="1235.0" cy="208.0" r="3.2" fill="#111"/><line x1="1235.0" y1="538.0" x2="1235.0" y2="548.0" stroke="#111" stroke-width="2" stroke-linecap="round"/><rect x="1229.0" y="548.0" width="12.0" height="30.0" fill="none" stroke="#111" stroke-width="2"/><line x1="1235.0" y1="578.0" x2="1235.0" y2="586.0" stroke="#111" stroke-width="2" stroke-linecap="round"/><line x1="1226.0" y1="586.0" x2="1244.0" y2="586.0" stroke="#111" stroke-width="2" stroke-linecap="round"/><line x1="1229.0" y1="590.0" x2="1241.0" y2="590.0" stroke="#111" stroke-width="2" stroke-linecap="round"/><line x1="1232.0" y1="594.0" x2="1238.0" y2="594.0" stroke="#111" stroke-width="2" stroke-linecap="round"/><line x1="840.0" y1="636.0" x2="1140.0" y2="636.0" stroke="#111" stroke-width="5.5" stroke-linecap="round"/><circle cx="137.5" cy="208.0" r="3.2" fill="#111"/><line x1="137.5" y1="330.0" x2="137.5" y2="332.0" stroke="#111" stroke-width="2" stroke-linecap="round"/><line x1="134.0" y1="332.0" x2="141.0" y2="339.0" stroke="#111" stroke-width="2" stroke-linecap="round"/><line x1="134.0" y1="339.0" x2="141.0" y2="332.0" stroke="#111" stroke-width="2" stroke-linecap="round"/><line x1="139.5" y1="338.5" x2="146.5" y2="347.0" stroke="#111" stroke-width="2" stroke-linecap="round"/><line x1="131.5" y1="347.0" x2="143.5" y2="347.0" stroke="#111" stroke-width="2" stroke-linecap="round"/><line x1="137.5" y1="347.0" x2="137.5" y2="356.0" stroke="#111" stroke-width="2" stroke-linecap="round"/><line x1="137.5" y1="208.0" x2="137.5" y2="330.0" stroke="#111" stroke-width="2" stroke-linecap="round"/><line x1="137.5" y1="356.0" x2="137.5" y2="478.0" stroke="#111" stroke-width="2" stroke-linecap="round"/><line x1="128.5" y1="478.0" x2="146.5" y2="478.0" stroke="#111" stroke-width="2.5" stroke-linecap="round"/><line x1="128.5" y1="484.0" x2="146.5" y2="484.0" stroke="#111" stroke-width="2.5" stroke-linecap="round"/><line x1="137.5" y1="484.0" x2="137.5" y2="494.0" stroke="#111" stroke-width="2" stroke-linecap="round"/><line x1="128.5" y1="494.0" x2="146.5" y2="494.0" stroke="#111" stroke-width="2" stroke-linecap="round"/><line x1="131.5" y1="498.0" x2="143.5" y2="498.0" stroke="#111" stroke-width="2" stroke-linecap="round"/><line x1="134.5" y1="502.0" x2="140.5" y2="502.0" stroke="#111" stroke-width="2" stroke-linecap="round"/><text x="0" y="0" transform="translate(141.5,514.0) rotate(90)" font-family="Arial, Helvetica, sans-serif" font-size="11" fill="#111" text-anchor="start">CB1 · PFC bank · 2 Mvar</text><circle cx="262.5" cy="208.0" r="3.2" fill="#111"/><line x1="262.5" y1="330.0" x2="262.5" y2="332.0" stroke="#111" stroke-width="2" stroke-linecap="round"/><line x1="259.0" y1="332.0" x2="266.0" y2="339.0" stroke="#111" stroke-width="2" stroke-linecap="round"/><line x1="259.0" y1="339.0" x2="266.0" y2="332.0" stroke="#111" stroke-width="2" stroke-linecap="round"/><line x1="264.5" y1="338.5" x2="271.5" y2="347.0" stroke="#111" stroke-width="2" stroke-linecap="round"/><line x1="256.5" y1="347.0" x2="268.5" y2="347.0" stroke="#111" stroke-width="2" stroke-linecap="round"/><line x1="262.5" y1="347.0" x2="262.5" y2="356.0" stroke="#111" stroke-width="2" stroke-linecap="round"/><line x1="262.5" y1="208.0" x2="262.5" y2="330.0" stroke="#111" stroke-width="2" stroke-linecap="round"/><line x1="262.5" y1="356.0" x2="262.5" y2="478.0" stroke="#111" stroke-width="2" stroke-linecap="round"/><rect x="256.5" y="478.0" width="12.0" height="30.0" fill="none" stroke="#111" stroke-width="2"/><line x1="262.5" y1="508.0" x2="262.5" y2="516.0" stroke="#111" stroke-width="2" stroke-linecap="round"/><line x1="253.5" y1="516.0" x2="271.5" y2="516.0" stroke="#111" stroke-width="2" stroke-linecap="round"/><line x1="256.5" y1="520.0" x2="268.5" y2="520.0" stroke="#111" stroke-width="2" stroke-linecap="round"/><line x1="259.5" y1="524.0" x2="265.5" y2="524.0" stroke="#111" stroke-width="2" stroke-linecap="round"/><text x="0" y="0" transform="translate(266.5,536.0) rotate(90)" font-family="Arial, Helvetica, sans-serif" font-size="11" fill="#111" text-anchor="start">NER · Neutral earthing resistor · 400 A</text><circle cx="387.5" cy="208.0" r="3.2" fill="#111"/><line x1="387.5" y1="330.0" x2="387.5" y2="332.0" stroke="#111" stroke-width="2" stroke-linecap="round"/><line x1="384.0" y1="332.0" x2="391.0" y2="339.0" stroke="#111" stroke-width="2" stroke-linecap="round"/><line x1="384.0" y1="339.0" x2="391.0" y2="332.0" stroke="#111" stroke-width="2" stroke-linecap="round"/><line x1="389.5" y1="338.5" x2="396.5" y2="347.0" stroke="#111" stroke-width="2" stroke-linecap="round"/><line x1="381.5" y1="347.0" x2="393.5" y2="347.0" stroke="#111" stroke-width="2" stroke-linecap="round"/><line x1="387.5" y1="347.0" x2="387.5" y2="356.0" stroke="#111" stroke-width="2" stroke-linecap="round"/><line x1="387.5" y1="208.0" x2="387.5" y2="330.0" stroke="#111" stroke-width="2" stroke-linecap="round"/><line x1="387.5" y1="356.0" x2="387.5" y2="478.0" stroke="#111" stroke-width="2" stroke-linecap="round"/><rect x="380.5" y="478.0" width="14.0" height="28.0" fill="none" stroke="#111" stroke-width="2"/><line x1="387.5" y1="482.0" x2="387.5" y2="498.0" stroke="#111" stroke-width="2" stroke-linecap="round"/><line x1="383.5" y1="494.0" x2="387.5" y2="500.0" stroke="#111" stroke-width="2" stroke-linecap="round"/><line x1="391.5" y1="494.0" x2="387.5" y2="500.0" stroke="#111" stroke-width="2" stroke-linecap="round"/><line x1="387.5" y1="506.0" x2="387.5" y2="514.0" stroke="#111" stroke-width="2" stroke-linecap="round"/><line x1="378.5" y1="514.0" x2="396.5" y2="514.0" stroke="#111" stroke-width="2" stroke-linecap="round"/><line x1="381.5" y1="518.0" x2="393.5" y2="518.0" stroke="#111" stroke-width="2" stroke-linecap="round"/><line x1="384.5" y1="522.0" x2="390.5" y2="522.0" stroke="#111" stroke-width="2" stroke-linecap="round"/><text x="0" y="0" transform="translate(391.5,534.0) rotate(90)" font-family="Arial, Helvetica, sans-serif" font-size="11" fill="#111" text-anchor="start">SA · Arrester</text><circle cx="512.5" cy="208.0" r="3.2" fill="#111"/><line x1="512.5" y1="337.0" x2="512.5" y2="339.0" stroke="#111" stroke-width="2" stroke-linecap="round"/><line x1="509.0" y1="339.0" x2="516.0" y2="346.0" stroke="#111" stroke-width="2" stroke-linecap="round"/><line x1="509.0" y1="346.0" x2="516.0" y2="339.0" stroke="#111" stroke-width="2" stroke-linecap="round"/><line x1="514.5" y1="345.5" x2="521.5" y2="354.0" stroke="#111" stroke-width="2" stroke-linecap="round"/><line x1="506.5" y1="354.0" x2="518.5" y2="354.0" stroke="#111" stroke-width="2" stroke-linecap="round"/><line x1="512.5" y1="354.0" x2="512.5" y2="363.0" stroke="#111" stroke-width="2" stroke-linecap="round"/><line x1="512.5" y1="208.0" x2="512.5" y2="337.0" stroke="#111" stroke-width="2" stroke-linecap="round"/><line x1="512.5" y1="363.0" x2="512.5" y2="492.0" stroke="#111" stroke-width="2" stroke-linecap="round"/><polygon points="506.5,491.0 518.5,491.0 512.5,502.0" fill="#111"/><text x="0" y="0" transform="translate(516.5,516.0) rotate(90)" font-family="Arial, Helvetica, sans-serif" font-size="11" fill="#111" text-anchor="start">OUT · Cable to site B · 400 A</text><line x1="637.5" y1="418.0" x2="637.5" y2="492.0" stroke="#111" stroke-width="2" stroke-linecap="round"/><polygon points="631.5,491.0 643.5,491.0 637.5,502.0" fill="#111"/><text x="0" y="0" transform="translate(641.5,516.0) rotate(90)" font-family="Arial, Helvetica, sans-serif" font-size="11" fill="#111" text-anchor="start">OUT2 · Cable to site C</text><line x1="762.5" y1="418.0" x2="762.5" y2="478.0" stroke="#111" stroke-width="2" stroke-linecap="round"/><line x1="753.5" y1="478.0" x2="771.5" y2="478.0" stroke="#111" stroke-width="2.5" stroke-linecap="round"/><line x1="753.5" y1="484.0" x2="771.5" y2="484.0" stroke="#111" stroke-width="2.5" stroke-linecap="round"/><line x1="762.5" y1="484.0" x2="762.5" y2="494.0" stroke="#111" stroke-width="2" stroke-linecap="round"/><line x1="753.5" y1="494.0" x2="771.5" y2="494.0" stroke="#111" stroke-width="2" stroke-linecap="round"/><line x1="756.5" y1="498.0" x2="768.5" y2="498.0" stroke="#111" stroke-width="2" stroke-linecap="round"/><line x1="759.5" y1="502.0" x2="765.5" y2="502.0" stroke="#111" stroke-width="2" stroke-linecap="round"/><text x="0" y="0" transform="translate(766.5,514.0) rotate(90)" font-family="Arial, Helvetica, sans-serif" font-size="11" fill="#111" text-anchor="start">CAP2 · Capacitor bank on RMU · 500 kvar</text><circle cx="895.0" cy="636.0" r="3.2" fill="#111"/><line x1="895.0" y1="653.0" x2="895.0" y2="655.0" stroke="#111" stroke-width="2" stroke-linecap="round"/><line x1="891.5" y1="655.0" x2="898.5" y2="662.0" stroke="#111" stroke-width="2" stroke-linecap="round"/><line x1="891.5" y1="662.0" x2="898.5" y2="655.0" stroke="#111" stroke-width="2" stroke-linecap="round"/><line x1="897.0" y1="661.5" x2="904.0" y2="670.0" stroke="#111" stroke-width="2" stroke-linecap="round"/><line x1="889.0" y1="670.0" x2="901.0" y2="670.0" stroke="#111" stroke-width="2" stroke-linecap="round"/><line x1="895.0" y1="670.0" x2="895.0" y2="679.0" stroke="#111" stroke-width="2" stroke-linecap="round"/><line x1="895.0" y1="636.0" x2="895.0" y2="653.0" stroke="#111" stroke-width="2" stroke-linecap="round"/><line x1="895.0" y1="679.0" x2="895.0" y2="714.0" stroke="#111" stroke-width="2" stroke-linecap="round"/><polygon points="889.0,713.0 901.0,713.0 895.0,724.0" fill="#111"/><text x="0" y="0" transform="translate(899.0,742.0) rotate(90)" font-family="Arial, Helvetica, sans-serif" font-size="11" fill="#111" text-anchor="start">F1 · Feeder · 250 A</text><circle cx="990.0" cy="636.0" r="3.2" fill="#111"/><line x1="990.0" y1="653.0" x2="990.0" y2="655.0" stroke="#111" stroke-width="2" stroke-linecap="round"/><line x1="986.5" y1="655.0" x2="993.5" y2="662.0" stroke="#111" stroke-width="2" stroke-linecap="round"/><line x1="986.5" y1="662.0" x2="993.5" y2="655.0" stroke="#111" stroke-width="2" stroke-linecap="round"/><line x1="992.0" y1="661.5" x2="999.0" y2="670.0" stroke="#111" stroke-width="2" stroke-linecap="round"/><line x1="984.0" y1="670.0" x2="996.0" y2="670.0" stroke="#111" stroke-width="2" stroke-linecap="round"/><line x1="990.0" y1="670.0" x2="990.0" y2="679.0" stroke="#111" stroke-width="2" stroke-linecap="round"/><line x1="990.0" y1="636.0" x2="990.0" y2="653.0" stroke="#111" stroke-width="2" stroke-linecap="round"/><line x1="990.0" y1="679.0" x2="990.0" y2="700.0" stroke="#111" stroke-width="2" stroke-linecap="round"/><line x1="981.0" y1="700.0" x2="999.0" y2="700.0" stroke="#111" stroke-width="2.5" stroke-linecap="round"/><line x1="981.0" y1="706.0" x2="999.0" y2="706.0" stroke="#111" stroke-width="2.5" stroke-linecap="round"/><line x1="990.0" y1="706.0" x2="990.0" y2="716.0" stroke="#111" stroke-width="2" stroke-linecap="round"/><line x1="981.0" y1="716.0" x2="999.0" y2="716.0" stroke="#111" stroke-width="2" stroke-linecap="round"/><line x1="984.0" y1="720.0" x2="996.0" y2="720.0" stroke="#111" stroke-width="2" stroke-linecap="round"/><line x1="987.0" y1="724.0" x2="993.0" y2="724.0" stroke="#111" stroke-width="2" stroke-linecap="round"/><text x="0" y="0" transform="translate(994.0,736.0) rotate(90)" font-family="Arial, Helvetica, sans-serif" font-size="11" fill="#111" text-anchor="start">PFC · LV PFC · 200 kvar</text><circle cx="1085.0" cy="636.0" r="3.2" fill="#111"/><line x1="1085.0" y1="653.0" x2="1085.0" y2="655.0" stroke="#111" stroke-width="2" stroke-linecap="round"/><line x1="1081.5" y1="655.0" x2="1088.5" y2="662.0" stroke="#111" stroke-width="2" stroke-linecap="round"/><line x1="1081.5" y1="662.0" x2="1088.5" y2="655.0" stroke="#111" stroke-width="2" stroke-linecap="round"/><line x1="1087.0" y1="661.5" x2="1094.0" y2="670.0" stroke="#111" stroke-width="2" stroke-linecap="round"/><line x1="1079.0" y1="670.0" x2="1091.0" y2="670.0" stroke="#111" stroke-width="2" stroke-linecap="round"/><line x1="1085.0" y1="670.0" x2="1085.0" y2="679.0" stroke="#111" stroke-width="2" stroke-linecap="round"/><line x1="1085.0" y1="636.0" x2="1085.0" y2="653.0" stroke="#111" stroke-width="2" stroke-linecap="round"/><line x1="1085.0" y1="679.0" x2="1085.0" y2="700.0" stroke="#111" stroke-width="2" stroke-linecap="round"/><rect x="1078.0" y="700.0" width="14.0" height="28.0" fill="none" stroke="#111" stroke-width="2"/><line x1="1085.0" y1="704.0" x2="1085.0" y2="720.0" stroke="#111" stroke-width="2" stroke-linecap="round"/><line x1="1081.0" y1="716.0" x2="1085.0" y2="722.0" stroke="#111" stroke-width="2" stroke-linecap="round"/><line x1="1089.0" y1="716.0" x2="1085.0" y2="722.0" stroke="#111" stroke-width="2" stroke-linecap="round"/><line x1="1085.0" y1="728.0" x2="1085.0" y2="736.0" stroke="#111" stroke-width="2" stroke-linecap="round"/><line x1="1076.0" y1="736.0" x2="1094.0" y2="736.0" stroke="#111" stroke-width="2" stroke-linecap="round"/><line x1="1079.0" y1="740.0" x2="1091.0" y2="740.0" stroke="#111" stroke-width="2" stroke-linecap="round"/><line x1="1082.0" y1="744.0" x2="1088.0" y2="744.0" stroke="#111" stroke-width="2" stroke-linecap="round"/><text x="0" y="0" transform="translate(1089.0,756.0) rotate(90)" font-family="Arial, Helvetica, sans-serif" font-size="11" fill="#111" text-anchor="start">SA2 · LV arrester</text><text x="90.0" y="196.0" font-family="Arial, Helvetica, sans-serif" font-size="11.5" fill="#111" text-anchor="start" font-weight="bold">MB Main board 1250 A 11 kV</text><text x="840.0" y="624.0" font-family="Arial, Helvetica, sans-serif" font-size="11.5" fill="#111" text-anchor="start" font-weight="bold">L1 LV 1 1600 A 400 V</text><rect x="1308.0" y="838.0" width="288.0" height="96.0" fill="none" stroke="#111" stroke-width="1.5"/><line x1="1308.0" y1="862.0" x2="1596.0" y2="862.0" stroke="#111" stroke-width="1.5" stroke-linecap="round"/><text x="1318.0" y="855.0" font-family="Arial, Helvetica, sans-serif" font-size="12" fill="#111" text-anchor="start" font-weight="bold">SLD SKETCH — SITE SURVEY</text><text x="1318.0" y="878.0" font-family="Arial, Helvetica, sans-serif" font-size="11" fill="#111" text-anchor="start" font-weight="bold">Site:</text><text x="1366.0" y="878.0" font-family="Arial, Helvetica, sans-serif" font-size="11" fill="#111" text-anchor="start">F3 Terminal items</text><text x="1318.0" y="894.0" font-family="Arial, Helvetica, sans-serif" font-size="11" fill="#111" text-anchor="start" font-weight="bold">Date:</text><text x="1318.0" y="910.0" font-family="Arial, Helvetica, sans-serif" font-size="11" fill="#111" text-anchor="start" font-weight="bold">By:</text><text x="1318.0" y="926.0" font-family="Arial, Helvetica, sans-serif" font-size="11" fill="#111" text-anchor="start" font-weight="bold">Notes:</text><text x="1366.0" y="926.0" font-family="Arial, Helvetica, sans-serif" font-size="11" fill="#111" text-anchor="start">capacitor, NER, arrester, MV fee…</text><rect x="24.0" y="960.0" width="1104.0" height="82.0" fill="none" stroke="#111" stroke-width="1.2"/><text x="32.0" y="974.0" font-family="Arial, Helvetica, sans-serif" font-size="10" fill="#111" text-anchor="start" font-weight="bold">LEGEND</text><line x1="66.0" y1="984.0" x2="66.0" y2="986.0" stroke="#111" stroke-width="2" stroke-linecap="round"/><line x1="62.5" y1="986.0" x2="69.5" y2="993.0" stroke="#111" stroke-width="2" stroke-linecap="round"/><line x1="62.5" y1="993.0" x2="69.5" y2="986.0" stroke="#111" stroke-width="2" stroke-linecap="round"/><line x1="68.0" y1="992.5" x2="75.0" y2="1001.0" stroke="#111" stroke-width="2" stroke-linecap="round"/><line x1="60.0" y1="1001.0" x2="72.0" y2="1001.0" stroke="#111" stroke-width="2" stroke-linecap="round"/><line x1="66.0" y1="1001.0" x2="66.0" y2="1010.0" stroke="#111" stroke-width="2" stroke-linecap="round"/><line x1="66.0" y1="982.0" x2="66.0" y2="984.0" stroke="#111" stroke-width="2" stroke-linecap="round"/><line x1="66.0" y1="1010.0" x2="66.0" y2="1012.0" stroke="#111" stroke-width="2" stroke-linecap="round"/><text x="66.0" y="1024.0" font-family="Arial, Helvetica, sans-serif" font-size="9" fill="#111" text-anchor="middle">Circuit</text><text x="66.0" y="1034.0" font-family="Arial, Helvetica, sans-serif" font-size="9" fill="#111" text-anchor="middle">breaker</text><line x1="134.0" y1="982.0" x2="134.0" y2="985.0" stroke="#111" stroke-width="2" stroke-linecap="round"/><circle cx="134.0" cy="987.5" r="2.5" fill="none" stroke="#111" stroke-width="1.5"/><line x1="136.0" y1="990.0" x2="143.0" y2="1003.0" stroke="#111" stroke-width="2" stroke-linecap="round"/><line x1="128.0" y1="1003.0" x2="140.0" y2="1003.0" stroke="#111" stroke-width="2" stroke-linecap="round"/><line x1="134.0" y1="1003.0" x2="134.0" y2="1012.0" stroke="#111" stroke-width="2" stroke-linecap="round"/><text x="134.0" y="1024.0" font-family="Arial, Helvetica, sans-serif" font-size="9" fill="#111" text-anchor="middle">Load-break</text><text x="134.0" y="1034.0" font-family="Arial, Helvetica, sans-serif" font-size="9" fill="#111" text-anchor="middle">switch</text><rect x="198.0" y="986.0" width="8.0" height="22.0" fill="none" stroke="#111" stroke-width="2"/><line x1="202.0" y1="986.0" x2="202.0" y2="1008.0" stroke="#111" stroke-width="2" stroke-linecap="round"/><line x1="202.0" y1="982.0" x2="202.0" y2="986.0" stroke="#111" stroke-width="2" stroke-linecap="round"/><line x1="202.0" y1="1008.0" x2="202.0" y2="1012.0" stroke="#111" stroke-width="2" stroke-linecap="round"/><text x="202.0" y="1024.0" font-family="Arial, Helvetica, sans-serif" font-size="9" fill="#111" text-anchor="middle">Fuse</text><line x1="270.0" y1="982.0" x2="270.0" y2="985.0" stroke="#111" stroke-width="2" stroke-linecap="round"/><circle cx="270.0" cy="987.5" r="2.5" fill="none" stroke="#111" stroke-width="1.5"/><line x1="272.0" y1="990.0" x2="279.0" y2="992.0" stroke="#111" stroke-width="2" stroke-linecap="round"/><line x1="264.0" y1="992.0" x2="276.0" y2="992.0" stroke="#111" stroke-width="2" stroke-linecap="round"/><line x1="270.0" y1="992.0" x2="270.0" y2="1001.0" stroke="#111" stroke-width="2" stroke-linecap="round"/><rect x="266.0" y="1003.0" width="8.0" height="7.0" fill="none" stroke="#111" stroke-width="2"/><line x1="270.0" y1="1001.0" x2="270.0" y2="1003.0" stroke="#111" stroke-width="2" stroke-linecap="round"/><line x1="270.0" y1="1010.0" x2="270.0" y2="1012.0" stroke="#111" stroke-width="2" stroke-linecap="round"/><text x="270.0" y="1024.0" font-family="Arial, Helvetica, sans-serif" font-size="9" fill="#111" text-anchor="middle">Fuse-switch</text><line x1="338.0" y1="984.0" x2="338.0" y2="986.0" stroke="#111" stroke-width="2" stroke-linecap="round"/><path d="M 334.0,990.0 A 4,4 0 0 1 342.0,990.0" fill="none" stroke="#111" stroke-width="2" stroke-linecap="round"/><line x1="340.0" y1="992.0" x2="346.0" y2="1004.0" stroke="#111" stroke-width="2" stroke-linecap="round"/><line x1="338.0" y1="1006.0" x2="338.0" y2="1010.0" stroke="#111" stroke-width="2" stroke-linecap="round"/><line x1="338.0" y1="982.0" x2="338.0" y2="984.0" stroke="#111" stroke-width="2" stroke-linecap="round"/><line x1="338.0" y1="1010.0" x2="338.0" y2="1012.0" stroke="#111" stroke-width="2" stroke-linecap="round"/><text x="338.0" y="1024.0" font-family="Arial, Helvetica, sans-serif" font-size="9" fill="#111" text-anchor="middle">Contactor</text><rect x="402.0" y="981.0" width="8.0" height="12.0" fill="none" stroke="#111" stroke-width="2"/><line x1="406.0" y1="981.0" x2="406.0" y2="993.0" stroke="#111" stroke-width="2" stroke-linecap="round"/><path d="M 402.0,997.0 A 4,4 0 0 1 410.0,997.0" fill="none" stroke="#111" stroke-width="2" stroke-linecap="round"/><line x1="408.0" y1="999.0" x2="413.0" y2="1008.0" stroke="#111" stroke-width="2" stroke-linecap="round"/><line x1="406.0" y1="1009.0" x2="406.0" y2="1013.0" stroke="#111" stroke-width="2" stroke-linecap="round"/><line x1="406.0" y1="982.0" x2="406.0" y2="981.0" stroke="#111" stroke-width="2" stroke-linecap="round"/><line x1="406.0" y1="1013.0" x2="406.0" y2="1012.0" stroke="#111" stroke-width="2" stroke-linecap="round"/><text x="406.0" y="1024.0" font-family="Arial, Helvetica, sans-serif" font-size="9" fill="#111" text-anchor="middle">Fused</text><text x="406.0" y="1034.0" font-family="Arial, Helvetica, sans-serif" font-size="9" fill="#111" text-anchor="middle">contactor</text><circle cx="474.0" cy="992.0" r="8" fill="none" stroke="#111" stroke-width="2"/><circle cx="474.0" cy="1002.0" r="8" fill="none" stroke="#111" stroke-width="2"/><text x="474.0" y="1024.0" font-family="Arial, Helvetica, sans-serif" font-size="9" fill="#111" text-anchor="middle">Transformer</text><circle cx="542.0" cy="997.0" r="9" fill="none" stroke="#111" stroke-width="2"/><text x="542.0" y="1000.5" font-family="Arial, Helvetica, sans-serif" font-size="9" fill="#111" text-anchor="middle" font-weight="bold">G</text><text x="542.0" y="1024.0" font-family="Arial, Helvetica, sans-serif" font-size="9" fill="#111" text-anchor="middle">Generator</text><circle cx="610.0" cy="997.0" r="9" fill="none" stroke="#111" stroke-width="2"/><text x="610.0" y="1000.5" font-family="Arial, Helvetica, sans-serif" font-size="9" fill="#111" text-anchor="middle" font-weight="bold">M</text><text x="610.0" y="1024.0" font-family="Arial, Helvetica, sans-serif" font-size="9" fill="#111" text-anchor="middle">Pump/motor</text><line x1="664.0" y1="997.0" x2="692.0" y2="997.0" stroke="#111" stroke-width="5" stroke-linecap="round"/><text x="678.0" y="1024.0" font-family="Arial, Helvetica, sans-serif" font-size="9" fill="#111" text-anchor="middle">Busbar</text><rect x="735.0" y="989.0" width="22.0" height="16.0" fill="none" stroke="#111" stroke-width="1.5"/><text x="746.0" y="1000.0" font-family="Arial, Helvetica, sans-serif" font-size="6.5" fill="#111" text-anchor="middle">MCC</text><text x="746.0" y="1024.0" font-family="Arial, Helvetica, sans-serif" font-size="9" fill="#111" text-anchor="middle">MCC</text><line x1="814.0" y1="984.0" x2="814.0" y2="1001.0" stroke="#111" stroke-width="2" stroke-linecap="round"/><polygon points="808.0,1001.0 820.0,1001.0 814.0,1012.0" fill="#111"/><text x="814.0" y="1024.0" font-family="Arial, Helvetica, sans-serif" font-size="9" fill="#111" text-anchor="middle">Feeder</text><rect x="869.0" y="987.0" width="26.0" height="20.0" fill="none" stroke="#111" stroke-width="1.2" stroke-dasharray="4 3"/><text x="882.0" y="1024.0" font-family="Arial, Helvetica, sans-serif" font-size="9" fill="#111" text-anchor="middle">RMU/MCC</text><text x="882.0" y="1034.0" font-family="Arial, Helvetica, sans-serif" font-size="9" fill="#111" text-anchor="middle">enclosure</text><line x1="950.0" y1="982.0" x2="950.0" y2="986.0" stroke="#111" stroke-width="2" stroke-linecap="round"/><line x1="941.0" y1="986.0" x2="959.0" y2="986.0" stroke="#111" stroke-width="2.5" stroke-linecap="round"/><line x1="941.0" y1="992.0" x2="959.0" y2="992.0" stroke="#111" stroke-width="2.5" stroke-linecap="round"/><line x1="950.0" y1="992.0" x2="950.0" y2="1002.0" stroke="#111" stroke-width="2" stroke-linecap="round"/><line x1="941.0" y1="1002.0" x2="959.0" y2="1002.0" stroke="#111" stroke-width="2" stroke-linecap="round"/><line x1="944.0" y1="1006.0" x2="956.0" y2="1006.0" stroke="#111" stroke-width="2" stroke-linecap="round"/><line x1="947.0" y1="1010.0" x2="953.0" y2="1010.0" stroke="#111" stroke-width="2" stroke-linecap="round"/><text x="950.0" y="1024.0" font-family="Arial, Helvetica, sans-serif" font-size="9" fill="#111" text-anchor="middle">Capacitor</text><text x="950.0" y="1034.0" font-family="Arial, Helvetica, sans-serif" font-size="9" fill="#111" text-anchor="middle">bank</text><rect x="1013.0" y="982.0" width="10.0" height="18.0" fill="none" stroke="#111" stroke-width="2"/><line x1="1018.0" y1="1000.0" x2="1018.0" y2="1004.0" stroke="#111" stroke-width="2" stroke-linecap="round"/><line x1="1009.0" y1="1004.0" x2="1027.0" y2="1004.0" stroke="#111" stroke-width="2" stroke-linecap="round"/><line x1="1012.0" y1="1008.0" x2="1024.0" y2="1008.0" stroke="#111" stroke-width="2" stroke-linecap="round"/><line x1="1015.0" y1="1012.0" x2="1021.0" y2="1012.0" stroke="#111" stroke-width="2" stroke-linecap="round"/><text x="1018.0" y="1024.0" font-family="Arial, Helvetica, sans-serif" font-size="9" fill="#111" text-anchor="middle">Earthing/NER</text><rect x="1080.0" y="982.0" width="12.0" height="18.0" fill="none" stroke="#111" stroke-width="2"/><line x1="1086.0" y1="985.0" x2="1086.0" y2="996.0" stroke="#111" stroke-width="2" stroke-linecap="round"/><line x1="1083.0" y1="993.0" x2="1086.0" y2="997.0" stroke="#111" stroke-width="2" stroke-linecap="round"/><line x1="1089.0" y1="993.0" x2="1086.0" y2="997.0" stroke="#111" stroke-width="2" stroke-linecap="round"/><line x1="1086.0" y1="1000.0" x2="1086.0" y2="1004.0" stroke="#111" stroke-width="2" stroke-linecap="round"/><line x1="1077.0" y1="1004.0" x2="1095.0" y2="1004.0" stroke="#111" stroke-width="2" stroke-linecap="round"/><line x1="1080.0" y1="1008.0" x2="1092.0" y2="1008.0" stroke="#111" stroke-width="2" stroke-linecap="round"/><line x1="1083.0" y1="1012.0" x2="1089.0" y2="1012.0" stroke="#111" stroke-width="2" stroke-linecap="round"/><text x="1086.0" y="1024.0" font-family="Arial, Helvetica, sans-serif" font-size="9" fill="#111" text-anchor="middle">Surge</text><text x="1086.0" y="1034.0" font-family="Arial, Helvetica, sans-serif" font-size="9" fill="#111" text-anchor="middle">arrester</text></svg>