<svg xmlns="http://www.w3.org/2000/svg" width="2568" height="1434" viewBox="0 0 2568 1434"><rect width="100%" height="100%" fill="white"/><text x="24.0" y="1308.0" font-family="Arial, Helvetica, sans-serif" font-size="16" fill="#111" text-anchor="start" font-weight="bold">F9 ties between boards — Single Line Diagram (sketch)</text><g data-id="RB" data-kind="rmu"><rect x="440.7" y="500.0" width="219.0" height="118.0" fill="none" stroke="#111" stroke-width="1.6" stroke-dasharray="7 5"/><line x1="464.7" y1="559.0" x2="635.7" y2="559.0" stroke="#111" stroke-width="3.4" stroke-linecap="round"/><line x1="545.2" y1="516.5" x2="545.2" y2="518.5" stroke="#111" stroke-width="2" stroke-linecap="round"/><line x1="541.7" y1="518.5" x2="548.7" y2="525.5" stroke="#111" stroke-width="2" stroke-linecap="round"/><line x1="541.7" y1="525.5" x2="548.7" y2="518.5" stroke="#111" stroke-width="2" stroke-linecap="round"/><line x1="547.2" y1="525.0" x2="554.2" y2="533.5" stroke="#111" stroke-width="2" stroke-linecap="round"/><line x1="539.2" y1="533.5" x2="551.2" y2="533.5" stroke="#111" stroke-width="2" stroke-linecap="round"/><line x1="545.2" y1="533.5" x2="545.2" y2="542.5" stroke="#111" stroke-width="2" stroke-linecap="round"/><line x1="545.2" y1="500.0" x2="545.2" y2="516.5" stroke="#111" stroke-width="2" stroke-linecap="round"/><line x1="545.2" y1="542.5" x2="545.2" y2="559.0" stroke="#111" stroke-width="2" stroke-linecap="round"/><circle cx="545.2" cy="559.0" r="3.2" fill="#111"/><rect x="478.7" y="572.5" width="8.0" height="12.0" fill="none" stroke="#111" stroke-width="2"/><line x1="482.7" y1="572.5" x2="482.7" y2="584.5" stroke="#111" stroke-width="2" stroke-linecap="round"/><path d="M 478.7,588.5 A 4,4 0 0 1 486.7,588.5" fill="none" stroke="#111" stroke-width="2" stroke-linecap="round"/><line x1="484.7" y1="590.5" x2="489.7" y2="599.5" stroke="#111" stroke-width="2" stroke-linecap="round"/><line x1="482.7" y1="600.5" x2="482.7" y2="604.5" stroke="#111" stroke-width="2" stroke-linecap="round"/><line x1="482.7" y1="559.0" x2="482.7" y2="572.5" stroke="#111" stroke-width="2" stroke-linecap="round"/><line x1="482.7" y1="604.5" x2="482.7" y2="618.0" stroke="#111" stroke-width="2" stroke-linecap="round"/><circle cx="482.7" cy="559.0" r="3.2" fill="#111"/><line x1="617.7" y1="563.0" x2="617.7" y2="566.0" stroke="#111" stroke-width="2" stroke-linecap="round"/><circle cx="617.7" cy="568.5" r="2.5" fill="none" stroke="#111" stroke-width="1.5"/><line x1="619.7" y1="571.0" x2="626.7" y2="581.5" stroke="#111" stroke-width="2" stroke-linecap="round"/><line x1="611.7" y1="581.5" x2="623.7" y2="581.5" stroke="#111" stroke-width="2" stroke-linecap="round"/><line x1="617.7" y1="581.5" x2="617.7" y2="590.5" stroke="#111" stroke-width="2" stroke-linecap="round"/><rect x="613.7" y="592.5" width="8.0" height="15.5" fill="none" stroke="#111" stroke-width="2"/><line x1="617.7" y1="590.5" x2="617.7" y2="592.5" stroke="#111" stroke-width="2" stroke-linecap="round"/><line x1="617.7" y1="608.0" x2="617.7" y2="610.0" stroke="#111" stroke-width="2" stroke-linecap="round"/><line x1="617.7" y1="559.0" x2="617.7" y2="563.0" stroke="#111" stroke-width="2" stroke-linecap="round"/><line x1="617.7" y1="610.0" x2="617.7" y2="618.0" stroke="#111" stroke-width="2" stroke-linecap="round"/><circle cx="617.7" cy="559.0" r="3.2" fill="#111"/><text x="669.7" y="516.0" font-family="Arial, Helvetica, sans-serif" font-size="12" fill="#111" text-anchor="start" font-weight="bold">RB</text><text x="669.7" y="531.0" font-family="Arial, Helvetica, sans-serif" font-size="12" fill="#111" text-anchor="start">Board-fed RMU</text><text x="669.7" y="546.0" font-family="Arial, Helvetica, sans-serif" font-size="12" fill="#111" text-anchor="start">630 A 11 kV</text></g><g data-id="U" data-kind="mv incomer"><line x1="1018.0" y1="62.0" x2="1040.0" y2="62.0" stroke="#111" stroke-width="3" stroke-linecap="round"/><text x="1029.0" y="18.0" font-family="Arial, Helvetica, sans-serif" font-size="11.5" fill="#111" text-anchor="middle" font-weight="bold">U</text><text x="1029.0" y="32.0" font-family="Arial, Helvetica, sans-serif" font-size="11.5" fill="#111" text-anchor="middle">Utility 33 kV</text><text x="1029.0" y="46.0" font-family="Arial, Helvetica, sans-serif" font-size="11.5" fill="#111" text-anchor="middle">33 kV</text><line x1="1029.0" y1="122.0" x2="1029.0" y2="124.0" stroke="#111" stroke-width="2" stroke-linecap="round"/><line x1="1025.5" y1="124.0" x2="1032.5" y2="131.0" stroke="#111" stroke-width="2" stroke-linecap="round"/><line x1="1025.5" y1="131.0" x2="1032.5" y2="124.0" stroke="#111" stroke-width="2" stroke-linecap="round"/><line x1="1031.0" y1="130.5" x2="1038.0" y2="139.0" stroke="#111" stroke-width="2" stroke-linecap="round"/><line x1="1023.0" y1="139.0" x2="1035.0" y2="139.0" stroke="#111" stroke-width="2" stroke-linecap="round"/><line x1="1029.0" y1="139.0" x2="1029.0" y2="148.0" stroke="#111" stroke-width="2" stroke-linecap="round"/><line x1="1029.0" y1="62.0" x2="1029.0" y2="122.0" stroke="#111" stroke-width="2" stroke-linecap="round"/><line x1="1029.0" y1="148.0" x2="1029.0" y2="208.0" stroke="#111" stroke-width="2" stroke-linecap="round"/><circle cx="1029.0" cy="208.0" r="3.2" fill="#111"/></g><g data-id="HV" data-kind="mv busbar"><line x1="90.0" y1="208.0" x2="1968.0" y2="208.0" stroke="#111" stroke-width="5.5" stroke-linecap="round"/></g><g data-id="MV" data-kind="mv busbar"><line x1="340.0" y1="408.0" x2="1968.0" y2="408.0" stroke="#111" stroke-width="5.5" stroke-linecap="round"/></g><circle cx="545.2" cy="408.0" r="3.2" fill="#111"/><line x1="545.2" y1="441.0" x2="545.2" y2="443.0" stroke="#111" stroke-width="2" stroke-linecap="round"/><line x1="541.7" y1="443.0" x2="548.7" y2="450.0" stroke="#111" stroke-width="2" stroke-linecap="round"/><line x1="541.7" y1="450.0" x2="548.7" y2="443.0" stroke="#111" stroke-width="2" stroke-linecap="round"/><line x1="547.2" y1="449.5" x2="554.2" y2="458.0" stroke="#111" stroke-width="2" stroke-linecap="round"/><line x1="539.2" y1="458.0" x2="551.2" y2="458.0" stroke="#111" stroke-width="2" stroke-linecap="round"/><line x1="545.2" y1="458.0" x2="545.2" y2="467.0" stroke="#111" stroke-width="2" stroke-linecap="round"/><line x1="545.2" y1="408.0" x2="545.2" y2="441.0" stroke="#111" stroke-width="2" stroke-linecap="round"/><line x1="545.2" y1="467.0" x2="545.2" y2="500.0" stroke="#111" stroke-width="2" stroke-linecap="round"/><g data-id="MP" data-kind="pump"><line x1="482.7" y1="618.0" x2="482.7" y2="682.0" stroke="#111" stroke-width="2" stroke-linecap="round"/><circle cx="482.7" cy="702.0" r="20" fill="none" stroke="#111" stroke-width="2.2"/><text x="482.7" y="703.0" font-family="Arial, Helvetica, sans-serif" font-size="13" fill="#111" text-anchor="middle" font-weight="bold">M</text><text x="482.7" y="715.0" font-family="Arial, Helvetica, sans-serif" font-size="8.5" fill="#111" text-anchor="middle">3~</text><text x="512.7" y="696.0" font-family="Arial, Helvetica, sans-serif" font-size="11" fill="#111" text-anchor="start">MP</text><text x="512.7" y="710.0" font-family="Arial, Helvetica, sans-serif" font-size="11" fill="#111" text-anchor="start">MV borehole pump</text><text x="512.7" y="724.0" font-family="Arial, Helvetica, sans-serif" font-size="11" fill="#111" text-anchor="start">500 kW</text></g><g data-id="GT" data-kind="transformer"><circle cx="1154.0" cy="295.0" r="19" fill="none" stroke="#111" stroke-width="2.2"/><circle cx="1154.0" cy="322.0" r="19" fill="none" stroke="#111" stroke-width="2.2"/><text x="1183.0" y="289.0" font-family="Arial, Helvetica, sans-serif" font-size="12" fill="#111" text-anchor="start">GT</text><text x="1183.0" y="304.0" font-family="Arial, Helvetica, sans-serif" font-size="12" fill="#111" text-anchor="start">Grid tx</text><text x="1183.0" y="319.0" font-family="Arial, Helvetica, sans-serif" font-size="12" fill="#111" text-anchor="start">10 MVA 33/11 kV</text><line x1="1154.0" y1="229.0" x2="1154.0" y2="231.0" stroke="#111" stroke-width="2" stroke-linecap="round"/><line x1="1150.5" y1="231.0" x2="1157.5" y2="238.0" stroke="#111" stroke-width="2" stroke-linecap="round"/><line x1="1150.5" y1="238.0" x2="1157.5" y2="231.0" stroke="#111" stroke-width="2" stroke-linecap="round"/><line x1="1156.0" y1="237.5" x2="1163.0" y2="246.0" stroke="#111" stroke-width="2" stroke-linecap="round"/><line x1="1148.0" y1="246.0" x2="1160.0" y2="246.0" stroke="#111" stroke-width="2" stroke-linecap="round"/><line x1="1154.0" y1="246.0" x2="1154.0" y2="255.0" stroke="#111" stroke-width="2" stroke-linecap="round"/><line x1="1154.0" y1="208.0" x2="1154.0" y2="229.0" stroke="#111" stroke-width="2" stroke-linecap="round"/><line x1="1154.0" y1="255.0" x2="1154.0" y2="276.0" stroke="#111" stroke-width="2" stroke-linecap="round"/><circle cx="1154.0" cy="208.0" r="3.2" fill="#111"/><line x1="1154.0" y1="361.5" x2="1154.0" y2="363.5" stroke="#111" stroke-width="2" stroke-linecap="round"/><line x1="1150.5" y1="363.5" x2="1157.5" y2="370.5" stroke="#111" stroke-width="2" stroke-linecap="round"/><line x1="1150.5" y1="370.5" x2="1157.5" y2="363.5" stroke="#111" stroke-width="2" stroke-linecap="round"/><line x1="1156.0" y1="370.0" x2="1163.0" y2="378.5" stroke="#111" stroke-width="2" stroke-linecap="round"/><line x1="1148.0" y1="378.5" x2="1160.0" y2="378.5" stroke="#111" stroke-width="2" stroke-linecap="round"/><line x1="1154.0" y1="378.5" x2="1154.0" y2="387.5" stroke="#111" stroke-width="2" stroke-linecap="round"/><line x1="1154.0" y1="341.0" x2="1154.0" y2="361.5" stroke="#111" stroke-width="2" stroke-linecap="round"/><line x1="1154.0" y1="387.5" x2="1154.0" y2="408.0" stroke="#111" stroke-width="2" stroke-linecap="round"/><circle cx="1154.0" cy="408.0" r="3.2" fill="#111"/></g><g data-id="SUX" data-kind="transformer"><circle cx="1903.0" cy="692.0" r="19" fill="none" stroke="#111" stroke-width="2.2"/><circle cx="1903.0" cy="719.0" r="19" fill="none" stroke="#111" stroke-width="2.2"/><text x="1932.0" y="686.0" font-family="Arial, Helvetica, sans-serif" font-size="12" fill="#111" text-anchor="start">SUX</text><text x="1932.0" y="701.0" font-family="Arial, Helvetica, sans-serif" font-size="12" fill="#111" text-anchor="start">Live-board step-up (CHP)</text><text x="1932.0" y="716.0" font-family="Arial, Helvetica, sans-serif" font-size="12" fill="#111" text-anchor="start">1600 kVA 0.4/11 kV</text><line x1="1903.0" y1="738.0" x2="1903.0" y2="752.0" stroke="#111" stroke-width="2" stroke-linecap="round"/><line x1="1903.0" y1="752.0" x2="1783.0" y2="752.0" stroke="#111" stroke-width="2" stroke-linecap="round"/><line x1="1783.0" y1="781.0" x2="1783.0" y2="783.0" stroke="#111" stroke-width="2" stroke-linecap="round"/><line x1="1779.5" y1="783.0" x2="1786.5" y2="790.0" stroke="#111" stroke-width="2" stroke-linecap="round"/><line x1="1779.5" y1="790.0" x2="1786.5" y2="783.0" stroke="#111" stroke-width="2" stroke-linecap="round"/><line x1="1785.0" y1="789.5" x2="1792.0" y2="798.0" stroke="#111" stroke-width="2" stroke-linecap="round"/><line x1="1777.0" y1="798.0" x2="1789.0" y2="798.0" stroke="#111" stroke-width="2" stroke-linecap="round"/><line x1="1783.0" y1="798.0" x2="1783.0" y2="807.0" stroke="#111" stroke-width="2" stroke-linecap="round"/><line x1="1783.0" y1="752.0" x2="1783.0" y2="781.0" stroke="#111" stroke-width="2" stroke-linecap="round"/><line x1="1783.0" y1="807.0" x2="1783.0" y2="836.0" stroke="#111" stroke-width="2" stroke-linecap="round"/><circle cx="1783.0" cy="836.0" r="3.2" fill="#111"/><line x1="1903.0" y1="527.5" x2="1903.0" y2="529.5" stroke="#111" stroke-width="2" stroke-linecap="round"/><line x1="1899.5" y1="529.5" x2="1906.5" y2="536.5" stroke="#111" stroke-width="2" stroke-linecap="round"/><line x1="1899.5" y1="536.5" x2="1906.5" y2="529.5" stroke="#111" stroke-width="2" stroke-linecap="round"/><line x1="1905.0" y1="536.0" x2="1912.0" y2="544.5" stroke="#111" stroke-width="2" stroke-linecap="round"/><line x1="1897.0" y1="544.5" x2="1909.0" y2="544.5" stroke="#111" stroke-width="2" stroke-linecap="round"/><line x1="1903.0" y1="544.5" x2="1903.0" y2="553.5" stroke="#111" stroke-width="2" stroke-linecap="round"/><line x1="1903.0" y1="408.0" x2="1903.0" y2="527.5" stroke="#111" stroke-width="2" stroke-linecap="round"/><line x1="1903.0" y1="553.5" x2="1903.0" y2="673.0" stroke="#111" stroke-width="2" stroke-linecap="round"/><circle cx="1903.0" cy="408.0" r="3.2" fill="#111"/></g><g data-id="TX1" data-kind="transformer"><circle cx="964.2" cy="692.0" r="19" fill="none" stroke="#111" stroke-width="2.2"/><circle cx="964.2" cy="719.0" r="19" fill="none" stroke="#111" stroke-width="2.2"/><text x="993.2" y="686.0" font-family="Arial, Helvetica, sans-serif" font-size="12" fill="#111" text-anchor="start">TX1</text><text x="993.2" y="701.0" font-family="Arial, Helvetica, sans-serif" font-size="12" fill="#111" text-anchor="start">Tx 1</text><text x="993.2" y="716.0" font-family="Arial, Helvetica, sans-serif" font-size="12" fill="#111" text-anchor="start">1000 kVA 11/0.4 kV</text><line x1="964.2" y1="527.5" x2="964.2" y2="529.5" stroke="#111" stroke-width="2" stroke-linecap="round"/><line x1="960.7" y1="529.5" x2="967.7" y2="536.5" stroke="#111" stroke-width="2" stroke-linecap="round"/><line x1="960.7" y1="536.5" x2="967.7" y2="529.5" stroke="#111" stroke-width="2" stroke-linecap="round"/><line x1="966.2" y1="536.0" x2="973.2" y2="544.5" stroke="#111" stroke-width="2" stroke-linecap="round"/><line x1="958.2" y1="544.5" x2="970.2" y2="544.5" stroke="#111" stroke-width="2" stroke-linecap="round"/><line x1="964.2" y1="544.5" x2="964.2" y2="553.5" stroke="#111" stroke-width="2" stroke-linecap="round"/><line x1="964.2" y1="408.0" x2="964.2" y2="527.5" stroke="#111" stroke-width="2" stroke-linecap="round"/><line x1="964.2" y1="553.5" x2="964.2" y2="673.0" stroke="#111" stroke-width="2" stroke-linecap="round"/><circle cx="964.2" cy="408.0" r="3.2" fill="#111"/><line x1="964.2" y1="774.0" x2="964.2" y2="776.0" stroke="#111" stroke-width="2" stroke-linecap="round"/><line x1="960.7" y1="776.0" x2="967.7" y2="783.0" stroke="#111" stroke-width="2" stroke-linecap="round"/><line x1="960.7" y1="783.0" x2="967.7" y2="776.0" stroke="#111" stroke-width="2" stroke-linecap="round"/><line x1="966.2" y1="782.5" x2="973.2" y2="791.0" stroke="#111" stroke-width="2" stroke-linecap="round"/><line x1="958.2" y1="791.0" x2="970.2" y2="791.0" stroke="#111" stroke-width="2" stroke-linecap="round"/><line x1="964.2" y1="791.0" x2="964.2" y2="800.0" stroke="#111" stroke-width="2" stroke-linecap="round"/><line x1="964.2" y1="738.0" x2="964.2" y2="774.0" stroke="#111" stroke-width="2" stroke-linecap="round"/><line x1="964.2" y1="800.0" x2="964.2" y2="836.0" stroke="#111" stroke-width="2" stroke-linecap="round"/><circle cx="964.2" cy="836.0" r="3.2" fill="#111"/></g><g data-id="TX2" data-kind="transformer"><circle cx="1328.0" cy="692.0" r="19" fill="none" stroke="#111" stroke-width="2.2"/><circle cx="1328.0" cy="719.0" r="19" fill="none" stroke="#111" stroke-width="2.2"/><text x="1357.0" y="686.0" font-family="Arial, Helvetica, sans-serif" font-size="12" fill="#111" text-anchor="start">TX2</text><text x="1357.0" y="701.0" font-family="Arial, Helvetica, sans-serif" font-size="12" fill="#111" text-anchor="start">Tx 2</text><text x="1357.0" y="716.0" font-family="Arial, Helvetica, sans-serif" font-size="12" fill="#111" text-anchor="start">1000 kVA 11/0.4 kV</text><line x1="1328.0" y1="527.5" x2="1328.0" y2="529.5" stroke="#111" stroke-width="2" stroke-linecap="round"/><line x1="1324.5" y1="529.5" x2="1331.5" y2="536.5" stroke="#111" stroke-width="2" stroke-linecap="round"/><line x1="1324.5" y1="536.5" x2="1331.5" y2="529.5" stroke="#111" stroke-width="2" stroke-linecap="round"/><line x1="1330.0" y1="536.0" x2="1337.0" y2="544.5" stroke="#111" stroke-width="2" stroke-linecap="round"/><line x1="1322.0" y1="544.5" x2="1334.0" y2="544.5" stroke="#111" stroke-width="2" stroke-linecap="round"/><line x1="1328.0" y1="544.5" x2="1328.0" y2="553.5" stroke="#111" stroke-width="2" stroke-linecap="round"/><line x1="1328.0" y1="408.0" x2="1328.0" y2="527.5" stroke="#111" stroke-width="2" stroke-linecap="round"/><line x1="1328.0" y1="553.5" x2="1328.0" y2="673.0" stroke="#111" stroke-width="2" stroke-linecap="round"/><circle cx="1328.0" cy="408.0" r="3.2" fill="#111"/><line x1="1328.0" y1="774.0" x2="1328.0" y2="776.0" stroke="#111" stroke-width="2" stroke-linecap="round"/><line x1="1324.5" y1="776.0" x2="1331.5" y2="783.0" stroke="#111" stroke-width="2" stroke-linecap="round"/><line x1="1324.5" y1="783.0" x2="1331.5" y2="776.0" stroke="#111" stroke-width="2" stroke-linecap="round"/><line x1="1330.0" y1="782.5" x2="1337.0" y2="791.0" stroke="#111" stroke-width="2" stroke-linecap="round"/><line x1="1322.0" y1="791.0" x2="1334.0" y2="791.0" stroke="#111" stroke-width="2" stroke-linecap="round"/><line x1="1328.0" y1="791.0" x2="1328.0" y2="800.0" stroke="#111" stroke-width="2" stroke-linecap="round"/><line x1="1328.0" y1="738.0" x2="1328.0" y2="774.0" stroke="#111" stroke-width="2" stroke-linecap="round"/><line x1="1328.0" y1="800.0" x2="1328.0" y2="836.0" stroke="#111" stroke-width="2" stroke-linecap="round"/><circle cx="1328.0" cy="836.0" r="3.2" fill="#111"/></g><g data-id="TX3" data-kind="transformer"><circle cx="1658.0" cy="692.0" r="19" fill="none" stroke="#111" stroke-width="2.2"/><circle cx="1658.0" cy="719.0" r="19" fill="none" stroke="#111" stroke-width="2.2"/><text x="1687.0" y="686.0" font-family="Arial, Helvetica, sans-serif" font-size="12" fill="#111" text-anchor="start">TX3</text><text x="1687.0" y="701.0" font-family="Arial, Helvetica, sans-serif" font-size="12" fill="#111" text-anchor="start">Tx 3</text><text x="1687.0" y="716.0" font-family="Arial, Helvetica, sans-serif" font-size="12" fill="#111" text-anchor="start">1000 kVA 11/0.4 kV</text><line x1="1658.0" y1="527.5" x2="1658.0" y2="529.5" stroke="#111" stroke-width="2" stroke-linecap="round"/><line x1="1654.5" y1="529.5" x2="1661.5" y2="536.5" stroke="#111" stroke-width="2" stroke-linecap="round"/><line x1="1654.5" y1="536.5" x2="1661.5" y2="529.5" stroke="#111" stroke-width="2" stroke-linecap="round"/><line x1="1660.0" y1="536.0" x2="1667.0" y2="544.5" stroke="#111" stroke-width="2" stroke-linecap="round"/><line x1="1652.0" y1="544.5" x2="1664.0" y2="544.5" stroke="#111" stroke-width="2" stroke-linecap="round"/><line x1="1658.0" y1="544.5" x2="1658.0" y2="553.5" stroke="#111" stroke-width="2" stroke-linecap="round"/><line x1="1658.0" y1="408.0" x2="1658.0" y2="527.5" stroke="#111" stroke-width="2" stroke-linecap="round"/><line x1="1658.0" y1="553.5" x2="1658.0" y2="673.0" stroke="#111" stroke-width="2" stroke-linecap="round"/><circle cx="1658.0" cy="408.0" r="3.2" fill="#111"/><line x1="1658.0" y1="774.0" x2="1658.0" y2="776.0" stroke="#111" stroke-width="2" stroke-linecap="round"/><line x1="1654.5" y1="776.0" x2="1661.5" y2="783.0" stroke="#111" stroke-width="2" stroke-linecap="round"/><line x1="1654.5" y1="783.0" x2="1661.5" y2="776.0" stroke="#111" stroke-width="2" stroke-linecap="round"/><line x1="1660.0" y1="782.5" x2="1667.0" y2="791.0" stroke="#111" stroke-width="2" stroke-linecap="round"/><line x1="1652.0" y1="791.0" x2="1664.0" y2="791.0" stroke="#111" stroke-width="2" stroke-linecap="round"/><line x1="1658.0" y1="791.0" x2="1658.0" y2="800.0" stroke="#111" stroke-width="2" stroke-linecap="round"/><line x1="1658.0" y1="738.0" x2="1658.0" y2="774.0" stroke="#111" stroke-width="2" stroke-linecap="round"/><line x1="1658.0" y1="800.0" x2="1658.0" y2="836.0" stroke="#111" stroke-width="2" stroke-linecap="round"/><circle cx="1658.0" cy="836.0" r="3.2" fill="#111"/></g><g data-id="L1" data-kind="lv busbar"><line x1="780.4" y1="836.0" x2="1148.0" y2="836.0" stroke="#111" stroke-width="5.5" stroke-linecap="round"/></g><g data-id="L2" data-kind="lv busbar"><line x1="1178.0" y1="836.0" x2="1478.0" y2="836.0" stroke="#111" stroke-width="5.5" stroke-linecap="round"/></g><g data-id="L3" data-kind="lv busbar"><line x1="1508.0" y1="836.0" x2="1808.0" y2="836.0" stroke="#111" stroke-width="5.5" stroke-linecap="round"/></g><g data-id="DB1" data-kind="lv busbar"><line x1="800.4" y1="1036.0" x2="1128.0" y2="1036.0" stroke="#111" stroke-width="5.5" stroke-linecap="round"/></g><g data-id="F1" data-kind="feeder"><circle cx="964.2" cy="836.0" r="3.2" fill="#111"/></g><g data-id="F1" data-kind="feeder"><line x1="964.2" y1="853.0" x2="964.2" y2="855.0" stroke="#111" stroke-width="2" stroke-linecap="round"/><line x1="960.7" y1="855.0" x2="967.7" y2="862.0" stroke="#111" stroke-width="2" stroke-linecap="round"/><line x1="960.7" y1="862.0" x2="967.7" y2="855.0" stroke="#111" stroke-width="2" stroke-linecap="round"/><line x1="966.2" y1="861.5" x2="973.2" y2="870.0" stroke="#111" stroke-width="2" stroke-linecap="round"/><line x1="958.2" y1="870.0" x2="970.2" y2="870.0" stroke="#111" stroke-width="2" stroke-linecap="round"/><line x1="964.2" y1="870.0" x2="964.2" y2="879.0" stroke="#111" stroke-width="2" stroke-linecap="round"/><line x1="964.2" y1="836.0" x2="964.2" y2="853.0" stroke="#111" stroke-width="2" stroke-linecap="round"/></g><g data-id="DB1" data-kind="lv busbar"><line x1="964.2" y1="993.0" x2="964.2" y2="995.0" stroke="#111" stroke-width="2" stroke-linecap="round"/><line x1="960.7" y1="995.0" x2="967.7" y2="1002.0" stroke="#111" stroke-width="2" stroke-linecap="round"/><line x1="960.7" y1="1002.0" x2="967.7" y2="995.0" stroke="#111" stroke-width="2" stroke-linecap="round"/><line x1="966.2" y1="1001.5" x2="973.2" y2="1010.0" stroke="#111" stroke-width="2" stroke-linecap="round"/><line x1="958.2" y1="1010.0" x2="970.2" y2="1010.0" stroke="#111" stroke-width="2" stroke-linecap="round"/><line x1="964.2" y1="1010.0" x2="964.2" y2="1019.0" stroke="#111" stroke-width="2" stroke-linecap="round"/><line x1="964.2" y1="879.0" x2="964.2" y2="993.0" stroke="#111" stroke-width="2" stroke-linecap="round"/><line x1="964.2" y1="1019.0" x2="964.2" y2="1036.0" stroke="#111" stroke-width="2" stroke-linecap="round"/></g><g data-id="DB1" data-kind="lv busbar"><circle cx="964.2" cy="1036.0" r="3.2" fill="#111"/></g><g data-id="C13" data-kind="bus coupler"><circle cx="1148.0" cy="836.0" r="3.2" fill="#111"/><line x1="1148.0" y1="836.0" x2="1148.0" y2="806.0" stroke="#111" stroke-width="2" stroke-linecap="round"/><line x1="1155.0" y1="806.0" x2="1157.0" y2="806.0" stroke="#111" stroke-width="2" stroke-linecap="round"/><line x1="1157.0" y1="802.5" x2="1164.0" y2="809.5" stroke="#111" stroke-width="2" stroke-linecap="round"/><line x1="1157.0" y1="809.5" x2="1164.0" y2="802.5" stroke="#111" stroke-width="2" stroke-linecap="round"/><line x1="1163.5" y1="804.0" x2="1172.0" y2="797.0" stroke="#111" stroke-width="2" stroke-linecap="round"/><line x1="1172.0" y1="800.0" x2="1172.0" y2="812.0" stroke="#111" stroke-width="2" stroke-linecap="round"/><line x1="1172.0" y1="806.0" x2="1181.0" y2="806.0" stroke="#111" stroke-width="2" stroke-linecap="round"/><line x1="1148.0" y1="806.0" x2="1155.0" y2="806.0" stroke="#111" stroke-width="2" stroke-linecap="round"/><line x1="1181.0" y1="806.0" x2="1508.0" y2="806.0" stroke="#111" stroke-width="2" stroke-linecap="round"/><line x1="1508.0" y1="806.0" x2="1508.0" y2="836.0" stroke="#111" stroke-width="2" stroke-linecap="round"/><circle cx="1508.0" cy="836.0" r="3.2" fill="#111"/><text x="1168.0" y="796.0" font-family="Arial, Helvetica, sans-serif" font-size="11" fill="#111" text-anchor="middle">C13</text><text x="1168.0" y="782.0" font-family="Arial, Helvetica, sans-serif" font-size="10" fill="#111" text-anchor="middle">Normally open</text></g><g data-id="CL" data-kind="bus coupler"><circle cx="1128.0" cy="1036.0" r="3.2" fill="#111"/><line x1="1128.0" y1="1036.0" x2="1493.0" y2="1036.0" stroke="#111" stroke-width="2" stroke-linecap="round"/><line x1="1493.0" y1="923.0" x2="1493.0" y2="925.0" stroke="#111" stroke-width="2" stroke-linecap="round"/><line x1="1489.5" y1="925.0" x2="1496.5" y2="932.0" stroke="#111" stroke-width="2" stroke-linecap="round"/><line x1="1489.5" y1="932.0" x2="1496.5" y2="925.0" stroke="#111" stroke-width="2" stroke-linecap="round"/><line x1="1495.0" y1="931.5" x2="1502.0" y2="940.0" stroke="#111" stroke-width="2" stroke-linecap="round"/><line x1="1487.0" y1="940.0" x2="1499.0" y2="940.0" stroke="#111" stroke-width="2" stroke-linecap="round"/><line x1="1493.0" y1="940.0" x2="1493.0" y2="949.0" stroke="#111" stroke-width="2" stroke-linecap="round"/><line x1="1493.0" y1="836.0" x2="1493.0" y2="923.0" stroke="#111" stroke-width="2" stroke-linecap="round"/><line x1="1493.0" y1="949.0" x2="1493.0" y2="1036.0" stroke="#111" stroke-width="2" stroke-linecap="round"/><line x1="1493.0" y1="836.0" x2="1478.0" y2="836.0" stroke="#111" stroke-width="2" stroke-linecap="round"/><circle cx="1478.0" cy="836.0" r="3.2" fill="#111"/><text x="1503.0" y="936.0" font-family="Arial, Helvetica, sans-serif" font-size="11" fill="#111" text-anchor="start">CL</text><text x="1503.0" y="950.0" font-family="Arial, Helvetica, sans-serif" font-size="10" fill="#111" text-anchor="start">Normally open</text></g><g data-id="OUT" data-kind="feeder"><line x1="617.7" y1="618.0" x2="617.7" y2="692.0" stroke="#111" stroke-width="2" stroke-linecap="round"/><polygon points="611.7,691.0 623.7,691.0 617.7,702.0" fill="#111"/><text x="0" y="0" transform="translate(621.7,716.0) rotate(90)" font-family="Arial, Helvetica, sans-serif" font-size="11" fill="#111" text-anchor="start">OUT · Cable to farm · 200 A</text></g><g data-id="F1" data-kind="feeder"><circle cx="964.2" cy="836.0" r="3.2" fill="#111"/><text x="972.2" y="896.0" font-family="Arial, Helvetica, sans-serif" font-size="11" fill="#111" text-anchor="start">F1 · DB feeder · 250 A</text></g><g data-id="F11" data-kind="feeder"><circle cx="964.2" cy="1036.0" r="3.2" fill="#111"/><line x1="964.2" y1="1053.0" x2="964.2" y2="1055.0" stroke="#111" stroke-width="2" stroke-linecap="round"/><line x1="960.7" y1="1055.0" x2="967.7" y2="1062.0" stroke="#111" stroke-width="2" stroke-linecap="round"/><line x1="960.7" y1="1062.0" x2="967.7" y2="1055.0" stroke="#111" stroke-width="2" stroke-linecap="round"/><line x1="966.2" y1="1061.5" x2="973.2" y2="1070.0" stroke="#111" stroke-width="2" stroke-linecap="round"/><line x1="958.2" y1="1070.0" x2="970.2" y2="1070.0" stroke="#111" stroke-width="2" stroke-linecap="round"/><line x1="964.2" y1="1070.0" x2="964.2" y2="1079.0" stroke="#111" stroke-width="2" stroke-linecap="round"/><line x1="964.2" y1="1036.0" x2="964.2" y2="1053.0" stroke="#111" stroke-width="2" stroke-linecap="round"/><line x1="964.2" y1="1079.0" x2="964.2" y2="1114.0" stroke="#111" stroke-width="2" stroke-linecap="round"/><polygon points="958.2,1113.0 970.2,1113.0 964.2,1124.0" fill="#111"/><text x="0" y="0" transform="translate(968.2,1142.0) rotate(90)" font-family="Arial, Helvetica, sans-serif" font-size="11" fill="#111" text-anchor="start">F11 · Lights · 63 A</text></g><g data-id="F2" data-kind="feeder"><circle cx="1328.0" cy="836.0" r="3.2" fill="#111"/><line x1="1328.0" y1="853.0" x2="1328.0" y2="855.0" stroke="#111" stroke-width="2" stroke-linecap="round"/><line x1="1324.5" y1="855.0" x2="1331.5" y2="862.0" stroke="#111" stroke-width="2" stroke-linecap="round"/><line x1="1324.5" y1="862.0" x2="1331.5" y2="855.0" stroke="#111" stroke-width="2" stroke-linecap="round"/><line x1="1330.0" y1="861.5" x2="1337.0" y2="870.0" stroke="#111" stroke-width="2" stroke-linecap="round"/><line x1="1322.0" y1="870.0" x2="1334.0" y2="870.0" stroke="#111" stroke-width="2" stroke-linecap="round"/><line x1="1328.0" y1="870.0" x2="1328.0" y2="879.0" stroke="#111" stroke-width="2" stroke-linecap="round"/><line x1="1328.0" y1="836.0" x2="1328.0" y2="853.0" stroke="#111" stroke-width="2" stroke-linecap="round"/><line x1="1328.0" y1="879.0" x2="1328.0" y2="914.0" stroke="#111" stroke-width="2" stroke-linecap="round"/><polygon points="1322.0,913.0 1334.0,913.0 1328.0,924.0" fill="#111"/><text x="0" y="0" transform="translate(1332.0,942.0) rotate(90)" font-family="Arial, Helvetica, sans-serif" font-size="11" fill="#111" text-anchor="start">F2 · Process · 400 A</text></g><g data-id="F3" data-kind="feeder"><circle cx="1658.0" cy="836.0" r="3.2" fill="#111"/><line x1="1658.0" y1="853.0" x2="1658.0" y2="855.0" stroke="#111" stroke-width="2" stroke-linecap="round"/><line x1="1654.5" y1="855.0" x2="1661.5" y2="862.0" stroke="#111" stroke-width="2" stroke-linecap="round"/><line x1="1654.5" y1="862.0" x2="1661.5" y2="855.0" stroke="#111" stroke-width="2" stroke-linecap="round"/><line x1="1660.0" y1="861.5" x2="1667.0" y2="870.0" stroke="#111" stroke-width="2" stroke-linecap="round"/><line x1="1652.0" y1="870.0" x2="1664.0" y2="870.0" stroke="#111" stroke-width="2" stroke-linecap="round"/><line x1="1658.0" y1="870.0" x2="1658.0" y2="879.0" stroke="#111" stroke-width="2" stroke-linecap="round"/><line x1="1658.0" y1="836.0" x2="1658.0" y2="853.0" stroke="#111" stroke-width="2" stroke-linecap="round"/><line x1="1658.0" y1="879.0" x2="1658.0" y2="914.0" stroke="#111" stroke-width="2" stroke-linecap="round"/><polygon points="1652.0,913.0 1664.0,913.0 1658.0,924.0" fill="#111"/><text x="0" y="0" transform="translate(1662.0,942.0) rotate(90)" font-family="Arial, Helvetica, sans-serif" font-size="11" fill="#111" text-anchor="start">F3 · Site services · 250 A</text></g><g data-id="SAR" data-kind="surge arrester"><circle cx="137.5" cy="208.0" r="3.2" fill="#111"/><line x1="137.5" y1="430.0" x2="137.5" y2="432.0" stroke="#111" stroke-width="2" stroke-linecap="round"/><line x1="134.0" y1="432.0" x2="141.0" y2="439.0" stroke="#111" stroke-width="2" stroke-linecap="round"/><line x1="134.0" y1="439.0" x2="141.0" y2="432.0" stroke="#111" stroke-width="2" stroke-linecap="round"/><line x1="139.5" y1="438.5" x2="146.5" y2="447.0" stroke="#111" stroke-width="2" stroke-linecap="round"/><line x1="131.5" y1="447.0" x2="143.5" y2="447.0" stroke="#111" stroke-width="2" stroke-linecap="round"/><line x1="137.5" y1="447.0" x2="137.5" y2="456.0" stroke="#111" stroke-width="2" stroke-linecap="round"/><line x1="137.5" y1="208.0" x2="137.5" y2="430.0" stroke="#111" stroke-width="2" stroke-linecap="round"/><line x1="137.5" y1="456.0" x2="137.5" y2="678.0" stroke="#111" stroke-width="2" stroke-linecap="round"/><rect x="130.5" y="678.0" width="14.0" height="28.0" fill="none" stroke="#111" stroke-width="2"/><line x1="137.5" y1="682.0" x2="137.5" y2="698.0" stroke="#111" stroke-width="2" stroke-linecap="round"/><line x1="133.5" y1="694.0" x2="137.5" y2="700.0" stroke="#111" stroke-width="2" stroke-linecap="round"/><line x1="141.5" y1="694.0" x2="137.5" y2="700.0" stroke="#111" stroke-width="2" stroke-linecap="round"/><line x1="137.5" y1="706.0" x2="137.5" y2="714.0" stroke="#111" stroke-width="2" stroke-linecap="round"/><line x1="128.5" y1="714.0" x2="146.5" y2="714.0" stroke="#111" stroke-width="2" stroke-linecap="round"/><line x1="131.5" y1="718.0" x2="143.5" y2="718.0" stroke="#111" stroke-width="2" stroke-linecap="round"/><line x1="134.5" y1="722.0" x2="140.5" y2="722.0" stroke="#111" stroke-width="2" stroke-linecap="round"/><text x="0" y="0" transform="translate(141.5,734.0) rotate(90)" font-family="Arial, Helvetica, sans-serif" font-size="11" fill="#111" text-anchor="start">SAR · 33 kV arrester</text></g><g data-id="MVF" data-kind="feeder"><circle cx="262.5" cy="208.0" r="3.2" fill="#111"/><line x1="262.5" y1="437.0" x2="262.5" y2="439.0" stroke="#111" stroke-width="2" stroke-linecap="round"/><line x1="259.0" y1="439.0" x2="266.0" y2="446.0" stroke="#111" stroke-width="2" stroke-linecap="round"/><line x1="259.0" y1="446.0" x2="266.0" y2="439.0" stroke="#111" stroke-width="2" stroke-linecap="round"/><line x1="264.5" y1="445.5" x2="271.5" y2="454.0" stroke="#111" stroke-width="2" stroke-linecap="round"/><line x1="256.5" y1="454.0" x2="268.5" y2="454.0" stroke="#111" stroke-width="2" stroke-linecap="round"/><line x1="262.5" y1="454.0" x2="262.5" y2="463.0" stroke="#111" stroke-width="2" stroke-linecap="round"/><line x1="262.5" y1="208.0" x2="262.5" y2="437.0" stroke="#111" stroke-width="2" stroke-linecap="round"/><line x1="262.5" y1="463.0" x2="262.5" y2="692.0" stroke="#111" stroke-width="2" stroke-linecap="round"/><polygon points="256.5,691.0 268.5,691.0 262.5,702.0" fill="#111"/><text x="0" y="0" transform="translate(266.5,716.0) rotate(90)" font-family="Arial, Helvetica, sans-serif" font-size="11" fill="#111" text-anchor="start">MVF · 33 kV outgoing to site B · 400 A</text></g><text x="90.0" y="196.0" font-family="Arial, Helvetica, sans-serif" font-size="11.5" fill="#111" text-anchor="start" font-weight="bold">HV 33 kV board 1250 A 33 kV</text><text x="340.0" y="396.0" font-family="Arial, Helvetica, sans-serif" font-size="11.5" fill="#111" text-anchor="start" font-weight="bold">MV 11 kV board 1250 A 11 kV</text><text x="780.4" y="824.0" font-family="Arial, Helvetica, sans-serif" font-size="11.5" fill="#111" text-anchor="start" font-weight="bold">L1 LV 1 1600 A 400 V</text><text x="1178.0" y="824.0" font-family="Arial, Helvetica, sans-serif" font-size="11.5" fill="#111" text-anchor="start" font-weight="bold">L2 LV 2 1600 A 400 V</text><text x="1508.0" y="824.0" font-family="Arial, Helvetica, sans-serif" font-size="11.5" fill="#111" text-anchor="start" font-weight="bold">L3 LV 3 1600 A 400 V</text><text x="800.4" y="1024.0" font-family="Arial, Helvetica, sans-serif" font-size="11.5" fill="#111" text-anchor="start" font-weight="bold">DB1 Sub DB 250 A 400 V</text><rect x="2256.0" y="1218.0" width="288.0" height="96.0" fill="none" stroke="#111" stroke-width="1.5"/><line x1="2256.0" y1="1242.0" x2="2544.0" y2="1242.0" stroke="#111" stroke-width="1.5" stroke-linecap="round"/><text x="2266.0" y="1235.0" font-family="Arial, Helvetica, sans-serif" font-size="12" fill="#111" text-anchor="start" font-weight="bold">SLD SKETCH — SITE SURVEY</text><text x="2266.0" y="1258.0" font-family="Arial, Helvetica, sans-serif" font-size="11" fill="#111" text-anchor="start" font-weight="bold">Site:</text><text x="2314.0" y="1258.0" font-family="Arial, Helvetica, sans-serif" font-size="11" fill="#111" text-anchor="start">F9 ties between boards</text><text x="2266.0" y="1274.0" font-family="Arial, Helvetica, sans-serif" font-size="11" fill="#111" text-anchor="start" font-weight="bold">Date:</text><text x="2266.0" y="1290.0" font-family="Arial, Helvetica, sans-serif" font-size="11" fill="#111" text-anchor="start" font-weight="bold">By:</text><text x="2266.0" y="1306.0" font-family="Arial, Helvetica, sans-serif" font-size="11" fill="#111" text-anchor="start" font-weight="bold">Notes:</text><text x="2314.0" y="1306.0" font-family="Arial, Helvetica, sans-serif" font-size="11" fill="#111" text-anchor="start">a coupler between boards on diff…</text><rect x="24.0" y="1340.0" width="968.0" height="82.0" fill="none" stroke="#111" stroke-width="1.2"/><text x="32.0" y="1354.0" font-family="Arial, Helvetica, sans-serif" font-size="10" fill="#111" text-anchor="start" font-weight="bold">LEGEND</text><line x1="66.0" y1="1364.0" x2="66.0" y2="1366.0" stroke="#111" stroke-width="2" stroke-linecap="round"/><line x1="62.5" y1="1366.0" x2="69.5" y2="1373.0" stroke="#111" stroke-width="2" stroke-linecap="round"/><line x1="62.5" y1="1373.0" x2="69.5" y2="1366.0" stroke="#111" stroke-width="2" stroke-linecap="round"/><line x1="68.0" y1="1372.5" x2="75.0" y2="1381.0" stroke="#111" stroke-width="2" stroke-linecap="round"/><line x1="60.0" y1="1381.0" x2="72.0" y2="1381.0" stroke="#111" stroke-width="2" stroke-linecap="round"/><line x1="66.0" y1="1381.0" x2="66.0" y2="1390.0" stroke="#111" stroke-width="2" stroke-linecap="round"/><line x1="66.0" y1="1362.0" x2="66.0" y2="1364.0" stroke="#111" stroke-width="2" stroke-linecap="round"/><line x1="66.0" y1="1390.0" x2="66.0" y2="1392.0" stroke="#111" stroke-width="2" stroke-linecap="round"/><text x="66.0" y="1404.0" font-family="Arial, Helvetica, sans-serif" font-size="9" fill="#111" text-anchor="middle">Circuit</text><text x="66.0" y="1414.0" font-family="Arial, Helvetica, sans-serif" font-size="9" fill="#111" text-anchor="middle">breaker</text><line x1="134.0" y1="1362.0" x2="134.0" y2="1365.0" stroke="#111" stroke-width="2" stroke-linecap="round"/><circle cx="134.0" cy="1367.5" r="2.5" fill="none" stroke="#111" stroke-width="1.5"/><line x1="136.0" y1="1370.0" x2="143.0" y2="1383.0" stroke="#111" stroke-width="2" stroke-linecap="round"/><line x1="128.0" y1="1383.0" x2="140.0" y2="1383.0" stroke="#111" stroke-width="2" stroke-linecap="round"/><line x1="134.0" y1="1383.0" x2="134.0" y2="1392.0" stroke="#111" stroke-width="2" stroke-linecap="round"/><text x="134.0" y="1404.0" font-family="Arial, Helvetica, sans-serif" font-size="9" fill="#111" text-anchor="middle">Load-break</text><text x="134.0" y="1414.0" font-family="Arial, Helvetica, sans-serif" font-size="9" fill="#111" text-anchor="middle">switch</text><rect x="198.0" y="1366.0" width="8.0" height="22.0" fill="none" stroke="#111" stroke-width="2"/><line x1="202.0" y1="1366.0" x2="202.0" y2="1388.0" stroke="#111" stroke-width="2" stroke-linecap="round"/><line x1="202.0" y1="1362.0" x2="202.0" y2="1366.0" stroke="#111" stroke-width="2" stroke-linecap="round"/><line x1="202.0" y1="1388.0" x2="202.0" y2="1392.0" stroke="#111" stroke-width="2" stroke-linecap="round"/><text x="202.0" y="1404.0" font-family="Arial, Helvetica, sans-serif" font-size="9" fill="#111" text-anchor="middle">Fuse</text><line x1="270.0" y1="1362.0" x2="270.0" y2="1365.0" stroke="#111" stroke-width="2" stroke-linecap="round"/><circle cx="270.0" cy="1367.5" r="2.5" fill="none" stroke="#111" stroke-width="1.5"/><line x1="272.0" y1="1370.0" x2="279.0" y2="1372.0" stroke="#111" stroke-width="2" stroke-linecap="round"/><line x1="264.0" y1="1372.0" x2="276.0" y2="1372.0" stroke="#111" stroke-width="2" stroke-linecap="round"/><line x1="270.0" y1="1372.0" x2="270.0" y2="1381.0" stroke="#111" stroke-width="2" stroke-linecap="round"/><rect x="266.0" y="1383.0" width="8.0" height="7.0" fill="none" stroke="#111" stroke-width="2"/><line x1="270.0" y1="1381.0" x2="270.0" y2="1383.0" stroke="#111" stroke-width="2" stroke-linecap="round"/><line x1="270.0" y1="1390.0" x2="270.0" y2="1392.0" stroke="#111" stroke-width="2" stroke-linecap="round"/><text x="270.0" y="1404.0" font-family="Arial, Helvetica, sans-serif" font-size="9" fill="#111" text-anchor="middle">Fuse-switch</text><line x1="338.0" y1="1364.0" x2="338.0" y2="1366.0" stroke="#111" stroke-width="2" stroke-linecap="round"/><path d="M 334.0,1370.0 A 4,4 0 0 1 342.0,1370.0" fill="none" stroke="#111" stroke-width="2" stroke-linecap="round"/><line x1="340.0" y1="1372.0" x2="346.0" y2="1384.0" stroke="#111" stroke-width="2" stroke-linecap="round"/><line x1="338.0" y1="1386.0" x2="338.0" y2="1390.0" stroke="#111" stroke-width="2" stroke-linecap="round"/><line x1="338.0" y1="1362.0" x2="338.0" y2="1364.0" stroke="#111" stroke-width="2" stroke-linecap="round"/><line x1="338.0" y1="1390.0" x2="338.0" y2="1392.0" stroke="#111" stroke-width="2" stroke-linecap="round"/><text x="338.0" y="1404.0" font-family="Arial, Helvetica, sans-serif" font-size="9" fill="#111" text-anchor="middle">Contactor</text><rect x="402.0" y="1361.0" width="8.0" height="12.0" fill="none" stroke="#111" stroke-width="2"/><line x1="406.0" y1="1361.0" x2="406.0" y2="1373.0" stroke="#111" stroke-width="2" stroke-linecap="round"/><path d="M 402.0,1377.0 A 4,4 0 0 1 410.0,1377.0" fill="none" stroke="#111" stroke-width="2" stroke-linecap="round"/><line x1="408.0" y1="1379.0" x2="413.0" y2="1388.0" stroke="#111" stroke-width="2" stroke-linecap="round"/><line x1="406.0" y1="1389.0" x2="406.0" y2="1393.0" stroke="#111" stroke-width="2" stroke-linecap="round"/><line x1="406.0" y1="1362.0" x2="406.0" y2="1361.0" stroke="#111" stroke-width="2" stroke-linecap="round"/><line x1="406.0" y1="1393.0" x2="406.0" y2="1392.0" stroke="#111" stroke-width="2" stroke-linecap="round"/><text x="406.0" y="1404.0" font-family="Arial, Helvetica, sans-serif" font-size="9" fill="#111" text-anchor="middle">Fused</text><text x="406.0" y="1414.0" font-family="Arial, Helvetica, sans-serif" font-size="9" fill="#111" text-anchor="middle">contactor</text><circle cx="474.0" cy="1372.0" r="8" fill="none" stroke="#111" stroke-width="2"/><circle cx="474.0" cy="1382.0" r="8" fill="none" stroke="#111" stroke-width="2"/><text x="474.0" y="1404.0" font-family="Arial, Helvetica, sans-serif" font-size="9" fill="#111" text-anchor="middle">Transformer</text><circle cx="542.0" cy="1377.0" r="9" fill="none" stroke="#111" stroke-width="2"/><text x="542.0" y="1380.5" font-family="Arial, Helvetica, sans-serif" font-size="9" fill="#111" text-anchor="middle" font-weight="bold">G</text><text x="542.0" y="1404.0" font-family="Arial, Helvetica, sans-serif" font-size="9" fill="#111" text-anchor="middle">Generator</text><circle cx="610.0" cy="1377.0" r="9" fill="none" stroke="#111" stroke-width="2"/><text x="610.0" y="1380.5" font-family="Arial, Helvetica, sans-serif" font-size="9" fill="#111" text-anchor="middle" font-weight="bold">M</text><text x="610.0" y="1404.0" font-family="Arial, Helvetica, sans-serif" font-size="9" fill="#111" text-anchor="middle">Pump/motor</text><line x1="664.0" y1="1377.0" x2="692.0" y2="1377.0" stroke="#111" stroke-width="5" stroke-linecap="round"/><text x="678.0" y="1404.0" font-family="Arial, Helvetica, sans-serif" font-size="9" fill="#111" text-anchor="middle">Busbar</text><rect x="735.0" y="1369.0" width="22.0" height="16.0" fill="none" stroke="#111" stroke-width="1.5"/><text x="746.0" y="1380.0" font-family="Arial, Helvetica, sans-serif" font-size="6.5" fill="#111" text-anchor="middle">MCC</text><text x="746.0" y="1404.0" font-family="Arial, Helvetica, sans-serif" font-size="9" fill="#111" text-anchor="middle">MCC</text><line x1="814.0" y1="1364.0" x2="814.0" y2="1381.0" stroke="#111" stroke-width="2" stroke-linecap="round"/><polygon points="808.0,1381.0 820.0,1381.0 814.0,1392.0" fill="#111"/><text x="814.0" y="1404.0" font-family="Arial, Helvetica, sans-serif" font-size="9" fill="#111" text-anchor="middle">Feeder</text><rect x="869.0" y="1367.0" width="26.0" height="20.0" fill="none" stroke="#111" stroke-width="1.2" stroke-dasharray="4 3"/><text x="882.0" y="1404.0" font-family="Arial, Helvetica, sans-serif" font-size="9" fill="#111" text-anchor="middle">RMU/MCC</text><text x="882.0" y="1414.0" font-family="Arial, Helvetica, sans-serif" font-size="9" fill="#111" text-anchor="middle">enclosure</text><rect x="944.0" y="1362.0" width="12.0" height="18.0" fill="none" stroke="#111" stroke-width="2"/><line x1="950.0" y1="1365.0" x2="950.0" y2="1376.0" stroke="#111" stroke-width="2" stroke-linecap="round"/><line x1="947.0" y1="1373.0" x2="950.0" y2="1377.0" stroke="#111" stroke-width="2" stroke-linecap="round"/><line x1="953.0" y1="1373.0" x2="950.0" y2="1377.0" stroke="#111" stroke-width="2" stroke-linecap="round"/><line x1="950.0" y1="1380.0" x2="950.0" y2="1384.0" stroke="#111" stroke-width="2" stroke-linecap="round"/><line x1="941.0" y1="1384.0" x2="959.0" y2="1384.0" stroke="#111" stroke-width="2" stroke-linecap="round"/><line x1="944.0" y1="1388.0" x2="956.0" y2="1388.0" stroke="#111" stroke-width="2" stroke-linecap="round"/><line x1="947.0" y1="1392.0" x2="953.0" y2="1392.0" stroke="#111" stroke-width="2" stroke-linecap="round"/><text x="950.0" y="1404.0" font-family="Arial, Helvetica, sans-serif" font-size="9" fill="#111" text-anchor="middle">Surge</text><text x="950.0" y="1414.0" font-family="Arial, Helvetica, sans-serif" font-size="9" fill="#111" text-anchor="middle">arrester</text></svg>