<svg xmlns="http://www.w3.org/2000/svg" width="1615" height="1080" viewBox="0 0 1615 1080"><rect width="100%" height="100%" fill="white"/><text x="24.0" y="954.0" font-family="Arial, Helvetica, sans-serif" font-size="16" fill="#111" text-anchor="start" font-weight="bold">F7 transformers off an LV board — Single Line Diagram (sketch)</text><rect x="397.4" y="150.0" width="84.0" height="118.0" fill="none" stroke="#111" stroke-width="1.6" stroke-dasharray="7 5"/><line x1="421.4" y1="209.0" x2="457.4" y2="209.0" stroke="#111" stroke-width="3.4" stroke-linecap="round"/><line x1="439.4" y1="162.0" x2="439.4" y2="165.0" stroke="#111" stroke-width="2" stroke-linecap="round"/><circle cx="439.4" cy="167.5" r="2.5" fill="none" stroke="#111" stroke-width="1.5"/><line x1="441.4" y1="170.0" x2="448.4" y2="200.0" stroke="#111" stroke-width="2" stroke-linecap="round"/><line x1="433.4" y1="200.0" x2="445.4" y2="200.0" stroke="#111" stroke-width="2" stroke-linecap="round"/><line x1="439.4" y1="200.0" x2="439.4" y2="209.0" stroke="#111" stroke-width="2" stroke-linecap="round"/><line x1="439.4" y1="150.0" x2="439.4" y2="162.0" stroke="#111" stroke-width="2" stroke-linecap="round"/><circle cx="439.4" cy="209.0" r="3.2" fill="#111"/><line x1="439.4" y1="213.0" x2="439.4" y2="216.0" stroke="#111" stroke-width="2" stroke-linecap="round"/><circle cx="439.4" cy="218.5" r="2.5" fill="none" stroke="#111" stroke-width="1.5"/><line x1="441.4" y1="221.0" x2="448.4" y2="231.5" stroke="#111" stroke-width="2" stroke-linecap="round"/><line x1="433.4" y1="231.5" x2="445.4" y2="231.5" stroke="#111" stroke-width="2" stroke-linecap="round"/><line x1="439.4" y1="231.5" x2="439.4" y2="240.5" stroke="#111" stroke-width="2" stroke-linecap="round"/><rect x="435.4" y="242.5" width="8.0" height="15.5" fill="none" stroke="#111" stroke-width="2"/><line x1="439.4" y1="240.5" x2="439.4" y2="242.5" stroke="#111" stroke-width="2" stroke-linecap="round"/><line x1="439.4" y1="258.0" x2="439.4" y2="260.0" stroke="#111" stroke-width="2" stroke-linecap="round"/><line x1="439.4" y1="209.0" x2="439.4" y2="213.0" stroke="#111" stroke-width="2" stroke-linecap="round"/><line x1="439.4" y1="260.0" x2="439.4" y2="268.0" stroke="#111" stroke-width="2" stroke-linecap="round"/><circle cx="439.4" cy="209.0" r="3.2" fill="#111"/><text x="491.4" y="166.0" font-family="Arial, Helvetica, sans-serif" font-size="12" fill="#111" text-anchor="start" font-weight="bold">RMU</text><text x="491.4" y="181.0" font-family="Arial, Helvetica, sans-serif" font-size="12" fill="#111" text-anchor="start">RMU</text><text x="491.4" y="196.0" font-family="Arial, Helvetica, sans-serif" font-size="12" fill="#111" text-anchor="start">630 A 11 kV</text><line x1="428.4" y1="62.0" x2="450.4" y2="62.0" stroke="#111" stroke-width="3" stroke-linecap="round"/><text x="439.4" y="18.0" font-family="Arial, Helvetica, sans-serif" font-size="11.5" fill="#111" text-anchor="middle" font-weight="bold">INC</text><text x="439.4" y="32.0" font-family="Arial, Helvetica, sans-serif" font-size="11.5" fill="#111" text-anchor="middle">Utility</text><text x="439.4" y="46.0" font-family="Arial, Helvetica, sans-serif" font-size="11.5" fill="#111" text-anchor="middle">11 kV</text><line x1="439.4" y1="62.0" x2="439.4" y2="150.0" stroke="#111" stroke-width="2" stroke-linecap="round"/><line x1="232.5" y1="619.0" x2="232.5" y2="621.0" stroke="#111" stroke-width="2" stroke-linecap="round"/><line x1="229.0" y1="621.0" x2="236.0" y2="628.0" stroke="#111" stroke-width="2" stroke-linecap="round"/><line x1="229.0" y1="628.0" x2="236.0" y2="621.0" stroke="#111" stroke-width="2" stroke-linecap="round"/><line x1="234.5" y1="627.5" x2="241.5" y2="636.0" stroke="#111" stroke-width="2" stroke-linecap="round"/><line x1="226.5" y1="636.0" x2="238.5" y2="636.0" stroke="#111" stroke-width="2" stroke-linecap="round"/><line x1="232.5" y1="636.0" x2="232.5" y2="645.0" stroke="#111" stroke-width="2" stroke-linecap="round"/><line x1="232.5" y1="602.0" x2="232.5" y2="619.0" stroke="#111" stroke-width="2" stroke-linecap="round"/><line x1="232.5" y1="645.0" x2="232.5" y2="662.0" stroke="#111" stroke-width="2" stroke-linecap="round"/><circle cx="232.5" cy="676.0" r="14" fill="none" stroke="#111" stroke-width="2.2"/><text x="232.5" y="677.0" font-family="Arial, Helvetica, sans-serif" font-size="13" fill="#111" text-anchor="middle" font-weight="bold">M</text><text x="232.5" y="689.0" font-family="Arial, Helvetica, sans-serif" font-size="8.5" fill="#111" text-anchor="middle">3~</text><text x="0" y="0" transform="translate(236.5,704.0) rotate(90)" font-family="Arial, Helvetica, sans-serif" font-size="11" fill="#111" text-anchor="start">P1 · Well pump · 30 kW</text><circle cx="439.4" cy="486.0" r="3.2" fill="#111"/><line x1="439.4" y1="503.0" x2="439.4" y2="505.0" stroke="#111" stroke-width="2" stroke-linecap="round"/><line x1="435.9" y1="505.0" x2="442.9" y2="512.0" stroke="#111" stroke-width="2" stroke-linecap="round"/><line x1="435.9" y1="512.0" x2="442.9" y2="505.0" stroke="#111" stroke-width="2" stroke-linecap="round"/><line x1="441.4" y1="511.5" x2="448.4" y2="520.0" stroke="#111" stroke-width="2" stroke-linecap="round"/><line x1="433.4" y1="520.0" x2="445.4" y2="520.0" stroke="#111" stroke-width="2" stroke-linecap="round"/><line x1="439.4" y1="520.0" x2="439.4" y2="529.0" stroke="#111" stroke-width="2" stroke-linecap="round"/><line x1="439.4" y1="486.0" x2="439.4" y2="503.0" stroke="#111" stroke-width="2" stroke-linecap="round"/><line x1="439.4" y1="529.0" x2="439.4" y2="546.0" stroke="#111" stroke-width="2" stroke-linecap="round"/><circle cx="439.4" cy="560.0" r="14" fill="none" stroke="#111" stroke-width="2.2"/><text x="439.4" y="561.0" font-family="Arial, Helvetica, sans-serif" font-size="13" fill="#111" text-anchor="middle" font-weight="bold">M</text><text x="439.4" y="573.0" font-family="Arial, Helvetica, sans-serif" font-size="8.5" fill="#111" text-anchor="middle">3~</text><text x="0" y="0" transform="translate(443.4,588.0) rotate(90)" font-family="Arial, Helvetica, sans-serif" font-size="11" fill="#111" text-anchor="start">M2 · Board pump · 15 kW</text><circle cx="1144.6" cy="486.0" r="3.2" fill="#111"/><line x1="1144.6" y1="503.0" x2="1144.6" y2="505.0" stroke="#111" stroke-width="2" stroke-linecap="round"/><line x1="1141.1" y1="505.0" x2="1148.1" y2="512.0" stroke="#111" stroke-width="2" stroke-linecap="round"/><line x1="1141.1" y1="512.0" x2="1148.1" y2="505.0" stroke="#111" stroke-width="2" stroke-linecap="round"/><line x1="1146.6" y1="511.5" x2="1153.6" y2="520.0" stroke="#111" stroke-width="2" stroke-linecap="round"/><line x1="1138.6" y1="520.0" x2="1150.6" y2="520.0" stroke="#111" stroke-width="2" stroke-linecap="round"/><line x1="1144.6" y1="520.0" x2="1144.6" y2="529.0" stroke="#111" stroke-width="2" stroke-linecap="round"/><line x1="1144.6" y1="486.0" x2="1144.6" y2="503.0" stroke="#111" stroke-width="2" stroke-linecap="round"/><line x1="1144.6" y1="529.0" x2="1144.6" y2="546.0" stroke="#111" stroke-width="2" stroke-linecap="round"/><circle cx="1144.6" cy="560.0" r="14" fill="none" stroke="#111" stroke-width="2.2"/><text x="1144.6" y="561.0" font-family="Arial, Helvetica, sans-serif" font-size="13" fill="#111" text-anchor="middle" font-weight="bold">M</text><text x="1144.6" y="573.0" font-family="Arial, Helvetica, sans-serif" font-size="8.5" fill="#111" text-anchor="middle">3~</text><text x="0" y="0" transform="translate(1148.6,588.0) rotate(90)" font-family="Arial, Helvetica, sans-serif" font-size="11" fill="#111" text-anchor="start">M4 · Small motor · 5 kW</text><circle cx="439.4" cy="342.0" r="19" fill="none" stroke="#111" stroke-width="2.2"/><circle cx="439.4" cy="369.0" r="19" fill="none" stroke="#111" stroke-width="2.2"/><text x="468.4" y="336.0" font-family="Arial, Helvetica, sans-serif" font-size="12" fill="#111" text-anchor="start">TX1</text><text x="468.4" y="351.0" font-family="Arial, Helvetica, sans-serif" font-size="12" fill="#111" text-anchor="start">Tx</text><text x="468.4" y="366.0" font-family="Arial, Helvetica, sans-serif" font-size="12" fill="#111" text-anchor="start">1000 kVA 11/0.4 kV</text><line x1="439.4" y1="268.0" x2="439.4" y2="323.0" stroke="#111" stroke-width="2" stroke-linecap="round"/><line x1="439.4" y1="424.0" x2="439.4" y2="426.0" stroke="#111" stroke-width="2" stroke-linecap="round"/><line x1="435.9" y1="426.0" x2="442.9" y2="433.0" stroke="#111" stroke-width="2" stroke-linecap="round"/><line x1="435.9" y1="433.0" x2="442.9" y2="426.0" stroke="#111" stroke-width="2" stroke-linecap="round"/><line x1="441.4" y1="432.5" x2="448.4" y2="441.0" stroke="#111" stroke-width="2" stroke-linecap="round"/><line x1="433.4" y1="441.0" x2="445.4" y2="441.0" stroke="#111" stroke-width="2" stroke-linecap="round"/><line x1="439.4" y1="441.0" x2="439.4" y2="450.0" stroke="#111" stroke-width="2" stroke-linecap="round"/><line x1="439.4" y1="388.0" x2="439.4" y2="424.0" stroke="#111" stroke-width="2" stroke-linecap="round"/><line x1="439.4" y1="450.0" x2="439.4" y2="486.0" stroke="#111" stroke-width="2" stroke-linecap="round"/><circle cx="439.4" cy="486.0" r="3.2" fill="#111"/><circle cx="1097.1" cy="342.0" r="19" fill="none" stroke="#111" stroke-width="2.2"/><circle cx="1097.1" cy="369.0" r="19" fill="none" stroke="#111" stroke-width="2.2"/><text x="1126.1" y="336.0" font-family="Arial, Helvetica, sans-serif" font-size="12" fill="#111" text-anchor="start">T3</text><text x="1126.1" y="351.0" font-family="Arial, Helvetica, sans-serif" font-size="12" fill="#111" text-anchor="start">LV/LV tx</text><text x="1126.1" y="366.0" font-family="Arial, Helvetica, sans-serif" font-size="12" fill="#111" text-anchor="start">100 kVA 0.4/0.23 kV</text><line x1="763.8" y1="380.5" x2="763.8" y2="382.5" stroke="#111" stroke-width="2" stroke-linecap="round"/><line x1="760.3" y1="382.5" x2="767.3" y2="389.5" stroke="#111" stroke-width="2" stroke-linecap="round"/><line x1="760.3" y1="389.5" x2="767.3" y2="382.5" stroke="#111" stroke-width="2" stroke-linecap="round"/><line x1="765.8" y1="389.0" x2="772.8" y2="397.5" stroke="#111" stroke-width="2" stroke-linecap="round"/><line x1="757.8" y1="397.5" x2="769.8" y2="397.5" stroke="#111" stroke-width="2" stroke-linecap="round"/><line x1="763.8" y1="397.5" x2="763.8" y2="406.5" stroke="#111" stroke-width="2" stroke-linecap="round"/><line x1="763.8" y1="301.0" x2="763.8" y2="380.5" stroke="#111" stroke-width="2" stroke-linecap="round"/><line x1="763.8" y1="406.5" x2="763.8" y2="486.0" stroke="#111" stroke-width="2" stroke-linecap="round"/><line x1="763.8" y1="301.0" x2="1097.1" y2="301.0" stroke="#111" stroke-width="2" stroke-linecap="round"/><line x1="1097.1" y1="301.0" x2="1097.1" y2="323.0" stroke="#111" stroke-width="2" stroke-linecap="round"/><circle cx="763.8" cy="486.0" r="3.2" fill="#111"/><line x1="1097.1" y1="424.0" x2="1097.1" y2="426.0" stroke="#111" stroke-width="2" stroke-linecap="round"/><line x1="1093.6" y1="426.0" x2="1100.6" y2="433.0" stroke="#111" stroke-width="2" stroke-linecap="round"/><line x1="1093.6" y1="433.0" x2="1100.6" y2="426.0" stroke="#111" stroke-width="2" stroke-linecap="round"/><line x1="1099.1" y1="432.5" x2="1106.1" y2="441.0" stroke="#111" stroke-width="2" stroke-linecap="round"/><line x1="1091.1" y1="441.0" x2="1103.1" y2="441.0" stroke="#111" stroke-width="2" stroke-linecap="round"/><line x1="1097.1" y1="441.0" x2="1097.1" y2="450.0" stroke="#111" stroke-width="2" stroke-linecap="round"/><line x1="1097.1" y1="388.0" x2="1097.1" y2="424.0" stroke="#111" stroke-width="2" stroke-linecap="round"/><line x1="1097.1" y1="450.0" x2="1097.1" y2="486.0" stroke="#111" stroke-width="2" stroke-linecap="round"/><circle cx="1097.1" cy="486.0" r="3.2" fill="#111"/><line x1="90.0" y1="486.0" x2="788.8" y2="486.0" stroke="#111" stroke-width="5.5" stroke-linecap="round"/><line x1="898.8" y1="486.0" x2="1295.4" y2="486.0" stroke="#111" stroke-width="5.5" stroke-linecap="round"/><circle cx="137.5" cy="486.0" r="3.2" fill="#111"/><line x1="137.5" y1="503.0" x2="137.5" y2="505.0" stroke="#111" stroke-width="2" stroke-linecap="round"/><line x1="134.0" y1="505.0" x2="141.0" y2="512.0" stroke="#111" stroke-width="2" stroke-linecap="round"/><line x1="134.0" y1="512.0" x2="141.0" y2="505.0" stroke="#111" stroke-width="2" stroke-linecap="round"/><line x1="139.5" y1="511.5" x2="146.5" y2="520.0" stroke="#111" stroke-width="2" stroke-linecap="round"/><line x1="131.5" y1="520.0" x2="143.5" y2="520.0" stroke="#111" stroke-width="2" stroke-linecap="round"/><line x1="137.5" y1="520.0" x2="137.5" y2="529.0" stroke="#111" stroke-width="2" stroke-linecap="round"/><line x1="137.5" y1="486.0" x2="137.5" y2="503.0" stroke="#111" stroke-width="2" stroke-linecap="round"/><line x1="137.5" y1="529.0" x2="137.5" y2="564.0" stroke="#111" stroke-width="2" stroke-linecap="round"/><polygon points="131.5,563.0 143.5,563.0 137.5,574.0" fill="#111"/><text x="0" y="0" transform="translate(141.5,592.0) rotate(90)" font-family="Arial, Helvetica, sans-serif" font-size="11" fill="#111" text-anchor="start">F1 · Lighting · 100 A</text><circle cx="741.3" cy="486.0" r="3.2" fill="#111"/><line x1="741.3" y1="503.0" x2="741.3" y2="505.0" stroke="#111" stroke-width="2" stroke-linecap="round"/><line x1="737.8" y1="505.0" x2="744.8" y2="512.0" stroke="#111" stroke-width="2" stroke-linecap="round"/><line x1="737.8" y1="512.0" x2="744.8" y2="505.0" stroke="#111" stroke-width="2" stroke-linecap="round"/><line x1="743.3" y1="511.5" x2="750.3" y2="520.0" stroke="#111" stroke-width="2" stroke-linecap="round"/><line x1="735.3" y1="520.0" x2="747.3" y2="520.0" stroke="#111" stroke-width="2" stroke-linecap="round"/><line x1="741.3" y1="520.0" x2="741.3" y2="529.0" stroke="#111" stroke-width="2" stroke-linecap="round"/><line x1="741.3" y1="486.0" x2="741.3" y2="503.0" stroke="#111" stroke-width="2" stroke-linecap="round"/><line x1="741.3" y1="529.0" x2="741.3" y2="564.0" stroke="#111" stroke-width="2" stroke-linecap="round"/><polygon points="735.3,563.0 747.3,563.0 741.3,574.0" fill="#111"/><text x="0" y="0" transform="translate(745.3,592.0) rotate(90)" font-family="Arial, Helvetica, sans-serif" font-size="11" fill="#111" text-anchor="start">F2 · Spare · 63 A</text><circle cx="1049.6" cy="486.0" r="3.2" fill="#111"/><line x1="1049.6" y1="503.0" x2="1049.6" y2="505.0" stroke="#111" stroke-width="2" stroke-linecap="round"/><line x1="1046.1" y1="505.0" x2="1053.1" y2="512.0" stroke="#111" stroke-width="2" stroke-linecap="round"/><line x1="1046.1" y1="512.0" x2="1053.1" y2="505.0" stroke="#111" stroke-width="2" stroke-linecap="round"/><line x1="1051.6" y1="511.5" x2="1058.6" y2="520.0" stroke="#111" stroke-width="2" stroke-linecap="round"/><line x1="1043.6" y1="520.0" x2="1055.6" y2="520.0" stroke="#111" stroke-width="2" stroke-linecap="round"/><line x1="1049.6" y1="520.0" x2="1049.6" y2="529.0" stroke="#111" stroke-width="2" stroke-linecap="round"/><line x1="1049.6" y1="486.0" x2="1049.6" y2="503.0" stroke="#111" stroke-width="2" stroke-linecap="round"/><line x1="1049.6" y1="529.0" x2="1049.6" y2="564.0" stroke="#111" stroke-width="2" stroke-linecap="round"/><polygon points="1043.6,563.0 1055.6,563.0 1049.6,574.0" fill="#111"/><text x="0" y="0" transform="translate(1053.6,592.0) rotate(90)" font-family="Arial, Helvetica, sans-serif" font-size="11" fill="#111" text-anchor="start">F4 · Sockets · 32 A</text><circle cx="232.5" cy="486.0" r="3.2" fill="#111"/><line x1="232.5" y1="503.0" x2="232.5" y2="505.0" stroke="#111" stroke-width="2" stroke-linecap="round"/><line x1="229.0" y1="505.0" x2="236.0" y2="512.0" stroke="#111" stroke-width="2" stroke-linecap="round"/><line x1="229.0" y1="512.0" x2="236.0" y2="505.0" stroke="#111" stroke-width="2" stroke-linecap="round"/><line x1="234.5" y1="511.5" x2="241.5" y2="520.0" stroke="#111" stroke-width="2" stroke-linecap="round"/><line x1="226.5" y1="520.0" x2="238.5" y2="520.0" stroke="#111" stroke-width="2" stroke-linecap="round"/><line x1="232.5" y1="520.0" x2="232.5" y2="529.0" stroke="#111" stroke-width="2" stroke-linecap="round"/><line x1="232.5" y1="486.0" x2="232.5" y2="503.0" stroke="#111" stroke-width="2" stroke-linecap="round"/><line x1="232.5" y1="529.0" x2="232.5" y2="537.0" stroke="#111" stroke-width="2" stroke-linecap="round"/><circle cx="232.5" cy="556.0" r="19" fill="none" stroke="#111" stroke-width="2.2"/><circle cx="232.5" cy="583.0" r="19" fill="none" stroke="#111" stroke-width="2.2"/><text x="261.5" y="550.0" font-family="Arial, Helvetica, sans-serif" font-size="12" fill="#111" text-anchor="start">T1</text><text x="261.5" y="565.0" font-family="Arial, Helvetica, sans-serif" font-size="12" fill="#111" text-anchor="start">Motor supply</text><text x="261.5" y="580.0" font-family="Arial, Helvetica, sans-serif" font-size="12" fill="#111" text-anchor="start">75 kVA 0.4/0.3 kV</text><circle cx="534.4" cy="486.0" r="3.2" fill="#111"/><line x1="534.4" y1="503.0" x2="534.4" y2="505.0" stroke="#111" stroke-width="2" stroke-linecap="round"/><line x1="530.9" y1="505.0" x2="537.9" y2="512.0" stroke="#111" stroke-width="2" stroke-linecap="round"/><line x1="530.9" y1="512.0" x2="537.9" y2="505.0" stroke="#111" stroke-width="2" stroke-linecap="round"/><line x1="536.4" y1="511.5" x2="543.4" y2="520.0" stroke="#111" stroke-width="2" stroke-linecap="round"/><line x1="528.4" y1="520.0" x2="540.4" y2="520.0" stroke="#111" stroke-width="2" stroke-linecap="round"/><line x1="534.4" y1="520.0" x2="534.4" y2="529.0" stroke="#111" stroke-width="2" stroke-linecap="round"/><line x1="534.4" y1="486.0" x2="534.4" y2="503.0" stroke="#111" stroke-width="2" stroke-linecap="round"/><line x1="534.4" y1="529.0" x2="534.4" y2="537.0" stroke="#111" stroke-width="2" stroke-linecap="round"/><circle cx="534.4" cy="556.0" r="19" fill="none" stroke="#111" stroke-width="2.2"/><circle cx="534.4" cy="583.0" r="19" fill="none" stroke="#111" stroke-width="2.2"/><text x="563.4" y="550.0" font-family="Arial, Helvetica, sans-serif" font-size="12" fill="#111" text-anchor="start">T2</text><text x="563.4" y="565.0" font-family="Arial, Helvetica, sans-serif" font-size="12" fill="#111" text-anchor="start">Isolation tx</text><text x="563.4" y="580.0" font-family="Arial, Helvetica, sans-serif" font-size="12" fill="#111" text-anchor="start">50 kVA 0.4/0.4 kV</text><line x1="534.4" y1="602.0" x2="534.4" y2="638.0" stroke="#111" stroke-width="2" stroke-linecap="round"/><line x1="522.4" y1="638.0" x2="546.4" y2="638.0" stroke="#111" stroke-width="2" stroke-linecap="round"/><text x="534.4" y="656.0" font-family="Arial, Helvetica, sans-serif" font-size="9" fill="#111" text-anchor="middle">outgoing not defined</text><text x="90.0" y="474.0" font-family="Arial, Helvetica, sans-serif" font-size="11.5" fill="#111" text-anchor="start" font-weight="bold">MSB Main board 1600 A 400 V</text><text x="898.8" y="474.0" font-family="Arial, Helvetica, sans-serif" font-size="11.5" fill="#111" text-anchor="start" font-weight="bold">SB3 230 V board 200 A 230 V</text><rect x="1303.4" y="864.0" width="288.0" height="96.0" fill="none" stroke="#111" stroke-width="1.5"/><line x1="1303.4" y1="888.0" x2="1591.4" y2="888.0" stroke="#111" stroke-width="1.5" stroke-linecap="round"/><text x="1313.4" y="881.0" font-family="Arial, Helvetica, sans-serif" font-size="12" fill="#111" text-anchor="start" font-weight="bold">SLD SKETCH — SITE SURVEY</text><text x="1313.4" y="904.0" font-family="Arial, Helvetica, sans-serif" font-size="11" fill="#111" text-anchor="start" font-weight="bold">Site:</text><text x="1361.4" y="904.0" font-family="Arial, Helvetica, sans-serif" font-size="11" fill="#111" text-anchor="start">F7 transformers off an LV board</text><text x="1313.4" y="920.0" font-family="Arial, Helvetica, sans-serif" font-size="11" fill="#111" text-anchor="start" font-weight="bold">Date:</text><text x="1313.4" y="936.0" font-family="Arial, Helvetica, sans-serif" font-size="11" fill="#111" text-anchor="start" font-weight="bold">By:</text><text x="1313.4" y="952.0" font-family="Arial, Helvetica, sans-serif" font-size="11" fill="#111" text-anchor="start" font-weight="bold">Notes:</text><text x="1361.4" y="952.0" font-family="Arial, Helvetica, sans-serif" font-size="11" fill="#111" text-anchor="start">transformers off an LV board: a…</text><rect x="24.0" y="986.0" width="900.0" height="82.0" fill="none" stroke="#111" stroke-width="1.2"/><text x="32.0" y="1000.0" font-family="Arial, Helvetica, sans-serif" font-size="10" fill="#111" text-anchor="start" font-weight="bold">LEGEND</text><line x1="66.0" y1="1010.0" x2="66.0" y2="1012.0" stroke="#111" stroke-width="2" stroke-linecap="round"/><line x1="62.5" y1="1012.0" x2="69.5" y2="1019.0" stroke="#111" stroke-width="2" stroke-linecap="round"/><line x1="62.5" y1="1019.0" x2="69.5" y2="1012.0" stroke="#111" stroke-width="2" stroke-linecap="round"/><line x1="68.0" y1="1018.5" x2="75.0" y2="1027.0" stroke="#111" stroke-width="2" stroke-linecap="round"/><line x1="60.0" y1="1027.0" x2="72.0" y2="1027.0" stroke="#111" stroke-width="2" stroke-linecap="round"/><line x1="66.0" y1="1027.0" x2="66.0" y2="1036.0" stroke="#111" stroke-width="2" stroke-linecap="round"/><line x1="66.0" y1="1008.0" x2="66.0" y2="1010.0" stroke="#111" stroke-width="2" stroke-linecap="round"/><line x1="66.0" y1="1036.0" x2="66.0" y2="1038.0" stroke="#111" stroke-width="2" stroke-linecap="round"/><text x="66.0" y="1050.0" font-family="Arial, Helvetica, sans-serif" font-size="9" fill="#111" text-anchor="middle">Circuit</text><text x="66.0" y="1060.0" font-family="Arial, Helvetica, sans-serif" font-size="9" fill="#111" text-anchor="middle">breaker</text><line x1="134.0" y1="1008.0" x2="134.0" y2="1011.0" stroke="#111" stroke-width="2" stroke-linecap="round"/><circle cx="134.0" cy="1013.5" r="2.5" fill="none" stroke="#111" stroke-width="1.5"/><line x1="136.0" y1="1016.0" x2="143.0" y2="1029.0" stroke="#111" stroke-width="2" stroke-linecap="round"/><line x1="128.0" y1="1029.0" x2="140.0" y2="1029.0" stroke="#111" stroke-width="2" stroke-linecap="round"/><line x1="134.0" y1="1029.0" x2="134.0" y2="1038.0" stroke="#111" stroke-width="2" stroke-linecap="round"/><text x="134.0" y="1050.0" font-family="Arial, Helvetica, sans-serif" font-size="9" fill="#111" text-anchor="middle">Load-break</text><text x="134.0" y="1060.0" font-family="Arial, Helvetica, sans-serif" font-size="9" fill="#111" text-anchor="middle">switch</text><rect x="198.0" y="1012.0" width="8.0" height="22.0" fill="none" stroke="#111" stroke-width="2"/><line x1="202.0" y1="1012.0" x2="202.0" y2="1034.0" stroke="#111" stroke-width="2" stroke-linecap="round"/><line x1="202.0" y1="1008.0" x2="202.0" y2="1012.0" stroke="#111" stroke-width="2" stroke-linecap="round"/><line x1="202.0" y1="1034.0" x2="202.0" y2="1038.0" stroke="#111" stroke-width="2" stroke-linecap="round"/><text x="202.0" y="1050.0" font-family="Arial, Helvetica, sans-serif" font-size="9" fill="#111" text-anchor="middle">Fuse</text><line x1="270.0" y1="1008.0" x2="270.0" y2="1011.0" stroke="#111" stroke-width="2" stroke-linecap="round"/><circle cx="270.0" cy="1013.5" r="2.5" fill="none" stroke="#111" stroke-width="1.5"/><line x1="272.0" y1="1016.0" x2="279.0" y2="1018.0" stroke="#111" stroke-width="2" stroke-linecap="round"/><line x1="264.0" y1="1018.0" x2="276.0" y2="1018.0" stroke="#111" stroke-width="2" stroke-linecap="round"/><line x1="270.0" y1="1018.0" x2="270.0" y2="1027.0" stroke="#111" stroke-width="2" stroke-linecap="round"/><rect x="266.0" y="1029.0" width="8.0" height="7.0" fill="none" stroke="#111" stroke-width="2"/><line x1="270.0" y1="1027.0" x2="270.0" y2="1029.0" stroke="#111" stroke-width="2" stroke-linecap="round"/><line x1="270.0" y1="1036.0" x2="270.0" y2="1038.0" stroke="#111" stroke-width="2" stroke-linecap="round"/><text x="270.0" y="1050.0" font-family="Arial, Helvetica, sans-serif" font-size="9" fill="#111" text-anchor="middle">Fuse-switch</text><line x1="338.0" y1="1010.0" x2="338.0" y2="1012.0" stroke="#111" stroke-width="2" stroke-linecap="round"/><path d="M 334.0,1016.0 A 4,4 0 0 1 342.0,1016.0" fill="none" stroke="#111" stroke-width="2" stroke-linecap="round"/><line x1="340.0" y1="1018.0" x2="346.0" y2="1030.0" stroke="#111" stroke-width="2" stroke-linecap="round"/><line x1="338.0" y1="1032.0" x2="338.0" y2="1036.0" stroke="#111" stroke-width="2" stroke-linecap="round"/><line x1="338.0" y1="1008.0" x2="338.0" y2="1010.0" stroke="#111" stroke-width="2" stroke-linecap="round"/><line x1="338.0" y1="1036.0" x2="338.0" y2="1038.0" stroke="#111" stroke-width="2" stroke-linecap="round"/><text x="338.0" y="1050.0" font-family="Arial, Helvetica, sans-serif" font-size="9" fill="#111" text-anchor="middle">Contactor</text><rect x="402.0" y="1007.0" width="8.0" height="12.0" fill="none" stroke="#111" stroke-width="2"/><line x1="406.0" y1="1007.0" x2="406.0" y2="1019.0" stroke="#111" stroke-width="2" stroke-linecap="round"/><path d="M 402.0,1023.0 A 4,4 0 0 1 410.0,1023.0" fill="none" stroke="#111" stroke-width="2" stroke-linecap="round"/><line x1="408.0" y1="1025.0" x2="413.0" y2="1034.0" stroke="#111" stroke-width="2" stroke-linecap="round"/><line x1="406.0" y1="1035.0" x2="406.0" y2="1039.0" stroke="#111" stroke-width="2" stroke-linecap="round"/><line x1="406.0" y1="1008.0" x2="406.0" y2="1007.0" stroke="#111" stroke-width="2" stroke-linecap="round"/><line x1="406.0" y1="1039.0" x2="406.0" y2="1038.0" stroke="#111" stroke-width="2" stroke-linecap="round"/><text x="406.0" y="1050.0" font-family="Arial, Helvetica, sans-serif" font-size="9" fill="#111" text-anchor="middle">Fused</text><text x="406.0" y="1060.0" font-family="Arial, Helvetica, sans-serif" font-size="9" fill="#111" text-anchor="middle">contactor</text><circle cx="474.0" cy="1018.0" r="8" fill="none" stroke="#111" stroke-width="2"/><circle cx="474.0" cy="1028.0" r="8" fill="none" stroke="#111" stroke-width="2"/><text x="474.0" y="1050.0" font-family="Arial, Helvetica, sans-serif" font-size="9" fill="#111" text-anchor="middle">Transformer</text><circle cx="542.0" cy="1023.0" r="9" fill="none" stroke="#111" stroke-width="2"/><text x="542.0" y="1026.5" font-family="Arial, Helvetica, sans-serif" font-size="9" fill="#111" text-anchor="middle" font-weight="bold">G</text><text x="542.0" y="1050.0" font-family="Arial, Helvetica, sans-serif" font-size="9" fill="#111" text-anchor="middle">Generator</text><circle cx="610.0" cy="1023.0" r="9" fill="none" stroke="#111" stroke-width="2"/><text x="610.0" y="1026.5" font-family="Arial, Helvetica, sans-serif" font-size="9" fill="#111" text-anchor="middle" font-weight="bold">M</text><text x="610.0" y="1050.0" font-family="Arial, Helvetica, sans-serif" font-size="9" fill="#111" text-anchor="middle">Pump/motor</text><line x1="664.0" y1="1023.0" x2="692.0" y2="1023.0" stroke="#111" stroke-width="5" stroke-linecap="round"/><text x="678.0" y="1050.0" font-family="Arial, Helvetica, sans-serif" font-size="9" fill="#111" text-anchor="middle">Busbar</text><rect x="735.0" y="1015.0" width="22.0" height="16.0" fill="none" stroke="#111" stroke-width="1.5"/><text x="746.0" y="1026.0" font-family="Arial, Helvetica, sans-serif" font-size="6.5" fill="#111" text-anchor="middle">MCC</text><text x="746.0" y="1050.0" font-family="Arial, Helvetica, sans-serif" font-size="9" fill="#111" text-anchor="middle">MCC</text><line x1="814.0" y1="1010.0" x2="814.0" y2="1027.0" stroke="#111" stroke-width="2" stroke-linecap="round"/><polygon points="808.0,1027.0 820.0,1027.0 814.0,1038.0" fill="#111"/><text x="814.0" y="1050.0" font-family="Arial, Helvetica, sans-serif" font-size="9" fill="#111" text-anchor="middle">Feeder</text><rect x="869.0" y="1013.0" width="26.0" height="20.0" fill="none" stroke="#111" stroke-width="1.2" stroke-dasharray="4 3"/><text x="882.0" y="1050.0" font-family="Arial, Helvetica, sans-serif" font-size="9" fill="#111" text-anchor="middle">RMU/MCC</text><text x="882.0" y="1060.0" font-family="Arial, Helvetica, sans-serif" font-size="9" fill="#111" text-anchor="middle">enclosure</text></svg>