<svg xmlns="http://www.w3.org/2000/svg" width="1302" height="1080" viewBox="0 0 1302 1080"><rect width="100%" height="100%" fill="white"/><text x="24.0" y="954.0" font-family="Arial, Helvetica, sans-serif" font-size="16" fill="#111" text-anchor="start" font-weight="bold">L3 two step-downs — Single Line Diagram (sketch)</text><g data-id="U" data-kind="mv incomer"><line x1="525.1" y1="62.0" x2="547.1" y2="62.0" stroke="#111" stroke-width="3" stroke-linecap="round"/><text x="536.1" y="18.0" font-family="Arial, Helvetica, sans-serif" font-size="11.5" fill="#111" text-anchor="middle" font-weight="bold">U</text><text x="536.1" y="32.0" font-family="Arial, Helvetica, sans-serif" font-size="11.5" fill="#111" text-anchor="middle">Utility</text><text x="536.1" y="46.0" font-family="Arial, Helvetica, sans-serif" font-size="11.5" fill="#111" text-anchor="middle">11 kV</text><line x1="536.1" y1="122.0" x2="536.1" y2="124.0" stroke="#111" stroke-width="2" stroke-linecap="round"/><line x1="532.6" y1="124.0" x2="539.6" y2="131.0" stroke="#111" stroke-width="2" stroke-linecap="round"/><line x1="532.6" y1="131.0" x2="539.6" y2="124.0" stroke="#111" stroke-width="2" stroke-linecap="round"/><line x1="538.1" y1="130.5" x2="545.1" y2="139.0" stroke="#111" stroke-width="2" stroke-linecap="round"/><line x1="530.1" y1="139.0" x2="542.1" y2="139.0" stroke="#111" stroke-width="2" stroke-linecap="round"/><line x1="536.1" y1="139.0" x2="536.1" y2="148.0" stroke="#111" stroke-width="2" stroke-linecap="round"/><line x1="536.1" y1="62.0" x2="536.1" y2="122.0" stroke="#111" stroke-width="2" stroke-linecap="round"/><line x1="536.1" y1="148.0" x2="536.1" y2="208.0" stroke="#111" stroke-width="2" stroke-linecap="round"/><circle cx="536.1" cy="208.0" r="3.2" fill="#111"/></g><g data-id="MV" data-kind="mv busbar"><line x1="90.0" y1="208.0" x2="982.2" y2="208.0" stroke="#111" stroke-width="5.5" stroke-linecap="round"/></g><g data-id="PB" data-kind="mv busbar"><line x1="502.8" y1="408.0" x2="982.2" y2="408.0" stroke="#111" stroke-width="5.5" stroke-linecap="round"/></g><g data-id="P1" data-kind="pump"><rect x="593.5" y="454.0" width="8.0" height="12.0" fill="none" stroke="#111" stroke-width="2"/><line x1="597.5" y1="454.0" x2="597.5" y2="466.0" stroke="#111" stroke-width="2" stroke-linecap="round"/><path d="M 593.5,470.0 A 4,4 0 0 1 601.5,470.0" fill="none" stroke="#111" stroke-width="2" stroke-linecap="round"/><line x1="599.5" y1="472.0" x2="604.5" y2="481.0" stroke="#111" stroke-width="2" stroke-linecap="round"/><line x1="597.5" y1="482.0" x2="597.5" y2="486.0" stroke="#111" stroke-width="2" stroke-linecap="round"/><line x1="597.5" y1="408.0" x2="597.5" y2="454.0" stroke="#111" stroke-width="2" stroke-linecap="round"/><line x1="597.5" y1="486.0" x2="597.5" y2="532.0" stroke="#111" stroke-width="2" stroke-linecap="round"/><circle cx="597.5" cy="408.0" r="3.2" fill="#111"/><circle cx="597.5" cy="552.0" r="20" fill="none" stroke="#111" stroke-width="2.2"/><text x="597.5" y="553.0" font-family="Arial, Helvetica, sans-serif" font-size="13" fill="#111" text-anchor="middle" font-weight="bold">M</text><text x="597.5" y="565.0" font-family="Arial, Helvetica, sans-serif" font-size="8.5" fill="#111" text-anchor="middle">3~</text><text x="627.5" y="546.0" font-family="Arial, Helvetica, sans-serif" font-size="11" fill="#111" text-anchor="start">P1</text><text x="627.5" y="560.0" font-family="Arial, Helvetica, sans-serif" font-size="11" fill="#111" text-anchor="start">Pump 1</text><text x="627.5" y="574.0" font-family="Arial, Helvetica, sans-serif" font-size="11" fill="#111" text-anchor="start">630 kW</text></g><g data-id="P2" data-kind="pump"><rect x="738.5" y="454.0" width="8.0" height="12.0" fill="none" stroke="#111" stroke-width="2"/><line x1="742.5" y1="454.0" x2="742.5" y2="466.0" stroke="#111" stroke-width="2" stroke-linecap="round"/><path d="M 738.5,470.0 A 4,4 0 0 1 746.5,470.0" fill="none" stroke="#111" stroke-width="2" stroke-linecap="round"/><line x1="744.5" y1="472.0" x2="749.5" y2="481.0" stroke="#111" stroke-width="2" stroke-linecap="round"/><line x1="742.5" y1="482.0" x2="742.5" y2="486.0" stroke="#111" stroke-width="2" stroke-linecap="round"/><line x1="742.5" y1="408.0" x2="742.5" y2="454.0" stroke="#111" stroke-width="2" stroke-linecap="round"/><line x1="742.5" y1="486.0" x2="742.5" y2="532.0" stroke="#111" stroke-width="2" stroke-linecap="round"/><circle cx="742.5" cy="408.0" r="3.2" fill="#111"/><circle cx="742.5" cy="552.0" r="20" fill="none" stroke="#111" stroke-width="2.2"/><text x="742.5" y="553.0" font-family="Arial, Helvetica, sans-serif" font-size="13" fill="#111" text-anchor="middle" font-weight="bold">M</text><text x="742.5" y="565.0" font-family="Arial, Helvetica, sans-serif" font-size="8.5" fill="#111" text-anchor="middle">3~</text><text x="772.5" y="546.0" font-family="Arial, Helvetica, sans-serif" font-size="11" fill="#111" text-anchor="start">P2</text><text x="772.5" y="560.0" font-family="Arial, Helvetica, sans-serif" font-size="11" fill="#111" text-anchor="start">Pump 2</text><text x="772.5" y="574.0" font-family="Arial, Helvetica, sans-serif" font-size="11" fill="#111" text-anchor="start">630 kW</text></g><g data-id="P3" data-kind="pump"><rect x="883.5" y="454.0" width="8.0" height="12.0" fill="none" stroke="#111" stroke-width="2"/><line x1="887.5" y1="454.0" x2="887.5" y2="466.0" stroke="#111" stroke-width="2" stroke-linecap="round"/><path d="M 883.5,470.0 A 4,4 0 0 1 891.5,470.0" fill="none" stroke="#111" stroke-width="2" stroke-linecap="round"/><line x1="889.5" y1="472.0" x2="894.5" y2="481.0" stroke="#111" stroke-width="2" stroke-linecap="round"/><line x1="887.5" y1="482.0" x2="887.5" y2="486.0" stroke="#111" stroke-width="2" stroke-linecap="round"/><line x1="887.5" y1="408.0" x2="887.5" y2="454.0" stroke="#111" stroke-width="2" stroke-linecap="round"/><line x1="887.5" y1="486.0" x2="887.5" y2="532.0" stroke="#111" stroke-width="2" stroke-linecap="round"/><circle cx="887.5" cy="408.0" r="3.2" fill="#111"/><circle cx="887.5" cy="552.0" r="20" fill="none" stroke="#111" stroke-width="2.2"/><text x="887.5" y="553.0" font-family="Arial, Helvetica, sans-serif" font-size="13" fill="#111" text-anchor="middle" font-weight="bold">M</text><text x="887.5" y="565.0" font-family="Arial, Helvetica, sans-serif" font-size="8.5" fill="#111" text-anchor="middle">3~</text><text x="917.5" y="546.0" font-family="Arial, Helvetica, sans-serif" font-size="11" fill="#111" text-anchor="start">P3</text><text x="917.5" y="560.0" font-family="Arial, Helvetica, sans-serif" font-size="11" fill="#111" text-anchor="start">Pump 3</text><text x="917.5" y="574.0" font-family="Arial, Helvetica, sans-serif" font-size="11" fill="#111" text-anchor="start">630 kW</text></g><g data-id="PT" data-kind="transformer"><circle cx="742.5" cy="295.0" r="19" fill="none" stroke="#111" stroke-width="2.2"/><circle cx="742.5" cy="322.0" r="19" fill="none" stroke="#111" stroke-width="2.2"/><text x="771.5" y="289.0" font-family="Arial, Helvetica, sans-serif" font-size="12" fill="#111" text-anchor="start">PT</text><text x="771.5" y="304.0" font-family="Arial, Helvetica, sans-serif" font-size="12" fill="#111" text-anchor="start">Pump tx</text><text x="771.5" y="319.0" font-family="Arial, Helvetica, sans-serif" font-size="12" fill="#111" text-anchor="start">4 MVA 11/3.3 kV</text><line x1="742.5" y1="229.0" x2="742.5" y2="231.0" stroke="#111" stroke-width="2" stroke-linecap="round"/><line x1="739.0" y1="231.0" x2="746.0" y2="238.0" stroke="#111" stroke-width="2" stroke-linecap="round"/><line x1="739.0" y1="238.0" x2="746.0" y2="231.0" stroke="#111" stroke-width="2" stroke-linecap="round"/><line x1="744.5" y1="237.5" x2="751.5" y2="246.0" stroke="#111" stroke-width="2" stroke-linecap="round"/><line x1="736.5" y1="246.0" x2="748.5" y2="246.0" stroke="#111" stroke-width="2" stroke-linecap="round"/><line x1="742.5" y1="246.0" x2="742.5" y2="255.0" stroke="#111" stroke-width="2" stroke-linecap="round"/><line x1="742.5" y1="208.0" x2="742.5" y2="229.0" stroke="#111" stroke-width="2" stroke-linecap="round"/><line x1="742.5" y1="255.0" x2="742.5" y2="276.0" stroke="#111" stroke-width="2" stroke-linecap="round"/><circle cx="742.5" cy="208.0" r="3.2" fill="#111"/><line x1="742.5" y1="361.5" x2="742.5" y2="363.5" stroke="#111" stroke-width="2" stroke-linecap="round"/><line x1="739.0" y1="363.5" x2="746.0" y2="370.5" stroke="#111" stroke-width="2" stroke-linecap="round"/><line x1="739.0" y1="370.5" x2="746.0" y2="363.5" stroke="#111" stroke-width="2" stroke-linecap="round"/><line x1="744.5" y1="370.0" x2="751.5" y2="378.5" stroke="#111" stroke-width="2" stroke-linecap="round"/><line x1="736.5" y1="378.5" x2="748.5" y2="378.5" stroke="#111" stroke-width="2" stroke-linecap="round"/><line x1="742.5" y1="378.5" x2="742.5" y2="387.5" stroke="#111" stroke-width="2" stroke-linecap="round"/><line x1="742.5" y1="341.0" x2="742.5" y2="361.5" stroke="#111" stroke-width="2" stroke-linecap="round"/><line x1="742.5" y1="387.5" x2="742.5" y2="408.0" stroke="#111" stroke-width="2" stroke-linecap="round"/><circle cx="742.5" cy="408.0" r="3.2" fill="#111"/></g><g data-id="T1" data-kind="transformer"><circle cx="281.4" cy="542.0" r="19" fill="none" stroke="#111" stroke-width="2.2"/><circle cx="281.4" cy="569.0" r="19" fill="none" stroke="#111" stroke-width="2.2"/><text x="310.4" y="536.0" font-family="Arial, Helvetica, sans-serif" font-size="12" fill="#111" text-anchor="start">T1</text><text x="310.4" y="551.0" font-family="Arial, Helvetica, sans-serif" font-size="12" fill="#111" text-anchor="start">Station tx</text><text x="310.4" y="566.0" font-family="Arial, Helvetica, sans-serif" font-size="12" fill="#111" text-anchor="start">1000 kVA 11/0.4 kV</text><line x1="281.4" y1="352.5" x2="281.4" y2="354.5" stroke="#111" stroke-width="2" stroke-linecap="round"/><line x1="277.9" y1="354.5" x2="284.9" y2="361.5" stroke="#111" stroke-width="2" stroke-linecap="round"/><line x1="277.9" y1="361.5" x2="284.9" y2="354.5" stroke="#111" stroke-width="2" stroke-linecap="round"/><line x1="283.4" y1="361.0" x2="290.4" y2="369.5" stroke="#111" stroke-width="2" stroke-linecap="round"/><line x1="275.4" y1="369.5" x2="287.4" y2="369.5" stroke="#111" stroke-width="2" stroke-linecap="round"/><line x1="281.4" y1="369.5" x2="281.4" y2="378.5" stroke="#111" stroke-width="2" stroke-linecap="round"/><line x1="281.4" y1="208.0" x2="281.4" y2="352.5" stroke="#111" stroke-width="2" stroke-linecap="round"/><line x1="281.4" y1="378.5" x2="281.4" y2="523.0" stroke="#111" stroke-width="2" stroke-linecap="round"/><circle cx="281.4" cy="208.0" r="3.2" fill="#111"/><line x1="281.4" y1="624.0" x2="281.4" y2="626.0" stroke="#111" stroke-width="2" stroke-linecap="round"/><line x1="277.9" y1="626.0" x2="284.9" y2="633.0" stroke="#111" stroke-width="2" stroke-linecap="round"/><line x1="277.9" y1="633.0" x2="284.9" y2="626.0" stroke="#111" stroke-width="2" stroke-linecap="round"/><line x1="283.4" y1="632.5" x2="290.4" y2="641.0" stroke="#111" stroke-width="2" stroke-linecap="round"/><line x1="275.4" y1="641.0" x2="287.4" y2="641.0" stroke="#111" stroke-width="2" stroke-linecap="round"/><line x1="281.4" y1="641.0" x2="281.4" y2="650.0" stroke="#111" stroke-width="2" stroke-linecap="round"/><line x1="281.4" y1="588.0" x2="281.4" y2="624.0" stroke="#111" stroke-width="2" stroke-linecap="round"/><line x1="281.4" y1="650.0" x2="281.4" y2="686.0" stroke="#111" stroke-width="2" stroke-linecap="round"/><circle cx="281.4" cy="686.0" r="3.2" fill="#111"/></g><g data-id="LV" data-kind="lv busbar"><line x1="90.0" y1="686.0" x2="472.8" y2="686.0" stroke="#111" stroke-width="5.5" stroke-linecap="round"/></g><g data-id="F1" data-kind="feeder"><circle cx="281.4" cy="686.0" r="3.2" fill="#111"/><line x1="281.4" y1="703.0" x2="281.4" y2="705.0" stroke="#111" stroke-width="2" stroke-linecap="round"/><line x1="277.9" y1="705.0" x2="284.9" y2="712.0" stroke="#111" stroke-width="2" stroke-linecap="round"/><line x1="277.9" y1="712.0" x2="284.9" y2="705.0" stroke="#111" stroke-width="2" stroke-linecap="round"/><line x1="283.4" y1="711.5" x2="290.4" y2="720.0" stroke="#111" stroke-width="2" stroke-linecap="round"/><line x1="275.4" y1="720.0" x2="287.4" y2="720.0" stroke="#111" stroke-width="2" stroke-linecap="round"/><line x1="281.4" y1="720.0" x2="281.4" y2="729.0" stroke="#111" stroke-width="2" stroke-linecap="round"/><line x1="281.4" y1="686.0" x2="281.4" y2="703.0" stroke="#111" stroke-width="2" stroke-linecap="round"/><line x1="281.4" y1="729.0" x2="281.4" y2="764.0" stroke="#111" stroke-width="2" stroke-linecap="round"/><polygon points="275.4,763.0 287.4,763.0 281.4,774.0" fill="#111"/><text x="0" y="0" transform="translate(285.4,792.0) rotate(90)" font-family="Arial, Helvetica, sans-serif" font-size="11" fill="#111" text-anchor="start">F1 · Aux · 250 A</text></g><text x="90.0" y="196.0" font-family="Arial, Helvetica, sans-serif" font-size="11.5" fill="#111" text-anchor="start" font-weight="bold">MV 11 kV board 1250 A 11 kV</text><text x="502.8" y="396.0" font-family="Arial, Helvetica, sans-serif" font-size="11.5" fill="#111" text-anchor="start" font-weight="bold">PB 3.3 kV pump board 800 A 3.3 kV</text><text x="90.0" y="674.0" font-family="Arial, Helvetica, sans-serif" font-size="11.5" fill="#111" text-anchor="start" font-weight="bold">LV Station LV 1600 A 400 V</text><rect x="990.2" y="864.0" width="288.0" height="96.0" fill="none" stroke="#111" stroke-width="1.5"/><line x1="990.2" y1="888.0" x2="1278.2" y2="888.0" stroke="#111" stroke-width="1.5" stroke-linecap="round"/><text x="1000.2" y="881.0" font-family="Arial, Helvetica, sans-serif" font-size="12" fill="#111" text-anchor="start" font-weight="bold">SLD SKETCH — SITE SURVEY</text><text x="1000.2" y="904.0" font-family="Arial, Helvetica, sans-serif" font-size="11" fill="#111" text-anchor="start" font-weight="bold">Site:</text><text x="1048.2" y="904.0" font-family="Arial, Helvetica, sans-serif" font-size="11" fill="#111" text-anchor="start">L3 two step-downs</text><text x="1000.2" y="920.0" font-family="Arial, Helvetica, sans-serif" font-size="11" fill="#111" text-anchor="start" font-weight="bold">Date:</text><text x="1000.2" y="936.0" font-family="Arial, Helvetica, sans-serif" font-size="11" fill="#111" text-anchor="start" font-weight="bold">By:</text><text x="1000.2" y="952.0" font-family="Arial, Helvetica, sans-serif" font-size="11" fill="#111" text-anchor="start" font-weight="bold">Notes:</text><text x="1048.2" y="952.0" font-family="Arial, Helvetica, sans-serif" font-size="11" fill="#111" text-anchor="start">multi-level test</text><rect x="24.0" y="986.0" width="900.0" height="82.0" fill="none" stroke="#111" stroke-width="1.2"/><text x="32.0" y="1000.0" font-family="Arial, Helvetica, sans-serif" font-size="10" fill="#111" text-anchor="start" font-weight="bold">LEGEND</text><line x1="66.0" y1="1010.0" x2="66.0" y2="1012.0" stroke="#111" stroke-width="2" stroke-linecap="round"/><line x1="62.5" y1="1012.0" x2="69.5" y2="1019.0" stroke="#111" stroke-width="2" stroke-linecap="round"/><line x1="62.5" y1="1019.0" x2="69.5" y2="1012.0" stroke="#111" stroke-width="2" stroke-linecap="round"/><line x1="68.0" y1="1018.5" x2="75.0" y2="1027.0" stroke="#111" stroke-width="2" stroke-linecap="round"/><line x1="60.0" y1="1027.0" x2="72.0" y2="1027.0" stroke="#111" stroke-width="2" stroke-linecap="round"/><line x1="66.0" y1="1027.0" x2="66.0" y2="1036.0" stroke="#111" stroke-width="2" stroke-linecap="round"/><line x1="66.0" y1="1008.0" x2="66.0" y2="1010.0" stroke="#111" stroke-width="2" stroke-linecap="round"/><line x1="66.0" y1="1036.0" x2="66.0" y2="1038.0" stroke="#111" stroke-width="2" stroke-linecap="round"/><text x="66.0" y="1050.0" font-family="Arial, Helvetica, sans-serif" font-size="9" fill="#111" text-anchor="middle">Circuit</text><text x="66.0" y="1060.0" font-family="Arial, Helvetica, sans-serif" font-size="9" fill="#111" text-anchor="middle">breaker</text><line x1="134.0" y1="1008.0" x2="134.0" y2="1011.0" stroke="#111" stroke-width="2" stroke-linecap="round"/><circle cx="134.0" cy="1013.5" r="2.5" fill="none" stroke="#111" stroke-width="1.5"/><line x1="136.0" y1="1016.0" x2="143.0" y2="1029.0" stroke="#111" stroke-width="2" stroke-linecap="round"/><line x1="128.0" y1="1029.0" x2="140.0" y2="1029.0" stroke="#111" stroke-width="2" stroke-linecap="round"/><line x1="134.0" y1="1029.0" x2="134.0" y2="1038.0" stroke="#111" stroke-width="2" stroke-linecap="round"/><text x="134.0" y="1050.0" font-family="Arial, Helvetica, sans-serif" font-size="9" fill="#111" text-anchor="middle">Load-break</text><text x="134.0" y="1060.0" font-family="Arial, Helvetica, sans-serif" font-size="9" fill="#111" text-anchor="middle">switch</text><rect x="198.0" y="1012.0" width="8.0" height="22.0" fill="none" stroke="#111" stroke-width="2"/><line x1="202.0" y1="1012.0" x2="202.0" y2="1034.0" stroke="#111" stroke-width="2" stroke-linecap="round"/><line x1="202.0" y1="1008.0" x2="202.0" y2="1012.0" stroke="#111" stroke-width="2" stroke-linecap="round"/><line x1="202.0" y1="1034.0" x2="202.0" y2="1038.0" stroke="#111" stroke-width="2" stroke-linecap="round"/><text x="202.0" y="1050.0" font-family="Arial, Helvetica, sans-serif" font-size="9" fill="#111" text-anchor="middle">Fuse</text><line x1="270.0" y1="1008.0" x2="270.0" y2="1011.0" stroke="#111" stroke-width="2" stroke-linecap="round"/><circle cx="270.0" cy="1013.5" r="2.5" fill="none" stroke="#111" stroke-width="1.5"/><line x1="272.0" y1="1016.0" x2="279.0" y2="1018.0" stroke="#111" stroke-width="2" stroke-linecap="round"/><line x1="264.0" y1="1018.0" x2="276.0" y2="1018.0" stroke="#111" stroke-width="2" stroke-linecap="round"/><line x1="270.0" y1="1018.0" x2="270.0" y2="1027.0" stroke="#111" stroke-width="2" stroke-linecap="round"/><rect x="266.0" y="1029.0" width="8.0" height="7.0" fill="none" stroke="#111" stroke-width="2"/><line x1="270.0" y1="1027.0" x2="270.0" y2="1029.0" stroke="#111" stroke-width="2" stroke-linecap="round"/><line x1="270.0" y1="1036.0" x2="270.0" y2="1038.0" stroke="#111" stroke-width="2" stroke-linecap="round"/><text x="270.0" y="1050.0" font-family="Arial, Helvetica, sans-serif" font-size="9" fill="#111" text-anchor="middle">Fuse-switch</text><line x1="338.0" y1="1010.0" x2="338.0" y2="1012.0" stroke="#111" stroke-width="2" stroke-linecap="round"/><path d="M 334.0,1016.0 A 4,4 0 0 1 342.0,1016.0" fill="none" stroke="#111" stroke-width="2" stroke-linecap="round"/><line x1="340.0" y1="1018.0" x2="346.0" y2="1030.0" stroke="#111" stroke-width="2" stroke-linecap="round"/><line x1="338.0" y1="1032.0" x2="338.0" y2="1036.0" stroke="#111" stroke-width="2" stroke-linecap="round"/><line x1="338.0" y1="1008.0" x2="338.0" y2="1010.0" stroke="#111" stroke-width="2" stroke-linecap="round"/><line x1="338.0" y1="1036.0" x2="338.0" y2="1038.0" stroke="#111" stroke-width="2" stroke-linecap="round"/><text x="338.0" y="1050.0" font-family="Arial, Helvetica, sans-serif" font-size="9" fill="#111" text-anchor="middle">Contactor</text><rect x="402.0" y="1007.0" width="8.0" height="12.0" fill="none" stroke="#111" stroke-width="2"/><line x1="406.0" y1="1007.0" x2="406.0" y2="1019.0" stroke="#111" stroke-width="2" stroke-linecap="round"/><path d="M 402.0,1023.0 A 4,4 0 0 1 410.0,1023.0" fill="none" stroke="#111" stroke-width="2" stroke-linecap="round"/><line x1="408.0" y1="1025.0" x2="413.0" y2="1034.0" stroke="#111" stroke-width="2" stroke-linecap="round"/><line x1="406.0" y1="1035.0" x2="406.0" y2="1039.0" stroke="#111" stroke-width="2" stroke-linecap="round"/><line x1="406.0" y1="1008.0" x2="406.0" y2="1007.0" stroke="#111" stroke-width="2" stroke-linecap="round"/><line x1="406.0" y1="1039.0" x2="406.0" y2="1038.0" stroke="#111" stroke-width="2" stroke-linecap="round"/><text x="406.0" y="1050.0" font-family="Arial, Helvetica, sans-serif" font-size="9" fill="#111" text-anchor="middle">Fused</text><text x="406.0" y="1060.0" font-family="Arial, Helvetica, sans-serif" font-size="9" fill="#111" text-anchor="middle">contactor</text><circle cx="474.0" cy="1018.0" r="8" fill="none" stroke="#111" stroke-width="2"/><circle cx="474.0" cy="1028.0" r="8" fill="none" stroke="#111" stroke-width="2"/><text x="474.0" y="1050.0" font-family="Arial, Helvetica, sans-serif" font-size="9" fill="#111" text-anchor="middle">Transformer</text><circle cx="542.0" cy="1023.0" r="9" fill="none" stroke="#111" stroke-width="2"/><text x="542.0" y="1026.5" font-family="Arial, Helvetica, sans-serif" font-size="9" fill="#111" text-anchor="middle" font-weight="bold">G</text><text x="542.0" y="1050.0" font-family="Arial, Helvetica, sans-serif" font-size="9" fill="#111" text-anchor="middle">Generator</text><circle cx="610.0" cy="1023.0" r="9" fill="none" stroke="#111" stroke-width="2"/><text x="610.0" y="1026.5" font-family="Arial, Helvetica, sans-serif" font-size="9" fill="#111" text-anchor="middle" font-weight="bold">M</text><text x="610.0" y="1050.0" font-family="Arial, Helvetica, sans-serif" font-size="9" fill="#111" text-anchor="middle">Pump/motor</text><line x1="664.0" y1="1023.0" x2="692.0" y2="1023.0" stroke="#111" stroke-width="5" stroke-linecap="round"/><text x="678.0" y="1050.0" font-family="Arial, Helvetica, sans-serif" font-size="9" fill="#111" text-anchor="middle">Busbar</text><rect x="735.0" y="1015.0" width="22.0" height="16.0" fill="none" stroke="#111" stroke-width="1.5"/><text x="746.0" y="1026.0" font-family="Arial, Helvetica, sans-serif" font-size="6.5" fill="#111" text-anchor="middle">MCC</text><text x="746.0" y="1050.0" font-family="Arial, Helvetica, sans-serif" font-size="9" fill="#111" text-anchor="middle">MCC</text><line x1="814.0" y1="1010.0" x2="814.0" y2="1027.0" stroke="#111" stroke-width="2" stroke-linecap="round"/><polygon points="808.0,1027.0 820.0,1027.0 814.0,1038.0" fill="#111"/><text x="814.0" y="1050.0" font-family="Arial, Helvetica, sans-serif" font-size="9" fill="#111" text-anchor="middle">Feeder</text><rect x="869.0" y="1013.0" width="26.0" height="20.0" fill="none" stroke="#111" stroke-width="1.2" stroke-dasharray="4 3"/><text x="882.0" y="1050.0" font-family="Arial, Helvetica, sans-serif" font-size="9" fill="#111" text-anchor="middle">RMU/MCC</text><text x="882.0" y="1060.0" font-family="Arial, Helvetica, sans-serif" font-size="9" fill="#111" text-anchor="middle">enclosure</text></svg>