<svg xmlns="http://www.w3.org/2000/svg" width="1857" height="917" viewBox="0 0 1857 917"><rect width="100%" height="100%" fill="white"/><text x="24.0" y="791.0" font-family="Arial, Helvetica, sans-serif" font-size="16" fill="#111" text-anchor="start" font-weight="bold">Topology: b3 three sections — Single Line Diagram (sketch)</text><g data-id="U1" data-kind="mv incomer"><line x1="617.5" y1="62.0" x2="639.5" y2="62.0" stroke="#111" stroke-width="3" stroke-linecap="round"/><text x="628.5" y="18.0" font-family="Arial, Helvetica, sans-serif" font-size="11.5" fill="#111" text-anchor="middle" font-weight="bold">U1</text><text x="628.5" y="32.0" font-family="Arial, Helvetica, sans-serif" font-size="11.5" fill="#111" text-anchor="middle">Utility A</text><text x="628.5" y="46.0" font-family="Arial, Helvetica, sans-serif" font-size="11.5" fill="#111" text-anchor="middle">11 kV</text><line x1="628.5" y1="122.0" x2="628.5" y2="124.0" stroke="#111" stroke-width="2" stroke-linecap="round"/><line x1="625.0" y1="124.0" x2="632.0" y2="131.0" stroke="#111" stroke-width="2" stroke-linecap="round"/><line x1="625.0" y1="131.0" x2="632.0" y2="124.0" stroke="#111" stroke-width="2" stroke-linecap="round"/><line x1="630.5" y1="130.5" x2="637.5" y2="139.0" stroke="#111" stroke-width="2" stroke-linecap="round"/><line x1="622.5" y1="139.0" x2="634.5" y2="139.0" stroke="#111" stroke-width="2" stroke-linecap="round"/><line x1="628.5" y1="139.0" x2="628.5" y2="148.0" stroke="#111" stroke-width="2" stroke-linecap="round"/><line x1="628.5" y1="62.0" x2="628.5" y2="122.0" stroke="#111" stroke-width="2" stroke-linecap="round"/><line x1="628.5" y1="148.0" x2="628.5" y2="208.0" stroke="#111" stroke-width="2" stroke-linecap="round"/><circle cx="628.5" cy="208.0" r="3.2" fill="#111"/></g><g data-id="U2" data-kind="mv incomer"><line x1="707.5" y1="62.0" x2="729.5" y2="62.0" stroke="#111" stroke-width="3" stroke-linecap="round"/><text x="718.5" y="18.0" font-family="Arial, Helvetica, sans-serif" font-size="11.5" fill="#111" text-anchor="middle" font-weight="bold">U2</text><text x="718.5" y="32.0" font-family="Arial, Helvetica, sans-serif" font-size="11.5" fill="#111" text-anchor="middle">Utility B</text><text x="718.5" y="46.0" font-family="Arial, Helvetica, sans-serif" font-size="11.5" fill="#111" text-anchor="middle">11 kV</text><line x1="718.5" y1="122.0" x2="718.5" y2="124.0" stroke="#111" stroke-width="2" stroke-linecap="round"/><line x1="715.0" y1="124.0" x2="722.0" y2="131.0" stroke="#111" stroke-width="2" stroke-linecap="round"/><line x1="715.0" y1="131.0" x2="722.0" y2="124.0" stroke="#111" stroke-width="2" stroke-linecap="round"/><line x1="720.5" y1="130.5" x2="727.5" y2="139.0" stroke="#111" stroke-width="2" stroke-linecap="round"/><line x1="712.5" y1="139.0" x2="724.5" y2="139.0" stroke="#111" stroke-width="2" stroke-linecap="round"/><line x1="718.5" y1="139.0" x2="718.5" y2="148.0" stroke="#111" stroke-width="2" stroke-linecap="round"/><line x1="718.5" y1="62.0" x2="718.5" y2="122.0" stroke="#111" stroke-width="2" stroke-linecap="round"/><line x1="718.5" y1="148.0" x2="718.5" y2="208.0" stroke="#111" stroke-width="2" stroke-linecap="round"/><circle cx="718.5" cy="208.0" r="3.2" fill="#111"/></g><g data-id="MVB" data-kind="mv busbar"><line x1="90.0" y1="208.0" x2="1257.0" y2="208.0" stroke="#111" stroke-width="5.5" stroke-linecap="round"/></g><g data-id="TA" data-kind="transformer"><circle cx="274.5" cy="342.0" r="19" fill="none" stroke="#111" stroke-width="2.2"/><circle cx="274.5" cy="369.0" r="19" fill="none" stroke="#111" stroke-width="2.2"/><text x="303.5" y="336.0" font-family="Arial, Helvetica, sans-serif" font-size="12" fill="#111" text-anchor="start">TA</text><text x="303.5" y="351.0" font-family="Arial, Helvetica, sans-serif" font-size="12" fill="#111" text-anchor="start">Section A</text><text x="303.5" y="366.0" font-family="Arial, Helvetica, sans-serif" font-size="12" fill="#111" text-anchor="start">1600 kVA 11/0.4 kV</text><line x1="274.5" y1="252.5" x2="274.5" y2="254.5" stroke="#111" stroke-width="2" stroke-linecap="round"/><line x1="271.0" y1="254.5" x2="278.0" y2="261.5" stroke="#111" stroke-width="2" stroke-linecap="round"/><line x1="271.0" y1="261.5" x2="278.0" y2="254.5" stroke="#111" stroke-width="2" stroke-linecap="round"/><line x1="276.5" y1="261.0" x2="283.5" y2="269.5" stroke="#111" stroke-width="2" stroke-linecap="round"/><line x1="268.5" y1="269.5" x2="280.5" y2="269.5" stroke="#111" stroke-width="2" stroke-linecap="round"/><line x1="274.5" y1="269.5" x2="274.5" y2="278.5" stroke="#111" stroke-width="2" stroke-linecap="round"/><line x1="274.5" y1="208.0" x2="274.5" y2="252.5" stroke="#111" stroke-width="2" stroke-linecap="round"/><line x1="274.5" y1="278.5" x2="274.5" y2="323.0" stroke="#111" stroke-width="2" stroke-linecap="round"/><circle cx="274.5" cy="208.0" r="3.2" fill="#111"/><line x1="274.5" y1="424.0" x2="274.5" y2="426.0" stroke="#111" stroke-width="2" stroke-linecap="round"/><line x1="271.0" y1="426.0" x2="278.0" y2="433.0" stroke="#111" stroke-width="2" stroke-linecap="round"/><line x1="271.0" y1="433.0" x2="278.0" y2="426.0" stroke="#111" stroke-width="2" stroke-linecap="round"/><line x1="276.5" y1="432.5" x2="283.5" y2="441.0" stroke="#111" stroke-width="2" stroke-linecap="round"/><line x1="268.5" y1="441.0" x2="280.5" y2="441.0" stroke="#111" stroke-width="2" stroke-linecap="round"/><line x1="274.5" y1="441.0" x2="274.5" y2="450.0" stroke="#111" stroke-width="2" stroke-linecap="round"/><line x1="274.5" y1="388.0" x2="274.5" y2="424.0" stroke="#111" stroke-width="2" stroke-linecap="round"/><line x1="274.5" y1="450.0" x2="274.5" y2="486.0" stroke="#111" stroke-width="2" stroke-linecap="round"/><circle cx="274.5" cy="486.0" r="3.2" fill="#111"/></g><g data-id="TB" data-kind="transformer"><circle cx="673.5" cy="342.0" r="19" fill="none" stroke="#111" stroke-width="2.2"/><circle cx="673.5" cy="369.0" r="19" fill="none" stroke="#111" stroke-width="2.2"/><text x="702.5" y="336.0" font-family="Arial, Helvetica, sans-serif" font-size="12" fill="#111" text-anchor="start">TB</text><text x="702.5" y="351.0" font-family="Arial, Helvetica, sans-serif" font-size="12" fill="#111" text-anchor="start">Section B</text><text x="702.5" y="366.0" font-family="Arial, Helvetica, sans-serif" font-size="12" fill="#111" text-anchor="start">1600 kVA 11/0.4 kV</text><line x1="673.5" y1="252.5" x2="673.5" y2="254.5" stroke="#111" stroke-width="2" stroke-linecap="round"/><line x1="670.0" y1="254.5" x2="677.0" y2="261.5" stroke="#111" stroke-width="2" stroke-linecap="round"/><line x1="670.0" y1="261.5" x2="677.0" y2="254.5" stroke="#111" stroke-width="2" stroke-linecap="round"/><line x1="675.5" y1="261.0" x2="682.5" y2="269.5" stroke="#111" stroke-width="2" stroke-linecap="round"/><line x1="667.5" y1="269.5" x2="679.5" y2="269.5" stroke="#111" stroke-width="2" stroke-linecap="round"/><line x1="673.5" y1="269.5" x2="673.5" y2="278.5" stroke="#111" stroke-width="2" stroke-linecap="round"/><line x1="673.5" y1="208.0" x2="673.5" y2="252.5" stroke="#111" stroke-width="2" stroke-linecap="round"/><line x1="673.5" y1="278.5" x2="673.5" y2="323.0" stroke="#111" stroke-width="2" stroke-linecap="round"/><circle cx="673.5" cy="208.0" r="3.2" fill="#111"/><line x1="673.5" y1="424.0" x2="673.5" y2="426.0" stroke="#111" stroke-width="2" stroke-linecap="round"/><line x1="670.0" y1="426.0" x2="677.0" y2="433.0" stroke="#111" stroke-width="2" stroke-linecap="round"/><line x1="670.0" y1="433.0" x2="677.0" y2="426.0" stroke="#111" stroke-width="2" stroke-linecap="round"/><line x1="675.5" y1="432.5" x2="682.5" y2="441.0" stroke="#111" stroke-width="2" stroke-linecap="round"/><line x1="667.5" y1="441.0" x2="679.5" y2="441.0" stroke="#111" stroke-width="2" stroke-linecap="round"/><line x1="673.5" y1="441.0" x2="673.5" y2="450.0" stroke="#111" stroke-width="2" stroke-linecap="round"/><line x1="673.5" y1="388.0" x2="673.5" y2="424.0" stroke="#111" stroke-width="2" stroke-linecap="round"/><line x1="673.5" y1="450.0" x2="673.5" y2="486.0" stroke="#111" stroke-width="2" stroke-linecap="round"/><circle cx="673.5" cy="486.0" r="3.2" fill="#111"/></g><g data-id="TC" data-kind="transformer"><circle cx="1072.5" cy="342.0" r="19" fill="none" stroke="#111" stroke-width="2.2"/><circle cx="1072.5" cy="369.0" r="19" fill="none" stroke="#111" stroke-width="2.2"/><text x="1101.5" y="336.0" font-family="Arial, Helvetica, sans-serif" font-size="12" fill="#111" text-anchor="start">TC</text><text x="1101.5" y="351.0" font-family="Arial, Helvetica, sans-serif" font-size="12" fill="#111" text-anchor="start">Section C</text><text x="1101.5" y="366.0" font-family="Arial, Helvetica, sans-serif" font-size="12" fill="#111" text-anchor="start">1600 kVA 11/0.4 kV</text><line x1="1072.5" y1="252.5" x2="1072.5" y2="254.5" stroke="#111" stroke-width="2" stroke-linecap="round"/><line x1="1069.0" y1="254.5" x2="1076.0" y2="261.5" stroke="#111" stroke-width="2" stroke-linecap="round"/><line x1="1069.0" y1="261.5" x2="1076.0" y2="254.5" stroke="#111" stroke-width="2" stroke-linecap="round"/><line x1="1074.5" y1="261.0" x2="1081.5" y2="269.5" stroke="#111" stroke-width="2" stroke-linecap="round"/><line x1="1066.5" y1="269.5" x2="1078.5" y2="269.5" stroke="#111" stroke-width="2" stroke-linecap="round"/><line x1="1072.5" y1="269.5" x2="1072.5" y2="278.5" stroke="#111" stroke-width="2" stroke-linecap="round"/><line x1="1072.5" y1="208.0" x2="1072.5" y2="252.5" stroke="#111" stroke-width="2" stroke-linecap="round"/><line x1="1072.5" y1="278.5" x2="1072.5" y2="323.0" stroke="#111" stroke-width="2" stroke-linecap="round"/><circle cx="1072.5" cy="208.0" r="3.2" fill="#111"/><line x1="1072.5" y1="424.0" x2="1072.5" y2="426.0" stroke="#111" stroke-width="2" stroke-linecap="round"/><line x1="1069.0" y1="426.0" x2="1076.0" y2="433.0" stroke="#111" stroke-width="2" stroke-linecap="round"/><line x1="1069.0" y1="433.0" x2="1076.0" y2="426.0" stroke="#111" stroke-width="2" stroke-linecap="round"/><line x1="1074.5" y1="432.5" x2="1081.5" y2="441.0" stroke="#111" stroke-width="2" stroke-linecap="round"/><line x1="1066.5" y1="441.0" x2="1078.5" y2="441.0" stroke="#111" stroke-width="2" stroke-linecap="round"/><line x1="1072.5" y1="441.0" x2="1072.5" y2="450.0" stroke="#111" stroke-width="2" stroke-linecap="round"/><line x1="1072.5" y1="388.0" x2="1072.5" y2="424.0" stroke="#111" stroke-width="2" stroke-linecap="round"/><line x1="1072.5" y1="450.0" x2="1072.5" y2="486.0" stroke="#111" stroke-width="2" stroke-linecap="round"/><circle cx="1072.5" cy="486.0" r="3.2" fill="#111"/></g><g data-id="BA" data-kind="lv busbar"><line x1="90.0" y1="486.0" x2="459.0" y2="486.0" stroke="#111" stroke-width="5.5" stroke-linecap="round"/></g><g data-id="BB" data-kind="lv busbar"><line x1="489.0" y1="486.0" x2="858.0" y2="486.0" stroke="#111" stroke-width="5.5" stroke-linecap="round"/></g><g data-id="BC" data-kind="lv busbar"><line x1="888.0" y1="486.0" x2="1257.0" y2="486.0" stroke="#111" stroke-width="5.5" stroke-linecap="round"/></g><g data-id="TIE1" data-kind="bus coupler"><line x1="461.0" y1="486.0" x2="463.0" y2="486.0" stroke="#111" stroke-width="2" stroke-linecap="round"/><line x1="463.0" y1="482.5" x2="470.0" y2="489.5" stroke="#111" stroke-width="2" stroke-linecap="round"/><line x1="463.0" y1="489.5" x2="470.0" y2="482.5" stroke="#111" stroke-width="2" stroke-linecap="round"/><line x1="469.5" y1="484.0" x2="478.0" y2="477.0" stroke="#111" stroke-width="2" stroke-linecap="round"/><line x1="478.0" y1="480.0" x2="478.0" y2="492.0" stroke="#111" stroke-width="2" stroke-linecap="round"/><line x1="478.0" y1="486.0" x2="487.0" y2="486.0" stroke="#111" stroke-width="2" stroke-linecap="round"/><line x1="459.0" y1="486.0" x2="461.0" y2="486.0" stroke="#111" stroke-width="2" stroke-linecap="round"/><line x1="487.0" y1="486.0" x2="489.0" y2="486.0" stroke="#111" stroke-width="2" stroke-linecap="round"/><text x="474.0" y="510.0" font-family="Arial, Helvetica, sans-serif" font-size="11" fill="#111" text-anchor="middle">TIE1 2500 A</text><text x="474.0" y="524.0" font-family="Arial, Helvetica, sans-serif" font-size="10" fill="#111" text-anchor="middle">Normally open</text></g><g data-id="TIE2" data-kind="bus coupler"><line x1="860.0" y1="486.0" x2="862.0" y2="486.0" stroke="#111" stroke-width="2" stroke-linecap="round"/><line x1="862.0" y1="482.5" x2="869.0" y2="489.5" stroke="#111" stroke-width="2" stroke-linecap="round"/><line x1="862.0" y1="489.5" x2="869.0" y2="482.5" stroke="#111" stroke-width="2" stroke-linecap="round"/><line x1="868.5" y1="484.0" x2="877.0" y2="477.0" stroke="#111" stroke-width="2" stroke-linecap="round"/><line x1="877.0" y1="480.0" x2="877.0" y2="492.0" stroke="#111" stroke-width="2" stroke-linecap="round"/><line x1="877.0" y1="486.0" x2="886.0" y2="486.0" stroke="#111" stroke-width="2" stroke-linecap="round"/><line x1="858.0" y1="486.0" x2="860.0" y2="486.0" stroke="#111" stroke-width="2" stroke-linecap="round"/><line x1="886.0" y1="486.0" x2="888.0" y2="486.0" stroke="#111" stroke-width="2" stroke-linecap="round"/><text x="873.0" y="510.0" font-family="Arial, Helvetica, sans-serif" font-size="11" fill="#111" text-anchor="middle">TIE2 2500 A</text><text x="873.0" y="524.0" font-family="Arial, Helvetica, sans-serif" font-size="10" fill="#111" text-anchor="middle">Normally open</text></g><g data-id="FA1" data-kind="feeder"><circle cx="227.0" cy="486.0" r="3.2" fill="#111"/><line x1="227.0" y1="503.0" x2="227.0" y2="505.0" stroke="#111" stroke-width="2" stroke-linecap="round"/><line x1="223.5" y1="505.0" x2="230.5" y2="512.0" stroke="#111" stroke-width="2" stroke-linecap="round"/><line x1="223.5" y1="512.0" x2="230.5" y2="505.0" stroke="#111" stroke-width="2" stroke-linecap="round"/><line x1="229.0" y1="511.5" x2="236.0" y2="520.0" stroke="#111" stroke-width="2" stroke-linecap="round"/><line x1="221.0" y1="520.0" x2="233.0" y2="520.0" stroke="#111" stroke-width="2" stroke-linecap="round"/><line x1="227.0" y1="520.0" x2="227.0" y2="529.0" stroke="#111" stroke-width="2" stroke-linecap="round"/><line x1="227.0" y1="486.0" x2="227.0" y2="503.0" stroke="#111" stroke-width="2" stroke-linecap="round"/><line x1="227.0" y1="529.0" x2="227.0" y2="564.0" stroke="#111" stroke-width="2" stroke-linecap="round"/><polygon points="221.0,563.0 233.0,563.0 227.0,574.0" fill="#111"/><text x="0" y="0" transform="translate(231.0,592.0) rotate(90)" font-family="Arial, Helvetica, sans-serif" font-size="11" fill="#111" text-anchor="start">FA1 · Lighting A · 250 A</text></g><g data-id="FA2" data-kind="feeder"><circle cx="322.0" cy="486.0" r="3.2" fill="#111"/><line x1="322.0" y1="503.0" x2="322.0" y2="505.0" stroke="#111" stroke-width="2" stroke-linecap="round"/><line x1="318.5" y1="505.0" x2="325.5" y2="512.0" stroke="#111" stroke-width="2" stroke-linecap="round"/><line x1="318.5" y1="512.0" x2="325.5" y2="505.0" stroke="#111" stroke-width="2" stroke-linecap="round"/><line x1="324.0" y1="511.5" x2="331.0" y2="520.0" stroke="#111" stroke-width="2" stroke-linecap="round"/><line x1="316.0" y1="520.0" x2="328.0" y2="520.0" stroke="#111" stroke-width="2" stroke-linecap="round"/><line x1="322.0" y1="520.0" x2="322.0" y2="529.0" stroke="#111" stroke-width="2" stroke-linecap="round"/><line x1="322.0" y1="486.0" x2="322.0" y2="503.0" stroke="#111" stroke-width="2" stroke-linecap="round"/><line x1="322.0" y1="529.0" x2="322.0" y2="564.0" stroke="#111" stroke-width="2" stroke-linecap="round"/><polygon points="316.0,563.0 328.0,563.0 322.0,574.0" fill="#111"/><text x="0" y="0" transform="translate(326.0,592.0) rotate(90)" font-family="Arial, Helvetica, sans-serif" font-size="11" fill="#111" text-anchor="start">FA2 · Power A · 400 A</text></g><g data-id="FB1" data-kind="feeder"><circle cx="626.0" cy="486.0" r="3.2" fill="#111"/><line x1="626.0" y1="503.0" x2="626.0" y2="505.0" stroke="#111" stroke-width="2" stroke-linecap="round"/><line x1="622.5" y1="505.0" x2="629.5" y2="512.0" stroke="#111" stroke-width="2" stroke-linecap="round"/><line x1="622.5" y1="512.0" x2="629.5" y2="505.0" stroke="#111" stroke-width="2" stroke-linecap="round"/><line x1="628.0" y1="511.5" x2="635.0" y2="520.0" stroke="#111" stroke-width="2" stroke-linecap="round"/><line x1="620.0" y1="520.0" x2="632.0" y2="520.0" stroke="#111" stroke-width="2" stroke-linecap="round"/><line x1="626.0" y1="520.0" x2="626.0" y2="529.0" stroke="#111" stroke-width="2" stroke-linecap="round"/><line x1="626.0" y1="486.0" x2="626.0" y2="503.0" stroke="#111" stroke-width="2" stroke-linecap="round"/><line x1="626.0" y1="529.0" x2="626.0" y2="564.0" stroke="#111" stroke-width="2" stroke-linecap="round"/><polygon points="620.0,563.0 632.0,563.0 626.0,574.0" fill="#111"/><text x="0" y="0" transform="translate(630.0,592.0) rotate(90)" font-family="Arial, Helvetica, sans-serif" font-size="11" fill="#111" text-anchor="start">FB1 · Chillers · 630 A</text></g><g data-id="FB2" data-kind="feeder"><circle cx="721.0" cy="486.0" r="3.2" fill="#111"/><line x1="721.0" y1="503.0" x2="721.0" y2="505.0" stroke="#111" stroke-width="2" stroke-linecap="round"/><line x1="717.5" y1="505.0" x2="724.5" y2="512.0" stroke="#111" stroke-width="2" stroke-linecap="round"/><line x1="717.5" y1="512.0" x2="724.5" y2="505.0" stroke="#111" stroke-width="2" stroke-linecap="round"/><line x1="723.0" y1="511.5" x2="730.0" y2="520.0" stroke="#111" stroke-width="2" stroke-linecap="round"/><line x1="715.0" y1="520.0" x2="727.0" y2="520.0" stroke="#111" stroke-width="2" stroke-linecap="round"/><line x1="721.0" y1="520.0" x2="721.0" y2="529.0" stroke="#111" stroke-width="2" stroke-linecap="round"/><line x1="721.0" y1="486.0" x2="721.0" y2="503.0" stroke="#111" stroke-width="2" stroke-linecap="round"/><line x1="721.0" y1="529.0" x2="721.0" y2="564.0" stroke="#111" stroke-width="2" stroke-linecap="round"/><polygon points="715.0,563.0 727.0,563.0 721.0,574.0" fill="#111"/><text x="0" y="0" transform="translate(725.0,592.0) rotate(90)" font-family="Arial, Helvetica, sans-serif" font-size="11" fill="#111" text-anchor="start">FB2 · Power B · 400 A</text></g><g data-id="FC1" data-kind="feeder"><circle cx="1025.0" cy="486.0" r="3.2" fill="#111"/><line x1="1025.0" y1="503.0" x2="1025.0" y2="505.0" stroke="#111" stroke-width="2" stroke-linecap="round"/><line x1="1021.5" y1="505.0" x2="1028.5" y2="512.0" stroke="#111" stroke-width="2" stroke-linecap="round"/><line x1="1021.5" y1="512.0" x2="1028.5" y2="505.0" stroke="#111" stroke-width="2" stroke-linecap="round"/><line x1="1027.0" y1="511.5" x2="1034.0" y2="520.0" stroke="#111" stroke-width="2" stroke-linecap="round"/><line x1="1019.0" y1="520.0" x2="1031.0" y2="520.0" stroke="#111" stroke-width="2" stroke-linecap="round"/><line x1="1025.0" y1="520.0" x2="1025.0" y2="529.0" stroke="#111" stroke-width="2" stroke-linecap="round"/><line x1="1025.0" y1="486.0" x2="1025.0" y2="503.0" stroke="#111" stroke-width="2" stroke-linecap="round"/><line x1="1025.0" y1="529.0" x2="1025.0" y2="564.0" stroke="#111" stroke-width="2" stroke-linecap="round"/><polygon points="1019.0,563.0 1031.0,563.0 1025.0,574.0" fill="#111"/><text x="0" y="0" transform="translate(1029.0,592.0) rotate(90)" font-family="Arial, Helvetica, sans-serif" font-size="11" fill="#111" text-anchor="start">FC1 · Lifts · 250 A</text></g><g data-id="FC2" data-kind="feeder"><circle cx="1120.0" cy="486.0" r="3.2" fill="#111"/><line x1="1120.0" y1="503.0" x2="1120.0" y2="505.0" stroke="#111" stroke-width="2" stroke-linecap="round"/><line x1="1116.5" y1="505.0" x2="1123.5" y2="512.0" stroke="#111" stroke-width="2" stroke-linecap="round"/><line x1="1116.5" y1="512.0" x2="1123.5" y2="505.0" stroke="#111" stroke-width="2" stroke-linecap="round"/><line x1="1122.0" y1="511.5" x2="1129.0" y2="520.0" stroke="#111" stroke-width="2" stroke-linecap="round"/><line x1="1114.0" y1="520.0" x2="1126.0" y2="520.0" stroke="#111" stroke-width="2" stroke-linecap="round"/><line x1="1120.0" y1="520.0" x2="1120.0" y2="529.0" stroke="#111" stroke-width="2" stroke-linecap="round"/><line x1="1120.0" y1="486.0" x2="1120.0" y2="503.0" stroke="#111" stroke-width="2" stroke-linecap="round"/><line x1="1120.0" y1="529.0" x2="1120.0" y2="564.0" stroke="#111" stroke-width="2" stroke-linecap="round"/><polygon points="1114.0,563.0 1126.0,563.0 1120.0,574.0" fill="#111"/><text x="0" y="0" transform="translate(1124.0,592.0) rotate(90)" font-family="Arial, Helvetica, sans-serif" font-size="11" fill="#111" text-anchor="start">FC2 · Power C · 400 A</text></g><text x="90.0" y="196.0" font-family="Arial, Helvetica, sans-serif" font-size="11.5" fill="#111" text-anchor="start" font-weight="bold">MVB 11 kV switchboard 1250 A 11 kV</text><text x="90.0" y="474.0" font-family="Arial, Helvetica, sans-serif" font-size="11.5" fill="#111" text-anchor="start" font-weight="bold">BA Section A 2500 A 400 V</text><text x="489.0" y="474.0" font-family="Arial, Helvetica, sans-serif" font-size="11.5" fill="#111" text-anchor="start" font-weight="bold">BB Section B 2500 A 400 V</text><text x="888.0" y="474.0" font-family="Arial, Helvetica, sans-serif" font-size="11.5" fill="#111" text-anchor="start" font-weight="bold">BC Section C 2500 A 400 V</text><rect x="1545.0" y="701.0" width="288.0" height="96.0" fill="none" stroke="#111" stroke-width="1.5"/><line x1="1545.0" y1="725.0" x2="1833.0" y2="725.0" stroke="#111" stroke-width="1.5" stroke-linecap="round"/><text x="1555.0" y="718.0" font-family="Arial, Helvetica, sans-serif" font-size="12" fill="#111" text-anchor="start" font-weight="bold">SLD SKETCH — SITE SURVEY</text><text x="1555.0" y="741.0" font-family="Arial, Helvetica, sans-serif" font-size="11" fill="#111" text-anchor="start" font-weight="bold">Site:</text><text x="1603.0" y="741.0" font-family="Arial, Helvetica, sans-serif" font-size="11" fill="#111" text-anchor="start">Topology: b3 three sections</text><text x="1555.0" y="757.0" font-family="Arial, Helvetica, sans-serif" font-size="11" fill="#111" text-anchor="start" font-weight="bold">Date:</text><text x="1555.0" y="773.0" font-family="Arial, Helvetica, sans-serif" font-size="11" fill="#111" text-anchor="start" font-weight="bold">By:</text><text x="1555.0" y="789.0" font-family="Arial, Helvetica, sans-serif" font-size="11" fill="#111" text-anchor="start" font-weight="bold">Notes:</text><rect x="24.0" y="823.0" width="900.0" height="82.0" fill="none" stroke="#111" stroke-width="1.2"/><text x="32.0" y="837.0" font-family="Arial, Helvetica, sans-serif" font-size="10" fill="#111" text-anchor="start" font-weight="bold">LEGEND</text><line x1="66.0" y1="847.0" x2="66.0" y2="849.0" stroke="#111" stroke-width="2" stroke-linecap="round"/><line x1="62.5" y1="849.0" x2="69.5" y2="856.0" stroke="#111" stroke-width="2" stroke-linecap="round"/><line x1="62.5" y1="856.0" x2="69.5" y2="849.0" stroke="#111" stroke-width="2" stroke-linecap="round"/><line x1="68.0" y1="855.5" x2="75.0" y2="864.0" stroke="#111" stroke-width="2" stroke-linecap="round"/><line x1="60.0" y1="864.0" x2="72.0" y2="864.0" stroke="#111" stroke-width="2" stroke-linecap="round"/><line x1="66.0" y1="864.0" x2="66.0" y2="873.0" stroke="#111" stroke-width="2" stroke-linecap="round"/><line x1="66.0" y1="845.0" x2="66.0" y2="847.0" stroke="#111" stroke-width="2" stroke-linecap="round"/><line x1="66.0" y1="873.0" x2="66.0" y2="875.0" stroke="#111" stroke-width="2" stroke-linecap="round"/><text x="66.0" y="887.0" font-family="Arial, Helvetica, sans-serif" font-size="9" fill="#111" text-anchor="middle">Circuit</text><text x="66.0" y="897.0" font-family="Arial, Helvetica, sans-serif" font-size="9" fill="#111" text-anchor="middle">breaker</text><line x1="134.0" y1="845.0" x2="134.0" y2="848.0" stroke="#111" stroke-width="2" stroke-linecap="round"/><circle cx="134.0" cy="850.5" r="2.5" fill="none" stroke="#111" stroke-width="1.5"/><line x1="136.0" y1="853.0" x2="143.0" y2="866.0" stroke="#111" stroke-width="2" stroke-linecap="round"/><line x1="128.0" y1="866.0" x2="140.0" y2="866.0" stroke="#111" stroke-width="2" stroke-linecap="round"/><line x1="134.0" y1="866.0" x2="134.0" y2="875.0" stroke="#111" stroke-width="2" stroke-linecap="round"/><text x="134.0" y="887.0" font-family="Arial, Helvetica, sans-serif" font-size="9" fill="#111" text-anchor="middle">Load-break</text><text x="134.0" y="897.0" font-family="Arial, Helvetica, sans-serif" font-size="9" fill="#111" text-anchor="middle">switch</text><rect x="198.0" y="849.0" width="8.0" height="22.0" fill="none" stroke="#111" stroke-width="2"/><line x1="202.0" y1="849.0" x2="202.0" y2="871.0" stroke="#111" stroke-width="2" stroke-linecap="round"/><line x1="202.0" y1="845.0" x2="202.0" y2="849.0" stroke="#111" stroke-width="2" stroke-linecap="round"/><line x1="202.0" y1="871.0" x2="202.0" y2="875.0" stroke="#111" stroke-width="2" stroke-linecap="round"/><text x="202.0" y="887.0" font-family="Arial, Helvetica, sans-serif" font-size="9" fill="#111" text-anchor="middle">Fuse</text><line x1="270.0" y1="845.0" x2="270.0" y2="848.0" stroke="#111" stroke-width="2" stroke-linecap="round"/><circle cx="270.0" cy="850.5" r="2.5" fill="none" stroke="#111" stroke-width="1.5"/><line x1="272.0" y1="853.0" x2="279.0" y2="855.0" stroke="#111" stroke-width="2" stroke-linecap="round"/><line x1="264.0" y1="855.0" x2="276.0" y2="855.0" stroke="#111" stroke-width="2" stroke-linecap="round"/><line x1="270.0" y1="855.0" x2="270.0" y2="864.0" stroke="#111" stroke-width="2" stroke-linecap="round"/><rect x="266.0" y="866.0" width="8.0" height="7.0" fill="none" stroke="#111" stroke-width="2"/><line x1="270.0" y1="864.0" x2="270.0" y2="866.0" stroke="#111" stroke-width="2" stroke-linecap="round"/><line x1="270.0" y1="873.0" x2="270.0" y2="875.0" stroke="#111" stroke-width="2" stroke-linecap="round"/><text x="270.0" y="887.0" font-family="Arial, Helvetica, sans-serif" font-size="9" fill="#111" text-anchor="middle">Fuse-switch</text><line x1="338.0" y1="847.0" x2="338.0" y2="849.0" stroke="#111" stroke-width="2" stroke-linecap="round"/><path d="M 334.0,853.0 A 4,4 0 0 1 342.0,853.0" fill="none" stroke="#111" stroke-width="2" stroke-linecap="round"/><line x1="340.0" y1="855.0" x2="346.0" y2="867.0" stroke="#111" stroke-width="2" stroke-linecap="round"/><line x1="338.0" y1="869.0" x2="338.0" y2="873.0" stroke="#111" stroke-width="2" stroke-linecap="round"/><line x1="338.0" y1="845.0" x2="338.0" y2="847.0" stroke="#111" stroke-width="2" stroke-linecap="round"/><line x1="338.0" y1="873.0" x2="338.0" y2="875.0" stroke="#111" stroke-width="2" stroke-linecap="round"/><text x="338.0" y="887.0" font-family="Arial, Helvetica, sans-serif" font-size="9" fill="#111" text-anchor="middle">Contactor</text><rect x="402.0" y="844.0" width="8.0" height="12.0" fill="none" stroke="#111" stroke-width="2"/><line x1="406.0" y1="844.0" x2="406.0" y2="856.0" stroke="#111" stroke-width="2" stroke-linecap="round"/><path d="M 402.0,860.0 A 4,4 0 0 1 410.0,860.0" fill="none" stroke="#111" stroke-width="2" stroke-linecap="round"/><line x1="408.0" y1="862.0" x2="413.0" y2="871.0" stroke="#111" stroke-width="2" stroke-linecap="round"/><line x1="406.0" y1="872.0" x2="406.0" y2="876.0" stroke="#111" stroke-width="2" stroke-linecap="round"/><line x1="406.0" y1="845.0" x2="406.0" y2="844.0" stroke="#111" stroke-width="2" stroke-linecap="round"/><line x1="406.0" y1="876.0" x2="406.0" y2="875.0" stroke="#111" stroke-width="2" stroke-linecap="round"/><text x="406.0" y="887.0" font-family="Arial, Helvetica, sans-serif" font-size="9" fill="#111" text-anchor="middle">Fused</text><text x="406.0" y="897.0" font-family="Arial, Helvetica, sans-serif" font-size="9" fill="#111" text-anchor="middle">contactor</text><circle cx="474.0" cy="855.0" r="8" fill="none" stroke="#111" stroke-width="2"/><circle cx="474.0" cy="865.0" r="8" fill="none" stroke="#111" stroke-width="2"/><text x="474.0" y="887.0" font-family="Arial, Helvetica, sans-serif" font-size="9" fill="#111" text-anchor="middle">Transformer</text><circle cx="542.0" cy="860.0" r="9" fill="none" stroke="#111" stroke-width="2"/><text x="542.0" y="863.5" font-family="Arial, Helvetica, sans-serif" font-size="9" fill="#111" text-anchor="middle" font-weight="bold">G</text><text x="542.0" y="887.0" font-family="Arial, Helvetica, sans-serif" font-size="9" fill="#111" text-anchor="middle">Generator</text><circle cx="610.0" cy="860.0" r="9" fill="none" stroke="#111" stroke-width="2"/><text x="610.0" y="863.5" font-family="Arial, Helvetica, sans-serif" font-size="9" fill="#111" text-anchor="middle" font-weight="bold">M</text><text x="610.0" y="887.0" font-family="Arial, Helvetica, sans-serif" font-size="9" fill="#111" text-anchor="middle">Pump/motor</text><line x1="664.0" y1="860.0" x2="692.0" y2="860.0" stroke="#111" stroke-width="5" stroke-linecap="round"/><text x="678.0" y="887.0" font-family="Arial, Helvetica, sans-serif" font-size="9" fill="#111" text-anchor="middle">Busbar</text><rect x="735.0" y="852.0" width="22.0" height="16.0" fill="none" stroke="#111" stroke-width="1.5"/><text x="746.0" y="863.0" font-family="Arial, Helvetica, sans-serif" font-size="6.5" fill="#111" text-anchor="middle">MCC</text><text x="746.0" y="887.0" font-family="Arial, Helvetica, sans-serif" font-size="9" fill="#111" text-anchor="middle">MCC</text><line x1="814.0" y1="847.0" x2="814.0" y2="864.0" stroke="#111" stroke-width="2" stroke-linecap="round"/><polygon points="808.0,864.0 820.0,864.0 814.0,875.0" fill="#111"/><text x="814.0" y="887.0" font-family="Arial, Helvetica, sans-serif" font-size="9" fill="#111" text-anchor="middle">Feeder</text><rect x="869.0" y="850.0" width="26.0" height="20.0" fill="none" stroke="#111" stroke-width="1.2" stroke-dasharray="4 3"/><text x="882.0" y="887.0" font-family="Arial, Helvetica, sans-serif" font-size="9" fill="#111" text-anchor="middle">RMU/MCC</text><text x="882.0" y="897.0" font-family="Arial, Helvetica, sans-serif" font-size="9" fill="#111" text-anchor="middle">enclosure</text></svg>