<svg xmlns="http://www.w3.org/2000/svg" width="3908" height="1466" viewBox="0 0 3908 1466"><rect width="100%" height="100%" fill="white"/><text x="24.0" y="1340.0" font-family="Arial, Helvetica, sans-serif" font-size="16" fill="#111" text-anchor="start" font-weight="bold">C5 Hybrid PV / BESS / gensets — Single Line Diagram (sketch)</text><g data-id="U" data-kind="mv incomer"><line x1="663.4" y1="62.0" x2="685.4" y2="62.0" stroke="#111" stroke-width="3" stroke-linecap="round"/><text x="674.4" y="18.0" font-family="Arial, Helvetica, sans-serif" font-size="11.5" fill="#111" text-anchor="middle" font-weight="bold">U</text><text x="674.4" y="32.0" font-family="Arial, Helvetica, sans-serif" font-size="11.5" fill="#111" text-anchor="middle">Utility 33 kV</text><text x="674.4" y="46.0" font-family="Arial, Helvetica, sans-serif" font-size="11.5" fill="#111" text-anchor="middle">33 kV</text><line x1="674.4" y1="177.0" x2="674.4" y2="179.0" stroke="#111" stroke-width="2" stroke-linecap="round"/><line x1="670.9" y1="179.0" x2="677.9" y2="186.0" stroke="#111" stroke-width="2" stroke-linecap="round"/><line x1="670.9" y1="186.0" x2="677.9" y2="179.0" stroke="#111" stroke-width="2" stroke-linecap="round"/><line x1="676.4" y1="185.5" x2="683.4" y2="194.0" stroke="#111" stroke-width="2" stroke-linecap="round"/><line x1="668.4" y1="194.0" x2="680.4" y2="194.0" stroke="#111" stroke-width="2" stroke-linecap="round"/><line x1="674.4" y1="194.0" x2="674.4" y2="203.0" stroke="#111" stroke-width="2" stroke-linecap="round"/><line x1="674.4" y1="62.0" x2="674.4" y2="177.0" stroke="#111" stroke-width="2" stroke-linecap="round"/><line x1="674.4" y1="203.0" x2="674.4" y2="318.0" stroke="#111" stroke-width="2" stroke-linecap="round"/><circle cx="674.4" cy="318.0" r="3.2" fill="#111"/></g><g data-id="HV" data-kind="mv busbar"><line x1="90.0" y1="318.0" x2="1258.8" y2="318.0" stroke="#111" stroke-width="5.5" stroke-linecap="round"/></g><g data-id="MV" data-kind="mv busbar"><line x1="90.0" y1="518.0" x2="1258.8" y2="518.0" stroke="#111" stroke-width="5.5" stroke-linecap="round"/></g><g data-id="GB" data-kind="mv busbar"><line x1="90.0" y1="718.0" x2="818.4" y2="718.0" stroke="#111" stroke-width="5.5" stroke-linecap="round"/></g><circle cx="364.2" cy="518.0" r="3.2" fill="#111"/><line x1="364.2" y1="605.0" x2="364.2" y2="607.0" stroke="#111" stroke-width="2" stroke-linecap="round"/><line x1="360.7" y1="607.0" x2="367.7" y2="614.0" stroke="#111" stroke-width="2" stroke-linecap="round"/><line x1="360.7" y1="614.0" x2="367.7" y2="607.0" stroke="#111" stroke-width="2" stroke-linecap="round"/><line x1="366.2" y1="613.5" x2="373.2" y2="622.0" stroke="#111" stroke-width="2" stroke-linecap="round"/><line x1="358.2" y1="622.0" x2="370.2" y2="622.0" stroke="#111" stroke-width="2" stroke-linecap="round"/><line x1="364.2" y1="622.0" x2="364.2" y2="631.0" stroke="#111" stroke-width="2" stroke-linecap="round"/><line x1="364.2" y1="518.0" x2="364.2" y2="605.0" stroke="#111" stroke-width="2" stroke-linecap="round"/><line x1="364.2" y1="631.0" x2="364.2" y2="718.0" stroke="#111" stroke-width="2" stroke-linecap="round"/><circle cx="364.2" cy="718.0" r="3.2" fill="#111"/><g data-id="PV1" data-kind="generator"><circle cx="2266.1" cy="865.0" r="20" fill="none" stroke="#111" stroke-width="2.2"/><text x="2266.1" y="869.0" font-family="Arial, Helvetica, sans-serif" font-size="13" fill="#111" text-anchor="middle" font-weight="bold">G</text><text x="2296.1" y="846.0" font-family="Arial, Helvetica, sans-serif" font-size="12" fill="#111" text-anchor="start">PV1</text><text x="2296.1" y="861.0" font-family="Arial, Helvetica, sans-serif" font-size="12" fill="#111" text-anchor="start">PV inverters block 1</text><text x="2296.1" y="876.0" font-family="Arial, Helvetica, sans-serif" font-size="12" fill="#111" text-anchor="start">2.5 MW 400 V</text><line x1="2266.1" y1="927.5" x2="2266.1" y2="929.5" stroke="#111" stroke-width="2" stroke-linecap="round"/><line x1="2262.6" y1="929.5" x2="2269.6" y2="936.5" stroke="#111" stroke-width="2" stroke-linecap="round"/><line x1="2262.6" y1="936.5" x2="2269.6" y2="929.5" stroke="#111" stroke-width="2" stroke-linecap="round"/><line x1="2268.1" y1="936.0" x2="2275.1" y2="944.5" stroke="#111" stroke-width="2" stroke-linecap="round"/><line x1="2260.1" y1="944.5" x2="2272.1" y2="944.5" stroke="#111" stroke-width="2" stroke-linecap="round"/><line x1="2266.1" y1="944.5" x2="2266.1" y2="953.5" stroke="#111" stroke-width="2" stroke-linecap="round"/><line x1="2266.1" y1="885.0" x2="2266.1" y2="927.5" stroke="#111" stroke-width="2" stroke-linecap="round"/><line x1="2266.1" y1="953.5" x2="2266.1" y2="996.0" stroke="#111" stroke-width="2" stroke-linecap="round"/><circle cx="2266.1" cy="996.0" r="3.2" fill="#111"/></g><g data-id="PV2" data-kind="generator"><circle cx="2827.9" cy="865.0" r="20" fill="none" stroke="#111" stroke-width="2.2"/><text x="2827.9" y="869.0" font-family="Arial, Helvetica, sans-serif" font-size="13" fill="#111" text-anchor="middle" font-weight="bold">G</text><text x="2857.9" y="846.0" font-family="Arial, Helvetica, sans-serif" font-size="12" fill="#111" text-anchor="start">PV2</text><text x="2857.9" y="861.0" font-family="Arial, Helvetica, sans-serif" font-size="12" fill="#111" text-anchor="start">PV inverters block 2</text><text x="2857.9" y="876.0" font-family="Arial, Helvetica, sans-serif" font-size="12" fill="#111" text-anchor="start">2.5 MW 400 V</text><line x1="2827.9" y1="927.5" x2="2827.9" y2="929.5" stroke="#111" stroke-width="2" stroke-linecap="round"/><line x1="2824.4" y1="929.5" x2="2831.4" y2="936.5" stroke="#111" stroke-width="2" stroke-linecap="round"/><line x1="2824.4" y1="936.5" x2="2831.4" y2="929.5" stroke="#111" stroke-width="2" stroke-linecap="round"/><line x1="2829.9" y1="936.0" x2="2836.9" y2="944.5" stroke="#111" stroke-width="2" stroke-linecap="round"/><line x1="2821.9" y1="944.5" x2="2833.9" y2="944.5" stroke="#111" stroke-width="2" stroke-linecap="round"/><line x1="2827.9" y1="944.5" x2="2827.9" y2="953.5" stroke="#111" stroke-width="2" stroke-linecap="round"/><line x1="2827.9" y1="885.0" x2="2827.9" y2="927.5" stroke="#111" stroke-width="2" stroke-linecap="round"/><line x1="2827.9" y1="953.5" x2="2827.9" y2="996.0" stroke="#111" stroke-width="2" stroke-linecap="round"/><circle cx="2827.9" cy="996.0" r="3.2" fill="#111"/></g><g data-id="BESS" data-kind="generator"><circle cx="3375.9" cy="865.0" r="20" fill="none" stroke="#111" stroke-width="2.2"/><text x="3375.9" y="869.0" font-family="Arial, Helvetica, sans-serif" font-size="13" fill="#111" text-anchor="middle" font-weight="bold">G</text><text x="3405.9" y="846.0" font-family="Arial, Helvetica, sans-serif" font-size="12" fill="#111" text-anchor="start">BESS</text><text x="3405.9" y="861.0" font-family="Arial, Helvetica, sans-serif" font-size="12" fill="#111" text-anchor="start">BESS 2 MW / 4 MWh</text><text x="3405.9" y="876.0" font-family="Arial, Helvetica, sans-serif" font-size="12" fill="#111" text-anchor="start">2 MW 400 V</text><line x1="3375.9" y1="927.5" x2="3375.9" y2="929.5" stroke="#111" stroke-width="2" stroke-linecap="round"/><line x1="3372.4" y1="929.5" x2="3379.4" y2="936.5" stroke="#111" stroke-width="2" stroke-linecap="round"/><line x1="3372.4" y1="936.5" x2="3379.4" y2="929.5" stroke="#111" stroke-width="2" stroke-linecap="round"/><line x1="3377.9" y1="936.0" x2="3384.9" y2="944.5" stroke="#111" stroke-width="2" stroke-linecap="round"/><line x1="3369.9" y1="944.5" x2="3381.9" y2="944.5" stroke="#111" stroke-width="2" stroke-linecap="round"/><line x1="3375.9" y1="944.5" x2="3375.9" y2="953.5" stroke="#111" stroke-width="2" stroke-linecap="round"/><line x1="3375.9" y1="885.0" x2="3375.9" y2="927.5" stroke="#111" stroke-width="2" stroke-linecap="round"/><line x1="3375.9" y1="953.5" x2="3375.9" y2="996.0" stroke="#111" stroke-width="2" stroke-linecap="round"/><circle cx="3375.9" cy="996.0" r="3.2" fill="#111"/></g><g data-id="DG1" data-kind="generator"><circle cx="454.2" cy="606.0" r="20" fill="none" stroke="#111" stroke-width="2.2"/><text x="454.2" y="610.0" font-family="Arial, Helvetica, sans-serif" font-size="13" fill="#111" text-anchor="middle" font-weight="bold">G</text><text x="454.2" y="550.0" font-family="Arial, Helvetica, sans-serif" font-size="11" fill="#111" text-anchor="middle" font-weight="bold">DG1</text><text x="454.2" y="564.0" font-family="Arial, Helvetica, sans-serif" font-size="11" fill="#111" text-anchor="middle">Diesel genset 1</text><text x="454.2" y="578.0" font-family="Arial, Helvetica, sans-serif" font-size="11" fill="#111" text-anchor="middle">2 MVA 11 kV</text><line x1="454.2" y1="659.0" x2="454.2" y2="661.0" stroke="#111" stroke-width="2" stroke-linecap="round"/><line x1="450.7" y1="661.0" x2="457.7" y2="668.0" stroke="#111" stroke-width="2" stroke-linecap="round"/><line x1="450.7" y1="668.0" x2="457.7" y2="661.0" stroke="#111" stroke-width="2" stroke-linecap="round"/><line x1="456.2" y1="667.5" x2="463.2" y2="676.0" stroke="#111" stroke-width="2" stroke-linecap="round"/><line x1="448.2" y1="676.0" x2="460.2" y2="676.0" stroke="#111" stroke-width="2" stroke-linecap="round"/><line x1="454.2" y1="676.0" x2="454.2" y2="685.0" stroke="#111" stroke-width="2" stroke-linecap="round"/><line x1="454.2" y1="626.0" x2="454.2" y2="659.0" stroke="#111" stroke-width="2" stroke-linecap="round"/><line x1="454.2" y1="685.0" x2="454.2" y2="718.0" stroke="#111" stroke-width="2" stroke-linecap="round"/><circle cx="454.2" cy="718.0" r="3.2" fill="#111"/></g><g data-id="DG2" data-kind="generator"><circle cx="544.2" cy="606.0" r="20" fill="none" stroke="#111" stroke-width="2.2"/><text x="544.2" y="610.0" font-family="Arial, Helvetica, sans-serif" font-size="13" fill="#111" text-anchor="middle" font-weight="bold">G</text><text x="544.2" y="550.0" font-family="Arial, Helvetica, sans-serif" font-size="11" fill="#111" text-anchor="middle" font-weight="bold">DG2</text><text x="544.2" y="564.0" font-family="Arial, Helvetica, sans-serif" font-size="11" fill="#111" text-anchor="middle">Diesel genset 2</text><text x="544.2" y="578.0" font-family="Arial, Helvetica, sans-serif" font-size="11" fill="#111" text-anchor="middle">2 MVA 11 kV</text><line x1="544.2" y1="659.0" x2="544.2" y2="661.0" stroke="#111" stroke-width="2" stroke-linecap="round"/><line x1="540.7" y1="661.0" x2="547.7" y2="668.0" stroke="#111" stroke-width="2" stroke-linecap="round"/><line x1="540.7" y1="668.0" x2="547.7" y2="661.0" stroke="#111" stroke-width="2" stroke-linecap="round"/><line x1="546.2" y1="667.5" x2="553.2" y2="676.0" stroke="#111" stroke-width="2" stroke-linecap="round"/><line x1="538.2" y1="676.0" x2="550.2" y2="676.0" stroke="#111" stroke-width="2" stroke-linecap="round"/><line x1="544.2" y1="676.0" x2="544.2" y2="685.0" stroke="#111" stroke-width="2" stroke-linecap="round"/><line x1="544.2" y1="626.0" x2="544.2" y2="659.0" stroke="#111" stroke-width="2" stroke-linecap="round"/><line x1="544.2" y1="685.0" x2="544.2" y2="718.0" stroke="#111" stroke-width="2" stroke-linecap="round"/><circle cx="544.2" cy="718.0" r="3.2" fill="#111"/></g><g data-id="GT" data-kind="transformer"><circle cx="674.4" cy="405.0" r="19" fill="none" stroke="#111" stroke-width="2.2"/><circle cx="674.4" cy="432.0" r="19" fill="none" stroke="#111" stroke-width="2.2"/><text x="703.4" y="399.0" font-family="Arial, Helvetica, sans-serif" font-size="12" fill="#111" text-anchor="start">GT</text><text x="703.4" y="414.0" font-family="Arial, Helvetica, sans-serif" font-size="12" fill="#111" text-anchor="start">Grid tx</text><text x="703.4" y="429.0" font-family="Arial, Helvetica, sans-serif" font-size="12" fill="#111" text-anchor="start">20 MVA 33/11 kV</text><line x1="674.4" y1="339.0" x2="674.4" y2="341.0" stroke="#111" stroke-width="2" stroke-linecap="round"/><line x1="670.9" y1="341.0" x2="677.9" y2="348.0" stroke="#111" stroke-width="2" stroke-linecap="round"/><line x1="670.9" y1="348.0" x2="677.9" y2="341.0" stroke="#111" stroke-width="2" stroke-linecap="round"/><line x1="676.4" y1="347.5" x2="683.4" y2="356.0" stroke="#111" stroke-width="2" stroke-linecap="round"/><line x1="668.4" y1="356.0" x2="680.4" y2="356.0" stroke="#111" stroke-width="2" stroke-linecap="round"/><line x1="674.4" y1="356.0" x2="674.4" y2="365.0" stroke="#111" stroke-width="2" stroke-linecap="round"/><line x1="674.4" y1="318.0" x2="674.4" y2="339.0" stroke="#111" stroke-width="2" stroke-linecap="round"/><line x1="674.4" y1="365.0" x2="674.4" y2="386.0" stroke="#111" stroke-width="2" stroke-linecap="round"/><circle cx="674.4" cy="318.0" r="3.2" fill="#111"/><line x1="674.4" y1="471.5" x2="674.4" y2="473.5" stroke="#111" stroke-width="2" stroke-linecap="round"/><line x1="670.9" y1="473.5" x2="677.9" y2="480.5" stroke="#111" stroke-width="2" stroke-linecap="round"/><line x1="670.9" y1="480.5" x2="677.9" y2="473.5" stroke="#111" stroke-width="2" stroke-linecap="round"/><line x1="676.4" y1="480.0" x2="683.4" y2="488.5" stroke="#111" stroke-width="2" stroke-linecap="round"/><line x1="668.4" y1="488.5" x2="680.4" y2="488.5" stroke="#111" stroke-width="2" stroke-linecap="round"/><line x1="674.4" y1="488.5" x2="674.4" y2="497.5" stroke="#111" stroke-width="2" stroke-linecap="round"/><line x1="674.4" y1="451.0" x2="674.4" y2="471.5" stroke="#111" stroke-width="2" stroke-linecap="round"/><line x1="674.4" y1="497.5" x2="674.4" y2="518.0" stroke="#111" stroke-width="2" stroke-linecap="round"/><circle cx="674.4" cy="518.0" r="3.2" fill="#111"/></g><g data-id="SU1" data-kind="transformer"><circle cx="294.2" cy="852.0" r="19" fill="none" stroke="#111" stroke-width="2.2"/><circle cx="294.2" cy="879.0" r="19" fill="none" stroke="#111" stroke-width="2.2"/><text x="323.2" y="846.0" font-family="Arial, Helvetica, sans-serif" font-size="12" fill="#111" text-anchor="start">SU1</text><text x="323.2" y="861.0" font-family="Arial, Helvetica, sans-serif" font-size="12" fill="#111" text-anchor="start">PV step-up 1</text><text x="323.2" y="876.0" font-family="Arial, Helvetica, sans-serif" font-size="12" fill="#111" text-anchor="start">3 MVA 0.4/11 kV</text><line x1="294.2" y1="898.0" x2="294.2" y2="930.0" stroke="#111" stroke-width="2" stroke-linecap="round"/><line x1="294.2" y1="930.0" x2="2065.2" y2="930.0" stroke="#111" stroke-width="2" stroke-linecap="round"/><line x1="2065.2" y1="950.0" x2="2065.2" y2="952.0" stroke="#111" stroke-width="2" stroke-linecap="round"/><line x1="2061.7" y1="952.0" x2="2068.7" y2="959.0" stroke="#111" stroke-width="2" stroke-linecap="round"/><line x1="2061.7" y1="959.0" x2="2068.7" y2="952.0" stroke="#111" stroke-width="2" stroke-linecap="round"/><line x1="2067.2" y1="958.5" x2="2074.2" y2="967.0" stroke="#111" stroke-width="2" stroke-linecap="round"/><line x1="2059.2" y1="967.0" x2="2071.2" y2="967.0" stroke="#111" stroke-width="2" stroke-linecap="round"/><line x1="2065.2" y1="967.0" x2="2065.2" y2="976.0" stroke="#111" stroke-width="2" stroke-linecap="round"/><line x1="2065.2" y1="930.0" x2="2065.2" y2="950.0" stroke="#111" stroke-width="2" stroke-linecap="round"/><line x1="2065.2" y1="976.0" x2="2065.2" y2="996.0" stroke="#111" stroke-width="2" stroke-linecap="round"/><circle cx="2065.2" cy="996.0" r="3.2" fill="#111"/><line x1="294.2" y1="762.5" x2="294.2" y2="764.5" stroke="#111" stroke-width="2" stroke-linecap="round"/><line x1="290.7" y1="764.5" x2="297.7" y2="771.5" stroke="#111" stroke-width="2" stroke-linecap="round"/><line x1="290.7" y1="771.5" x2="297.7" y2="764.5" stroke="#111" stroke-width="2" stroke-linecap="round"/><line x1="296.2" y1="771.0" x2="303.2" y2="779.5" stroke="#111" stroke-width="2" stroke-linecap="round"/><line x1="288.2" y1="779.5" x2="300.2" y2="779.5" stroke="#111" stroke-width="2" stroke-linecap="round"/><line x1="294.2" y1="779.5" x2="294.2" y2="788.5" stroke="#111" stroke-width="2" stroke-linecap="round"/><line x1="294.2" y1="718.0" x2="294.2" y2="762.5" stroke="#111" stroke-width="2" stroke-linecap="round"/><line x1="294.2" y1="788.5" x2="294.2" y2="833.0" stroke="#111" stroke-width="2" stroke-linecap="round"/><circle cx="294.2" cy="718.0" r="3.2" fill="#111"/></g><g data-id="SU2" data-kind="transformer"><circle cx="454.2" cy="852.0" r="19" fill="none" stroke="#111" stroke-width="2.2"/><circle cx="454.2" cy="879.0" r="19" fill="none" stroke="#111" stroke-width="2.2"/><text x="483.2" y="846.0" font-family="Arial, Helvetica, sans-serif" font-size="12" fill="#111" text-anchor="start">SU2</text><text x="483.2" y="861.0" font-family="Arial, Helvetica, sans-serif" font-size="12" fill="#111" text-anchor="start">PV step-up 2</text><text x="483.2" y="876.0" font-family="Arial, Helvetica, sans-serif" font-size="12" fill="#111" text-anchor="start">3 MVA 0.4/11 kV</text><line x1="454.2" y1="898.0" x2="454.2" y2="921.0" stroke="#111" stroke-width="2" stroke-linecap="round"/><line x1="454.2" y1="921.0" x2="2627.0" y2="921.0" stroke="#111" stroke-width="2" stroke-linecap="round"/><line x1="2627.0" y1="945.5" x2="2627.0" y2="947.5" stroke="#111" stroke-width="2" stroke-linecap="round"/><line x1="2623.5" y1="947.5" x2="2630.5" y2="954.5" stroke="#111" stroke-width="2" stroke-linecap="round"/><line x1="2623.5" y1="954.5" x2="2630.5" y2="947.5" stroke="#111" stroke-width="2" stroke-linecap="round"/><line x1="2629.0" y1="954.0" x2="2636.0" y2="962.5" stroke="#111" stroke-width="2" stroke-linecap="round"/><line x1="2621.0" y1="962.5" x2="2633.0" y2="962.5" stroke="#111" stroke-width="2" stroke-linecap="round"/><line x1="2627.0" y1="962.5" x2="2627.0" y2="971.5" stroke="#111" stroke-width="2" stroke-linecap="round"/><line x1="2627.0" y1="921.0" x2="2627.0" y2="945.5" stroke="#111" stroke-width="2" stroke-linecap="round"/><line x1="2627.0" y1="971.5" x2="2627.0" y2="996.0" stroke="#111" stroke-width="2" stroke-linecap="round"/><circle cx="2627.0" cy="996.0" r="3.2" fill="#111"/><line x1="454.2" y1="762.5" x2="454.2" y2="764.5" stroke="#111" stroke-width="2" stroke-linecap="round"/><line x1="450.7" y1="764.5" x2="457.7" y2="771.5" stroke="#111" stroke-width="2" stroke-linecap="round"/><line x1="450.7" y1="771.5" x2="457.7" y2="764.5" stroke="#111" stroke-width="2" stroke-linecap="round"/><line x1="456.2" y1="771.0" x2="463.2" y2="779.5" stroke="#111" stroke-width="2" stroke-linecap="round"/><line x1="448.2" y1="779.5" x2="460.2" y2="779.5" stroke="#111" stroke-width="2" stroke-linecap="round"/><line x1="454.2" y1="779.5" x2="454.2" y2="788.5" stroke="#111" stroke-width="2" stroke-linecap="round"/><line x1="454.2" y1="718.0" x2="454.2" y2="762.5" stroke="#111" stroke-width="2" stroke-linecap="round"/><line x1="454.2" y1="788.5" x2="454.2" y2="833.0" stroke="#111" stroke-width="2" stroke-linecap="round"/><circle cx="454.2" cy="718.0" r="3.2" fill="#111"/></g><g data-id="SU3" data-kind="transformer"><circle cx="614.2" cy="852.0" r="19" fill="none" stroke="#111" stroke-width="2.2"/><circle cx="614.2" cy="879.0" r="19" fill="none" stroke="#111" stroke-width="2.2"/><text x="643.2" y="846.0" font-family="Arial, Helvetica, sans-serif" font-size="12" fill="#111" text-anchor="start">SU3</text><text x="643.2" y="861.0" font-family="Arial, Helvetica, sans-serif" font-size="12" fill="#111" text-anchor="start">BESS step-up</text><text x="643.2" y="876.0" font-family="Arial, Helvetica, sans-serif" font-size="12" fill="#111" text-anchor="start">2.5 MVA 0.4/11 kV</text><line x1="614.2" y1="898.0" x2="614.2" y2="912.0" stroke="#111" stroke-width="2" stroke-linecap="round"/><line x1="614.2" y1="912.0" x2="3188.8" y2="912.0" stroke="#111" stroke-width="2" stroke-linecap="round"/><line x1="3188.8" y1="941.0" x2="3188.8" y2="943.0" stroke="#111" stroke-width="2" stroke-linecap="round"/><line x1="3185.3" y1="943.0" x2="3192.3" y2="950.0" stroke="#111" stroke-width="2" stroke-linecap="round"/><line x1="3185.3" y1="950.0" x2="3192.3" y2="943.0" stroke="#111" stroke-width="2" stroke-linecap="round"/><line x1="3190.8" y1="949.5" x2="3197.8" y2="958.0" stroke="#111" stroke-width="2" stroke-linecap="round"/><line x1="3182.8" y1="958.0" x2="3194.8" y2="958.0" stroke="#111" stroke-width="2" stroke-linecap="round"/><line x1="3188.8" y1="958.0" x2="3188.8" y2="967.0" stroke="#111" stroke-width="2" stroke-linecap="round"/><line x1="3188.8" y1="912.0" x2="3188.8" y2="941.0" stroke="#111" stroke-width="2" stroke-linecap="round"/><line x1="3188.8" y1="967.0" x2="3188.8" y2="996.0" stroke="#111" stroke-width="2" stroke-linecap="round"/><circle cx="3188.8" cy="996.0" r="3.2" fill="#111"/><line x1="614.2" y1="762.5" x2="614.2" y2="764.5" stroke="#111" stroke-width="2" stroke-linecap="round"/><line x1="610.7" y1="764.5" x2="617.7" y2="771.5" stroke="#111" stroke-width="2" stroke-linecap="round"/><line x1="610.7" y1="771.5" x2="617.7" y2="764.5" stroke="#111" stroke-width="2" stroke-linecap="round"/><line x1="616.2" y1="771.0" x2="623.2" y2="779.5" stroke="#111" stroke-width="2" stroke-linecap="round"/><line x1="608.2" y1="779.5" x2="620.2" y2="779.5" stroke="#111" stroke-width="2" stroke-linecap="round"/><line x1="614.2" y1="779.5" x2="614.2" y2="788.5" stroke="#111" stroke-width="2" stroke-linecap="round"/><line x1="614.2" y1="718.0" x2="614.2" y2="762.5" stroke="#111" stroke-width="2" stroke-linecap="round"/><line x1="614.2" y1="788.5" x2="614.2" y2="833.0" stroke="#111" stroke-width="2" stroke-linecap="round"/><circle cx="614.2" cy="718.0" r="3.2" fill="#111"/></g><g data-id="AT" data-kind="transformer"><circle cx="1053.6" cy="852.0" r="19" fill="none" stroke="#111" stroke-width="2.2"/><circle cx="1053.6" cy="879.0" r="19" fill="none" stroke="#111" stroke-width="2.2"/><text x="1082.6" y="846.0" font-family="Arial, Helvetica, sans-serif" font-size="12" fill="#111" text-anchor="start">AT</text><text x="1082.6" y="861.0" font-family="Arial, Helvetica, sans-serif" font-size="12" fill="#111" text-anchor="start">Aux tx</text><text x="1082.6" y="876.0" font-family="Arial, Helvetica, sans-serif" font-size="12" fill="#111" text-anchor="start">500 kVA 11/0.4 kV</text><line x1="1053.6" y1="662.5" x2="1053.6" y2="664.5" stroke="#111" stroke-width="2" stroke-linecap="round"/><line x1="1050.1" y1="664.5" x2="1057.1" y2="671.5" stroke="#111" stroke-width="2" stroke-linecap="round"/><line x1="1050.1" y1="671.5" x2="1057.1" y2="664.5" stroke="#111" stroke-width="2" stroke-linecap="round"/><line x1="1055.6" y1="671.0" x2="1062.6" y2="679.5" stroke="#111" stroke-width="2" stroke-linecap="round"/><line x1="1047.6" y1="679.5" x2="1059.6" y2="679.5" stroke="#111" stroke-width="2" stroke-linecap="round"/><line x1="1053.6" y1="679.5" x2="1053.6" y2="688.5" stroke="#111" stroke-width="2" stroke-linecap="round"/><line x1="1053.6" y1="518.0" x2="1053.6" y2="662.5" stroke="#111" stroke-width="2" stroke-linecap="round"/><line x1="1053.6" y1="688.5" x2="1053.6" y2="833.0" stroke="#111" stroke-width="2" stroke-linecap="round"/><circle cx="1053.6" cy="518.0" r="3.2" fill="#111"/><line x1="1053.6" y1="934.0" x2="1053.6" y2="936.0" stroke="#111" stroke-width="2" stroke-linecap="round"/><line x1="1050.1" y1="936.0" x2="1057.1" y2="943.0" stroke="#111" stroke-width="2" stroke-linecap="round"/><line x1="1050.1" y1="943.0" x2="1057.1" y2="936.0" stroke="#111" stroke-width="2" stroke-linecap="round"/><line x1="1055.6" y1="942.5" x2="1062.6" y2="951.0" stroke="#111" stroke-width="2" stroke-linecap="round"/><line x1="1047.6" y1="951.0" x2="1059.6" y2="951.0" stroke="#111" stroke-width="2" stroke-linecap="round"/><line x1="1053.6" y1="951.0" x2="1053.6" y2="960.0" stroke="#111" stroke-width="2" stroke-linecap="round"/><line x1="1053.6" y1="898.0" x2="1053.6" y2="934.0" stroke="#111" stroke-width="2" stroke-linecap="round"/><line x1="1053.6" y1="960.0" x2="1053.6" y2="996.0" stroke="#111" stroke-width="2" stroke-linecap="round"/><circle cx="1053.6" cy="996.0" r="3.2" fill="#111"/></g><g data-id="SCADA" data-kind="transformer"><circle cx="1649.5" cy="852.0" r="19" fill="none" stroke="#111" stroke-width="2.2"/><circle cx="1649.5" cy="879.0" r="19" fill="none" stroke="#111" stroke-width="2.2"/><text x="1678.5" y="846.0" font-family="Arial, Helvetica, sans-serif" font-size="12" fill="#111" text-anchor="start">SCADA</text><text x="1678.5" y="861.0" font-family="Arial, Helvetica, sans-serif" font-size="12" fill="#111" text-anchor="start">UPS</text><text x="1678.5" y="876.0" font-family="Arial, Helvetica, sans-serif" font-size="12" fill="#111" text-anchor="start">30 kVA 400/400 V</text><line x1="1233.8" y1="890.5" x2="1233.8" y2="892.5" stroke="#111" stroke-width="2" stroke-linecap="round"/><line x1="1230.3" y1="892.5" x2="1237.3" y2="899.5" stroke="#111" stroke-width="2" stroke-linecap="round"/><line x1="1230.3" y1="899.5" x2="1237.3" y2="892.5" stroke="#111" stroke-width="2" stroke-linecap="round"/><line x1="1235.8" y1="899.0" x2="1242.8" y2="907.5" stroke="#111" stroke-width="2" stroke-linecap="round"/><line x1="1227.8" y1="907.5" x2="1239.8" y2="907.5" stroke="#111" stroke-width="2" stroke-linecap="round"/><line x1="1233.8" y1="907.5" x2="1233.8" y2="916.5" stroke="#111" stroke-width="2" stroke-linecap="round"/><line x1="1233.8" y1="811.0" x2="1233.8" y2="890.5" stroke="#111" stroke-width="2" stroke-linecap="round"/><line x1="1233.8" y1="916.5" x2="1233.8" y2="996.0" stroke="#111" stroke-width="2" stroke-linecap="round"/><line x1="1233.8" y1="811.0" x2="1649.5" y2="811.0" stroke="#111" stroke-width="2" stroke-linecap="round"/><line x1="1649.5" y1="811.0" x2="1649.5" y2="833.0" stroke="#111" stroke-width="2" stroke-linecap="round"/><circle cx="1233.8" cy="996.0" r="3.2" fill="#111"/><line x1="1649.5" y1="934.0" x2="1649.5" y2="936.0" stroke="#111" stroke-width="2" stroke-linecap="round"/><line x1="1646.0" y1="936.0" x2="1653.0" y2="943.0" stroke="#111" stroke-width="2" stroke-linecap="round"/><line x1="1646.0" y1="943.0" x2="1653.0" y2="936.0" stroke="#111" stroke-width="2" stroke-linecap="round"/><line x1="1651.5" y1="942.5" x2="1658.5" y2="951.0" stroke="#111" stroke-width="2" stroke-linecap="round"/><line x1="1643.5" y1="951.0" x2="1655.5" y2="951.0" stroke="#111" stroke-width="2" stroke-linecap="round"/><line x1="1649.5" y1="951.0" x2="1649.5" y2="960.0" stroke="#111" stroke-width="2" stroke-linecap="round"/><line x1="1649.5" y1="898.0" x2="1649.5" y2="934.0" stroke="#111" stroke-width="2" stroke-linecap="round"/><line x1="1649.5" y1="960.0" x2="1649.5" y2="996.0" stroke="#111" stroke-width="2" stroke-linecap="round"/><circle cx="1649.5" cy="996.0" r="3.2" fill="#111"/></g><g data-id="PVB1" data-kind="lv busbar"><line x1="2040.2" y1="996.0" x2="2492.0" y2="996.0" stroke="#111" stroke-width="5.5" stroke-linecap="round"/></g><g data-id="PVB2" data-kind="lv busbar"><line x1="2602.0" y1="996.0" x2="3053.8" y2="996.0" stroke="#111" stroke-width="5.5" stroke-linecap="round"/></g><g data-id="BB" data-kind="lv busbar"><line x1="3163.8" y1="996.0" x2="3588.0" y2="996.0" stroke="#111" stroke-width="5.5" stroke-linecap="round"/></g><g data-id="AUX" data-kind="lv busbar"><line x1="848.4" y1="996.0" x2="1258.8" y2="996.0" stroke="#111" stroke-width="5.5" stroke-linecap="round"/></g><g data-id="SDB" data-kind="lv busbar"><line x1="1478.8" y1="996.0" x2="1820.2" y2="996.0" stroke="#111" stroke-width="5.5" stroke-linecap="round"/></g><g data-id="FA1" data-kind="feeder"><circle cx="1006.1" cy="996.0" r="3.2" fill="#111"/><line x1="1006.1" y1="1013.0" x2="1006.1" y2="1015.0" stroke="#111" stroke-width="2" stroke-linecap="round"/><line x1="1002.6" y1="1015.0" x2="1009.6" y2="1022.0" stroke="#111" stroke-width="2" stroke-linecap="round"/><line x1="1002.6" y1="1022.0" x2="1009.6" y2="1015.0" stroke="#111" stroke-width="2" stroke-linecap="round"/><line x1="1008.1" y1="1021.5" x2="1015.1" y2="1030.0" stroke="#111" stroke-width="2" stroke-linecap="round"/><line x1="1000.1" y1="1030.0" x2="1012.1" y2="1030.0" stroke="#111" stroke-width="2" stroke-linecap="round"/><line x1="1006.1" y1="1030.0" x2="1006.1" y2="1039.0" stroke="#111" stroke-width="2" stroke-linecap="round"/><line x1="1006.1" y1="996.0" x2="1006.1" y2="1013.0" stroke="#111" stroke-width="2" stroke-linecap="round"/><line x1="1006.1" y1="1039.0" x2="1006.1" y2="1074.0" stroke="#111" stroke-width="2" stroke-linecap="round"/><polygon points="1000.1,1073.0 1012.1,1073.0 1006.1,1084.0" fill="#111"/><text x="0" y="0" transform="translate(1010.1,1102.0) rotate(90)" font-family="Arial, Helvetica, sans-serif" font-size="11" fill="#111" text-anchor="start">FA1 · Site services · 250 A</text></g><g data-id="FA2" data-kind="feeder"><circle cx="1101.1" cy="996.0" r="3.2" fill="#111"/><line x1="1101.1" y1="1013.0" x2="1101.1" y2="1015.0" stroke="#111" stroke-width="2" stroke-linecap="round"/><line x1="1097.6" y1="1015.0" x2="1104.6" y2="1022.0" stroke="#111" stroke-width="2" stroke-linecap="round"/><line x1="1097.6" y1="1022.0" x2="1104.6" y2="1015.0" stroke="#111" stroke-width="2" stroke-linecap="round"/><line x1="1103.1" y1="1021.5" x2="1110.1" y2="1030.0" stroke="#111" stroke-width="2" stroke-linecap="round"/><line x1="1095.1" y1="1030.0" x2="1107.1" y2="1030.0" stroke="#111" stroke-width="2" stroke-linecap="round"/><line x1="1101.1" y1="1030.0" x2="1101.1" y2="1039.0" stroke="#111" stroke-width="2" stroke-linecap="round"/><line x1="1101.1" y1="996.0" x2="1101.1" y2="1013.0" stroke="#111" stroke-width="2" stroke-linecap="round"/><line x1="1101.1" y1="1039.0" x2="1101.1" y2="1074.0" stroke="#111" stroke-width="2" stroke-linecap="round"/><polygon points="1095.1,1073.0 1107.1,1073.0 1101.1,1084.0" fill="#111"/><text x="0" y="0" transform="translate(1105.1,1102.0) rotate(90)" font-family="Arial, Helvetica, sans-serif" font-size="11" fill="#111" text-anchor="start">FA2 · Control building · 160 A</text></g><text x="90.0" y="306.0" font-family="Arial, Helvetica, sans-serif" font-size="11.5" fill="#111" text-anchor="start" font-weight="bold">HV 33 kV POC board 630 A 33 kV</text><text x="90.0" y="506.0" font-family="Arial, Helvetica, sans-serif" font-size="11.5" fill="#111" text-anchor="start" font-weight="bold">MV 11 kV main board 2000 A 11 kV</text><text x="90.0" y="706.0" font-family="Arial, Helvetica, sans-serif" font-size="11.5" fill="#111" text-anchor="start" font-weight="bold">GB 11 kV generation board 1250 A 11 kV</text><text x="2274.1" y="984.0" font-family="Arial, Helvetica, sans-serif" font-size="11.5" fill="#111" text-anchor="start" font-weight="bold">PVB1 PV AC board 1 4000 A 400 V</text><text x="2835.9" y="984.0" font-family="Arial, Helvetica, sans-serif" font-size="11.5" fill="#111" text-anchor="start" font-weight="bold">PVB2 PV AC board 2 4000 A 400 V</text><text x="3383.9" y="984.0" font-family="Arial, Helvetica, sans-serif" font-size="11.5" fill="#111" text-anchor="start" font-weight="bold">BB BESS AC board 3200 A 400 V</text><text x="848.4" y="984.0" font-family="Arial, Helvetica, sans-serif" font-size="11.5" fill="#111" text-anchor="start" font-weight="bold">AUX Aux LV board 800 A 400 V</text><text x="1478.8" y="984.0" font-family="Arial, Helvetica, sans-serif" font-size="11.5" fill="#111" text-anchor="start" font-weight="bold">SDB SCADA DB 63 A 400 V</text><rect x="3596.0" y="1250.0" width="288.0" height="96.0" fill="none" stroke="#111" stroke-width="1.5"/><line x1="3596.0" y1="1274.0" x2="3884.0" y2="1274.0" stroke="#111" stroke-width="1.5" stroke-linecap="round"/><text x="3606.0" y="1267.0" font-family="Arial, Helvetica, sans-serif" font-size="12" fill="#111" text-anchor="start" font-weight="bold">SLD SKETCH — SITE SURVEY</text><text x="3606.0" y="1290.0" font-family="Arial, Helvetica, sans-serif" font-size="11" fill="#111" text-anchor="start" font-weight="bold">Site:</text><text x="3654.0" y="1290.0" font-family="Arial, Helvetica, sans-serif" font-size="11" fill="#111" text-anchor="start">C5 Hybrid PV / BESS / gensets</text><text x="3606.0" y="1306.0" font-family="Arial, Helvetica, sans-serif" font-size="11" fill="#111" text-anchor="start" font-weight="bold">Date:</text><text x="3606.0" y="1322.0" font-family="Arial, Helvetica, sans-serif" font-size="11" fill="#111" text-anchor="start" font-weight="bold">By:</text><text x="3606.0" y="1338.0" font-family="Arial, Helvetica, sans-serif" font-size="11" fill="#111" text-anchor="start" font-weight="bold">Notes:</text><text x="3654.0" y="1338.0" font-family="Arial, Helvetica, sans-serif" font-size="11" fill="#111" text-anchor="start">multi-source, several step-ups</text><rect x="24.0" y="1372.0" width="900.0" height="82.0" fill="none" stroke="#111" stroke-width="1.2"/><text x="32.0" y="1386.0" font-family="Arial, Helvetica, sans-serif" font-size="10" fill="#111" text-anchor="start" font-weight="bold">LEGEND</text><line x1="66.0" y1="1396.0" x2="66.0" y2="1398.0" stroke="#111" stroke-width="2" stroke-linecap="round"/><line x1="62.5" y1="1398.0" x2="69.5" y2="1405.0" stroke="#111" stroke-width="2" stroke-linecap="round"/><line x1="62.5" y1="1405.0" x2="69.5" y2="1398.0" stroke="#111" stroke-width="2" stroke-linecap="round"/><line x1="68.0" y1="1404.5" x2="75.0" y2="1413.0" stroke="#111" stroke-width="2" stroke-linecap="round"/><line x1="60.0" y1="1413.0" x2="72.0" y2="1413.0" stroke="#111" stroke-width="2" stroke-linecap="round"/><line x1="66.0" y1="1413.0" x2="66.0" y2="1422.0" stroke="#111" stroke-width="2" stroke-linecap="round"/><line x1="66.0" y1="1394.0" x2="66.0" y2="1396.0" stroke="#111" stroke-width="2" stroke-linecap="round"/><line x1="66.0" y1="1422.0" x2="66.0" y2="1424.0" stroke="#111" stroke-width="2" stroke-linecap="round"/><text x="66.0" y="1436.0" font-family="Arial, Helvetica, sans-serif" font-size="9" fill="#111" text-anchor="middle">Circuit</text><text x="66.0" y="1446.0" font-family="Arial, Helvetica, sans-serif" font-size="9" fill="#111" text-anchor="middle">breaker</text><line x1="134.0" y1="1394.0" x2="134.0" y2="1397.0" stroke="#111" stroke-width="2" stroke-linecap="round"/><circle cx="134.0" cy="1399.5" r="2.5" fill="none" stroke="#111" stroke-width="1.5"/><line x1="136.0" y1="1402.0" x2="143.0" y2="1415.0" stroke="#111" stroke-width="2" stroke-linecap="round"/><line x1="128.0" y1="1415.0" x2="140.0" y2="1415.0" stroke="#111" stroke-width="2" stroke-linecap="round"/><line x1="134.0" y1="1415.0" x2="134.0" y2="1424.0" stroke="#111" stroke-width="2" stroke-linecap="round"/><text x="134.0" y="1436.0" font-family="Arial, Helvetica, sans-serif" font-size="9" fill="#111" text-anchor="middle">Load-break</text><text x="134.0" y="1446.0" font-family="Arial, Helvetica, sans-serif" font-size="9" fill="#111" text-anchor="middle">switch</text><rect x="198.0" y="1398.0" width="8.0" height="22.0" fill="none" stroke="#111" stroke-width="2"/><line x1="202.0" y1="1398.0" x2="202.0" y2="1420.0" stroke="#111" stroke-width="2" stroke-linecap="round"/><line x1="202.0" y1="1394.0" x2="202.0" y2="1398.0" stroke="#111" stroke-width="2" stroke-linecap="round"/><line x1="202.0" y1="1420.0" x2="202.0" y2="1424.0" stroke="#111" stroke-width="2" stroke-linecap="round"/><text x="202.0" y="1436.0" font-family="Arial, Helvetica, sans-serif" font-size="9" fill="#111" text-anchor="middle">Fuse</text><line x1="270.0" y1="1394.0" x2="270.0" y2="1397.0" stroke="#111" stroke-width="2" stroke-linecap="round"/><circle cx="270.0" cy="1399.5" r="2.5" fill="none" stroke="#111" stroke-width="1.5"/><line x1="272.0" y1="1402.0" x2="279.0" y2="1404.0" stroke="#111" stroke-width="2" stroke-linecap="round"/><line x1="264.0" y1="1404.0" x2="276.0" y2="1404.0" stroke="#111" stroke-width="2" stroke-linecap="round"/><line x1="270.0" y1="1404.0" x2="270.0" y2="1413.0" stroke="#111" stroke-width="2" stroke-linecap="round"/><rect x="266.0" y="1415.0" width="8.0" height="7.0" fill="none" stroke="#111" stroke-width="2"/><line x1="270.0" y1="1413.0" x2="270.0" y2="1415.0" stroke="#111" stroke-width="2" stroke-linecap="round"/><line x1="270.0" y1="1422.0" x2="270.0" y2="1424.0" stroke="#111" stroke-width="2" stroke-linecap="round"/><text x="270.0" y="1436.0" font-family="Arial, Helvetica, sans-serif" font-size="9" fill="#111" text-anchor="middle">Fuse-switch</text><line x1="338.0" y1="1396.0" x2="338.0" y2="1398.0" stroke="#111" stroke-width="2" stroke-linecap="round"/><path d="M 334.0,1402.0 A 4,4 0 0 1 342.0,1402.0" fill="none" stroke="#111" stroke-width="2" stroke-linecap="round"/><line x1="340.0" y1="1404.0" x2="346.0" y2="1416.0" stroke="#111" stroke-width="2" stroke-linecap="round"/><line x1="338.0" y1="1418.0" x2="338.0" y2="1422.0" stroke="#111" stroke-width="2" stroke-linecap="round"/><line x1="338.0" y1="1394.0" x2="338.0" y2="1396.0" stroke="#111" stroke-width="2" stroke-linecap="round"/><line x1="338.0" y1="1422.0" x2="338.0" y2="1424.0" stroke="#111" stroke-width="2" stroke-linecap="round"/><text x="338.0" y="1436.0" font-family="Arial, Helvetica, sans-serif" font-size="9" fill="#111" text-anchor="middle">Contactor</text><rect x="402.0" y="1393.0" width="8.0" height="12.0" fill="none" stroke="#111" stroke-width="2"/><line x1="406.0" y1="1393.0" x2="406.0" y2="1405.0" stroke="#111" stroke-width="2" stroke-linecap="round"/><path d="M 402.0,1409.0 A 4,4 0 0 1 410.0,1409.0" fill="none" stroke="#111" stroke-width="2" stroke-linecap="round"/><line x1="408.0" y1="1411.0" x2="413.0" y2="1420.0" stroke="#111" stroke-width="2" stroke-linecap="round"/><line x1="406.0" y1="1421.0" x2="406.0" y2="1425.0" stroke="#111" stroke-width="2" stroke-linecap="round"/><line x1="406.0" y1="1394.0" x2="406.0" y2="1393.0" stroke="#111" stroke-width="2" stroke-linecap="round"/><line x1="406.0" y1="1425.0" x2="406.0" y2="1424.0" stroke="#111" stroke-width="2" stroke-linecap="round"/><text x="406.0" y="1436.0" font-family="Arial, Helvetica, sans-serif" font-size="9" fill="#111" text-anchor="middle">Fused</text><text x="406.0" y="1446.0" font-family="Arial, Helvetica, sans-serif" font-size="9" fill="#111" text-anchor="middle">contactor</text><circle cx="474.0" cy="1404.0" r="8" fill="none" stroke="#111" stroke-width="2"/><circle cx="474.0" cy="1414.0" r="8" fill="none" stroke="#111" stroke-width="2"/><text x="474.0" y="1436.0" font-family="Arial, Helvetica, sans-serif" font-size="9" fill="#111" text-anchor="middle">Transformer</text><circle cx="542.0" cy="1409.0" r="9" fill="none" stroke="#111" stroke-width="2"/><text x="542.0" y="1412.5" font-family="Arial, Helvetica, sans-serif" font-size="9" fill="#111" text-anchor="middle" font-weight="bold">G</text><text x="542.0" y="1436.0" font-family="Arial, Helvetica, sans-serif" font-size="9" fill="#111" text-anchor="middle">Generator</text><circle cx="610.0" cy="1409.0" r="9" fill="none" stroke="#111" stroke-width="2"/><text x="610.0" y="1412.5" font-family="Arial, Helvetica, sans-serif" font-size="9" fill="#111" text-anchor="middle" font-weight="bold">M</text><text x="610.0" y="1436.0" font-family="Arial, Helvetica, sans-serif" font-size="9" fill="#111" text-anchor="middle">Pump/motor</text><line x1="664.0" y1="1409.0" x2="692.0" y2="1409.0" stroke="#111" stroke-width="5" stroke-linecap="round"/><text x="678.0" y="1436.0" font-family="Arial, Helvetica, sans-serif" font-size="9" fill="#111" text-anchor="middle">Busbar</text><rect x="735.0" y="1401.0" width="22.0" height="16.0" fill="none" stroke="#111" stroke-width="1.5"/><text x="746.0" y="1412.0" font-family="Arial, Helvetica, sans-serif" font-size="6.5" fill="#111" text-anchor="middle">MCC</text><text x="746.0" y="1436.0" font-family="Arial, Helvetica, sans-serif" font-size="9" fill="#111" text-anchor="middle">MCC</text><line x1="814.0" y1="1396.0" x2="814.0" y2="1413.0" stroke="#111" stroke-width="2" stroke-linecap="round"/><polygon points="808.0,1413.0 820.0,1413.0 814.0,1424.0" fill="#111"/><text x="814.0" y="1436.0" font-family="Arial, Helvetica, sans-serif" font-size="9" fill="#111" text-anchor="middle">Feeder</text><rect x="869.0" y="1399.0" width="26.0" height="20.0" fill="none" stroke="#111" stroke-width="1.2" stroke-dasharray="4 3"/><text x="882.0" y="1436.0" font-family="Arial, Helvetica, sans-serif" font-size="9" fill="#111" text-anchor="middle">RMU/MCC</text><text x="882.0" y="1446.0" font-family="Arial, Helvetica, sans-serif" font-size="9" fill="#111" text-anchor="middle">enclosure</text></svg>