<svg xmlns="http://www.w3.org/2000/svg" width="1532" height="884" viewBox="0 0 1532 884"><rect width="100%" height="100%" fill="white"/><text x="24.0" y="758.0" font-family="Arial, Helvetica, sans-serif" font-size="16" fill="#111" text-anchor="start" font-weight="bold">L6 down-then-up loop — Single Line Diagram (sketch)</text><line x1="298.0" y1="62.0" x2="320.0" y2="62.0" stroke="#111" stroke-width="3" stroke-linecap="round"/><text x="309.0" y="18.0" font-family="Arial, Helvetica, sans-serif" font-size="11.5" fill="#111" text-anchor="middle" font-weight="bold">U</text><text x="309.0" y="32.0" font-family="Arial, Helvetica, sans-serif" font-size="11.5" fill="#111" text-anchor="middle">Utility</text><text x="309.0" y="46.0" font-family="Arial, Helvetica, sans-serif" font-size="11.5" fill="#111" text-anchor="middle">11 kV</text><line x1="309.0" y1="122.0" x2="309.0" y2="124.0" stroke="#111" stroke-width="2" stroke-linecap="round"/><line x1="305.5" y1="124.0" x2="312.5" y2="131.0" stroke="#111" stroke-width="2" stroke-linecap="round"/><line x1="305.5" y1="131.0" x2="312.5" y2="124.0" stroke="#111" stroke-width="2" stroke-linecap="round"/><line x1="311.0" y1="130.5" x2="318.0" y2="139.0" stroke="#111" stroke-width="2" stroke-linecap="round"/><line x1="303.0" y1="139.0" x2="315.0" y2="139.0" stroke="#111" stroke-width="2" stroke-linecap="round"/><line x1="309.0" y1="139.0" x2="309.0" y2="148.0" stroke="#111" stroke-width="2" stroke-linecap="round"/><line x1="309.0" y1="62.0" x2="309.0" y2="122.0" stroke="#111" stroke-width="2" stroke-linecap="round"/><line x1="309.0" y1="148.0" x2="309.0" y2="208.0" stroke="#111" stroke-width="2" stroke-linecap="round"/><circle cx="309.0" cy="208.0" r="3.2" fill="#111"/><line x1="90.0" y1="208.0" x2="528.0" y2="208.0" stroke="#111" stroke-width="5.5" stroke-linecap="round"/><line x1="638.0" y1="208.0" x2="1062.2" y2="208.0" stroke="#111" stroke-width="5.5" stroke-linecap="round"/><rect x="766.1" y="254.0" width="8.0" height="12.0" fill="none" stroke="#111" stroke-width="2"/><line x1="770.1" y1="254.0" x2="770.1" y2="266.0" stroke="#111" stroke-width="2" stroke-linecap="round"/><path d="M 766.1,270.0 A 4,4 0 0 1 774.1,270.0" fill="none" stroke="#111" stroke-width="2" stroke-linecap="round"/><line x1="772.1" y1="272.0" x2="777.1" y2="281.0" stroke="#111" stroke-width="2" stroke-linecap="round"/><line x1="770.1" y1="282.0" x2="770.1" y2="286.0" stroke="#111" stroke-width="2" stroke-linecap="round"/><line x1="770.1" y1="208.0" x2="770.1" y2="254.0" stroke="#111" stroke-width="2" stroke-linecap="round"/><line x1="770.1" y1="286.0" x2="770.1" y2="332.0" stroke="#111" stroke-width="2" stroke-linecap="round"/><circle cx="770.1" cy="208.0" r="3.2" fill="#111"/><circle cx="770.1" cy="352.0" r="20" fill="none" stroke="#111" stroke-width="2.2"/><text x="770.1" y="353.0" font-family="Arial, Helvetica, sans-serif" font-size="13" fill="#111" text-anchor="middle" font-weight="bold">M</text><text x="770.1" y="365.0" font-family="Arial, Helvetica, sans-serif" font-size="8.5" fill="#111" text-anchor="middle">3~</text><text x="0" y="0" transform="translate(774.1,386.0) rotate(90)" font-family="Arial, Helvetica, sans-serif" font-size="11" fill="#111" text-anchor="start">P1 · MV pump · 500 kW</text><circle cx="922.6" cy="342.0" r="19" fill="none" stroke="#111" stroke-width="2.2"/><circle cx="922.6" cy="369.0" r="19" fill="none" stroke="#111" stroke-width="2.2"/><text x="951.6" y="336.0" font-family="Arial, Helvetica, sans-serif" font-size="12" fill="#111" text-anchor="start">SU</text><text x="951.6" y="351.0" font-family="Arial, Helvetica, sans-serif" font-size="12" fill="#111" text-anchor="start">Step-up</text><text x="951.6" y="366.0" font-family="Arial, Helvetica, sans-serif" font-size="12" fill="#111" text-anchor="start">1600 kVA 0.4/11 kV</text><line x1="922.6" y1="388.0" x2="922.6" y2="402.0" stroke="#111" stroke-width="2" stroke-linecap="round"/><line x1="922.6" y1="402.0" x2="461.6" y2="402.0" stroke="#111" stroke-width="2" stroke-linecap="round"/><line x1="461.6" y1="431.0" x2="461.6" y2="433.0" stroke="#111" stroke-width="2" stroke-linecap="round"/><line x1="458.1" y1="433.0" x2="465.1" y2="440.0" stroke="#111" stroke-width="2" stroke-linecap="round"/><line x1="458.1" y1="440.0" x2="465.1" y2="433.0" stroke="#111" stroke-width="2" stroke-linecap="round"/><line x1="463.6" y1="439.5" x2="470.6" y2="448.0" stroke="#111" stroke-width="2" stroke-linecap="round"/><line x1="455.6" y1="448.0" x2="467.6" y2="448.0" stroke="#111" stroke-width="2" stroke-linecap="round"/><line x1="461.6" y1="448.0" x2="461.6" y2="457.0" stroke="#111" stroke-width="2" stroke-linecap="round"/><line x1="461.6" y1="402.0" x2="461.6" y2="431.0" stroke="#111" stroke-width="2" stroke-linecap="round"/><line x1="461.6" y1="457.0" x2="461.6" y2="486.0" stroke="#111" stroke-width="2" stroke-linecap="round"/><circle cx="461.6" cy="486.0" r="3.2" fill="#111"/><line x1="922.6" y1="252.5" x2="922.6" y2="254.5" stroke="#111" stroke-width="2" stroke-linecap="round"/><line x1="919.1" y1="254.5" x2="926.1" y2="261.5" stroke="#111" stroke-width="2" stroke-linecap="round"/><line x1="919.1" y1="261.5" x2="926.1" y2="254.5" stroke="#111" stroke-width="2" stroke-linecap="round"/><line x1="924.6" y1="261.0" x2="931.6" y2="269.5" stroke="#111" stroke-width="2" stroke-linecap="round"/><line x1="916.6" y1="269.5" x2="928.6" y2="269.5" stroke="#111" stroke-width="2" stroke-linecap="round"/><line x1="922.6" y1="269.5" x2="922.6" y2="278.5" stroke="#111" stroke-width="2" stroke-linecap="round"/><line x1="922.6" y1="208.0" x2="922.6" y2="252.5" stroke="#111" stroke-width="2" stroke-linecap="round"/><line x1="922.6" y1="278.5" x2="922.6" y2="323.0" stroke="#111" stroke-width="2" stroke-linecap="round"/><circle cx="922.6" cy="208.0" r="3.2" fill="#111"/><circle cx="309.0" cy="342.0" r="19" fill="none" stroke="#111" stroke-width="2.2"/><circle cx="309.0" cy="369.0" r="19" fill="none" stroke="#111" stroke-width="2.2"/><text x="338.0" y="336.0" font-family="Arial, Helvetica, sans-serif" font-size="12" fill="#111" text-anchor="start">T1</text><text x="338.0" y="351.0" font-family="Arial, Helvetica, sans-serif" font-size="12" fill="#111" text-anchor="start">Dist tx</text><text x="338.0" y="366.0" font-family="Arial, Helvetica, sans-serif" font-size="12" fill="#111" text-anchor="start">1600 kVA 11/0.4 kV</text><line x1="309.0" y1="252.5" x2="309.0" y2="254.5" stroke="#111" stroke-width="2" stroke-linecap="round"/><line x1="305.5" y1="254.5" x2="312.5" y2="261.5" stroke="#111" stroke-width="2" stroke-linecap="round"/><line x1="305.5" y1="261.5" x2="312.5" y2="254.5" stroke="#111" stroke-width="2" stroke-linecap="round"/><line x1="311.0" y1="261.0" x2="318.0" y2="269.5" stroke="#111" stroke-width="2" stroke-linecap="round"/><line x1="303.0" y1="269.5" x2="315.0" y2="269.5" stroke="#111" stroke-width="2" stroke-linecap="round"/><line x1="309.0" y1="269.5" x2="309.0" y2="278.5" stroke="#111" stroke-width="2" stroke-linecap="round"/><line x1="309.0" y1="208.0" x2="309.0" y2="252.5" stroke="#111" stroke-width="2" stroke-linecap="round"/><line x1="309.0" y1="278.5" x2="309.0" y2="323.0" stroke="#111" stroke-width="2" stroke-linecap="round"/><circle cx="309.0" cy="208.0" r="3.2" fill="#111"/><line x1="309.0" y1="424.0" x2="309.0" y2="426.0" stroke="#111" stroke-width="2" stroke-linecap="round"/><line x1="305.5" y1="426.0" x2="312.5" y2="433.0" stroke="#111" stroke-width="2" stroke-linecap="round"/><line x1="305.5" y1="433.0" x2="312.5" y2="426.0" stroke="#111" stroke-width="2" stroke-linecap="round"/><line x1="311.0" y1="432.5" x2="318.0" y2="441.0" stroke="#111" stroke-width="2" stroke-linecap="round"/><line x1="303.0" y1="441.0" x2="315.0" y2="441.0" stroke="#111" stroke-width="2" stroke-linecap="round"/><line x1="309.0" y1="441.0" x2="309.0" y2="450.0" stroke="#111" stroke-width="2" stroke-linecap="round"/><line x1="309.0" y1="388.0" x2="309.0" y2="424.0" stroke="#111" stroke-width="2" stroke-linecap="round"/><line x1="309.0" y1="450.0" x2="309.0" y2="486.0" stroke="#111" stroke-width="2" stroke-linecap="round"/><circle cx="309.0" cy="486.0" r="3.2" fill="#111"/><line x1="131.4" y1="486.0" x2="486.6" y2="486.0" stroke="#111" stroke-width="5.5" stroke-linecap="round"/><line x1="570.0" y1="208.0" x2="572.0" y2="208.0" stroke="#111" stroke-width="2" stroke-linecap="round"/><line x1="572.0" y1="204.5" x2="579.0" y2="211.5" stroke="#111" stroke-width="2" stroke-linecap="round"/><line x1="572.0" y1="211.5" x2="579.0" y2="204.5" stroke="#111" stroke-width="2" stroke-linecap="round"/><line x1="578.5" y1="206.0" x2="587.0" y2="199.0" stroke="#111" stroke-width="2" stroke-linecap="round"/><line x1="587.0" y1="202.0" x2="587.0" y2="214.0" stroke="#111" stroke-width="2" stroke-linecap="round"/><line x1="587.0" y1="208.0" x2="596.0" y2="208.0" stroke="#111" stroke-width="2" stroke-linecap="round"/><line x1="528.0" y1="208.0" x2="570.0" y2="208.0" stroke="#111" stroke-width="2" stroke-linecap="round"/><line x1="596.0" y1="208.0" x2="638.0" y2="208.0" stroke="#111" stroke-width="2" stroke-linecap="round"/><text x="583.0" y="232.0" font-family="Arial, Helvetica, sans-serif" font-size="11" fill="#111" text-anchor="middle">TIE</text><text x="583.0" y="246.0" font-family="Arial, Helvetica, sans-serif" font-size="10" fill="#111" text-anchor="middle">Normally open</text><circle cx="309.0" cy="486.0" r="3.2" fill="#111"/><line x1="309.0" y1="503.0" x2="309.0" y2="505.0" stroke="#111" stroke-width="2" stroke-linecap="round"/><line x1="305.5" y1="505.0" x2="312.5" y2="512.0" stroke="#111" stroke-width="2" stroke-linecap="round"/><line x1="305.5" y1="512.0" x2="312.5" y2="505.0" stroke="#111" stroke-width="2" stroke-linecap="round"/><line x1="311.0" y1="511.5" x2="318.0" y2="520.0" stroke="#111" stroke-width="2" stroke-linecap="round"/><line x1="303.0" y1="520.0" x2="315.0" y2="520.0" stroke="#111" stroke-width="2" stroke-linecap="round"/><line x1="309.0" y1="520.0" x2="309.0" y2="529.0" stroke="#111" stroke-width="2" stroke-linecap="round"/><line x1="309.0" y1="486.0" x2="309.0" y2="503.0" stroke="#111" stroke-width="2" stroke-linecap="round"/><line x1="309.0" y1="529.0" x2="309.0" y2="564.0" stroke="#111" stroke-width="2" stroke-linecap="round"/><polygon points="303.0,563.0 315.0,563.0 309.0,574.0" fill="#111"/><text x="0" y="0" transform="translate(313.0,592.0) rotate(90)" font-family="Arial, Helvetica, sans-serif" font-size="11" fill="#111" text-anchor="start">F1 · Feeder · 250 A</text><text x="90.0" y="196.0" font-family="Arial, Helvetica, sans-serif" font-size="11.5" fill="#111" text-anchor="start" font-weight="bold">MVA 11 kV board A 1250 A 11 kV</text><text x="638.0" y="196.0" font-family="Arial, Helvetica, sans-serif" font-size="11.5" fill="#111" text-anchor="start" font-weight="bold">MVB 11 kV board B 630 A 11 kV</text><text x="131.4" y="474.0" font-family="Arial, Helvetica, sans-serif" font-size="11.5" fill="#111" text-anchor="start" font-weight="bold">LV LV board 2500 A 400 V</text><rect x="1220.2" y="668.0" width="288.0" height="96.0" fill="none" stroke="#111" stroke-width="1.5"/><line x1="1220.2" y1="692.0" x2="1508.2" y2="692.0" stroke="#111" stroke-width="1.5" stroke-linecap="round"/><text x="1230.2" y="685.0" font-family="Arial, Helvetica, sans-serif" font-size="12" fill="#111" text-anchor="start" font-weight="bold">SLD SKETCH — SITE SURVEY</text><text x="1230.2" y="708.0" font-family="Arial, Helvetica, sans-serif" font-size="11" fill="#111" text-anchor="start" font-weight="bold">Site:</text><text x="1278.2" y="708.0" font-family="Arial, Helvetica, sans-serif" font-size="11" fill="#111" text-anchor="start">L6 down-then-up loop</text><text x="1230.2" y="724.0" font-family="Arial, Helvetica, sans-serif" font-size="11" fill="#111" text-anchor="start" font-weight="bold">Date:</text><text x="1230.2" y="740.0" font-family="Arial, Helvetica, sans-serif" font-size="11" fill="#111" text-anchor="start" font-weight="bold">By:</text><text x="1230.2" y="756.0" font-family="Arial, Helvetica, sans-serif" font-size="11" fill="#111" text-anchor="start" font-weight="bold">Notes:</text><text x="1278.2" y="756.0" font-family="Arial, Helvetica, sans-serif" font-size="11" fill="#111" text-anchor="start">multi-level test</text><rect x="24.0" y="790.0" width="900.0" height="82.0" fill="none" stroke="#111" stroke-width="1.2"/><text x="32.0" y="804.0" font-family="Arial, Helvetica, sans-serif" font-size="10" fill="#111" text-anchor="start" font-weight="bold">LEGEND</text><line x1="66.0" y1="814.0" x2="66.0" y2="816.0" stroke="#111" stroke-width="2" stroke-linecap="round"/><line x1="62.5" y1="816.0" x2="69.5" y2="823.0" stroke="#111" stroke-width="2" stroke-linecap="round"/><line x1="62.5" y1="823.0" x2="69.5" y2="816.0" stroke="#111" stroke-width="2" stroke-linecap="round"/><line x1="68.0" y1="822.5" x2="75.0" y2="831.0" stroke="#111" stroke-width="2" stroke-linecap="round"/><line x1="60.0" y1="831.0" x2="72.0" y2="831.0" stroke="#111" stroke-width="2" stroke-linecap="round"/><line x1="66.0" y1="831.0" x2="66.0" y2="840.0" stroke="#111" stroke-width="2" stroke-linecap="round"/><line x1="66.0" y1="812.0" x2="66.0" y2="814.0" stroke="#111" stroke-width="2" stroke-linecap="round"/><line x1="66.0" y1="840.0" x2="66.0" y2="842.0" stroke="#111" stroke-width="2" stroke-linecap="round"/><text x="66.0" y="854.0" font-family="Arial, Helvetica, sans-serif" font-size="9" fill="#111" text-anchor="middle">Circuit</text><text x="66.0" y="864.0" font-family="Arial, Helvetica, sans-serif" font-size="9" fill="#111" text-anchor="middle">breaker</text><line x1="134.0" y1="812.0" x2="134.0" y2="815.0" stroke="#111" stroke-width="2" stroke-linecap="round"/><circle cx="134.0" cy="817.5" r="2.5" fill="none" stroke="#111" stroke-width="1.5"/><line x1="136.0" y1="820.0" x2="143.0" y2="833.0" stroke="#111" stroke-width="2" stroke-linecap="round"/><line x1="128.0" y1="833.0" x2="140.0" y2="833.0" stroke="#111" stroke-width="2" stroke-linecap="round"/><line x1="134.0" y1="833.0" x2="134.0" y2="842.0" stroke="#111" stroke-width="2" stroke-linecap="round"/><text x="134.0" y="854.0" font-family="Arial, Helvetica, sans-serif" font-size="9" fill="#111" text-anchor="middle">Load-break</text><text x="134.0" y="864.0" font-family="Arial, Helvetica, sans-serif" font-size="9" fill="#111" text-anchor="middle">switch</text><rect x="198.0" y="816.0" width="8.0" height="22.0" fill="none" stroke="#111" stroke-width="2"/><line x1="202.0" y1="816.0" x2="202.0" y2="838.0" stroke="#111" stroke-width="2" stroke-linecap="round"/><line x1="202.0" y1="812.0" x2="202.0" y2="816.0" stroke="#111" stroke-width="2" stroke-linecap="round"/><line x1="202.0" y1="838.0" x2="202.0" y2="842.0" stroke="#111" stroke-width="2" stroke-linecap="round"/><text x="202.0" y="854.0" font-family="Arial, Helvetica, sans-serif" font-size="9" fill="#111" text-anchor="middle">Fuse</text><line x1="270.0" y1="812.0" x2="270.0" y2="815.0" stroke="#111" stroke-width="2" stroke-linecap="round"/><circle cx="270.0" cy="817.5" r="2.5" fill="none" stroke="#111" stroke-width="1.5"/><line x1="272.0" y1="820.0" x2="279.0" y2="822.0" stroke="#111" stroke-width="2" stroke-linecap="round"/><line x1="264.0" y1="822.0" x2="276.0" y2="822.0" stroke="#111" stroke-width="2" stroke-linecap="round"/><line x1="270.0" y1="822.0" x2="270.0" y2="831.0" stroke="#111" stroke-width="2" stroke-linecap="round"/><rect x="266.0" y="833.0" width="8.0" height="7.0" fill="none" stroke="#111" stroke-width="2"/><line x1="270.0" y1="831.0" x2="270.0" y2="833.0" stroke="#111" stroke-width="2" stroke-linecap="round"/><line x1="270.0" y1="840.0" x2="270.0" y2="842.0" stroke="#111" stroke-width="2" stroke-linecap="round"/><text x="270.0" y="854.0" font-family="Arial, Helvetica, sans-serif" font-size="9" fill="#111" text-anchor="middle">Fuse-switch</text><line x1="338.0" y1="814.0" x2="338.0" y2="816.0" stroke="#111" stroke-width="2" stroke-linecap="round"/><path d="M 334.0,820.0 A 4,4 0 0 1 342.0,820.0" fill="none" stroke="#111" stroke-width="2" stroke-linecap="round"/><line x1="340.0" y1="822.0" x2="346.0" y2="834.0" stroke="#111" stroke-width="2" stroke-linecap="round"/><line x1="338.0" y1="836.0" x2="338.0" y2="840.0" stroke="#111" stroke-width="2" stroke-linecap="round"/><line x1="338.0" y1="812.0" x2="338.0" y2="814.0" stroke="#111" stroke-width="2" stroke-linecap="round"/><line x1="338.0" y1="840.0" x2="338.0" y2="842.0" stroke="#111" stroke-width="2" stroke-linecap="round"/><text x="338.0" y="854.0" font-family="Arial, Helvetica, sans-serif" font-size="9" fill="#111" text-anchor="middle">Contactor</text><rect x="402.0" y="811.0" width="8.0" height="12.0" fill="none" stroke="#111" stroke-width="2"/><line x1="406.0" y1="811.0" x2="406.0" y2="823.0" stroke="#111" stroke-width="2" stroke-linecap="round"/><path d="M 402.0,827.0 A 4,4 0 0 1 410.0,827.0" fill="none" stroke="#111" stroke-width="2" stroke-linecap="round"/><line x1="408.0" y1="829.0" x2="413.0" y2="838.0" stroke="#111" stroke-width="2" stroke-linecap="round"/><line x1="406.0" y1="839.0" x2="406.0" y2="843.0" stroke="#111" stroke-width="2" stroke-linecap="round"/><line x1="406.0" y1="812.0" x2="406.0" y2="811.0" stroke="#111" stroke-width="2" stroke-linecap="round"/><line x1="406.0" y1="843.0" x2="406.0" y2="842.0" stroke="#111" stroke-width="2" stroke-linecap="round"/><text x="406.0" y="854.0" font-family="Arial, Helvetica, sans-serif" font-size="9" fill="#111" text-anchor="middle">Fused</text><text x="406.0" y="864.0" font-family="Arial, Helvetica, sans-serif" font-size="9" fill="#111" text-anchor="middle">contactor</text><circle cx="474.0" cy="822.0" r="8" fill="none" stroke="#111" stroke-width="2"/><circle cx="474.0" cy="832.0" r="8" fill="none" stroke="#111" stroke-width="2"/><text x="474.0" y="854.0" font-family="Arial, Helvetica, sans-serif" font-size="9" fill="#111" text-anchor="middle">Transformer</text><circle cx="542.0" cy="827.0" r="9" fill="none" stroke="#111" stroke-width="2"/><text x="542.0" y="830.5" font-family="Arial, Helvetica, sans-serif" font-size="9" fill="#111" text-anchor="middle" font-weight="bold">G</text><text x="542.0" y="854.0" font-family="Arial, Helvetica, sans-serif" font-size="9" fill="#111" text-anchor="middle">Generator</text><circle cx="610.0" cy="827.0" r="9" fill="none" stroke="#111" stroke-width="2"/><text x="610.0" y="830.5" font-family="Arial, Helvetica, sans-serif" font-size="9" fill="#111" text-anchor="middle" font-weight="bold">M</text><text x="610.0" y="854.0" font-family="Arial, Helvetica, sans-serif" font-size="9" fill="#111" text-anchor="middle">Pump/motor</text><line x1="664.0" y1="827.0" x2="692.0" y2="827.0" stroke="#111" stroke-width="5" stroke-linecap="round"/><text x="678.0" y="854.0" font-family="Arial, Helvetica, sans-serif" font-size="9" fill="#111" text-anchor="middle">Busbar</text><rect x="735.0" y="819.0" width="22.0" height="16.0" fill="none" stroke="#111" stroke-width="1.5"/><text x="746.0" y="830.0" font-family="Arial, Helvetica, sans-serif" font-size="6.5" fill="#111" text-anchor="middle">MCC</text><text x="746.0" y="854.0" font-family="Arial, Helvetica, sans-serif" font-size="9" fill="#111" text-anchor="middle">MCC</text><line x1="814.0" y1="814.0" x2="814.0" y2="831.0" stroke="#111" stroke-width="2" stroke-linecap="round"/><polygon points="808.0,831.0 820.0,831.0 814.0,842.0" fill="#111"/><text x="814.0" y="854.0" font-family="Arial, Helvetica, sans-serif" font-size="9" fill="#111" text-anchor="middle">Feeder</text><rect x="869.0" y="817.0" width="26.0" height="20.0" fill="none" stroke="#111" stroke-width="1.2" stroke-dasharray="4 3"/><text x="882.0" y="854.0" font-family="Arial, Helvetica, sans-serif" font-size="9" fill="#111" text-anchor="middle">RMU/MCC</text><text x="882.0" y="864.0" font-family="Arial, Helvetica, sans-serif" font-size="9" fill="#111" text-anchor="middle">enclosure</text></svg>