<svg xmlns="http://www.w3.org/2000/svg" width="1811" height="1234" viewBox="0 0 1811 1234"><rect width="100%" height="100%" fill="white"/><text x="24.0" y="1108.0" font-family="Arial, Helvetica, sans-serif" font-size="16" fill="#111" text-anchor="start" font-weight="bold">F2 Ring with spur — Single Line Diagram (sketch)</text><rect x="1277.4" y="300.0" width="106.0" height="118.0" fill="none" stroke="#111" stroke-width="1.6" stroke-dasharray="7 5"/><line x1="1323.4" y1="359.0" x2="1359.4" y2="359.0" stroke="#111" stroke-width="3.4" stroke-linecap="round"/><line x1="1341.4" y1="316.5" x2="1341.4" y2="318.5" stroke="#111" stroke-width="2" stroke-linecap="round"/><line x1="1337.9" y1="318.5" x2="1344.9" y2="325.5" stroke="#111" stroke-width="2" stroke-linecap="round"/><line x1="1337.9" y1="325.5" x2="1344.9" y2="318.5" stroke="#111" stroke-width="2" stroke-linecap="round"/><line x1="1343.4" y1="325.0" x2="1350.4" y2="333.5" stroke="#111" stroke-width="2" stroke-linecap="round"/><line x1="1335.4" y1="333.5" x2="1347.4" y2="333.5" stroke="#111" stroke-width="2" stroke-linecap="round"/><line x1="1341.4" y1="333.5" x2="1341.4" y2="342.5" stroke="#111" stroke-width="2" stroke-linecap="round"/><line x1="1341.4" y1="300.0" x2="1341.4" y2="316.5" stroke="#111" stroke-width="2" stroke-linecap="round"/><line x1="1341.4" y1="342.5" x2="1341.4" y2="359.0" stroke="#111" stroke-width="2" stroke-linecap="round"/><circle cx="1341.4" cy="359.0" r="3.2" fill="#111"/><line x1="1341.4" y1="363.0" x2="1341.4" y2="366.0" stroke="#111" stroke-width="2" stroke-linecap="round"/><circle cx="1341.4" cy="368.5" r="2.5" fill="none" stroke="#111" stroke-width="1.5"/><line x1="1343.4" y1="371.0" x2="1350.4" y2="381.5" stroke="#111" stroke-width="2" stroke-linecap="round"/><line x1="1335.4" y1="381.5" x2="1347.4" y2="381.5" stroke="#111" stroke-width="2" stroke-linecap="round"/><line x1="1341.4" y1="381.5" x2="1341.4" y2="390.5" stroke="#111" stroke-width="2" stroke-linecap="round"/><rect x="1337.4" y="392.5" width="8.0" height="15.5" fill="none" stroke="#111" stroke-width="2"/><line x1="1341.4" y1="390.5" x2="1341.4" y2="392.5" stroke="#111" stroke-width="2" stroke-linecap="round"/><line x1="1341.4" y1="408.0" x2="1341.4" y2="410.0" stroke="#111" stroke-width="2" stroke-linecap="round"/><line x1="1341.4" y1="359.0" x2="1341.4" y2="363.0" stroke="#111" stroke-width="2" stroke-linecap="round"/><line x1="1341.4" y1="410.0" x2="1341.4" y2="418.0" stroke="#111" stroke-width="2" stroke-linecap="round"/><circle cx="1341.4" cy="359.0" r="3.2" fill="#111"/><text x="1393.4" y="316.0" font-family="Arial, Helvetica, sans-serif" font-size="12" fill="#111" text-anchor="start" font-weight="bold">R1</text><text x="1393.4" y="331.0" font-family="Arial, Helvetica, sans-serif" font-size="12" fill="#111" text-anchor="start">RMU 1</text><text x="1393.4" y="346.0" font-family="Arial, Helvetica, sans-serif" font-size="12" fill="#111" text-anchor="start">630 A 11 kV</text><rect x="506.0" y="300.0" width="328.0" height="118.0" fill="none" stroke="#111" stroke-width="1.6" stroke-dasharray="7 5"/><line x1="552.0" y1="359.0" x2="788.0" y2="359.0" stroke="#111" stroke-width="3.4" stroke-linecap="round"/><line x1="570.0" y1="363.0" x2="570.0" y2="366.0" stroke="#111" stroke-width="2" stroke-linecap="round"/><circle cx="570.0" cy="368.5" r="2.5" fill="none" stroke="#111" stroke-width="1.5"/><line x1="572.0" y1="371.0" x2="579.0" y2="381.5" stroke="#111" stroke-width="2" stroke-linecap="round"/><line x1="564.0" y1="381.5" x2="576.0" y2="381.5" stroke="#111" stroke-width="2" stroke-linecap="round"/><line x1="570.0" y1="381.5" x2="570.0" y2="390.5" stroke="#111" stroke-width="2" stroke-linecap="round"/><rect x="566.0" y="392.5" width="8.0" height="15.5" fill="none" stroke="#111" stroke-width="2"/><line x1="570.0" y1="390.5" x2="570.0" y2="392.5" stroke="#111" stroke-width="2" stroke-linecap="round"/><line x1="570.0" y1="408.0" x2="570.0" y2="410.0" stroke="#111" stroke-width="2" stroke-linecap="round"/><line x1="570.0" y1="359.0" x2="570.0" y2="363.0" stroke="#111" stroke-width="2" stroke-linecap="round"/><line x1="570.0" y1="410.0" x2="570.0" y2="418.0" stroke="#111" stroke-width="2" stroke-linecap="round"/><circle cx="570.0" cy="359.0" r="3.2" fill="#111"/><line x1="770.0" y1="375.5" x2="770.0" y2="378.5" stroke="#111" stroke-width="2" stroke-linecap="round"/><circle cx="770.0" cy="381.0" r="2.5" fill="none" stroke="#111" stroke-width="1.5"/><line x1="772.0" y1="383.5" x2="779.0" y2="392.5" stroke="#111" stroke-width="2" stroke-linecap="round"/><line x1="764.0" y1="392.5" x2="776.0" y2="392.5" stroke="#111" stroke-width="2" stroke-linecap="round"/><line x1="770.0" y1="392.5" x2="770.0" y2="401.5" stroke="#111" stroke-width="2" stroke-linecap="round"/><line x1="770.0" y1="359.0" x2="770.0" y2="375.5" stroke="#111" stroke-width="2" stroke-linecap="round"/><line x1="770.0" y1="401.5" x2="770.0" y2="418.0" stroke="#111" stroke-width="2" stroke-linecap="round"/><circle cx="770.0" cy="359.0" r="3.2" fill="#111"/><text x="844.0" y="316.0" font-family="Arial, Helvetica, sans-serif" font-size="12" fill="#111" text-anchor="start" font-weight="bold">R2</text><text x="844.0" y="331.0" font-family="Arial, Helvetica, sans-serif" font-size="12" fill="#111" text-anchor="start">RMU 2</text><text x="844.0" y="346.0" font-family="Arial, Helvetica, sans-serif" font-size="12" fill="#111" text-anchor="start">630 A 11 kV</text><rect x="198.0" y="300.0" width="106.0" height="118.0" fill="none" stroke="#111" stroke-width="1.6" stroke-dasharray="7 5"/><line x1="222.0" y1="359.0" x2="258.0" y2="359.0" stroke="#111" stroke-width="3.4" stroke-linecap="round"/><line x1="240.0" y1="316.5" x2="240.0" y2="318.5" stroke="#111" stroke-width="2" stroke-linecap="round"/><line x1="236.5" y1="318.5" x2="243.5" y2="325.5" stroke="#111" stroke-width="2" stroke-linecap="round"/><line x1="236.5" y1="325.5" x2="243.5" y2="318.5" stroke="#111" stroke-width="2" stroke-linecap="round"/><line x1="242.0" y1="325.0" x2="249.0" y2="333.5" stroke="#111" stroke-width="2" stroke-linecap="round"/><line x1="234.0" y1="333.5" x2="246.0" y2="333.5" stroke="#111" stroke-width="2" stroke-linecap="round"/><line x1="240.0" y1="333.5" x2="240.0" y2="342.5" stroke="#111" stroke-width="2" stroke-linecap="round"/><line x1="240.0" y1="300.0" x2="240.0" y2="316.5" stroke="#111" stroke-width="2" stroke-linecap="round"/><line x1="240.0" y1="342.5" x2="240.0" y2="359.0" stroke="#111" stroke-width="2" stroke-linecap="round"/><circle cx="240.0" cy="359.0" r="3.2" fill="#111"/><line x1="240.0" y1="363.0" x2="240.0" y2="366.0" stroke="#111" stroke-width="2" stroke-linecap="round"/><circle cx="240.0" cy="368.5" r="2.5" fill="none" stroke="#111" stroke-width="1.5"/><line x1="242.0" y1="371.0" x2="249.0" y2="381.5" stroke="#111" stroke-width="2" stroke-linecap="round"/><line x1="234.0" y1="381.5" x2="246.0" y2="381.5" stroke="#111" stroke-width="2" stroke-linecap="round"/><line x1="240.0" y1="381.5" x2="240.0" y2="390.5" stroke="#111" stroke-width="2" stroke-linecap="round"/><rect x="236.0" y="392.5" width="8.0" height="15.5" fill="none" stroke="#111" stroke-width="2"/><line x1="240.0" y1="390.5" x2="240.0" y2="392.5" stroke="#111" stroke-width="2" stroke-linecap="round"/><line x1="240.0" y1="408.0" x2="240.0" y2="410.0" stroke="#111" stroke-width="2" stroke-linecap="round"/><line x1="240.0" y1="359.0" x2="240.0" y2="363.0" stroke="#111" stroke-width="2" stroke-linecap="round"/><line x1="240.0" y1="410.0" x2="240.0" y2="418.0" stroke="#111" stroke-width="2" stroke-linecap="round"/><circle cx="240.0" cy="359.0" r="3.2" fill="#111"/><text x="314.0" y="316.0" font-family="Arial, Helvetica, sans-serif" font-size="12" fill="#111" text-anchor="start" font-weight="bold">R3</text><text x="314.0" y="331.0" font-family="Arial, Helvetica, sans-serif" font-size="12" fill="#111" text-anchor="start">RMU 3</text><text x="314.0" y="346.0" font-family="Arial, Helvetica, sans-serif" font-size="12" fill="#111" text-anchor="start">630 A 11 kV</text><rect x="948.7" y="500.0" width="84.0" height="118.0" fill="none" stroke="#111" stroke-width="1.6" stroke-dasharray="7 5"/><line x1="972.7" y1="559.0" x2="1008.7" y2="559.0" stroke="#111" stroke-width="3.4" stroke-linecap="round"/><line x1="990.7" y1="512.0" x2="990.7" y2="515.0" stroke="#111" stroke-width="2" stroke-linecap="round"/><circle cx="990.7" cy="517.5" r="2.5" fill="none" stroke="#111" stroke-width="1.5"/><line x1="992.7" y1="520.0" x2="999.7" y2="550.0" stroke="#111" stroke-width="2" stroke-linecap="round"/><line x1="984.7" y1="550.0" x2="996.7" y2="550.0" stroke="#111" stroke-width="2" stroke-linecap="round"/><line x1="990.7" y1="550.0" x2="990.7" y2="559.0" stroke="#111" stroke-width="2" stroke-linecap="round"/><line x1="990.7" y1="500.0" x2="990.7" y2="512.0" stroke="#111" stroke-width="2" stroke-linecap="round"/><circle cx="990.7" cy="559.0" r="3.2" fill="#111"/><line x1="990.7" y1="563.0" x2="990.7" y2="566.0" stroke="#111" stroke-width="2" stroke-linecap="round"/><circle cx="990.7" cy="568.5" r="2.5" fill="none" stroke="#111" stroke-width="1.5"/><line x1="992.7" y1="571.0" x2="999.7" y2="581.5" stroke="#111" stroke-width="2" stroke-linecap="round"/><line x1="984.7" y1="581.5" x2="996.7" y2="581.5" stroke="#111" stroke-width="2" stroke-linecap="round"/><line x1="990.7" y1="581.5" x2="990.7" y2="590.5" stroke="#111" stroke-width="2" stroke-linecap="round"/><rect x="986.7" y="592.5" width="8.0" height="15.5" fill="none" stroke="#111" stroke-width="2"/><line x1="990.7" y1="590.5" x2="990.7" y2="592.5" stroke="#111" stroke-width="2" stroke-linecap="round"/><line x1="990.7" y1="608.0" x2="990.7" y2="610.0" stroke="#111" stroke-width="2" stroke-linecap="round"/><line x1="990.7" y1="559.0" x2="990.7" y2="563.0" stroke="#111" stroke-width="2" stroke-linecap="round"/><line x1="990.7" y1="610.0" x2="990.7" y2="618.0" stroke="#111" stroke-width="2" stroke-linecap="round"/><circle cx="990.7" cy="559.0" r="3.2" fill="#111"/><text x="1042.7" y="516.0" font-family="Arial, Helvetica, sans-serif" font-size="12" fill="#111" text-anchor="start" font-weight="bold">RS</text><text x="1042.7" y="531.0" font-family="Arial, Helvetica, sans-serif" font-size="12" fill="#111" text-anchor="start">Spur RMU</text><text x="1042.7" y="546.0" font-family="Arial, Helvetica, sans-serif" font-size="12" fill="#111" text-anchor="start">400 A 11 kV</text><line x1="834.0" y1="359.0" x2="1277.4" y2="359.0" stroke="#111" stroke-width="2" stroke-linecap="round"/><line x1="798.0" y1="359.0" x2="800.5" y2="359.0" stroke="#111" stroke-width="2" stroke-linecap="round"/><circle cx="803.0" cy="359.0" r="2.5" fill="none" stroke="#111" stroke-width="1.5"/><line x1="805.0" y1="357.5" x2="815.0" y2="350.0" stroke="#111" stroke-width="2" stroke-linecap="round"/><line x1="815.0" y1="353.0" x2="815.0" y2="365.0" stroke="#111" stroke-width="2" stroke-linecap="round"/><line x1="815.0" y1="359.0" x2="824.0" y2="359.0" stroke="#111" stroke-width="2" stroke-linecap="round"/><line x1="788.0" y1="359.0" x2="798.0" y2="359.0" stroke="#111" stroke-width="2" stroke-linecap="round"/><line x1="824.0" y1="359.0" x2="834.0" y2="359.0" stroke="#111" stroke-width="2" stroke-linecap="round"/><line x1="1287.4" y1="359.0" x2="1289.9" y2="359.0" stroke="#111" stroke-width="2" stroke-linecap="round"/><circle cx="1292.4" cy="359.0" r="2.5" fill="none" stroke="#111" stroke-width="1.5"/><line x1="1294.4" y1="357.5" x2="1304.4" y2="350.0" stroke="#111" stroke-width="2" stroke-linecap="round"/><line x1="1304.4" y1="353.0" x2="1304.4" y2="365.0" stroke="#111" stroke-width="2" stroke-linecap="round"/><line x1="1304.4" y1="359.0" x2="1313.4" y2="359.0" stroke="#111" stroke-width="2" stroke-linecap="round"/><line x1="1277.4" y1="359.0" x2="1287.4" y2="359.0" stroke="#111" stroke-width="2" stroke-linecap="round"/><line x1="1313.4" y1="359.0" x2="1323.4" y2="359.0" stroke="#111" stroke-width="2" stroke-linecap="round"/><line x1="304.0" y1="359.0" x2="506.0" y2="359.0" stroke="#111" stroke-width="2" stroke-linecap="round"/><text x="405.0" y="371.0" font-family="Arial, Helvetica, sans-serif" font-size="9" fill="#111" text-anchor="middle">N.O.</text><line x1="268.0" y1="359.0" x2="270.5" y2="359.0" stroke="#111" stroke-width="2" stroke-linecap="round"/><circle cx="273.0" cy="359.0" r="2.5" fill="none" stroke="#111" stroke-width="1.5"/><line x1="275.0" y1="357.5" x2="285.0" y2="350.0" stroke="#111" stroke-width="2" stroke-linecap="round"/><line x1="285.0" y1="353.0" x2="285.0" y2="365.0" stroke="#111" stroke-width="2" stroke-linecap="round"/><line x1="285.0" y1="359.0" x2="294.0" y2="359.0" stroke="#111" stroke-width="2" stroke-linecap="round"/><line x1="258.0" y1="359.0" x2="268.0" y2="359.0" stroke="#111" stroke-width="2" stroke-linecap="round"/><line x1="294.0" y1="359.0" x2="304.0" y2="359.0" stroke="#111" stroke-width="2" stroke-linecap="round"/><line x1="516.0" y1="359.0" x2="518.5" y2="359.0" stroke="#111" stroke-width="2" stroke-linecap="round"/><circle cx="521.0" cy="359.0" r="2.5" fill="none" stroke="#111" stroke-width="1.5"/><line x1="523.0" y1="357.5" x2="533.0" y2="350.0" stroke="#111" stroke-width="2" stroke-linecap="round"/><line x1="533.0" y1="353.0" x2="533.0" y2="365.0" stroke="#111" stroke-width="2" stroke-linecap="round"/><line x1="533.0" y1="359.0" x2="542.0" y2="359.0" stroke="#111" stroke-width="2" stroke-linecap="round"/><line x1="506.0" y1="359.0" x2="516.0" y2="359.0" stroke="#111" stroke-width="2" stroke-linecap="round"/><line x1="542.0" y1="359.0" x2="552.0" y2="359.0" stroke="#111" stroke-width="2" stroke-linecap="round"/><line x1="770.0" y1="418.0" x2="770.0" y2="440.0" stroke="#111" stroke-width="2" stroke-linecap="round"/><line x1="770.0" y1="440.0" x2="990.7" y2="440.0" stroke="#111" stroke-width="2" stroke-linecap="round"/><line x1="990.7" y1="440.0" x2="990.7" y2="500.0" stroke="#111" stroke-width="2" stroke-linecap="round"/><line x1="779.7" y1="62.0" x2="801.7" y2="62.0" stroke="#111" stroke-width="3" stroke-linecap="round"/><text x="790.7" y="18.0" font-family="Arial, Helvetica, sans-serif" font-size="11.5" fill="#111" text-anchor="middle" font-weight="bold">INC</text><text x="790.7" y="32.0" font-family="Arial, Helvetica, sans-serif" font-size="11.5" fill="#111" text-anchor="middle">Primary</text><text x="790.7" y="46.0" font-family="Arial, Helvetica, sans-serif" font-size="11.5" fill="#111" text-anchor="middle">11 kV</text><line x1="790.7" y1="122.0" x2="790.7" y2="124.0" stroke="#111" stroke-width="2" stroke-linecap="round"/><line x1="787.2" y1="124.0" x2="794.2" y2="131.0" stroke="#111" stroke-width="2" stroke-linecap="round"/><line x1="787.2" y1="131.0" x2="794.2" y2="124.0" stroke="#111" stroke-width="2" stroke-linecap="round"/><line x1="792.7" y1="130.5" x2="799.7" y2="139.0" stroke="#111" stroke-width="2" stroke-linecap="round"/><line x1="784.7" y1="139.0" x2="796.7" y2="139.0" stroke="#111" stroke-width="2" stroke-linecap="round"/><line x1="790.7" y1="139.0" x2="790.7" y2="148.0" stroke="#111" stroke-width="2" stroke-linecap="round"/><line x1="790.7" y1="62.0" x2="790.7" y2="122.0" stroke="#111" stroke-width="2" stroke-linecap="round"/><line x1="790.7" y1="148.0" x2="790.7" y2="208.0" stroke="#111" stroke-width="2" stroke-linecap="round"/><circle cx="790.7" cy="208.0" r="3.2" fill="#111"/><line x1="90.0" y1="208.0" x2="1491.4" y2="208.0" stroke="#111" stroke-width="5.5" stroke-linecap="round"/><circle cx="1341.4" cy="208.0" r="3.2" fill="#111"/><line x1="1341.4" y1="241.0" x2="1341.4" y2="243.0" stroke="#111" stroke-width="2" stroke-linecap="round"/><line x1="1337.9" y1="243.0" x2="1344.9" y2="250.0" stroke="#111" stroke-width="2" stroke-linecap="round"/><line x1="1337.9" y1="250.0" x2="1344.9" y2="243.0" stroke="#111" stroke-width="2" stroke-linecap="round"/><line x1="1343.4" y1="249.5" x2="1350.4" y2="258.0" stroke="#111" stroke-width="2" stroke-linecap="round"/><line x1="1335.4" y1="258.0" x2="1347.4" y2="258.0" stroke="#111" stroke-width="2" stroke-linecap="round"/><line x1="1341.4" y1="258.0" x2="1341.4" y2="267.0" stroke="#111" stroke-width="2" stroke-linecap="round"/><line x1="1341.4" y1="208.0" x2="1341.4" y2="241.0" stroke="#111" stroke-width="2" stroke-linecap="round"/><line x1="1341.4" y1="267.0" x2="1341.4" y2="300.0" stroke="#111" stroke-width="2" stroke-linecap="round"/><circle cx="240.0" cy="208.0" r="3.2" fill="#111"/><line x1="240.0" y1="241.0" x2="240.0" y2="243.0" stroke="#111" stroke-width="2" stroke-linecap="round"/><line x1="236.5" y1="243.0" x2="243.5" y2="250.0" stroke="#111" stroke-width="2" stroke-linecap="round"/><line x1="236.5" y1="250.0" x2="243.5" y2="243.0" stroke="#111" stroke-width="2" stroke-linecap="round"/><line x1="242.0" y1="249.5" x2="249.0" y2="258.0" stroke="#111" stroke-width="2" stroke-linecap="round"/><line x1="234.0" y1="258.0" x2="246.0" y2="258.0" stroke="#111" stroke-width="2" stroke-linecap="round"/><line x1="240.0" y1="258.0" x2="240.0" y2="267.0" stroke="#111" stroke-width="2" stroke-linecap="round"/><line x1="240.0" y1="208.0" x2="240.0" y2="241.0" stroke="#111" stroke-width="2" stroke-linecap="round"/><line x1="240.0" y1="267.0" x2="240.0" y2="300.0" stroke="#111" stroke-width="2" stroke-linecap="round"/><circle cx="1341.4" cy="692.0" r="19" fill="none" stroke="#111" stroke-width="2.2"/><circle cx="1341.4" cy="719.0" r="19" fill="none" stroke="#111" stroke-width="2.2"/><text x="1370.4" y="686.0" font-family="Arial, Helvetica, sans-serif" font-size="12" fill="#111" text-anchor="start">T1</text><text x="1370.4" y="701.0" font-family="Arial, Helvetica, sans-serif" font-size="12" fill="#111" text-anchor="start">Tx 1</text><text x="1370.4" y="716.0" font-family="Arial, Helvetica, sans-serif" font-size="12" fill="#111" text-anchor="start">800 kVA 11/0.4 kV</text><line x1="1341.4" y1="418.0" x2="1341.4" y2="673.0" stroke="#111" stroke-width="2" stroke-linecap="round"/><line x1="1341.4" y1="774.0" x2="1341.4" y2="776.0" stroke="#111" stroke-width="2" stroke-linecap="round"/><line x1="1337.9" y1="776.0" x2="1344.9" y2="783.0" stroke="#111" stroke-width="2" stroke-linecap="round"/><line x1="1337.9" y1="783.0" x2="1344.9" y2="776.0" stroke="#111" stroke-width="2" stroke-linecap="round"/><line x1="1343.4" y1="782.5" x2="1350.4" y2="791.0" stroke="#111" stroke-width="2" stroke-linecap="round"/><line x1="1335.4" y1="791.0" x2="1347.4" y2="791.0" stroke="#111" stroke-width="2" stroke-linecap="round"/><line x1="1341.4" y1="791.0" x2="1341.4" y2="800.0" stroke="#111" stroke-width="2" stroke-linecap="round"/><line x1="1341.4" y1="738.0" x2="1341.4" y2="774.0" stroke="#111" stroke-width="2" stroke-linecap="round"/><line x1="1341.4" y1="800.0" x2="1341.4" y2="836.0" stroke="#111" stroke-width="2" stroke-linecap="round"/><circle cx="1341.4" cy="836.0" r="3.2" fill="#111"/><circle cx="570.0" cy="692.0" r="19" fill="none" stroke="#111" stroke-width="2.2"/><circle cx="570.0" cy="719.0" r="19" fill="none" stroke="#111" stroke-width="2.2"/><text x="599.0" y="686.0" font-family="Arial, Helvetica, sans-serif" font-size="12" fill="#111" text-anchor="start">T2</text><text x="599.0" y="701.0" font-family="Arial, Helvetica, sans-serif" font-size="12" fill="#111" text-anchor="start">Tx 2</text><text x="599.0" y="716.0" font-family="Arial, Helvetica, sans-serif" font-size="12" fill="#111" text-anchor="start">800 kVA 11/0.4 kV</text><line x1="570.0" y1="418.0" x2="570.0" y2="673.0" stroke="#111" stroke-width="2" stroke-linecap="round"/><line x1="570.0" y1="774.0" x2="570.0" y2="776.0" stroke="#111" stroke-width="2" stroke-linecap="round"/><line x1="566.5" y1="776.0" x2="573.5" y2="783.0" stroke="#111" stroke-width="2" stroke-linecap="round"/><line x1="566.5" y1="783.0" x2="573.5" y2="776.0" stroke="#111" stroke-width="2" stroke-linecap="round"/><line x1="572.0" y1="782.5" x2="579.0" y2="791.0" stroke="#111" stroke-width="2" stroke-linecap="round"/><line x1="564.0" y1="791.0" x2="576.0" y2="791.0" stroke="#111" stroke-width="2" stroke-linecap="round"/><line x1="570.0" y1="791.0" x2="570.0" y2="800.0" stroke="#111" stroke-width="2" stroke-linecap="round"/><line x1="570.0" y1="738.0" x2="570.0" y2="774.0" stroke="#111" stroke-width="2" stroke-linecap="round"/><line x1="570.0" y1="800.0" x2="570.0" y2="836.0" stroke="#111" stroke-width="2" stroke-linecap="round"/><circle cx="570.0" cy="836.0" r="3.2" fill="#111"/><circle cx="240.0" cy="692.0" r="19" fill="none" stroke="#111" stroke-width="2.2"/><circle cx="240.0" cy="719.0" r="19" fill="none" stroke="#111" stroke-width="2.2"/><text x="269.0" y="686.0" font-family="Arial, Helvetica, sans-serif" font-size="12" fill="#111" text-anchor="start">T3</text><text x="269.0" y="701.0" font-family="Arial, Helvetica, sans-serif" font-size="12" fill="#111" text-anchor="start">Tx 3</text><text x="269.0" y="716.0" font-family="Arial, Helvetica, sans-serif" font-size="12" fill="#111" text-anchor="start">800 kVA 11/0.4 kV</text><line x1="240.0" y1="418.0" x2="240.0" y2="673.0" stroke="#111" stroke-width="2" stroke-linecap="round"/><line x1="240.0" y1="774.0" x2="240.0" y2="776.0" stroke="#111" stroke-width="2" stroke-linecap="round"/><line x1="236.5" y1="776.0" x2="243.5" y2="783.0" stroke="#111" stroke-width="2" stroke-linecap="round"/><line x1="236.5" y1="783.0" x2="243.5" y2="776.0" stroke="#111" stroke-width="2" stroke-linecap="round"/><line x1="242.0" y1="782.5" x2="249.0" y2="791.0" stroke="#111" stroke-width="2" stroke-linecap="round"/><line x1="234.0" y1="791.0" x2="246.0" y2="791.0" stroke="#111" stroke-width="2" stroke-linecap="round"/><line x1="240.0" y1="791.0" x2="240.0" y2="800.0" stroke="#111" stroke-width="2" stroke-linecap="round"/><line x1="240.0" y1="738.0" x2="240.0" y2="774.0" stroke="#111" stroke-width="2" stroke-linecap="round"/><line x1="240.0" y1="800.0" x2="240.0" y2="836.0" stroke="#111" stroke-width="2" stroke-linecap="round"/><circle cx="240.0" cy="836.0" r="3.2" fill="#111"/><circle cx="990.7" cy="692.0" r="19" fill="none" stroke="#111" stroke-width="2.2"/><circle cx="990.7" cy="719.0" r="19" fill="none" stroke="#111" stroke-width="2.2"/><text x="1019.7" y="686.0" font-family="Arial, Helvetica, sans-serif" font-size="12" fill="#111" text-anchor="start">TS</text><text x="1019.7" y="701.0" font-family="Arial, Helvetica, sans-serif" font-size="12" fill="#111" text-anchor="start">Spur tx</text><text x="1019.7" y="716.0" font-family="Arial, Helvetica, sans-serif" font-size="12" fill="#111" text-anchor="start">315 kVA 11/0.4 kV</text><line x1="990.7" y1="618.0" x2="990.7" y2="673.0" stroke="#111" stroke-width="2" stroke-linecap="round"/><line x1="990.7" y1="774.0" x2="990.7" y2="776.0" stroke="#111" stroke-width="2" stroke-linecap="round"/><line x1="987.2" y1="776.0" x2="994.2" y2="783.0" stroke="#111" stroke-width="2" stroke-linecap="round"/><line x1="987.2" y1="783.0" x2="994.2" y2="776.0" stroke="#111" stroke-width="2" stroke-linecap="round"/><line x1="992.7" y1="782.5" x2="999.7" y2="791.0" stroke="#111" stroke-width="2" stroke-linecap="round"/><line x1="984.7" y1="791.0" x2="996.7" y2="791.0" stroke="#111" stroke-width="2" stroke-linecap="round"/><line x1="990.7" y1="791.0" x2="990.7" y2="800.0" stroke="#111" stroke-width="2" stroke-linecap="round"/><line x1="990.7" y1="738.0" x2="990.7" y2="774.0" stroke="#111" stroke-width="2" stroke-linecap="round"/><line x1="990.7" y1="800.0" x2="990.7" y2="836.0" stroke="#111" stroke-width="2" stroke-linecap="round"/><circle cx="990.7" cy="836.0" r="3.2" fill="#111"/><line x1="1191.4" y1="836.0" x2="1491.4" y2="836.0" stroke="#111" stroke-width="5.5" stroke-linecap="round"/><line x1="420.0" y1="836.0" x2="720.0" y2="836.0" stroke="#111" stroke-width="5.5" stroke-linecap="round"/><line x1="90.0" y1="836.0" x2="390.0" y2="836.0" stroke="#111" stroke-width="5.5" stroke-linecap="round"/><line x1="826.9" y1="836.0" x2="1154.5" y2="836.0" stroke="#111" stroke-width="5.5" stroke-linecap="round"/><circle cx="1341.4" cy="836.0" r="3.2" fill="#111"/><line x1="1341.4" y1="853.0" x2="1341.4" y2="855.0" stroke="#111" stroke-width="2" stroke-linecap="round"/><line x1="1337.9" y1="855.0" x2="1344.9" y2="862.0" stroke="#111" stroke-width="2" stroke-linecap="round"/><line x1="1337.9" y1="862.0" x2="1344.9" y2="855.0" stroke="#111" stroke-width="2" stroke-linecap="round"/><line x1="1343.4" y1="861.5" x2="1350.4" y2="870.0" stroke="#111" stroke-width="2" stroke-linecap="round"/><line x1="1335.4" y1="870.0" x2="1347.4" y2="870.0" stroke="#111" stroke-width="2" stroke-linecap="round"/><line x1="1341.4" y1="870.0" x2="1341.4" y2="879.0" stroke="#111" stroke-width="2" stroke-linecap="round"/><line x1="1341.4" y1="836.0" x2="1341.4" y2="853.0" stroke="#111" stroke-width="2" stroke-linecap="round"/><line x1="1341.4" y1="879.0" x2="1341.4" y2="914.0" stroke="#111" stroke-width="2" stroke-linecap="round"/><polygon points="1335.4,913.0 1347.4,913.0 1341.4,924.0" fill="#111"/><text x="0" y="0" transform="translate(1345.4,942.0) rotate(90)" font-family="Arial, Helvetica, sans-serif" font-size="11" fill="#111" text-anchor="start">F1 · Feeder · 250 A</text><circle cx="570.0" cy="836.0" r="3.2" fill="#111"/><line x1="570.0" y1="853.0" x2="570.0" y2="855.0" stroke="#111" stroke-width="2" stroke-linecap="round"/><line x1="566.5" y1="855.0" x2="573.5" y2="862.0" stroke="#111" stroke-width="2" stroke-linecap="round"/><line x1="566.5" y1="862.0" x2="573.5" y2="855.0" stroke="#111" stroke-width="2" stroke-linecap="round"/><line x1="572.0" y1="861.5" x2="579.0" y2="870.0" stroke="#111" stroke-width="2" stroke-linecap="round"/><line x1="564.0" y1="870.0" x2="576.0" y2="870.0" stroke="#111" stroke-width="2" stroke-linecap="round"/><line x1="570.0" y1="870.0" x2="570.0" y2="879.0" stroke="#111" stroke-width="2" stroke-linecap="round"/><line x1="570.0" y1="836.0" x2="570.0" y2="853.0" stroke="#111" stroke-width="2" stroke-dasharray="5 4" stroke-linecap="round"/><line x1="570.0" y1="879.0" x2="570.0" y2="914.0" stroke="#111" stroke-width="2" stroke-dasharray="5 4" stroke-linecap="round"/><polygon points="564.0,913.0 576.0,913.0 570.0,924.0" fill="#111"/><text x="0" y="0" transform="translate(574.0,942.0) rotate(90)" font-family="Arial, Helvetica, sans-serif" font-size="11" fill="#111" text-anchor="start">F2 · Feeder · 250 A</text><circle cx="240.0" cy="836.0" r="3.2" fill="#111"/><line x1="240.0" y1="853.0" x2="240.0" y2="855.0" stroke="#111" stroke-width="2" stroke-linecap="round"/><line x1="236.5" y1="855.0" x2="243.5" y2="862.0" stroke="#111" stroke-width="2" stroke-linecap="round"/><line x1="236.5" y1="862.0" x2="243.5" y2="855.0" stroke="#111" stroke-width="2" stroke-linecap="round"/><line x1="242.0" y1="861.5" x2="249.0" y2="870.0" stroke="#111" stroke-width="2" stroke-linecap="round"/><line x1="234.0" y1="870.0" x2="246.0" y2="870.0" stroke="#111" stroke-width="2" stroke-linecap="round"/><line x1="240.0" y1="870.0" x2="240.0" y2="879.0" stroke="#111" stroke-width="2" stroke-linecap="round"/><line x1="240.0" y1="836.0" x2="240.0" y2="853.0" stroke="#111" stroke-width="2" stroke-linecap="round"/><line x1="240.0" y1="879.0" x2="240.0" y2="914.0" stroke="#111" stroke-width="2" stroke-linecap="round"/><polygon points="234.0,913.0 246.0,913.0 240.0,924.0" fill="#111"/><text x="0" y="0" transform="translate(244.0,942.0) rotate(90)" font-family="Arial, Helvetica, sans-serif" font-size="11" fill="#111" text-anchor="start">F3 · Feeder · 250 A</text><circle cx="990.7" cy="836.0" r="3.2" fill="#111"/><line x1="990.7" y1="853.0" x2="990.7" y2="855.0" stroke="#111" stroke-width="2" stroke-linecap="round"/><line x1="987.2" y1="855.0" x2="994.2" y2="862.0" stroke="#111" stroke-width="2" stroke-linecap="round"/><line x1="987.2" y1="862.0" x2="994.2" y2="855.0" stroke="#111" stroke-width="2" stroke-linecap="round"/><line x1="992.7" y1="861.5" x2="999.7" y2="870.0" stroke="#111" stroke-width="2" stroke-linecap="round"/><line x1="984.7" y1="870.0" x2="996.7" y2="870.0" stroke="#111" stroke-width="2" stroke-linecap="round"/><line x1="990.7" y1="870.0" x2="990.7" y2="879.0" stroke="#111" stroke-width="2" stroke-linecap="round"/><line x1="990.7" y1="836.0" x2="990.7" y2="853.0" stroke="#111" stroke-width="2" stroke-linecap="round"/><line x1="990.7" y1="879.0" x2="990.7" y2="914.0" stroke="#111" stroke-width="2" stroke-linecap="round"/><polygon points="984.7,913.0 996.7,913.0 990.7,924.0" fill="#111"/><text x="0" y="0" transform="translate(994.7,942.0) rotate(90)" font-family="Arial, Helvetica, sans-serif" font-size="11" fill="#111" text-anchor="start">FS · Feeder · 100 A</text><text x="90.0" y="196.0" font-family="Arial, Helvetica, sans-serif" font-size="11.5" fill="#111" text-anchor="start" font-weight="bold">PB Primary board 1250 A 11 kV</text><text x="1191.4" y="824.0" font-family="Arial, Helvetica, sans-serif" font-size="11.5" fill="#111" text-anchor="start" font-weight="bold">L1 LV 1 1250 A 400 V</text><text x="420.0" y="824.0" font-family="Arial, Helvetica, sans-serif" font-size="11.5" fill="#111" text-anchor="start" font-weight="bold">L2 LV 2 1250 A 400 V</text><text x="90.0" y="824.0" font-family="Arial, Helvetica, sans-serif" font-size="11.5" fill="#111" text-anchor="start" font-weight="bold">L3 LV 3 1250 A 400 V</text><text x="826.9" y="824.0" font-family="Arial, Helvetica, sans-serif" font-size="11.5" fill="#111" text-anchor="start" font-weight="bold">LS LV spur 500 A 400 V</text><rect x="1499.4" y="1018.0" width="288.0" height="96.0" fill="none" stroke="#111" stroke-width="1.5"/><line x1="1499.4" y1="1042.0" x2="1787.4" y2="1042.0" stroke="#111" stroke-width="1.5" stroke-linecap="round"/><text x="1509.4" y="1035.0" font-family="Arial, Helvetica, sans-serif" font-size="12" fill="#111" text-anchor="start" font-weight="bold">SLD SKETCH — SITE SURVEY</text><text x="1509.4" y="1058.0" font-family="Arial, Helvetica, sans-serif" font-size="11" fill="#111" text-anchor="start" font-weight="bold">Site:</text><text x="1557.4" y="1058.0" font-family="Arial, Helvetica, sans-serif" font-size="11" fill="#111" text-anchor="start">F2 Ring with spur</text><text x="1509.4" y="1074.0" font-family="Arial, Helvetica, sans-serif" font-size="11" fill="#111" text-anchor="start" font-weight="bold">Date:</text><text x="1509.4" y="1090.0" font-family="Arial, Helvetica, sans-serif" font-size="11" fill="#111" text-anchor="start" font-weight="bold">By:</text><text x="1509.4" y="1106.0" font-family="Arial, Helvetica, sans-serif" font-size="11" fill="#111" text-anchor="start" font-weight="bold">Notes:</text><text x="1557.4" y="1106.0" font-family="Arial, Helvetica, sans-serif" font-size="11" fill="#111" text-anchor="start">one RMU hung off the ring; links…</text><rect x="24.0" y="1140.0" width="900.0" height="82.0" fill="none" stroke="#111" stroke-width="1.2"/><text x="32.0" y="1154.0" font-family="Arial, Helvetica, sans-serif" font-size="10" fill="#111" text-anchor="start" font-weight="bold">LEGEND</text><line x1="66.0" y1="1164.0" x2="66.0" y2="1166.0" stroke="#111" stroke-width="2" stroke-linecap="round"/><line x1="62.5" y1="1166.0" x2="69.5" y2="1173.0" stroke="#111" stroke-width="2" stroke-linecap="round"/><line x1="62.5" y1="1173.0" x2="69.5" y2="1166.0" stroke="#111" stroke-width="2" stroke-linecap="round"/><line x1="68.0" y1="1172.5" x2="75.0" y2="1181.0" stroke="#111" stroke-width="2" stroke-linecap="round"/><line x1="60.0" y1="1181.0" x2="72.0" y2="1181.0" stroke="#111" stroke-width="2" stroke-linecap="round"/><line x1="66.0" y1="1181.0" x2="66.0" y2="1190.0" stroke="#111" stroke-width="2" stroke-linecap="round"/><line x1="66.0" y1="1162.0" x2="66.0" y2="1164.0" stroke="#111" stroke-width="2" stroke-linecap="round"/><line x1="66.0" y1="1190.0" x2="66.0" y2="1192.0" stroke="#111" stroke-width="2" stroke-linecap="round"/><text x="66.0" y="1204.0" font-family="Arial, Helvetica, sans-serif" font-size="9" fill="#111" text-anchor="middle">Circuit</text><text x="66.0" y="1214.0" font-family="Arial, Helvetica, sans-serif" font-size="9" fill="#111" text-anchor="middle">breaker</text><line x1="134.0" y1="1162.0" x2="134.0" y2="1165.0" stroke="#111" stroke-width="2" stroke-linecap="round"/><circle cx="134.0" cy="1167.5" r="2.5" fill="none" stroke="#111" stroke-width="1.5"/><line x1="136.0" y1="1170.0" x2="143.0" y2="1183.0" stroke="#111" stroke-width="2" stroke-linecap="round"/><line x1="128.0" y1="1183.0" x2="140.0" y2="1183.0" stroke="#111" stroke-width="2" stroke-linecap="round"/><line x1="134.0" y1="1183.0" x2="134.0" y2="1192.0" stroke="#111" stroke-width="2" stroke-linecap="round"/><text x="134.0" y="1204.0" font-family="Arial, Helvetica, sans-serif" font-size="9" fill="#111" text-anchor="middle">Load-break</text><text x="134.0" y="1214.0" font-family="Arial, Helvetica, sans-serif" font-size="9" fill="#111" text-anchor="middle">switch</text><rect x="198.0" y="1166.0" width="8.0" height="22.0" fill="none" stroke="#111" stroke-width="2"/><line x1="202.0" y1="1166.0" x2="202.0" y2="1188.0" stroke="#111" stroke-width="2" stroke-linecap="round"/><line x1="202.0" y1="1162.0" x2="202.0" y2="1166.0" stroke="#111" stroke-width="2" stroke-linecap="round"/><line x1="202.0" y1="1188.0" x2="202.0" y2="1192.0" stroke="#111" stroke-width="2" stroke-linecap="round"/><text x="202.0" y="1204.0" font-family="Arial, Helvetica, sans-serif" font-size="9" fill="#111" text-anchor="middle">Fuse</text><line x1="270.0" y1="1162.0" x2="270.0" y2="1165.0" stroke="#111" stroke-width="2" stroke-linecap="round"/><circle cx="270.0" cy="1167.5" r="2.5" fill="none" stroke="#111" stroke-width="1.5"/><line x1="272.0" y1="1170.0" x2="279.0" y2="1172.0" stroke="#111" stroke-width="2" stroke-linecap="round"/><line x1="264.0" y1="1172.0" x2="276.0" y2="1172.0" stroke="#111" stroke-width="2" stroke-linecap="round"/><line x1="270.0" y1="1172.0" x2="270.0" y2="1181.0" stroke="#111" stroke-width="2" stroke-linecap="round"/><rect x="266.0" y="1183.0" width="8.0" height="7.0" fill="none" stroke="#111" stroke-width="2"/><line x1="270.0" y1="1181.0" x2="270.0" y2="1183.0" stroke="#111" stroke-width="2" stroke-linecap="round"/><line x1="270.0" y1="1190.0" x2="270.0" y2="1192.0" stroke="#111" stroke-width="2" stroke-linecap="round"/><text x="270.0" y="1204.0" font-family="Arial, Helvetica, sans-serif" font-size="9" fill="#111" text-anchor="middle">Fuse-switch</text><line x1="338.0" y1="1164.0" x2="338.0" y2="1166.0" stroke="#111" stroke-width="2" stroke-linecap="round"/><path d="M 334.0,1170.0 A 4,4 0 0 1 342.0,1170.0" fill="none" stroke="#111" stroke-width="2" stroke-linecap="round"/><line x1="340.0" y1="1172.0" x2="346.0" y2="1184.0" stroke="#111" stroke-width="2" stroke-linecap="round"/><line x1="338.0" y1="1186.0" x2="338.0" y2="1190.0" stroke="#111" stroke-width="2" stroke-linecap="round"/><line x1="338.0" y1="1162.0" x2="338.0" y2="1164.0" stroke="#111" stroke-width="2" stroke-linecap="round"/><line x1="338.0" y1="1190.0" x2="338.0" y2="1192.0" stroke="#111" stroke-width="2" stroke-linecap="round"/><text x="338.0" y="1204.0" font-family="Arial, Helvetica, sans-serif" font-size="9" fill="#111" text-anchor="middle">Contactor</text><rect x="402.0" y="1161.0" width="8.0" height="12.0" fill="none" stroke="#111" stroke-width="2"/><line x1="406.0" y1="1161.0" x2="406.0" y2="1173.0" stroke="#111" stroke-width="2" stroke-linecap="round"/><path d="M 402.0,1177.0 A 4,4 0 0 1 410.0,1177.0" fill="none" stroke="#111" stroke-width="2" stroke-linecap="round"/><line x1="408.0" y1="1179.0" x2="413.0" y2="1188.0" stroke="#111" stroke-width="2" stroke-linecap="round"/><line x1="406.0" y1="1189.0" x2="406.0" y2="1193.0" stroke="#111" stroke-width="2" stroke-linecap="round"/><line x1="406.0" y1="1162.0" x2="406.0" y2="1161.0" stroke="#111" stroke-width="2" stroke-linecap="round"/><line x1="406.0" y1="1193.0" x2="406.0" y2="1192.0" stroke="#111" stroke-width="2" stroke-linecap="round"/><text x="406.0" y="1204.0" font-family="Arial, Helvetica, sans-serif" font-size="9" fill="#111" text-anchor="middle">Fused</text><text x="406.0" y="1214.0" font-family="Arial, Helvetica, sans-serif" font-size="9" fill="#111" text-anchor="middle">contactor</text><circle cx="474.0" cy="1172.0" r="8" fill="none" stroke="#111" stroke-width="2"/><circle cx="474.0" cy="1182.0" r="8" fill="none" stroke="#111" stroke-width="2"/><text x="474.0" y="1204.0" font-family="Arial, Helvetica, sans-serif" font-size="9" fill="#111" text-anchor="middle">Transformer</text><circle cx="542.0" cy="1177.0" r="9" fill="none" stroke="#111" stroke-width="2"/><text x="542.0" y="1180.5" font-family="Arial, Helvetica, sans-serif" font-size="9" fill="#111" text-anchor="middle" font-weight="bold">G</text><text x="542.0" y="1204.0" font-family="Arial, Helvetica, sans-serif" font-size="9" fill="#111" text-anchor="middle">Generator</text><circle cx="610.0" cy="1177.0" r="9" fill="none" stroke="#111" stroke-width="2"/><text x="610.0" y="1180.5" font-family="Arial, Helvetica, sans-serif" font-size="9" fill="#111" text-anchor="middle" font-weight="bold">M</text><text x="610.0" y="1204.0" font-family="Arial, Helvetica, sans-serif" font-size="9" fill="#111" text-anchor="middle">Pump/motor</text><line x1="664.0" y1="1177.0" x2="692.0" y2="1177.0" stroke="#111" stroke-width="5" stroke-linecap="round"/><text x="678.0" y="1204.0" font-family="Arial, Helvetica, sans-serif" font-size="9" fill="#111" text-anchor="middle">Busbar</text><rect x="735.0" y="1169.0" width="22.0" height="16.0" fill="none" stroke="#111" stroke-width="1.5"/><text x="746.0" y="1180.0" font-family="Arial, Helvetica, sans-serif" font-size="6.5" fill="#111" text-anchor="middle">MCC</text><text x="746.0" y="1204.0" font-family="Arial, Helvetica, sans-serif" font-size="9" fill="#111" text-anchor="middle">MCC</text><line x1="814.0" y1="1164.0" x2="814.0" y2="1181.0" stroke="#111" stroke-width="2" stroke-linecap="round"/><polygon points="808.0,1181.0 820.0,1181.0 814.0,1192.0" fill="#111"/><text x="814.0" y="1204.0" font-family="Arial, Helvetica, sans-serif" font-size="9" fill="#111" text-anchor="middle">Feeder</text><rect x="869.0" y="1167.0" width="26.0" height="20.0" fill="none" stroke="#111" stroke-width="1.2" stroke-dasharray="4 3"/><text x="882.0" y="1204.0" font-family="Arial, Helvetica, sans-serif" font-size="9" fill="#111" text-anchor="middle">RMU/MCC</text><text x="882.0" y="1214.0" font-family="Arial, Helvetica, sans-serif" font-size="9" fill="#111" text-anchor="middle">enclosure</text></svg>